<svg width="60" height="60" viewBox="0 0 60 60" fill="none" xmlns="http://www.w3.org/2000/svg">
<circle cx="30" cy="30" r="30" fill="#00A481"/>
<path fill-rule="evenodd" clip-rule="evenodd" d="M23.9063 38.4153C21.9842 38.7664 21.741 39.0341 20.5623 39.0341C15.4216 39.0341 11.1006 34.9675 11.1006 29.826C11.1006 24.6845 15.2753 20.4075 20.416 20.4075C21.7072 20.4075 22.9875 20.718 24.1469 21.2221C25.3064 21.7261 27.2092 21.4673 28.7088 20.0527C30.8535 18.2746 33.6073 17.3333 36.6107 17.3333C43.4531 17.3333 49 22.8811 49 29.7246C49 36.5681 43.5507 42.3187 36.7082 42.3187C33.5765 42.3187 30.8901 41.4444 28.7088 39.5278C27.1546 37.9974 25.8284 38.0642 23.9063 38.4153Z" fill="white"/>
<path fill-rule="evenodd" clip-rule="evenodd" d="M21.04 29.8387V29.7325C20.8965 28.6071 19.9168 27.7548 18.7524 27.7548C17.489 27.7548 16.4648 28.779 16.4648 30.0424C16.4648 31.3059 17.489 32.3301 18.7524 32.3301C19.1319 32.3301 19.4898 32.2377 19.8048 32.0742L20.4722 33.4462C19.9555 33.7078 19.3712 33.8552 18.7524 33.8552C16.6467 33.8552 14.9397 32.1481 14.9397 30.0424C14.9397 27.9367 16.6467 26.2297 18.7524 26.2297C20.6416 26.2297 22.3023 27.606 22.6048 29.4092V32.2446C22.6664 32.3267 22.7411 32.3872 22.829 32.426C22.9169 32.4647 23.0111 32.5007 23.1116 32.534L22.5431 33.8769C22.1712 33.7782 21.8504 33.6233 21.5807 33.4121C21.3109 33.2008 21.1307 32.934 21.04 32.6116V29.8387Z" fill="#00A481"/>
<path fill-rule="evenodd" clip-rule="evenodd" d="M23.9631 24.5775H25.3611V31.8064L26.6586 32.3554L26.0646 33.7566V33.7566C24.7898 33.211 23.9631 31.958 23.9631 30.5714V24.5775Z" fill="#00A481"/>
<path fill-rule="evenodd" clip-rule="evenodd" d="M35.0198 24.5775H36.4178V31.8064L37.7152 32.3554L37.1212 33.7566V33.7566C35.8465 33.211 35.0198 31.958 35.0198 30.5714V24.5775Z" fill="#00A481"/>
<path fill-rule="evenodd" clip-rule="evenodd" d="M26.8862 30.1569C26.8862 30.9118 27.1015 31.6165 27.474 32.2128L28.9901 31.5409C28.9887 31.539 28.9872 31.5372 28.9858 31.5353L33.5739 29.5157L33.5716 29.5104L34.5116 29.0938C34.0492 27.4642 32.5503 26.2706 30.7725 26.2706C28.6262 26.2706 26.8862 28.0105 26.8862 30.1569ZM32.3747 28.5678C31.9659 28.1556 31.399 27.9003 30.7725 27.9003C29.5263 27.9003 28.516 28.9106 28.516 30.1569C28.516 30.1977 28.5171 30.2382 28.5192 30.2785L32.3747 28.5678Z" fill="#00A481"/>
<path fill-rule="evenodd" clip-rule="evenodd" d="M28.6128 33.3102L29.5375 31.9149C29.5375 31.9149 31.0316 32.74 32.2559 31.7209C32.9072 32.352 33.4443 32.8585 33.4443 32.8585C33.4443 32.8585 32.2372 33.875 31.1308 33.9784C30.0243 34.0819 28.6128 33.3102 28.6128 33.3102Z" fill="#00A481"/>
<path fill-rule="evenodd" clip-rule="evenodd" d="M38.358 28.4385L39.8442 29.21C39.6853 29.5162 39.5955 29.8641 39.5955 30.233C39.5955 31.4613 40.5913 32.457 41.8196 32.457C42.4004 32.457 42.9292 32.2344 43.3254 31.8698L44.3366 32.9761C43.6577 33.6007 42.7514 33.9821 41.7561 33.9821C39.6504 33.9821 37.9434 32.2751 37.9434 30.1694C37.9434 29.5462 38.0929 28.958 38.358 28.4385V28.4385Z" fill="#00A481"/>
<path fill-rule="evenodd" clip-rule="evenodd" d="M39.2402 27.3043C39.9116 26.7144 40.7919 26.3567 41.7558 26.3567C43.8615 26.3567 45.5685 28.0637 45.5685 30.1694C45.5685 30.7401 45.4431 31.2816 45.2184 31.7677L43.886 31.0564C43.9876 30.8017 44.0434 30.5239 44.0434 30.2329C44.0434 29.0046 43.0477 28.0089 41.8193 28.0089C41.2543 28.0089 40.7385 28.2196 40.3462 28.5667L39.2402 27.3043H39.2402Z" fill="#D3E201"/>
<rect opacity="0.01" x="11" y="11" width="38" height="38" fill="#FF0000"/>
</svg>
