<svg width="1200" height="1200" viewBox="0 0 1200 1200" fill="none" xmlns="http://www.w3.org/2000/svg">
<g clip-path="url(#clip0_929_588)">
<path d="M600 1200C931.371 1200 1200 931.371 1200 600C1200 268.629 931.371 0 600 0C268.629 0 0 268.629 0 600C0 931.371 268.629 1200 600 1200Z" fill="#DC4868"/>
<path d="M919.555 481.418V481.515L826.412 389.305C815.159 378.265 800.012 372.078 784.233 372.078C768.454 372.078 753.307 378.265 742.054 389.305L642.079 488.272C630.852 499.349 615.703 505.561 599.918 505.561C584.132 505.561 568.983 499.349 557.756 488.272L457.782 389.305C446.529 378.265 431.381 372.078 415.603 372.078C399.824 372.078 384.677 378.265 373.424 389.305L280.281 481.515V481.418C267.861 493.75 260.622 510.346 260.038 527.823C259.455 545.3 265.572 562.34 277.141 575.47C277.266 575.613 557.748 853.266 557.748 853.266C568.974 864.343 584.123 870.555 599.909 870.555C615.694 870.555 630.843 864.343 642.07 853.266C642.07 853.266 922.552 575.613 922.676 575.47C934.246 562.34 940.363 545.3 939.78 527.823C939.196 510.346 931.957 493.75 919.537 481.418H919.555Z" fill="white"/>
<path opacity="0.5" d="M557.737 488.273C568.971 499.35 584.125 505.561 599.916 505.561C615.706 505.561 630.861 499.35 642.095 488.273L742.043 389.279C752.71 378.738 766.969 372.602 781.97 372.098V372H417.844V372.098C432.858 372.602 447.128 378.741 457.807 389.288L557.737 488.273Z" fill="white"/>
</g>
<defs>
<clipPath id="clip0_929_588">
<rect width="1200" height="1200" fill="white"/>
</clipPath>
</defs>
</svg>
