<svg width="1200" height="1200" viewBox="0 0 1200 1200" fill="none" xmlns="http://www.w3.org/2000/svg">
<g clip-path="url(#clip0_853_1430)">
<path d="M600 1200C931.371 1200 1200 931.371 1200 600C1200 268.629 931.371 0 600 0C268.629 0 0 268.629 0 600C0 931.371 268.629 1200 600 1200Z" fill="#002520"/>
<path d="M599.53 796.423C479.529 796.423 381.91 697.015 381.91 574.811C381.91 452.608 479.529 353.138 599.53 353.138C719.532 353.138 817.15 452.548 817.15 574.751C817.15 629.057 797.837 678.851 765.829 717.463L792.11 787.945C848.626 734.961 884 659.066 884 574.691C884.119 414.72 756.735 285 599.53 285C442.324 285 315 414.72 315 574.751C315 734.782 442.383 864.502 599.53 864.502C629.412 864.502 658.231 859.752 685.338 851.092L662.601 786.863C642.64 793.056 621.498 796.363 599.53 796.363V796.423Z" fill="white"/>
<path d="M387.343 915.561H462.875C464.765 915.561 466.477 914.355 467.127 912.492L485.021 861.073C459.922 851.39 436.477 838.278 415.335 822.164L383.091 909.363C381.969 912.373 384.154 915.62 387.343 915.62V915.561Z" fill="white"/>
<path d="M601.775 553.342L729.04 912.552C729.688 914.357 731.401 915.621 733.292 915.621H811.717C814.908 915.621 817.09 912.374 815.969 909.365L654.334 475.762C647.366 457.059 632.129 442.265 613.054 437.574C583.231 430.237 554.117 446.835 543.841 474.62L456.262 711.509C474.569 731.053 496.302 747.23 520.514 759.018L592.03 553.342C593.684 548.651 600.18 548.651 601.834 553.342H601.775Z" fill="white"/>
</g>
<defs>
<clipPath id="clip0_853_1430">
<rect width="1200" height="1200" fill="white"/>
</clipPath>
</defs>
</svg>
