<svg width="60" height="60" viewBox="0 0 60 60" fill="none" xmlns="http://www.w3.org/2000/svg">
<g clip-path="url(#clip0_613_2064)">
<path d="M0 30C0 13.4315 13.4315 0 30 0V0C46.5685 0 60 13.4315 60 30V30C60 46.5685 46.5685 60 30 60V60C13.4315 60 0 46.5685 0 30V30Z" fill="#F0B90B"/>
<g clip-path="url(#clip1_613_2064)">
<path d="M19.91 29.5L15.99 33.42L12 29.5L15.99 25.51L19.91 29.5ZM29.5 19.91L36.29 26.7L40.28 22.71L29.5 12L18.79 22.71L22.78 26.7L29.5 19.91ZM43.01 25.51L39.09 29.5L43.08 33.49L47 29.5L43.01 25.51ZM29.5 39.09L22.71 32.3L18.72 36.29L29.5 47L40.21 36.29L36.29 32.3L29.5 39.09ZM29.5 33.42L33.49 29.43L29.5 25.51L25.51 29.5L29.5 33.42Z" fill="white"/>
</g>
</g>
<defs>
<clipPath id="clip0_613_2064">
<rect width="60" height="60" rx="30" fill="white"/>
</clipPath>
<clipPath id="clip1_613_2064">
<rect width="35" height="35" fill="white" transform="translate(12 12)"/>
</clipPath>
</defs>
</svg>
