<svg width="1200" height="1200" viewBox="0 0 1200 1200" fill="none" xmlns="http://www.w3.org/2000/svg">
<g clip-path="url(#clip0_1051_149)">
<path d="M600 1200C931.371 1200 1200 931.371 1200 600C1200 268.629 931.371 0 600 0C268.629 0 0 268.629 0 600C0 931.371 268.629 1200 600 1200Z" fill="#F7B733"/>
<path fill-rule="evenodd" clip-rule="evenodd" d="M308 309H892V891H453.674V745.824H676.662C721.423 745.824 758.859 719.061 758.859 662.937C758.859 624.493 744.047 605.515 718.004 596.269C736.397 586.537 746.651 569.019 746.651 537.063C746.651 478.507 707.262 454.176 646.388 454.176H453.674V745.987H308V309ZM683.986 542.579C683.986 510.948 651.271 512.084 627.832 512.084H517.152V573.236H630.437C659.897 573.236 683.824 572.101 683.824 542.579H683.986ZM641.342 688.079C672.431 688.079 696.194 686.132 696.194 656.124C696.194 628.549 678.778 624.168 649.318 624.168H517.315V688.079H641.505H641.342Z" fill="#101010"/>
</g>
<defs>
<clipPath id="clip0_1051_149">
<rect width="1200" height="1200" fill="white"/>
</clipPath>
</defs>
</svg>
