<svg width="1200" height="1200" viewBox="0 0 1200 1200" fill="none" xmlns="http://www.w3.org/2000/svg">
<g clip-path="url(#clip0_944_10)">
<path d="M600 1200C931.371 1200 1200 931.371 1200 600C1200 268.629 931.371 0 600 0C268.629 0 0 268.629 0 600C0 931.371 268.629 1200 600 1200Z" fill="#462A71"/>
<path d="M743.68 547.875C721.38 547.875 706.907 556.117 693.219 577.698C683.439 554.545 665.442 548.27 649.013 548.27C636.103 548.27 618.501 552.59 609.115 569.85L607.158 557.294C606.956 555.777 606.21 554.384 605.059 553.375C603.908 552.365 602.43 551.806 600.898 551.802H574.3C573.422 551.795 572.552 551.963 571.741 552.296C570.929 552.629 570.192 553.121 569.573 553.742C568.953 554.363 568.464 555.101 568.133 555.913C567.802 556.725 567.636 557.595 567.645 558.471V704.031C567.636 704.907 567.802 705.777 568.133 706.589C568.464 707.401 568.953 708.139 569.573 708.76C570.192 709.381 570.929 709.873 571.741 710.206C572.552 710.539 573.422 710.707 574.3 710.7H605.206C606.083 710.706 606.952 710.537 607.762 710.203C608.573 709.869 609.309 709.378 609.927 708.757C610.546 708.136 611.034 707.398 611.365 706.587C611.695 705.776 611.86 704.907 611.851 704.031V625.559C611.851 607.515 621.241 590.643 638.449 590.643C656.446 590.643 665.053 604.377 665.053 625.175V703.637C665.044 704.513 665.209 705.382 665.54 706.194C665.87 707.006 666.359 707.744 666.978 708.365C667.597 708.985 668.334 709.477 669.145 709.81C669.956 710.144 670.825 710.312 671.702 710.306H702.215C703.092 710.312 703.961 710.144 704.772 709.81C705.583 709.477 706.32 708.985 706.939 708.365C707.558 707.744 708.047 707.006 708.377 706.194C708.708 705.382 708.873 704.513 708.864 703.637V625.17C708.864 607.121 716.687 591.427 734.29 591.427C751.892 591.427 759.715 604.771 759.715 624.382V703.642C759.706 704.518 759.872 705.387 760.204 706.199C760.535 707.01 761.025 707.748 761.644 708.368C762.263 708.988 763 709.479 763.812 709.812C764.623 710.145 765.492 710.313 766.369 710.306H797.661C798.537 710.312 799.407 710.144 800.218 709.81C801.029 709.477 801.765 708.985 802.384 708.365C803.003 707.744 803.492 707.006 803.823 706.194C804.154 705.382 804.319 704.513 804.31 703.637V623.603C803.921 564.752 774.971 547.875 743.68 547.875ZM462.814 547.097C444.033 547.097 426.436 552.979 412.742 569.855V482.359C412.742 478.827 409.612 475.689 406.093 475.689H372.45C368.541 475.689 365.801 478.438 365.801 482.359V704.031C365.801 707.563 368.931 710.7 372.455 710.7H401.789C404.92 710.7 408.05 708.346 408.444 705.208L410.396 690.297C425.263 709.523 443.255 713.843 463.598 713.843C510.539 713.843 542.614 680.494 542.614 630.662C542.22 578.481 509.366 547.097 462.814 547.097ZM457.727 671.465C435.042 671.465 416.656 653.027 416.656 630.273C416.656 607.515 435.042 589.077 457.727 589.077C480.417 589.077 498.803 607.515 498.803 630.273C498.803 653.027 480.417 671.465 457.727 671.465ZM713.168 472.941C706.518 472.941 701.825 476.079 699.085 479.611V461.177C699.085 460.389 698.695 460 697.911 460H690.478C689.699 460 689.305 460.394 689.305 461.177V516.497C689.305 517.285 689.699 517.674 690.478 517.674H697.522C698.301 517.674 698.695 517.28 698.695 516.497V511.004C701.431 515.319 706.518 518.068 713.557 518.068C726.467 518.068 733.9 507.866 733.9 495.704C733.511 483.147 726.077 472.941 713.168 472.941ZM711.211 509.039C703.388 509.039 699.085 503.152 699.085 495.305C699.085 487.458 703.777 481.576 711.211 481.576C718.644 481.576 723.337 487.458 723.337 495.305C723.337 503.152 718.644 509.039 711.211 509.039ZM819.177 472.941C812.138 472.941 807.44 476.083 805.878 479.611V475.295C805.878 474.512 805.488 474.118 804.704 474.118H797.661C796.882 474.118 796.487 474.512 796.487 475.3V516.492C796.487 517.28 796.882 517.674 797.661 517.674H805.488C806.267 517.674 806.661 517.28 806.661 516.492V492.172C806.661 485.497 810.57 481.576 817.22 481.576C821.918 481.576 825.826 485.497 825.826 490.206V516.492C825.826 517.28 826.221 517.674 827 517.674H834.822C835.606 517.674 835.996 517.28 835.996 516.492V489.817C835.606 480.005 829.74 472.941 819.177 472.941ZM866.118 481.571C871.205 481.571 874.725 484.32 876.287 488.246V488.64C876.287 489.029 877.071 489.423 877.461 489.423H884.894C885.678 489.423 886.067 489.029 886.067 488.241C886.067 488.241 886.067 485.891 884.11 482.359V481.965C884.11 481.965 884.11 481.571 883.721 481.571C881.375 478.044 877.855 476.083 877.855 476.083C874.725 474.118 870.811 472.941 866.118 472.941C853.209 472.941 844.213 483.142 844.213 495.305C844.213 507.861 853.209 517.669 866.118 517.669C870.811 517.669 874.725 516.492 877.855 514.531C877.855 514.531 881.375 512.571 883.721 509.039C883.721 509.039 883.721 508.645 884.11 508.645C884.11 508.645 884.11 508.25 884.505 508.25V507.856C886.462 504.723 886.462 502.369 886.462 502.369C886.462 501.581 886.067 501.187 885.288 501.187H877.855C877.461 501.187 876.682 501.581 876.682 501.975C875.114 505.901 871.595 508.645 866.508 508.645C859.469 508.645 854.776 502.758 854.776 494.916C854.382 487.458 858.685 481.576 866.118 481.576V481.571ZM915.796 472.941C902.107 472.941 893.111 483.532 893.111 495.305C893.111 507.078 901.718 517.669 915.796 517.669C929.879 517.669 938.485 507.472 938.485 495.305C938.485 483.142 929.489 472.941 915.796 472.941ZM915.796 509.039C908.757 509.039 903.28 503.546 903.28 495.305C903.28 487.069 908.757 481.576 915.796 481.576C923.229 481.576 928.316 487.069 928.316 495.305C928.316 503.94 922.84 509.039 915.796 509.039ZM783.188 474.118H776.538C775.755 474.118 775.365 474.512 775.365 475.3V480.399C772.625 476.079 767.543 473.335 760.499 473.335C747.589 473.335 740.16 483.532 740.16 495.699C740.16 507.861 747.589 518.063 760.499 518.063C767.148 518.063 772.235 515.314 775.365 510.999V516.886C775.365 517.669 775.755 518.063 776.538 518.063H783.577C784.361 518.063 784.751 517.669 784.751 516.881V475.295C784.361 474.507 783.972 474.118 783.188 474.118ZM762.455 509.039C755.022 509.039 750.329 503.152 750.329 495.305C750.329 487.458 755.022 481.576 762.455 481.576C770.278 481.576 774.582 487.458 774.582 495.305C774.971 503.152 770.278 509.039 762.455 509.039Z" fill="white"/>
<path d="M233.176 563.507C233.176 555.692 240.218 549.442 248.033 550.61C289.841 556.865 321.889 592.811 321.889 636.577C321.889 704.565 267.179 719.41 243.734 722.54C237.874 723.32 233.181 718.63 233.181 713.16V563.507H233.176Z" fill="#FA6300"/>
<path d="M164.772 641.634H203.464C219.879 641.634 233.172 628.293 233.172 611.814V476.833C233.187 475.544 232.944 474.265 232.459 473.071C231.973 471.877 231.254 470.792 230.345 469.879C229.435 468.966 228.352 468.244 227.16 467.755C225.967 467.266 224.69 467.019 223.401 467.03H205.808C177.671 467.025 155 489.78 155 518.028V631.426C155 636.919 159.3 641.624 164.772 641.624V641.634ZM969.143 688.716C992.985 676.552 1003.54 654.58 1004.32 631.037C1004.32 611.42 999.24 595.33 990.641 582.383L1005.49 565.121C1007.84 562.372 1007.45 557.662 1004.32 555.312L980.48 536.867C977.353 534.512 973.053 535.301 971.098 538.05L958.199 554.918C945.694 549.031 931.622 546.287 917.551 546.287C871.821 546.287 829.218 574.146 829.218 629.859C829.218 680.868 864.005 712.654 917.551 712.654C946.866 712.654 957.416 724.817 957.416 740.902C957.416 761.307 938.267 771.116 917.162 771.116C896.836 771.116 880.42 764.446 876.904 743.257C876.51 740.119 873.387 737.764 870.26 737.764H838.601C834.69 737.764 831.562 740.902 831.956 744.828C834.301 787.595 863.616 813.099 917.162 813.099C962.109 813.099 1005.88 789.556 1005.88 740.513C1005.49 732.271 1005.49 705.195 969.143 688.716ZM916.768 670.67C894.097 670.67 875.731 652.226 875.731 629.47C875.731 606.71 894.097 588.27 916.768 588.27C939.439 588.27 957.81 606.71 957.81 629.47C957.81 652.23 939.439 670.67 916.768 670.67Z" fill="white"/>
</g>
<defs>
<clipPath id="clip0_944_10">
<rect width="1200" height="1200" fill="white"/>
</clipPath>
</defs>
</svg>
