<svg width="1200" height="1200" viewBox="0 0 1200 1200" fill="none" xmlns="http://www.w3.org/2000/svg">
<g clip-path="url(#clip0_1062_553)">
<path d="M600 1200C931.371 1200 1200 931.371 1200 600C1200 268.629 931.371 0 600 0C268.629 0 0 268.629 0 600C0 931.371 268.629 1200 600 1200Z" fill="#17278C"/>
<path fill-rule="evenodd" clip-rule="evenodd" d="M939.516 475.214C939.516 475.214 904.3 475.092 867.081 475.214C829.863 475.336 820.438 503.74 820.438 503.74L727.363 743.726L763.597 837.112C800.775 836.966 810.199 808.587 810.199 808.587L939.516 475.214Z" fill="#4FC8E3"/>
<path fill-rule="evenodd" clip-rule="evenodd" d="M665.111 583.243L665.021 583.015C665.017 582.988 665.017 582.961 665.021 582.934L664.956 582.779C656.817 562.365 639.913 545.534 620.437 532.482C639.97 515.416 652.112 489.979 652.112 461.584C652.112 420.608 616.799 368.441 515.382 368.441H337.452V505.281H264V583.974H337.436V725.382H524.44C540.556 725.488 556.626 723.657 572.305 719.928L572.507 719.88C583.907 717.137 594.928 713.01 605.323 707.592L644.511 808.609C644.511 808.609 653.944 837.004 691.147 837.134C728.349 837.264 763.582 837.134 763.582 837.134L665.111 583.243ZM443.004 447.142H508.748C537.706 447.142 546.756 462.185 546.756 476.22C546.756 490.255 537.747 505.2 508.977 505.281H443.004V447.142ZM443.004 583.966H512.713C543.404 583.966 552.999 599.91 552.999 614.791C552.999 629.671 543.452 645.519 512.956 645.609H443.004V583.966Z" fill="white"/>
<path opacity="0.8" d="M567.336 609.606C567.336 609.606 559.491 583.852 516.877 583.852H513.857V583.974C543.636 584.372 552.988 600.106 552.988 614.791C552.988 629.639 543.441 645.519 512.945 645.608H443.001V583.892L337.449 583.974V725.381H524.437C540.553 725.488 556.624 723.657 572.301 719.928L572.504 719.879C583.904 717.137 594.925 713.01 605.32 707.591L567.336 609.606Z" fill="url(#paint0_linear_1062_553)"/>
<path d="M337.436 583.975H264L337.436 617.733V583.975Z" fill="url(#paint1_linear_1062_553)"/>
</g>
<defs>
<linearGradient id="paint0_linear_1062_553" x1="420.358" y1="676.852" x2="466.074" y2="597.554" gradientUnits="userSpaceOnUse">
<stop stop-color="white"/>
<stop offset="1" stop-color="#D7D7D7"/>
</linearGradient>
<linearGradient id="paint1_linear_1062_553" x1="293.967" y1="603.329" x2="304.632" y2="584.831" gradientUnits="userSpaceOnUse">
<stop stop-color="#86C9E0"/>
<stop offset="1" stop-color="#56808E"/>
</linearGradient>
<clipPath id="clip0_1062_553">
<rect width="1200" height="1200" fill="white"/>
</clipPath>
</defs>
</svg>
