<svg width="1200" height="1200" viewBox="0 0 1200 1200" fill="none" xmlns="http://www.w3.org/2000/svg">
<g clip-path="url(#clip0_853_1108)">
<path d="M600 1200C931.371 1200 1200 931.371 1200 600C1200 268.629 931.371 0 600 0C268.629 0 0 268.629 0 600C0 931.371 268.629 1200 600 1200Z" fill="black"/>
<path d="M481.851 672.673C493.477 662.452 501.078 649.042 504.642 632.43H619.504C614.235 679.912 595.161 718.38 562.303 747.835C529.435 777.278 488.977 792 440.931 792C405.896 792 374.347 784.285 346.285 768.857C318.238 753.415 296.33 731.957 280.6 704.495C264.871 677.032 257 646.187 257 612C257 577.8 264.871 546.968 280.6 519.505C296.33 492.043 318.238 470.572 346.285 455.143C374.347 439.715 405.896 432 440.931 432C488.196 432 528.129 446.207 560.676 474.622C593.236 503.035 612.453 540.283 618.337 586.35H505.105C500.297 571.153 492.08 558.925 480.452 549.668C468.838 540.412 455.814 535.783 441.379 535.783C421.549 535.783 405.538 542.777 393.372 556.792C381.193 570.805 375.116 589.205 375.116 612C375.116 634.628 381.245 652.963 393.487 666.965C405.741 680.978 421.689 687.985 441.379 687.985C456.737 687.985 470.223 682.882 481.851 672.673ZM889.529 579.073C911.835 600.532 923 628.265 923 662.285C923 701.165 910.155 732.497 884.478 756.308C858.801 780.095 824.945 792 782.949 792C741.414 792 707.662 780.055 681.651 756.18C655.628 732.292 642.643 701.332 642.643 663.287C642.643 642.51 646.207 621.605 653.346 600.57C660.486 579.535 671.511 556.535 686.458 531.565L739.261 443.533L850.815 443.507L788.36 547.393C794.59 547.058 799.513 546.892 803.127 546.892C838.405 546.892 867.198 557.627 889.529 579.073ZM814.203 694.208C822.24 686.005 826.254 675.36 826.254 662.285C826.254 649.208 822.24 638.485 814.203 630.103C806.166 621.72 795.744 617.542 782.937 617.542C770.142 617.542 759.72 621.72 751.683 630.103C743.646 638.485 739.62 649.208 739.62 662.285C739.62 675.347 743.632 686.005 751.683 694.208C759.72 702.425 770.142 706.525 782.937 706.525C795.744 706.525 806.153 702.412 814.203 694.208Z" fill="white"/>
</g>
<defs>
<clipPath id="clip0_853_1108">
<rect width="1200" height="1200" fill="white"/>
</clipPath>
</defs>
</svg>
