<svg width="1200" height="1200" viewBox="0 0 1200 1200" fill="none" xmlns="http://www.w3.org/2000/svg">
<g clip-path="url(#clip0_1051_409)">
<path d="M600 1200C931.371 1200 1200 931.371 1200 600C1200 268.629 931.371 0 600 0C268.629 0 0 268.629 0 600C0 931.371 268.629 1200 600 1200Z" fill="black"/>
<path d="M264.35 729.143C263.68 726.909 263.011 724.675 263.176 720.297C267.931 686.414 253.538 661.366 235.211 637.462C214.829 610.879 215.289 583.819 234.53 557.247C239.929 549.792 242.745 540.462 246.746 531.993C246.746 531.993 246.756 532.03 247.793 531.916C250.51 530.06 252.527 528.535 253.82 526.54C271.989 498.501 267.406 464.771 276.689 434.495C276.689 434.495 276.905 434.871 277.808 434.723C283.287 428.755 287.861 422.936 292.436 417.117C292.436 417.117 292.416 416.843 293.706 416.893C307.839 412.897 320.703 408.918 333.516 404.785C345.756 400.838 358.3 397.521 369.956 392.253C373.887 390.477 375.506 383.573 378.181 379.013C378.181 379.013 378.547 378.796 379.567 378.909C380.894 378.017 381.201 377.012 381.508 376.007C381.508 376.007 381.798 375.919 382.9 376.197C385.732 373.698 387.463 370.92 389.193 368.142C389.193 368.142 389.196 368.185 390.226 368.105C401.496 357.675 411.737 347.326 421.977 336.977C421.977 336.977 422.361 337.495 423.389 337.546C432.546 335.797 440.758 332.206 448.786 332.58C464.231 333.3 479.551 337.664 494.961 337.891C509.435 338.105 524.552 336.9 538.31 332.748C555.381 327.596 570.775 316.313 587.969 312.308C601.76 309.096 617.155 312.788 631.838 313.416C631.838 313.416 631.66 313.561 631.806 314.525C661.521 339.32 694.974 346.891 731.73 338.179C763.607 330.623 786.831 342.387 806.122 367.368C815.211 379.139 822.687 394.246 840.753 395.495C840.753 395.495 840.752 395.489 841.142 396.487C863.706 405.703 885.878 413.921 908.051 422.139C908.051 422.139 907.612 422.545 907.991 423.149C909.435 424.001 910.5 424.25 911.565 424.5C911.565 424.5 911.637 424.732 911.383 425.806C915.02 429.518 918.911 432.156 922.802 434.795C922.802 434.795 922.584 434.908 922.597 436.027C927.267 456.963 932.033 476.755 936.52 496.611C938.048 503.373 937.321 511.079 940.308 516.995C949.026 534.262 959.636 550.565 968.492 567.769C978.163 586.554 987.556 605.31 972.881 626.813C966.339 636.4 963.47 648.5 958.933 659.459C958.933 659.459 958.946 659.467 957.856 659.551C953.516 665.734 950.266 671.833 947.017 677.932C947.017 677.932 946.872 677.728 945.97 678.167C940.632 692.774 933.898 706.667 932.174 721.158C926.163 771.666 905.864 780.727 874.354 792.553C858.47 798.514 842.209 803.732 827.022 811.143C821.635 813.772 818.925 821.9 814.992 827.518C814.992 827.518 814.748 827.452 813.817 827.465C812.498 828.5 812.109 829.523 811.721 830.545C811.721 830.545 811.494 830.601 810.976 830.403C810.056 830.298 809.654 830.389 809.252 830.481C809.523 831.168 809.793 831.855 810.064 832.543C808.733 834.306 807.402 836.069 804.734 837.583C802.099 837.89 800.365 838.086 799.564 839.054C779.107 863.789 753.521 870.611 722.564 863.432C713.033 861.222 702.346 864.005 692.188 864.502C688.966 864.73 685.744 864.957 680.433 864.351C660.104 864.257 642.841 867.22 631.677 884.068C631.677 884.068 631.642 883.996 630.4 883.957C612.635 884.946 596.087 886.987 579.6 886.578C571.32 886.372 563.151 881.709 554.931 879.062C554.931 879.062 555.533 877.888 555.173 877.369C531.505 858.268 505.257 852.737 476.45 859.647C448.05 866.459 421.547 866.571 401.66 840.468C398.366 836.145 395.811 830.943 391.726 827.607C383.187 820.633 373.854 814.633 364.848 808.232C364.848 808.232 364.94 808.14 364.529 807.23C344.772 784.986 316.409 786.575 292.076 777.917C292.076 777.917 292.217 777.811 292.132 776.815C284.97 763.931 277.889 752.045 270.82 740.152C268.646 736.493 266.506 732.813 264.35 729.143ZM801.879 623.898C787.516 581.433 773.142 538.973 758.8 496.501C756.122 488.568 755.507 479.647 742.914 480.462C731 481.234 720.392 478.843 714.007 494.462C690.357 552.309 664.95 609.435 640.344 666.892C634.705 680.059 630.507 694.428 611.735 691.364C611.735 698.713 611.735 704.36 611.735 710.658C635.16 710.658 657.24 710.658 679.625 710.658C683.542 700.054 684.671 691.974 669.38 690.954C666.065 690.733 660.178 684.142 660.524 681.052C663.337 655.943 674.95 646.36 700.19 646.635C708.763 646.729 717.342 646.622 725.908 646.91C754.067 647.858 747.934 641.775 757.029 670.378C763.186 689.738 763.021 689.791 739.115 695.768C742.883 701.902 745.969 711.675 749.426 711.808C780.477 713.004 811.593 712.507 842.996 712.507C842.996 705.834 842.996 700.127 842.996 693.643C827.957 695.169 822.608 686.856 819.117 674.848C814.338 658.416 808.169 642.39 801.879 623.898ZM450.415 478.361C430.663 482.498 413.354 491.199 399.497 506.108C372.894 534.73 365.722 569.699 368.381 607.104C373.301 676.317 425.556 719.932 490.832 710.059C505.341 707.864 519.57 700.75 534.353 709.941C536.951 711.555 541.848 709.462 545.944 709.055C545.944 687.048 545.944 666.148 545.944 645.618C533.704 642.334 527.703 644.623 524.814 657.654C519.749 680.504 507.403 689.686 485.871 690.835C463.871 692.009 448.904 683.952 441.896 661.588C427.675 616.208 426.094 570.179 444.229 525.202C452.381 504.982 467.688 494.904 484.172 496.022C505.879 497.493 518.657 507.265 523.866 530.809C526.985 544.911 533.736 546.2 545.947 542.608C545.947 521.815 545.947 500.919 545.947 476.848C538.142 479.098 532.006 481.1 525.748 482.591C521.332 483.644 515.887 485.927 512.388 484.352C493.164 475.695 473.305 475.579 450.415 478.361ZM655.624 572.029C647.685 570.844 637.73 566.151 632.276 569.292C623.959 574.081 618.755 584.289 611.591 592.969C606.893 585.546 602.451 578.526 597.996 571.485C620.555 557.884 626.308 547.671 619.809 534.409C613.263 521.052 592.844 515.903 575.685 523.282C559.672 530.167 556.108 543.36 564.075 567.255C559.609 570.195 553.342 572.196 550.792 576.438C545.407 585.397 538.985 595.374 538.48 605.216C537.846 617.591 547.566 626.368 559.819 629.392C567.965 631.403 577.319 633.603 584.958 631.482C599.247 627.514 612.61 626.577 627.02 630.48C634.208 632.427 643.92 633.082 643.607 620.641C636.291 617.422 629.528 614.446 620.069 610.283C633.486 596.643 644.396 585.551 655.624 572.029Z" fill="white"/>
<path d="M959.943 659.69C963.557 649.209 966.382 637.059 972.825 627.432C987.277 605.839 978.026 587.006 968.503 568.142C959.782 550.867 949.332 534.496 940.748 517.157C937.806 511.216 938.521 503.479 937.016 496.688C932.598 476.75 927.904 456.875 923.379 435.754C929.096 453.499 936.612 472.136 939.912 491.521C943.565 512.983 950.544 532.124 962.329 550.161C993.176 597.373 992.698 612.452 959.943 659.69Z" fill="white"/>
<path d="M840.719 395.174C823.143 394.79 815.647 379.788 806.534 368.099C787.193 343.291 763.908 331.609 731.949 339.112C695.098 347.765 661.557 340.246 631.812 315.52C635.352 316.055 639.328 317.155 642.575 319.327C669.225 337.147 698.28 341.995 729.342 335.021C762.995 327.465 789.462 336.982 810.226 364.807C818.503 375.898 830.098 384.554 840.719 395.174Z" fill="white"/>
<path d="M365.797 809.982C374.346 815.378 383.667 821.275 392.196 828.128C396.276 831.406 398.827 836.518 402.116 840.765C421.979 866.414 448.449 866.304 476.813 859.61C505.583 852.821 531.799 858.255 555.165 877.614C525.802 861.668 494.571 860.358 461.787 866.88C436.686 871.873 415.147 864.038 398.009 844.789C387.716 833.229 376.851 822.163 365.797 809.982Z" fill="white"/>
<path d="M816.672 826.514C819.705 821.353 822.395 813.23 827.743 810.602C842.816 803.196 858.956 797.98 874.72 792.022C905.994 780.203 926.142 771.147 932.108 720.667C933.82 706.185 940.503 692.299 945.923 677.725C942.681 695.937 937.059 714.373 934.459 733.233C929.745 767.424 911.797 787.971 878.427 795.582C855.789 800.745 833.913 807.945 816.672 826.514Z" fill="white"/>
<path d="M245.239 533.445C242.169 541.486 239.35 550.798 233.948 558.24C214.691 584.762 214.23 611.772 234.629 638.305C252.971 662.165 267.375 687.167 262.711 719.808C258.452 691.355 247.938 665.082 230.544 640.705C207.553 608.482 208.939 583.665 232.125 551.012C236.184 545.294 240.244 539.576 245.239 533.445Z" fill="white"/>
<path d="M631.813 312.996C617.684 313.291 602.229 309.651 588.384 312.818C571.123 316.767 555.669 327.891 538.531 332.97C524.719 337.064 509.544 338.252 495.013 338.041C479.543 337.817 464.163 333.514 448.658 332.805C440.598 332.436 432.354 335.976 422.906 337.505C435.495 325.596 452.304 326.948 467.703 330.322C504.496 338.382 538.232 335.126 570.511 314.355C589.307 302.259 610.543 301.986 631.813 312.996Z" fill="white"/>
<path d="M693.434 864.984C702.379 864.12 713.134 861.389 722.725 863.557C753.877 870.601 779.625 863.908 800.211 839.64C801.018 838.689 802.762 838.497 804.65 838.543C787.915 865.08 763.808 875.592 732.351 870.254C719.89 868.139 707.262 866.963 693.434 864.984Z" fill="white"/>
<path d="M275.619 435.754C267.559 465.278 271.992 498.766 254.415 526.604C253.164 528.585 251.213 530.098 248.566 531.941C254.1 508.18 260.588 484.287 267.245 460.444C269.511 452.328 272.202 444.337 275.619 435.754Z" fill="white"/>
<path d="M377.82 380.146C376.03 384.298 374.398 391.208 370.434 392.986C358.679 398.259 346.028 401.579 333.685 405.53C320.763 409.666 307.79 413.649 293.656 417.72C308.688 411.481 325.12 405.716 341.047 398.802C353.331 393.469 364.98 386.693 377.82 380.146Z" fill="white"/>
<path d="M555.164 880.619C562.884 882.377 571.071 886.968 579.369 887.17C595.891 887.574 612.475 885.564 630.31 884.615C605.489 901.805 580.32 897.706 555.164 880.619Z" fill="white"/>
<path d="M292.152 778.422C316.071 786.177 344.512 784.581 364.293 806.977C340.66 798.42 316.646 788.891 292.152 778.422Z" fill="white"/>
<path d="M908.35 422.227C886.313 414.67 863.716 406.188 840.719 396.678C862.809 404.2 885.3 412.752 908.35 422.227Z" fill="white"/>
<path d="M263.598 730.328C266.073 732.904 268.255 736.579 270.473 740.233C277.683 752.111 284.905 763.981 292.153 776.919C271.118 769.28 266.896 750.542 263.598 730.328Z" fill="white"/>
<path d="M633.316 883.626C643.422 867.068 660.733 864.131 679.907 864.088C665.329 871.013 649.868 877.25 633.316 883.626Z" fill="white"/>
<path d="M421.405 338.064C411.964 347.975 401.444 358.01 389.844 368.123C399.285 358.197 409.805 348.193 421.405 338.064Z" fill="white"/>
<path d="M292.15 417.719C288.247 423.567 283.267 429.656 277.121 435.754C280.995 429.828 286.034 423.893 292.15 417.719Z" fill="white"/>
<path d="M948.93 677.725C951.07 672.068 954.017 665.924 957.947 659.689C955.866 665.479 952.801 671.358 948.93 677.725Z" fill="white"/>
<path d="M923.379 434.251C919.378 432.708 915.174 430.252 911.355 426.736C915.553 428.231 919.364 430.784 923.379 434.251Z" fill="white"/>
<path d="M388.341 369.625C387.61 372.056 386.173 374.811 383.832 377.14C384.497 374.459 386.065 372.203 388.341 369.625Z" fill="white"/>
<path d="M911.357 424.989C910.665 425.502 909.619 425.224 908.352 423.988C909.088 423.419 910.046 423.809 911.357 424.989Z" fill="white"/>
<path d="M812.248 831.023C811.991 830.15 812.313 829.022 813.386 828.018C814.012 829.293 813.575 830.169 812.248 831.023Z" fill="white"/>
<path d="M811.177 832.526C809.954 832.197 809.555 831.65 809.156 831.103C809.749 831.03 810.341 830.958 811.762 831.128C812.591 831.371 812 832.309 811.177 832.526Z" fill="white"/>
<path d="M380.721 377.141C381.005 377.612 380.718 378.207 379.612 378.644C378.966 377.955 379.418 377.548 380.721 377.141Z" fill="white"/>
<path d="M802.932 625.009C808.868 642.299 815.043 658.274 819.825 674.652C823.32 686.622 828.672 694.908 843.724 693.387C843.724 699.85 843.724 705.538 843.724 712.19C812.295 712.19 781.153 712.686 750.077 711.493C746.618 711.361 743.529 701.619 739.758 695.506C763.683 689.547 763.848 689.495 757.687 670.197C748.584 641.686 754.722 647.75 726.54 646.805C717.967 646.518 709.381 646.624 700.801 646.531C675.54 646.256 663.918 655.809 661.102 680.837C660.756 683.917 666.648 690.486 669.966 690.707C685.27 691.724 684.139 699.777 680.219 710.347C657.815 710.347 635.717 710.347 612.273 710.347C612.273 704.069 612.273 698.441 612.273 691.116C631.061 694.17 635.263 679.847 640.906 666.722C665.532 609.45 690.96 552.509 714.629 494.849C721.02 479.279 731.636 481.663 743.56 480.894C756.163 480.081 756.778 488.973 759.459 496.881C773.812 539.216 788.199 581.539 802.932 625.009ZM733.238 587.256C728.88 572.433 724.522 557.61 719.169 539.404C706.175 570.586 694.551 598.477 682.232 628.036C704.269 628.036 723.946 628.036 744.969 628.036C741.133 614.482 737.605 602.021 733.238 587.256Z" fill="black"/>
<path d="M451.527 479.279C473.191 476.734 493.135 476.85 512.442 485.495C515.956 487.068 521.424 484.788 525.859 483.737C532.144 482.248 538.306 480.248 546.145 478.001C546.145 502.041 546.145 522.909 546.145 543.675C533.881 547.262 527.102 545.975 523.969 531.891C518.738 508.378 505.905 498.619 484.105 497.15C467.551 496.034 452.178 506.098 443.99 526.292C425.778 571.209 427.366 617.177 441.647 662.497C448.685 684.832 463.717 692.878 485.811 691.706C507.435 690.559 519.835 681.389 524.922 658.569C527.823 645.555 533.849 643.269 546.141 646.549C546.141 667.051 546.141 687.924 546.141 709.902C542.028 710.308 537.11 712.399 534.501 710.786C519.655 701.608 505.365 708.712 490.793 710.904C425.237 720.765 372.758 677.207 367.817 608.086C365.146 570.73 372.35 535.807 399.066 507.223C412.983 492.333 430.366 483.644 451.527 479.279Z" fill="black"/>
<path d="M655.861 573.39C644.772 585.727 633.841 596.846 620.4 610.52C629.876 614.692 636.652 617.676 643.981 620.903C644.295 633.374 634.565 632.717 627.363 630.765C612.928 626.853 599.54 627.793 585.225 631.77C577.572 633.896 568.201 631.691 560.04 629.675C547.765 626.643 538.027 617.845 538.662 605.44C539.168 595.574 545.602 585.573 550.997 576.591C553.551 572.34 559.829 570.333 564.304 567.386C556.322 543.433 559.893 530.208 575.935 523.305C593.126 515.909 613.582 521.07 620.139 534.459C626.651 547.755 620.887 557.992 598.287 571.626C602.75 578.685 607.2 585.722 611.907 593.163C619.084 584.462 624.297 574.229 632.63 569.428C638.094 566.279 648.066 570.984 655.861 573.39ZM595.169 610.584C588.178 600.326 581.187 590.068 573.83 579.271C561.408 589.089 558.09 599.919 565.044 612.058C571.981 624.168 582.08 618.096 591.279 614.611C592.625 614.102 593.914 613.441 595.169 610.584ZM601.451 539.771C599.552 531.491 593.253 527.934 587.356 533.043C577.887 541.247 582.957 550.576 590.834 563C595.307 554.294 598.41 548.252 601.451 539.771Z" fill="black"/>
<path d="M733.153 588.483C737.124 602.103 740.673 614.569 744.533 628.13C723.381 628.13 703.582 628.13 681.41 628.13C693.805 598.557 705.5 570.653 718.574 539.457C723.96 557.672 728.345 572.501 733.153 588.483Z" fill="white"/>
<path d="M595.743 611.745C594.426 613.43 593.105 614.076 591.726 614.574C582.3 617.979 571.951 623.914 564.842 612.078C557.716 600.215 561.116 589.631 573.845 580.035C581.385 590.587 588.548 600.612 595.743 611.745Z" fill="white"/>
<path d="M601.753 540.968C598.638 548.403 595.491 554.589 590.956 563.504C582.967 550.782 577.826 541.23 587.428 532.83C593.408 527.598 599.795 531.24 601.753 540.968Z" fill="white"/>
</g>
<defs>
<clipPath id="clip0_1051_409">
<rect width="1200" height="1200" fill="white"/>
</clipPath>
</defs>
</svg>
