<svg width="1200" height="1200" viewBox="0 0 1200 1200" fill="none" xmlns="http://www.w3.org/2000/svg">
<g clip-path="url(#clip0_1110_23)">
<path d="M600 1200C931.371 1200 1200 931.371 1200 600C1200 268.629 931.371 0 600 0C268.629 0 0 268.629 0 600C0 931.371 268.629 1200 600 1200Z" fill="#0500F5"/>
<path d="M472.388 580.21L519.045 359.047H560.073L457.856 840H375.846L422.527 621.314L472.388 580.21Z" fill="white"/>
<path d="M631.979 446.894L650.915 359.047L691.92 359.024L616.835 711.073L566.998 752.153L548.085 840H507.057L582.754 487.951L631.979 446.894Z" fill="white"/>
<path d="M312.137 713.574L387.835 359.024L387.858 359H428.839L326.009 840H244L262.3 755.291L312.137 713.574Z" fill="white"/>
<path d="M770.773 840L872.991 359.047H955L936.7 444.37L886.863 485.45L811.165 840H770.773Z" fill="white"/>
<path d="M741.121 359.047H823.154L777.085 577.733L727.272 618.79L679.931 840H638.927L741.121 359.047Z" fill="white"/>
</g>
<defs>
<clipPath id="clip0_1110_23">
<rect width="1200" height="1200" fill="white"/>
</clipPath>
</defs>
</svg>
