<svg width="1200" height="1200" viewBox="0 0 1200 1200" fill="none" xmlns="http://www.w3.org/2000/svg">
<g clip-path="url(#clip0_1121_2)">
<path d="M600 1200C931.371 1200 1200 931.371 1200 600C1200 268.629 931.371 0 600 0C268.629 0 0 268.629 0 600C0 931.371 268.629 1200 600 1200Z" fill="#FE3E6D"/>
<path d="M576.981 945.673C572.128 945.738 567.276 945.804 560.792 944.979C554.062 943.612 548.963 943.136 543.864 942.66C534.515 940.226 525.178 937.743 515.814 935.364C469.634 923.634 427.577 903.349 390.017 874.02C310.901 812.243 266 730.925 256.69 631.315C247.483 532.825 275.939 445.166 341.055 370.388C401.156 301.37 477.688 263.611 568.455 254.408C591.347 252.087 599.1 259.429 599.111 282.466C599.122 306.609 599.18 330.753 599.071 354.895C598.993 372.075 593.401 378.443 576.154 380.357C535.357 384.885 498.018 398.759 466.113 424.505C367.148 504.366 353.412 636.336 424.744 732.082C496.663 828.615 634.4 848.561 729.251 775.083C777.979 737.335 809.332 687.483 815.565 624.392C816.645 613.459 819.481 604.31 832.758 599.845C864.94 599.455 895.222 599.445 925.504 599.436C941.882 607.7 946.947 618.56 942.419 639.577C937.964 660.247 933.141 680.904 927.086 701.15C913.561 746.369 891.573 787.261 860.777 823.093C802.493 890.908 728.853 930.767 638.335 943.44C627.218 944.482 618.117 945.241 609.017 946C603.191 945.862 597.366 945.724 589.449 945.576C583.899 945.601 580.44 945.637 576.981 945.673Z" fill="#FFFEFE"/>
<path d="M780.583 267.331C835.211 241.119 895.065 257.781 925.424 307.004C955.607 355.941 943.527 417.529 897.681 454.627C880.402 468.609 861.151 478.133 839.808 477.999C822.494 477.89 804.436 473.089 788.069 466.811C719.13 440.37 704.956 351.981 741.736 300.988C752.187 286.498 765.431 276.909 780.583 267.331Z" fill="#FFFEFE"/>
<path d="M610 946C618.103 944.593 627.036 943.763 637 943C628.964 944.237 619.897 945.407 610 946Z" fill="#FE3E6D"/>
<path d="M545 943.002C549.175 942.967 554.29 943.483 560 944.976C555.71 945.152 550.825 944.352 545 943.002Z" fill="#FE3E6D"/>
<path d="M578 945.806C580.598 944.923 583.825 944.867 588 945.156C585.509 945.878 582.068 946.255 578 945.806Z" fill="#FE3E6D"/>
</g>
<defs>
<clipPath id="clip0_1121_2">
<rect width="1200" height="1200" fill="white"/>
</clipPath>
</defs>
</svg>
