<svg width="1200" height="1200" viewBox="0 0 1200 1200" fill="none" xmlns="http://www.w3.org/2000/svg">
<g clip-path="url(#clip0_974_127)">
<path d="M600 1200C931.371 1200 1200 931.371 1200 600C1200 268.629 931.371 0 600 0C268.629 0 0 268.629 0 600C0 931.371 268.629 1200 600 1200Z" fill="#202AD0"/>
<path d="M857.782 704.811H856.608H850.738C827.258 704.811 816.692 694.247 816.692 670.772V561.614C816.692 552.224 815.518 545.182 813.17 542.834C809.648 539.313 800.256 538.139 793.212 538.139C772.08 538.139 768.557 541.661 768.557 561.614V670.772C768.557 678.989 767.383 689.552 760.339 696.595C753.295 703.637 742.729 704.811 734.511 704.811H730.989C722.771 704.811 712.205 703.637 705.161 696.595C698.117 689.552 696.943 678.989 696.943 670.772V561.614C696.943 552.224 695.769 545.182 693.421 542.834C691.073 539.313 684.029 538.139 673.463 538.139C662.897 538.139 655.853 539.313 652.331 542.834C647.634 546.356 646.46 552.224 646.46 562.788V671.946C646.46 680.162 645.286 690.726 638.242 697.769C631.198 704.811 620.632 705.985 612.414 705.985H607.718C599.5 705.985 588.934 704.811 581.89 697.769C574.846 690.726 573.672 680.162 573.672 671.946V562.788C573.672 533.444 581.89 509.97 598.326 493.537C614.762 477.105 640.59 467.715 672.289 467.715C701.639 467.715 721.597 477.105 733.337 487.668C746.251 477.105 765.035 467.715 794.386 467.715C858.956 467.715 893.002 500.58 893.002 562.788V671.946C890.654 694.247 881.262 704.811 857.782 704.811Z" fill="white"/>
<path d="M622.985 905.52C544.326 904.346 470.363 872.655 415.185 817.489L411.663 812.794C401.097 802.23 401.097 784.624 411.663 774.061L423.403 762.323C433.969 751.759 451.579 751.759 462.145 762.323L465.667 765.844C507.932 808.099 565.458 833.921 626.507 833.921C686.381 833.921 742.734 810.447 786.172 768.192L792.042 762.323C802.608 751.759 820.218 751.759 830.784 762.323L842.524 774.061C853.09 784.624 853.09 802.23 842.524 812.794L834.306 818.663C777.954 875.003 702.817 905.52 622.985 905.52Z" fill="white"/>
<path d="M530.236 324.517C530.236 306.911 516.148 294 499.712 294H490.319C472.709 294 459.795 308.085 459.795 324.517V440.718C384.659 482.973 361.178 497.058 352.96 504.1C322.436 529.922 306 560.44 306 594.478C306 655.513 355.308 705.984 416.357 705.984C478.579 707.158 530.236 656.687 530.236 594.478V324.517ZM459.795 594.478C459.795 616.779 441.011 635.559 418.705 635.559C396.399 635.559 377.615 616.779 377.615 594.478C377.615 582.741 384.659 569.83 398.747 558.092C404.617 553.397 424.575 541.66 459.795 521.706V594.478Z" fill="white"/>
<path d="M605.372 403.157L600.676 394.941C592.458 379.682 573.674 374.987 558.412 383.204C554.89 385.551 550.194 387.899 546.672 390.246V471.234C561.934 463.018 579.544 452.454 593.632 444.238C608.894 437.196 614.764 418.416 605.372 403.157Z" fill="white"/>
</g>
<defs>
<clipPath id="clip0_974_127">
<rect width="1200" height="1200" fill="white"/>
</clipPath>
</defs>
</svg>
