<svg width="60" height="60" viewBox="0 0 60 60" fill="none" xmlns="http://www.w3.org/2000/svg">
<circle cx="30" cy="30" r="30" fill="black"/>
<path fill-rule="evenodd" clip-rule="evenodd" d="M14.95 30.9807C17.4009 29.9289 19.8266 28.8878 22.2606 27.8433C21.2431 26.5653 19.2583 25.8835 17.4098 26.7003C15.6592 27.4738 14.7347 29.3092 14.95 30.9807M13.1522 34.4358C11.7079 32.2896 11.5489 29.1711 13.0895 26.7311C14.6444 24.2685 17.571 22.9866 20.3873 23.5281C23.3547 24.0987 25.4412 26.4155 25.9837 28.9225C21.7122 30.7578 17.4377 32.5944 13.1522 34.4358" fill="white"/>
<path fill-rule="evenodd" clip-rule="evenodd" d="M27.4101 20.1857H30.1616V20.4997C30.1616 24.8887 30.1631 29.2776 30.1566 33.6666C30.1563 33.8763 30.2089 33.9829 30.4142 34.0626C31.1325 34.3414 31.8419 34.6432 32.5736 34.944C32.1939 35.8512 31.8198 36.7446 31.4359 37.6616C31.0554 37.5062 30.6866 37.3564 30.3185 37.2048C29.9181 37.04 29.5168 36.877 29.1186 36.7068C28.1156 36.2781 27.5683 35.5136 27.4503 34.4434C27.4221 34.1873 27.4119 33.928 27.4118 33.6701C27.4095 29.2733 27.4101 24.8765 27.4101 20.4797V20.1857Z" fill="white"/>
<path fill-rule="evenodd" clip-rule="evenodd" d="M37.195 33.7544C36.5489 34.4865 35.9122 35.208 35.2758 35.9291C32.3129 33.5615 31.7903 28.3076 35.2574 25.2554C35.8985 25.9802 36.5398 26.7051 37.195 27.4459C36.2718 28.2989 35.7789 29.3536 35.7783 30.5954C35.7776 31.8381 36.2664 32.8949 37.195 33.7544" fill="#00A6E9"/>
<path fill-rule="evenodd" clip-rule="evenodd" d="M44.0505 29.7235C43.75 28.4834 43.0954 27.5308 42.0152 26.9078C40.9451 26.2907 39.811 26.1919 38.6263 26.5628C38.3163 25.6263 38.0129 24.7097 37.6914 23.7384C38.13 23.6406 38.5452 23.5135 38.9696 23.4594C40.7685 23.2299 42.443 23.5964 43.9444 24.64C45.4496 25.6862 46.4205 27.1189 46.859 28.9196C46.9055 29.1102 46.8589 29.1595 46.6761 29.1946C45.8822 29.3472 45.0919 29.5185 44.3 29.6821C44.2244 29.6977 44.1476 29.7076 44.0505 29.7235" fill="#FFF400"/>
<path fill-rule="evenodd" clip-rule="evenodd" d="M37.824 37.2743C38.1272 36.3533 38.4304 35.4318 38.7336 34.5108C41.1863 35.2836 43.6044 33.7869 44.1609 31.3458C45.0966 31.5399 46.033 31.7341 46.9687 31.9281C46.2492 36.0634 41.787 38.705 37.824 37.2743" fill="#F44C1F"/>
<path fill-rule="evenodd" clip-rule="evenodd" d="M16.8864 34.1224C17.7197 34.6166 18.5974 34.8461 19.55 34.7392C20.5007 34.6324 21.3173 34.2378 22.0223 33.5709C22.6998 34.2658 23.3696 34.953 24.039 35.6397C21.8299 37.9572 17.9617 38.3163 15.3511 36.5681C15.8597 35.7579 16.3687 34.947 16.8864 34.1224" fill="white"/>
<rect opacity="0.01" x="12" y="12" width="35" height="35" fill="#FF0000"/>
</svg>
