<svg width="1200" height="1200" viewBox="0 0 1200 1200" fill="none" xmlns="http://www.w3.org/2000/svg">
<g clip-path="url(#clip0_944_198)">
<path d="M600 1200C931.371 1200 1200 931.371 1200 600C1200 268.629 931.371 0 600 0C268.629 0 0 268.629 0 600C0 931.371 268.629 1200 600 1200Z" fill="#FB2C92"/>
<path d="M621.147 723.253C619.595 729.036 618.398 735.02 611.36 738.571C601.382 737.713 592.619 736.668 583.857 735.624C583.857 735.624 583.7 735.533 583.708 734.942C582.258 732.723 580.799 731.095 579.341 729.467C579.285 728.759 579.229 728.051 579.463 726.3C580.72 715.976 580.652 715.8 575.734 714.865C574.907 714.911 574.079 714.958 572.334 715.491C571.228 716.828 571.04 717.678 570.851 718.529C562.25 725.234 553.649 731.939 543.823 738.679C538.781 740.216 534.964 741.718 531.146 743.221C530.04 743.275 528.933 743.33 526.764 743.178C514.009 743.132 502.317 743.293 490.625 743.455C489.517 743.419 488.409 743.384 486.595 742.747C480.174 740 474.459 737.856 468.743 735.712C468.492 735.636 468.241 735.561 467.231 735.036C463.542 733.385 460.611 732.183 457.68 730.981C440.222 719.667 427.571 704.483 419.199 685.331C414.94 675.59 413.595 665.413 411.055 655.374C406.321 636.665 410.569 618.634 416.105 602.416C423.337 581.233 437.76 563.187 457.806 550.628C473.264 540.943 490.291 535.916 507.802 535.648C533.425 535.256 556.477 543.628 574.51 565.949C576.287 561.476 578.21 558.097 578.944 554.476C580.387 547.362 586.217 540.426 592.72 539.095C603.157 536.96 612.466 540.181 616.621 547.339C617.902 549.546 619.246 551.716 620.664 555.137C620.765 585.105 620.713 613.837 620.776 642.569C620.836 669.464 621.019 696.358 621.147 723.253ZM499.795 578.983C488.554 580.468 478.998 585.974 471.398 593.718C461.176 604.135 456.505 618.051 453.746 631.944C450.627 647.647 456.066 662.796 463.525 676.145C474.108 695.083 492.819 704.099 513.48 704.901C525.373 705.362 538.692 701.332 549.305 695.542C568.941 684.829 576.017 664.949 578.484 643.823C579.231 637.429 577.514 630.359 575.401 624.115C572.596 615.82 569.034 607.581 564.479 600.123C556.201 586.57 542.415 579.973 527.727 576.99C519.243 575.267 509.888 577.832 499.795 578.983Z" fill="#FEF8FC"/>
<path d="M857.289 457.197C865.631 462.46 869.322 470.422 869.408 479.883C869.627 503.992 869.451 528.104 869.499 552.214C869.505 555.504 869.886 558.792 870.146 562.904C877.501 556.632 883.336 549.773 890.717 545.747C907.35 536.676 924.986 532.736 944.394 537.185C956.379 539.932 967.739 543.144 977.394 550.776C988.752 559.753 997.394 570.732 1000.91 585.179C1002.05 589.902 1003.51 594.55 1004.9 600.607C1005.05 643.981 1005.13 685.981 1005.21 727.98C1000.27 738.787 992.996 743.946 983.009 743.278C974.748 742.726 966.77 736.256 963.14 724.566C963.091 703.77 963.184 684.233 963.093 664.698C963.011 647.003 962.728 629.309 962.671 611.058C961.739 608.74 960.67 606.978 959.602 605.217C959.09 596.248 946.95 582.947 938.646 579.674C924.719 574.185 910.982 575.081 897.858 580.346C887.293 584.584 878.566 592.287 874.391 603.526C872.287 609.189 871.252 615.25 869.159 622.07C867.73 624.849 866.134 626.689 866.129 628.532C866.056 661.632 866.174 694.733 866.252 727.834C866.24 728.522 866.229 729.209 865.554 730.475C863.861 732.503 862.833 733.954 861.804 735.405C853.916 746.107 838.395 747.188 828.874 731.226C827.476 726.606 826.082 723.178 824.668 719.326C824.67 718.338 824.693 717.774 825.048 716.686C825.163 712.152 824.945 708.141 824.699 703.409C824.687 628.89 824.704 555.092 825.21 481.011C826.796 475.577 827.892 470.427 828.989 465.277C828.989 465.277 828.94 465.176 829.371 464.985C830.926 463.259 832.049 461.725 833.172 460.19C833.172 460.19 833.325 460.142 833.96 460.055C842.16 459.044 849.724 458.121 857.289 457.197Z" fill="#FFF8FB"/>
<path d="M686.472 693.55C687.115 693.665 687.759 693.78 688.889 694.658C692.349 697.372 695.321 699.323 698.294 701.273C698.939 701.436 699.584 701.598 700.938 702.364C706.304 704.001 710.96 705.033 716.323 706.026C721.273 705.977 725.517 705.967 730.2 706.221C733.5 705.23 736.359 703.974 739.219 702.718C740.174 702.512 741.129 702.306 743.119 702.177C746.135 700.83 748.115 699.405 750.096 697.981C751.742 694.406 754.317 690.968 754.868 687.231C756.961 673.048 751.441 670.574 739.24 666.082C719.23 658.714 698.352 653.647 678.519 645.879C666.472 641.161 657.827 631.477 652.653 618.857C646.505 603.86 647.488 589.309 652.687 574.476C657.033 562.073 666.401 554.24 677.784 547.092C680.717 545.638 682.56 544.237 684.402 542.837C684.402 542.837 685.178 542.716 686.218 542.734C699.243 541.442 711.206 539.816 723.223 538.937C731.215 538.352 739.284 538.836 747.318 538.842C747.967 538.887 748.615 538.931 749.991 539.549C753.654 540.891 756.589 541.659 759.523 542.427C770.684 545.504 779.586 552.223 787.884 561.253C788.03 570.039 788.129 577.56 788.228 585.082C782.811 593.683 768.271 595.947 759.26 589.799C747.098 581.501 734.366 574.36 718.928 575.816C713.4 576.337 708.011 578.317 701.438 579.723C698.982 581.133 697.647 582.45 696.311 583.767C695.592 584.496 694.873 585.224 693.558 586.748C687.019 595.074 689.542 604.713 698.384 608.262C698.384 608.262 698.324 608.361 698.443 608.881C701.802 610.405 705.042 611.409 708.282 612.413C708.659 612.554 709.048 612.606 709.9 613.081C713.15 614.486 715.949 615.378 718.749 616.271C735.419 621.829 752.798 625.893 768.563 633.363C784.61 640.968 796.736 653.469 796.693 673.498C796.666 685.93 797.892 698.137 791.47 710.049C783.581 724.682 771.383 733.056 756.73 739.041C737.595 746.855 717.605 744.407 698.01 742.792C689.163 742.063 680.548 737.227 672.069 733.676C663.725 730.182 656.587 725.299 652.004 716.737C647.663 708.627 647.042 700.092 652.107 692.969C652.813 691.976 652.874 690.525 654.305 688.85C661.76 687.459 668.142 686.502 674.524 685.546C674.524 685.546 674.644 685.481 675.073 685.878C679.159 688.699 682.816 691.124 686.472 693.55Z" fill="#FFF9FC"/>
<path d="M233.889 739.183C230.628 735.13 227.367 731.078 224.216 725.883C224.342 703.273 224.365 681.806 224.37 660.339C224.377 637.036 224.301 613.732 224.405 590.429C224.436 583.468 221.5 579.882 214.354 580.094C211.483 580.179 208.608 580.114 205.735 580.118C193.006 576.356 195.211 565.906 195.059 556.443C194.924 548.118 200.195 544.588 207.129 542.529C210.732 541.459 214.665 541.166 217.971 539.547C220.292 538.41 222.717 535.907 223.454 533.51C224.41 530.397 223.895 526.777 223.736 523.388C223.108 510.003 228.58 498.723 234.736 487.243C242.891 472.037 256.144 462.721 271.361 458.491C284.493 454.84 299.654 451.552 312.329 462.348C313.223 463.11 313.569 464.516 314.193 466.9C314.245 473.997 314.275 479.815 314.305 485.634C309.404 494.694 300.356 496.608 291.533 497.78C279.568 499.369 271.323 505.944 268.697 517.838C267.648 522.59 266.579 527.35 265.853 532.157C265.091 537.199 268.087 539.412 272.656 539.636C277.362 539.867 282.128 539.338 286.794 539.832C292.509 540.439 298.336 541.177 303.776 542.919C311.324 545.335 315.661 555.384 314.077 567.012C313.11 574.115 307.995 578.734 301.127 579.96C292.795 581.447 284.272 582.169 275.804 582.491C268.833 582.755 265.568 584.791 265.625 592.611C265.929 634.8 265.566 676.994 265.868 719.184C265.934 728.3 263.354 735.284 254.59 740.182C246.969 739.817 240.429 739.5 233.889 739.183Z" fill="#FFFAFD"/>
<path d="M372.604 458.804C379.533 464.757 383.518 471.926 383.504 481.429C383.387 560.064 383.252 638.7 383.584 717.333C383.647 732.163 371.171 743.924 361.073 743.365C350.39 742.774 340.243 734.024 339.026 723.298C338.761 720.963 338.795 718.587 338.795 716.231C338.792 638.12 338.856 560.009 338.742 481.898C338.728 472.043 341.353 463.776 350.772 457.606C358.281 457.426 364.562 457.437 370.842 457.448C370.842 457.448 370.979 457.317 371.031 457.793C371.59 458.448 372.097 458.626 372.604 458.804Z" fill="#FEF4FA"/>
</g>
<defs>
<clipPath id="clip0_944_198">
<rect width="1200" height="1200" fill="white"/>
</clipPath>
</defs>
</svg>
