<svg width="1200" height="1200" viewBox="0 0 1200 1200" fill="none" xmlns="http://www.w3.org/2000/svg">
<g clip-path="url(#clip0_1051_188)">
<path d="M600 1200C931.371 1200 1200 931.371 1200 600C1200 268.629 931.371 0 600 0C268.629 0 0 268.629 0 600C0 931.371 268.629 1200 600 1200Z" fill="#000E35"/>
<rect x="368" y="364" width="410" height="619" rx="73" fill="white"/>
<rect x="632" y="220" width="213" height="184" rx="80" fill="#4BA9FD"/>
<path d="M846.721 149.001V193.206C846.721 616.027 846.721 625.91 846.721 1049.5C424.518 1049.5 779.559 1049.5 354.596 1049.5C354.596 718.189 353.257 637.64 354.593 303.346L354.594 248.415L354.592 149.001H395.72L436.326 149.001L479.182 149.001L572.219 149L667.787 149.001H846.721ZM696.601 900.418C766.521 845.502 784.97 774.555 741.914 708.464C725.391 683.1 727.07 666.345 741.584 641.297C780.038 574.933 768.21 490.072 716.998 433.826C665.99 377.802 585.099 358.832 515.664 386.609C427.945 421.699 381.218 518.204 408.503 607.928C436.378 699.594 528.735 753.052 623.298 732.331C641.472 728.348 660.466 717.828 675.272 739.727C690.688 762.528 694.049 785.964 681.152 810.982C673.219 826.372 661.742 838.051 646.659 846.682C586.606 881.046 514.236 861.718 479.182 801.689C467.941 782.44 432.259 771.39 413.777 783.198C391.608 797.363 406.921 816.017 412.194 831.267C417.145 845.585 426.362 859.199 436.326 870.884C497.116 942.174 601.563 955.08 696.601 900.418ZM766.958 383.466C778.62 395.04 791.96 398.625 805.586 388.204C826.152 372.475 826.422 272.108 806.226 255.298C801.812 251.624 795.764 247.872 790.379 247.738C758.061 246.93 725.686 246.302 693.396 247.448C678.829 247.965 669.333 258.032 667.787 273.087C666.226 288.279 674.153 297.766 687.971 303.346C731.378 320.873 747.507 337.212 766.958 383.466Z" fill="#000E35"/>
<path d="M667.047 631.774C628.433 671.218 584.551 680.63 536.555 661.652C493.381 644.58 470.689 608.711 468.21 563.763C465.629 516.973 486.876 480.182 529.242 457.624C573.497 434.06 630.481 444.311 664.695 481.479C703.318 523.437 704.782 575.666 667.047 631.774Z" fill="#000E35"/>
</g>
<defs>
<clipPath id="clip0_1051_188">
<rect width="1200" height="1200" fill="white"/>
</clipPath>
</defs>
</svg>
