<svg width="60" height="60" viewBox="0 0 60 60" fill="none" xmlns="http://www.w3.org/2000/svg">
<circle cx="30" cy="30" r="30" fill="#FF7A00"/>
<g clip-path="url(#clip0_610_2058)">
<path d="M12.5913 24.1441V24.5164C12.6147 25.1394 13.1412 25.637 13.7964 25.6605H13.9992C14.6544 25.637 15.1809 25.1394 15.2043 24.5164V24.1441C15.1809 23.5211 14.6544 23.0235 13.9992 23H13.7964C13.1412 23.0235 12.6147 23.5211 12.5913 24.1441ZM29.7045 28.5522V33.6499C29.7045 34.5354 30.0438 34.9351 31.1202 34.9351C31.5726 34.9351 32.0133 34.8097 32.2785 34.7156V36.7688C31.8261 36.9216 31.1397 36.9961 30.5742 36.9961C28.3122 36.9961 27.2436 35.8598 27.2436 33.8928V23.6073H29.7045V26.8791H32.2785V28.5522H29.7045Z" fill="white"/>
<path fill-rule="evenodd" clip-rule="evenodd" d="M33.113 31.6516C33.113 28.6306 35.0084 26.5735 38.0426 26.5735C41.2835 26.5735 42.8903 28.9479 42.7187 32.3921H35.6402C35.7689 34.1593 36.5918 35.0565 38.0543 35.0565C39.2906 35.0565 39.9458 34.457 40.2305 33.6107H42.6368C42.1688 35.6874 40.5347 36.9961 38.0426 36.9961C34.9694 36.9961 33.113 34.9586 33.113 31.8984V31.6516ZM38.0231 28.5561C36.6737 28.5561 35.8664 29.281 35.6402 30.7229L40.2461 30.6837C40.1135 29.3398 39.392 28.5561 38.0231 28.5561Z" fill="white"/>
<path d="M22.3022 26.5774C20.7188 26.5774 19.7438 27.5178 19.2524 28.4425L19.1393 26.8791H16.7915V36.6944H19.2524V31.1774C19.2524 29.5474 20.1104 28.5522 21.4091 28.5522C22.7078 28.5522 23.1875 29.4142 23.1875 30.911V36.6944H25.6484V30.3781C25.6562 28.1878 24.7124 26.5774 22.3022 26.5774ZM46.5563 28.4386C47.1803 27.2082 48.4556 26.5735 49.415 26.5735C49.5866 26.5735 49.8557 26.597 50 26.6283V28.5483C49.7621 28.5248 49.5242 28.513 49.2863 28.5091C47.5352 28.5091 46.5563 29.567 46.5563 31.3616V36.6865H44.0954V26.8791H46.4822L46.5563 28.4386ZM11 26.8791V28.5522H12.6653V36.6944H15.1262V26.8791H11Z" fill="white"/>
</g>
<defs>
<clipPath id="clip0_610_2058">
<rect width="39" height="14" fill="white" transform="translate(11 23)"/>
</clipPath>
</defs>
</svg>
