<svg width="60" height="60" viewBox="0 0 60 60" fill="none" xmlns="http://www.w3.org/2000/svg">
<g clip-path="url(#clip0_613_2093)">
<path d="M0 30C0 13.4315 13.4315 0 30 0V0C46.5685 0 60 13.4315 60 30V30C60 46.5685 46.5685 60 30 60V60C13.4315 60 0 46.5685 0 30V30Z" fill="#2A0088"/>
<path fill-rule="evenodd" clip-rule="evenodd" d="M29.9043 30.3604H31.4058L29.0671 25.6772C28.9442 25.4469 28.823 25.3587 28.543 25.3587H27.2515L24.7902 30.3604H26.2907L26.7274 29.4383H29.4853L29.9043 30.3604ZM42.2119 30.3604H43.6955L41.3553 25.6772C41.2341 25.4469 41.1119 25.3587 40.8328 25.3587H39.5413L37.0796 30.3604H38.581L39.017 29.4383H41.7755L42.2119 30.3604ZM47.5003 29.1368C47.5539 29.3141 47.7629 29.4383 47.9898 29.4383H49.404L50.4515 26.4946L51.4461 30.3605H52.7725L51.673 25.9268C51.5693 25.4834 51.324 25.3587 50.9229 25.3587H49.5434L48.5492 28.2858L47.7629 25.8013C47.6588 25.4834 47.4662 25.3587 47.1519 25.3587H45.5985L44.3238 30.3604H45.6687L46.6449 26.4946L47.5003 29.1369L47.5003 29.1368ZM41.2875 28.4269H39.4536L40.3797 26.423L41.2875 28.4269ZM28.9967 28.4269H27.1641L28.0897 26.423L28.9967 28.4269ZM23.7427 30.3604L24.3012 29.2071H21.0012V25.3586H19.5876V30.3603H23.7426L23.7427 30.3604ZM33.5534 30.3604H34.9142V26.5115L37.2893 26.3519V25.3587H31.1791V26.3518L33.5534 26.5114V30.3604ZM10.0076 35.44L11.2121 34.9945C11.4631 34.9016 11.4631 35.1067 11.4631 35.4129V35.976C11.4631 36.4317 11.3124 36.4873 11.1117 36.5616L10.0076 36.97V35.44ZM10.0076 32.9405L13.0692 31.8086C13.3203 31.7156 13.3203 31.9208 13.3203 32.2269V32.7877C13.3203 33.2456 13.1697 33.3014 12.9689 33.3756L10.0076 34.4709V32.9405ZM9.75656 29.3799L8.20069 28.8043C8 28.73 8 28.4525 8 28.3506C8 28.3506 8 28.6851 8.30086 28.5737L15.9302 25.7521C16.5323 25.5293 16.5323 25.3577 16.2817 25.2648C16.5323 25.3577 16.5323 25.3577 16.5323 26.1064C16.5323 26.8205 16.5323 27.0595 16.2315 27.1709L10.2585 29.3798C10.0076 29.4724 10.0076 29.4725 9.75656 29.3799Z" fill="white"/>
<path fill-rule="evenodd" clip-rule="evenodd" d="M8.65241 26.4724L11.3176 27.4581L13.3861 26.693L8.40138 24.8493C8.05017 24.7195 8 24.7008 8 24.9559V25.619C8 26.2309 8.45164 26.398 8.65241 26.4723M16.2817 27.7639L15.4545 27.458L13.3862 28.2231L14.6962 28.7076L15.9303 28.2513C16.5323 28.0285 16.5323 27.8566 16.2817 27.7639Z" fill="#DB2F54"/>
<path fill-rule="evenodd" clip-rule="evenodd" d="M16.2816 27.7639C16.5323 27.8567 16.5323 28.0285 15.9303 28.2513L10.0076 30.4415V31.9719L16.2315 29.6698C16.5323 29.5586 16.5323 29.3195 16.5323 28.6056C16.5323 27.8567 16.5323 27.8567 16.2816 27.7639Z" fill="white"/>
<path fill-rule="evenodd" clip-rule="evenodd" d="M16.2817 25.2649L10.4091 23.093C10.0578 22.9631 10.0076 22.9445 10.0076 23.1995V23.8625C10.0076 24.4746 10.4591 24.6416 10.66 24.7158L14.6962 26.2085L15.9302 25.7521C16.5323 25.5294 16.5323 25.3577 16.2817 25.2649ZM8.30103 28.5736L10.0076 27.9426L8.40138 27.3486C8.05017 27.2188 8 27.2001 8 27.4551V28.3506C8 28.3506 8 28.6851 8.30103 28.5736Z" fill="#DB2F54"/>
<path fill-rule="evenodd" clip-rule="evenodd" d="M22.9414 34.1435C22.9414 33.6802 22.6183 33.2579 21.7006 33.2579H20.0665V34.9295C20.3959 35.0761 20.8577 35.1877 21.3136 35.1877C22.5144 35.1877 22.9415 34.7124 22.9415 34.1434M20.0666 35.3812V36.9238H19.5876V32.8179H21.7466C22.8262 32.8179 23.4149 33.3516 23.4149 34.1261C23.4149 35.041 22.6934 35.6278 21.3252 35.6278C20.8461 35.6278 20.3613 35.5279 20.0666 35.3812ZM26.0203 33.2344L24.9463 35.3634H27.0998L26.0203 33.2344ZM27.325 35.8034H24.7273L24.1614 36.9238H23.6476L25.7488 32.8179H26.0607C26.2223 32.8179 26.3146 32.8706 26.384 33.0053L28.4043 36.9238H27.8906L27.325 35.8034ZM32.563 32.9878L32.4071 33.4278C32.1993 33.3399 31.7375 33.1874 31.0446 33.1874C30.2133 33.1874 29.7516 33.5041 29.7516 33.8969C29.7516 34.2665 30.046 34.4603 30.8021 34.5893L31.1486 34.6478C32.1473 34.8179 32.7304 35.1409 32.7304 35.7975C32.7304 36.5189 32.0835 37 30.8772 37C29.942 37 29.3188 36.7423 29.1281 36.6247L29.2781 36.1907C29.4572 36.3197 30.1036 36.5544 30.935 36.56C31.8358 36.56 32.2513 36.2551 32.2513 35.8269C32.2513 35.4337 31.8703 35.2229 31.0446 35.0819L30.6984 35.0231C29.8323 34.8769 29.2724 34.5774 29.2724 33.9204C29.2724 33.2285 29.9767 32.7475 31.097 32.7475C31.7894 32.7475 32.3091 32.8943 32.5629 32.9878M37.1482 32.9878L36.9923 33.4278C36.7844 33.3399 36.3226 33.1874 35.6299 33.1874C34.7986 33.1874 34.3366 33.5041 34.3366 33.8969C34.3366 34.2665 34.6311 34.4603 35.3874 34.5893L35.7337 34.6478C36.7324 34.8179 37.3156 35.1409 37.3156 35.7975C37.3156 36.5189 36.669 37 35.4624 37C34.5274 37 33.9038 36.7423 33.7131 36.6247L33.8633 36.1907C34.0423 36.3197 34.6889 36.5544 35.5203 36.56C36.4208 36.56 36.8362 36.2551 36.8362 35.8269C36.8362 35.4337 36.4554 35.2229 35.6298 35.0819L35.2834 35.0231C34.4175 34.8769 33.8576 34.5774 33.8576 33.9204C33.8576 33.2285 34.5618 32.7475 35.6818 32.7475C36.3747 32.7475 36.894 32.8943 37.1482 32.9878Z" fill="white"/>
</g>
<defs>
<clipPath id="clip0_613_2093">
<rect width="60" height="60" rx="30" fill="white"/>
</clipPath>
</defs>
</svg>
