<svg width="1200" height="1200" viewBox="0 0 1200 1200" fill="none" xmlns="http://www.w3.org/2000/svg">
<g clip-path="url(#clip0_943_7)">
<path d="M600 1200C931.371 1200 1200 931.371 1200 600C1200 268.629 931.371 0 600 0C268.629 0 0 268.629 0 600C0 931.371 268.629 1200 600 1200Z" fill="#FD9CBF"/>
<path d="M447.98 615.895C451.686 593.887 467.214 576.769 488.742 576.769C499.859 576.769 506.741 583.582 506.741 594.586C506.741 608.733 485.036 618.515 451.156 619.039C448.686 619.039 447.451 617.816 447.98 615.895ZM393.63 629.344C393.63 680.696 427.687 711.263 484.507 711.263C528.975 711.263 560.562 691.002 560.562 661.658C560.562 655.544 558.091 651.876 554.386 651.876C549.974 651.876 539.563 673.884 498.095 673.884C477.096 673.884 461.038 666.548 452.921 652.401C451.686 649.955 452.921 648.733 455.391 648.733C517.858 646.811 559.149 629.169 559.149 591.267C559.149 560.7 533.739 541.137 491.212 541.137C429.451 541.312 393.63 573.8 393.63 629.344ZM990.418 667.247C1014.59 629.868 1039.3 612.227 1077.59 586.551C1083.77 582.184 1085 578.516 1085 558.429C1085 548.648 1081.82 543.059 1076.35 543.059H960.773C954.597 543.059 950.185 546.203 948.949 549.871C944.009 562.796 940.832 573.101 940.832 575.547C940.832 579.215 944.009 581.66 948.949 581.66H1004.53C1007 581.66 1007.71 583.582 1005.24 585.328C942.773 638.601 936.597 659.911 936.597 694.145C936.597 703.927 939.774 709.516 945.244 709.516H1065.06C1071.24 709.516 1074.94 706.373 1076.88 702.704C1078.12 700.259 1078.82 697.813 1079.35 695.892C1084.29 681.22 1085 679.998 1085 676.853C1085 673.185 1082.53 670.74 1076.88 670.74H992.182C989.888 670.915 989.182 669.169 990.418 667.247ZM756.961 656.941C756.961 699.211 781.136 711.438 804.605 711.438C831.78 711.438 846.074 694.844 853.485 683.316C854.721 681.395 855.955 680.871 857.19 680.871C859.132 680.871 860.367 682.094 860.367 684.539V699.91C860.367 707.246 870.248 711.613 885.777 711.613C901.306 711.613 910.481 707.246 910.481 699.91V551.792C910.481 544.98 907.305 541.312 901.834 541.312C899.894 541.312 898.129 542.011 896.188 542.535L867.779 551.792C862.131 553.713 858.426 559.128 858.426 568.386V625.327C858.426 652.924 844.133 665.151 830.016 665.151C819.428 665.151 809.017 657.116 809.017 637.554V551.967C809.017 545.155 805.841 541.487 800.37 541.487C798.429 541.487 796.665 542.185 794.724 542.709L766.137 551.792C760.491 553.713 756.785 559.128 756.785 568.386V656.941H756.961ZM115 699.735C115 707.071 124.882 711.438 140.41 711.438C155.939 711.438 167.056 707.071 167.056 699.735V627.598C167.056 600 179.408 587.773 192.995 587.773C203.583 587.773 213.995 595.808 213.995 615.371V699.735C213.995 707.071 223.876 711.438 239.405 711.438C254.932 711.438 266.05 707.071 266.05 699.735V627.598C266.05 598.777 279.108 587.773 291.989 587.773C302.577 587.773 312.988 595.808 312.988 615.371V667.421C312.988 707.246 333.987 731 369.279 731C387.807 731 400.159 724.887 400.159 716.328C400.159 715.106 400.159 713.184 398.218 711.962C377.749 702.18 364.868 691.177 364.868 658.688V595.808C364.868 553.539 341.927 541.312 319.164 541.312C292.519 541.312 278.402 557.905 270.991 569.433C268.52 573.8 261.638 573.8 260.403 569.433C252.991 547.949 235.698 541.312 218.405 541.312C191.76 541.312 179.408 557.905 171.997 569.433C169.526 573.8 165.115 571.879 165.115 568.211V551.617C165.115 544.805 161.938 541.137 156.468 541.137C154.527 541.137 152.762 541.836 150.821 542.36L124.352 551.792C118.706 553.539 115 559.128 115 568.211V699.735ZM709.317 542.535L680.907 551.792C675.26 553.713 671.555 559.128 671.555 568.386V699.735C671.555 707.071 681.436 711.438 696.965 711.438C712.493 711.438 723.61 707.071 723.61 699.735V551.792C723.61 544.98 720.434 541.312 714.964 541.312C713.023 541.312 711.258 542.011 709.317 542.535ZM671.732 496.073C671.732 486.816 675.437 481.401 681.083 479.48L709.494 470.223C711.435 469.524 713.199 469 715.14 469C720.788 469 723.787 472.668 723.787 479.48V498.519C723.787 507.776 720.081 513.191 714.435 515.112L686.025 524.369C684.084 525.068 682.319 525.592 680.377 525.592C674.731 525.592 671.732 521.924 671.732 515.112V496.073ZM447.98 512.667V524.893C447.98 529.784 452.392 532.928 457.332 531.705L517.329 513.365C524.211 511.444 529.151 507.252 529.151 499.916V477.209C529.151 471.096 522.975 467.952 518.035 470.397L455.568 502.187C451.156 504.632 447.98 507.077 447.98 512.667ZM624.087 470.397L595.677 479.655C590.03 481.576 586.325 486.991 586.325 496.248V699.735C586.325 707.071 596.206 711.438 611.735 711.438C627.263 711.438 638.38 707.071 638.38 699.735V479.655C638.38 472.843 635.204 469.175 629.733 469.175C627.792 469.175 625.852 469.873 624.087 470.397Z" fill="white"/>
</g>
<defs>
<clipPath id="clip0_943_7">
<rect width="1200" height="1200" fill="white"/>
</clipPath>
</defs>
</svg>
