<svg width="60" height="60" viewBox="0 0 60 60" fill="none" xmlns="http://www.w3.org/2000/svg">
<circle cx="30" cy="30" r="30" fill="#00AFF0"/>
<mask id="mask0_616_2081" style="mask-type:luminance" maskUnits="userSpaceOnUse" x="11" y="17" width="38" height="27">
<path fill-rule="evenodd" clip-rule="evenodd" d="M11.5179 17.8076H48.578V43.1746H11.5179V17.8076Z" fill="white"/>
</mask>
<g mask="url(#mask0_616_2081)">
<path fill-rule="evenodd" clip-rule="evenodd" d="M29.4186 43.1747C25.5839 43.1348 21.2752 42.4039 17.4005 40.007C14.5639 38.2519 12.4569 35.8882 11.7674 32.5262C10.8303 27.9556 12.5776 24.4621 16.2628 21.8121C19.2261 19.6813 22.5873 18.5545 26.1637 18.0821C31.1637 17.4218 36.0373 17.9121 40.6855 19.9929C42.6287 20.8627 44.3597 22.0396 45.868 23.5601C49.845 27.569 49.2029 34.0656 45.5161 37.7847C42.9622 40.361 39.8087 41.7451 36.3425 42.5291C34.276 42.9964 32.1743 43.1721 29.4186 43.1747" fill="white"/>
</g>
<mask id="mask1_616_2081" style="mask-type:luminance" maskUnits="userSpaceOnUse" x="11" y="17" width="38" height="27">
<path fill-rule="evenodd" clip-rule="evenodd" d="M11.3334 17.8076H48.3934V43.1746H11.3334V17.8076Z" fill="white"/>
</mask>
<g mask="url(#mask1_616_2081)">
<path fill-rule="evenodd" clip-rule="evenodd" d="M25.4433 32.8262C25.2805 32.1746 25.0294 31.6262 24.2581 31.5466C23.5229 31.4706 23.0691 31.9237 22.6039 32.4055C22.3527 31.4573 21.7972 31.0646 21.0932 31.2909C20.5452 31.467 20.2268 32.0963 20.409 32.6433C20.6612 33.401 21.2614 33.5483 22.4171 33.1109C22.4171 33.2632 22.4127 33.4003 22.4178 33.5371C22.4605 34.6943 23.2831 35.2767 24.355 34.865C24.7856 34.6998 24.7422 34.9164 24.7887 35.2038C24.911 35.9591 25.8289 36.4553 26.4396 36.0426C26.962 35.6896 27.027 35.8444 27.1497 36.3578C27.3378 37.1447 28.1477 37.5462 28.9134 37.3234C29.6445 37.1106 30.072 36.3531 29.8788 35.6124C29.6902 34.8885 28.9587 34.4322 28.1942 34.6255C27.6484 34.7636 27.5471 34.6743 27.6995 34.1092C27.9757 33.0851 27.3193 32.3066 26.3553 32.4004C26.0093 32.4341 25.7905 32.7069 25.4433 32.8262M43.3463 22.4831C36.3284 17.0663 22.9425 17.4825 16.7491 22.2818C18.6042 22.8725 20.369 23.6854 22.2775 23.6629C23.984 23.6429 25.7113 23.3942 27.2138 22.4131C27.3892 22.2987 27.586 22.2136 27.7803 22.1326C30.0801 21.172 32.3336 21.4629 34.5185 22.4744C37.4477 23.8305 40.3538 23.7869 43.3463 22.4831M30.9693 22.2901C28.9523 22.3026 27.4351 22.8726 26.2013 24.1245C25.5597 24.7754 24.9382 25.4461 24.2872 26.0873C23.9369 26.4321 24.0075 26.626 24.4431 26.7686C25.2878 27.0451 26.0587 26.898 26.7686 26.3772C27.5428 25.8094 28.289 25.1969 29.1001 24.6879C30.1654 24.0194 31.2689 24.0103 32.3269 24.759C32.671 25.0025 33.0213 25.2403 33.3433 25.5111C35.3335 27.1863 37.3183 28.868 39.2997 30.5537C39.5783 30.7907 39.798 30.9412 40.2193 30.7613C42.4174 29.8223 44.6869 29.0877 47.024 28.58C47.5089 28.4746 47.5285 28.2741 47.409 27.8525C46.9203 26.1294 45.9202 24.7497 44.6637 23.511C44.2599 23.1129 43.9375 23.0262 43.3969 23.2561C40.303 24.5722 37.2186 24.5755 34.1535 23.113C33.0656 22.5941 31.8982 22.3403 30.9693 22.2901M26.2811 31.7046C27.4644 31.6463 28.2526 32.2818 28.4476 33.4109C28.4849 33.6269 28.4345 33.8213 28.7832 33.9039C30.2314 34.2469 30.7737 35.0607 30.5656 36.502C30.5326 36.7304 30.481 36.8984 30.7522 37.003C31.2407 37.1916 31.7316 37.3312 32.2573 37.1885C32.6468 37.0829 32.8722 36.9383 32.4663 36.545C32.0967 36.1867 31.765 35.7887 31.424 35.4017C31.2936 35.2538 31.0247 35.0935 31.2147 34.8836C31.4396 34.6353 31.6395 34.9027 31.8022 35.0485C32.2909 35.486 32.7609 35.9444 33.2484 36.3832C33.6594 36.7535 34.3688 36.7042 34.772 36.2958C35.2135 35.8487 34.9436 35.4989 34.6236 35.1491C34.1648 34.6476 33.7064 34.1455 33.2584 33.6344C33.1311 33.4891 32.8663 33.3257 33.0577 33.1145C33.2846 32.8641 33.4876 33.135 33.6447 33.2747C34.2048 33.7727 34.7435 34.2947 35.2956 34.8019C35.9283 35.383 36.6416 35.3768 37.2065 34.7928C37.6764 34.3071 37.5957 33.8943 36.8935 33.1916C36.2301 32.5276 35.5654 31.8648 34.9051 31.1979C34.7917 31.0835 34.6331 30.9281 34.7545 30.7786C34.8938 30.6071 35.0936 30.6822 35.2513 30.8192C35.3397 30.8961 35.431 30.9698 35.5186 31.0477C36.2721 31.7176 37.0197 32.3938 37.7796 33.0562C38.3298 33.5358 39.0845 33.5001 39.5449 32.9931C39.9415 32.5565 39.8395 31.9934 39.2407 31.4855C37.0231 29.6049 34.8178 27.709 32.5707 25.864C31.1681 24.7124 30.3929 24.7141 28.9011 25.7292C28.2427 26.1772 27.6286 26.6905 26.9671 27.1333C25.9786 27.7945 24.9222 27.7516 23.8833 27.277C23.1403 26.9376 23.0511 26.3775 23.5914 25.7634C23.9474 25.3588 24.3243 24.9725 24.6855 24.5721C24.7888 24.4577 25.013 24.3687 24.9295 24.1895C24.8237 23.9627 24.6007 24.0921 24.4371 24.141C23.5534 24.405 22.6672 24.5662 21.7356 24.4218C19.9204 24.1403 18.1899 23.5647 16.4722 22.9437C16.1718 22.835 15.9406 22.7519 15.6451 23.0048C14.3233 24.1355 13.2518 25.4482 12.5982 27.0717C12.1184 28.2637 12.1425 28.2892 13.4151 28.5827C15.6772 29.1045 17.9184 29.691 19.9467 30.8723C20.1956 31.0174 20.3195 30.9098 20.5005 30.8056C21.1711 30.4202 21.8648 30.4055 22.4806 30.869C22.8016 31.1107 23.0249 31.0616 23.355 30.9485C24.1742 30.6676 24.9467 30.8185 25.5563 31.4436C25.7996 31.6931 26.0016 31.8279 26.2811 31.7046M30.5041 41.0403C32.0795 41.0836 34.265 40.8289 36.4075 40.2779C39.9178 39.3754 43.1367 37.9238 45.5622 35.1047C46.8694 33.5855 47.6667 31.8446 47.6505 29.7919C47.6478 29.4611 47.6122 29.2297 47.1877 29.3367C45.0053 29.8865 42.8481 30.5165 40.7483 31.3327C40.4995 31.4294 40.398 31.5612 40.4333 31.8611C40.6039 33.3103 40.0721 33.9719 38.6491 34.0981C38.3835 34.1217 38.2559 34.1644 38.1801 34.4688C37.9606 35.35 37.2674 35.8935 36.3517 35.9258C36.0104 35.9378 35.823 36.0296 35.6397 36.3408C35.245 37.0111 34.6286 37.3628 33.824 37.3316C33.6415 37.3246 33.4454 37.2702 33.2848 37.4141C32.378 38.2257 31.3901 38.0662 30.3961 37.6327C30.1271 37.5153 29.9583 37.5363 29.7057 37.7024C28.7153 38.354 27.5881 38.1613 26.8006 37.256C26.669 37.1047 26.6094 36.8626 26.3371 36.8819C24.8338 36.9882 23.9869 35.511 22.5926 35.3231C22.3138 35.2855 22.1079 34.947 21.9957 34.6628C21.8417 34.2726 21.6191 34.1103 21.1752 34.0708C20.244 33.9883 19.4766 33.0851 19.6526 32.2099C19.7666 31.6433 19.5273 31.4541 19.1288 31.2522C17.0587 30.2041 14.8156 29.7014 12.5817 29.1701C12.2605 29.0938 12.1153 29.2024 12.1068 29.5587C12.0862 30.4109 12.1703 31.2452 12.4432 32.0538C13.339 34.7091 15.2222 36.5214 17.5495 37.9181C21.3356 40.1901 25.4943 41.0381 30.5041 41.0403M29.2341 43.1747C25.3993 43.1347 21.0905 42.404 17.216 40.0069C14.3794 38.2519 12.2724 35.8882 11.5829 32.5263C10.6456 27.9555 12.3931 24.4621 16.0783 21.8122C19.0415 19.6812 22.4027 18.5544 25.9792 18.0822C30.9792 17.4218 35.8528 17.9122 40.501 19.9928C42.4442 20.8628 44.175 22.0397 45.6835 23.5602C49.6604 27.5691 49.0184 34.0655 45.3314 37.7848C42.7775 40.3609 39.6242 41.7451 36.158 42.5291C34.0915 42.9965 31.9897 43.1722 29.2341 43.1747" fill="#0708A4"/>
</g>
<path fill-rule="evenodd" clip-rule="evenodd" d="M30.504 41.0403C25.4943 41.038 21.3355 40.1902 17.5495 37.9181C15.2221 36.5214 13.339 34.7091 12.4431 32.0538C12.1703 31.2451 12.0861 30.411 12.1067 29.5586C12.1153 29.2024 12.2604 29.0937 12.5816 29.1701C14.8156 29.7013 17.0587 30.204 19.1288 31.2523C19.5273 31.454 19.7665 31.6434 19.6526 32.2099C19.4766 33.085 20.244 33.9883 21.1752 34.0709C21.6191 34.1102 21.8417 34.2726 21.9957 34.6629C22.1078 34.947 22.3138 35.2854 22.5926 35.323C23.9869 35.5111 24.8337 36.9881 26.3371 36.8819C26.6094 36.8627 26.669 37.1046 26.8007 37.2561C27.5881 38.1612 28.7153 38.3539 29.7056 37.7025C29.9582 37.5364 30.1272 37.5153 30.3961 37.6326C31.3902 38.0663 32.378 38.2257 33.2847 37.4141C33.4453 37.2703 33.6414 37.3247 33.824 37.3317C34.6286 37.3629 35.2449 37.0112 35.6397 36.3408C35.823 36.0297 36.0103 35.9377 36.3517 35.9257C37.2674 35.8935 37.9605 35.35 38.18 34.4689C38.2558 34.1644 38.3835 34.1216 38.6492 34.0981C40.0721 33.9719 40.6039 33.3103 40.4333 31.8612C40.3979 31.5611 40.4995 31.4295 40.7484 31.3327C42.8481 30.5165 45.0053 29.8865 47.1877 29.3366C47.6121 29.2297 47.6478 29.4611 47.6504 29.7918C47.6666 31.8447 46.8694 33.5854 45.5622 35.1047C43.1366 37.9237 39.9178 39.3755 36.4075 40.278C34.265 40.8288 32.0795 41.0835 30.504 41.0403" fill="#009CE5"/>
<path fill-rule="evenodd" clip-rule="evenodd" d="M43.3464 22.4831C40.3538 23.7869 37.4476 23.8306 34.5184 22.4745C32.3336 21.463 30.08 21.172 27.7802 22.1326C27.5861 22.2137 27.3891 22.2988 27.2139 22.4132C25.7113 23.3942 23.9841 23.6428 22.2776 23.663C20.3691 23.6854 18.6043 22.8725 16.7491 22.2818C22.9425 17.4824 36.3284 17.0664 43.3464 22.4831" fill="#009CE5"/>
<rect opacity="0.01" x="10" y="11" width="40" height="40" fill="#FF0505"/>
</svg>
