<svg width="1200" height="1200" viewBox="0 0 1200 1200" fill="none" xmlns="http://www.w3.org/2000/svg">
<g clip-path="url(#clip0_853_1359)">
<path d="M600 1200C931.371 1200 1200 931.371 1200 600C1200 268.629 931.371 0 600 0C268.629 0 0 268.629 0 600C0 931.371 268.629 1200 600 1200Z" fill="#36A28B"/>
<path d="M266 372V405.237H472.659V372H266ZM618.676 468.985C562.148 468.985 534.245 503.807 534.245 543.636C534.245 550.145 534.996 556.653 536.802 563.884L575.516 567.639C573.889 560.399 573.051 553.004 573.015 545.583C573.015 515.767 592.747 501.471 617.426 501.471C641.493 501.471 659.308 514.961 659.308 547.419C659.308 580.405 643.188 602.906 618.621 627.521C592.913 653.193 551.921 683.899 532.133 698V728.373H702.635V695.136H586.799C606.114 681.785 633.767 659.562 646.079 647.297C660.03 633.307 699.745 597.399 699.745 546.167C699.745 493.238 665.311 468.985 618.676 468.985ZM850.459 468.985C795.542 468.985 754.466 511.178 754.466 605.716C754.466 689.629 788.733 731.098 847.735 731.098C896.482 731.098 933 697.778 933 642.874C933 599.986 910.127 557.599 855.378 557.599C824.807 557.599 803.018 571.783 791.985 592.727C791.985 543.219 809.216 500.108 850.181 500.108C876.222 500.108 886.56 515.072 892.063 539.659L930.026 532.122C921.105 489.651 894.119 468.985 850.431 468.985H850.459ZM268.084 471.739V728.4H305.047V552.842C305.047 537.267 304.686 527.866 303.963 518.827H304.686C308.466 529.173 312.968 538.268 319.666 550.061L423.384 728.4H470.352V471.767H433.862V647.269C433.862 662.844 434.223 672.245 434.973 681.285H434.195C430.124 670.464 425.131 660.014 419.271 650.05L315.553 471.739H268.084ZM846.623 588.138C877.583 588.138 895.092 611 895.092 643.542C895.092 678.475 875.166 700.114 847.819 700.114C817.526 700.114 796.598 672.273 792.986 635.337C802.157 603.824 822.528 588.138 846.623 588.138ZM266 794.902V828H472.659V794.902H266Z" fill="white"/>
</g>
<defs>
<clipPath id="clip0_853_1359">
<rect width="1200" height="1200" fill="white"/>
</clipPath>
</defs>
</svg>
