<svg width="60" height="60" viewBox="0 0 60 60" fill="none" xmlns="http://www.w3.org/2000/svg">
<circle cx="30" cy="30" r="30" fill="#00A9DE"/>
<rect opacity="0.01" x="15" y="15" width="30" height="30" fill="#FF3939"/>
<path fill-rule="evenodd" clip-rule="evenodd" d="M41.1331 40.0527C40.5838 41.0374 39.5318 41.7033 38.3242 41.7033C36.549 41.7033 35.1099 40.2642 35.1099 38.489C35.1099 37.3479 35.7045 36.3457 36.6008 35.7753C37.9305 34.2534 38.7363 32.262 38.7363 30.0824C38.7363 25.303 34.8618 21.4286 30.0824 21.4286C25.303 21.4286 21.4286 25.303 21.4286 30.0824C21.4286 32.5865 24.1612 36.4506 24.1612 36.4506C24.6167 37.0053 24.8901 37.7152 24.8901 38.489C24.8901 40.2642 23.451 41.7033 21.6758 41.7033C20.4682 41.7033 19.4162 41.0374 18.8669 40.0527C16.4635 37.3927 15 33.8673 15 30C15 21.7157 21.7157 15 30 15C38.2843 15 45 21.7157 45 30C45 33.8673 43.5365 37.3927 41.1331 40.0527Z" fill="white"/>
</svg>
