<svg width="60" height="60" viewBox="0 0 60 60" fill="none" xmlns="http://www.w3.org/2000/svg">
<circle cx="30" cy="30" r="30" fill="#00FF4A"/>
<rect opacity="0.01" x="15" y="15" width="30" height="30" fill="#FF0000"/>
<path fill-rule="evenodd" clip-rule="evenodd" d="M15.6891 37.2787C15.2492 38.1618 16.1626 39.1078 17.0606 38.699L33.4466 31.2398L38.3215 35.3716C38.8427 35.8134 39.6404 35.646 39.9401 35.032L44.3389 26.0184C44.7697 25.1355 43.8577 24.1987 42.9636 24.6057L33.7877 28.7827L25.0569 21.3828C24.5384 20.9433 23.7452 21.1064 23.4421 21.7148L15.6891 37.2787ZM35.5544 30.2802L33.4466 31.2398L31.6798 29.7423L33.7877 28.7827L35.5544 30.2802ZM35.5544 30.2802L41.1771 27.7206L38.6483 32.9025L35.5544 30.2802ZM31.6798 29.7423L18.8814 35.5684L24.7216 23.8447L31.6798 29.7423Z" fill="black"/>
</svg>
