<svg width="1200" height="1200" viewBox="0 0 1200 1200" fill="none" xmlns="http://www.w3.org/2000/svg">
<g clip-path="url(#clip0_974_137)">
<path d="M600 1200C931.371 1200 1200 931.371 1200 600C1200 268.629 931.371 0 600 0C268.629 0 0 268.629 0 600C0 931.371 268.629 1200 600 1200Z" fill="#222222"/>
<path d="M266.001 375.782C265.952 384.445 267.632 393.031 270.943 401.038C274.255 409.045 279.131 416.312 285.287 422.415C291.451 428.542 298.77 433.388 306.819 436.675C314.869 439.962 323.491 441.623 332.187 441.564C369.068 441.564 397.565 412.409 397.565 375.782C397.565 339.175 369.068 310.001 332.187 310.001C323.493 309.955 314.875 311.623 306.827 314.909C298.779 318.194 291.459 323.034 285.287 329.15C279.139 335.262 274.268 342.534 270.957 350.543C267.646 358.551 265.962 367.118 266.001 375.782Z" fill="white"/>
<path d="M745.938 823.763C745.891 832.483 747.573 841.124 750.884 849.183C754.196 857.242 759.071 864.556 765.225 870.699C771.388 876.87 778.706 881.753 786.755 885.066C794.805 888.378 803.427 890.055 812.125 889.998C849.006 889.998 877.503 860.642 877.503 823.763C877.503 786.884 849.006 757.509 812.125 757.509C803.427 757.46 794.806 759.138 786.754 762.447C778.703 765.755 771.38 770.629 765.206 776.79C759.063 782.947 754.196 790.27 750.889 798.334C747.581 806.397 745.899 815.041 745.938 823.763Z" fill="white"/>
<path d="M489.379 816.492C465.027 816.492 449.075 785.591 449.075 731.296C449.075 677.002 465.027 627.714 491.074 589.285C517.103 629.37 533.074 671.978 533.074 725.444C533.074 784.744 515.426 816.492 489.379 816.492ZM661.539 419.703C600.216 419.703 543.112 441.44 496.932 478.175C476.501 456.184 455.209 435.008 433.104 414.697L381.029 468.144C402.441 488.609 423.439 509.503 444.009 530.813C399.505 586.763 373.477 657.788 373.477 730.45C373.477 814.008 409.543 890.001 486.008 890.001C558.236 890.001 608.616 823.192 608.616 722.941C608.616 651.935 582.588 590.113 542.321 534.144C576.749 507.421 617.939 492.384 659.881 492.384C737.137 492.384 774.108 544.175 774.108 605.997V724.616H849.707V595.138C849.707 489.053 770.774 419.703 661.595 419.703H661.539Z" fill="white"/>
</g>
<defs>
<clipPath id="clip0_974_137">
<rect width="1200" height="1200" fill="white"/>
</clipPath>
</defs>
</svg>
