<svg width="1200" height="1200" viewBox="0 0 1200 1200" fill="none" xmlns="http://www.w3.org/2000/svg">
<g clip-path="url(#clip0_944_244)">
<path d="M600 1200C931.371 1200 1200 931.371 1200 600C1200 268.629 931.371 0 600 0C268.629 0 0 268.629 0 600C0 931.371 268.629 1200 600 1200Z" fill="#EDFF00"/>
<path d="M405.417 558.923C415.16 518.493 451.009 487.03 491.822 479.041C534.351 470.716 570.382 487.53 594.407 528.923C614.038 562.746 613.586 598.513 592.586 633.019C569.373 671.162 533.757 685.885 491.882 680.91C453.56 676.357 425.798 655.576 410.385 616.898C401.967 595.774 401.101 576.832 405.417 558.923ZM509.929 630.888C520.705 630.056 531.582 626.135 539.418 618.691V618.691C563.48 595.834 563.966 563.552 540.908 541.236C518.628 519.672 493.218 521.761 468.745 545.471C452.083 561.613 446.884 579.823 458.581 599.437C470.152 618.839 485.671 632.762 509.929 630.888Z" fill="#3E3E3E"/>
<path d="M208.034 672.919C198.971 669.621 193.807 660.396 193.379 650.761C192.144 623.009 191.937 595.501 192.014 566.372C192.021 563.713 192.397 561.018 193.18 558.477C217.929 478.131 277.587 473.712 327.699 488.847C360.21 498.666 383.666 531.018 384.806 565.499C385.716 593.027 387.048 620.845 383.915 648.044C383.734 649.618 383.248 651.157 382.528 652.669C375.246 667.953 347.25 669.104 338.554 654.578C337.621 653.019 336.966 651.413 336.68 649.743C332.863 627.416 335.557 604.015 335.203 581.057C334.73 550.438 319.308 533.672 291.156 532.591C261.624 531.456 243.529 547.66 241.591 579.107C240.293 600.156 241.511 621.35 241.249 642.474C240.906 670.183 229.604 680.77 208.034 672.919Z" fill="#3E3E3E"/>
<path d="M918.589 675.084C867.455 675.78 825.643 634.505 825.658 583.367C825.666 554.595 825.666 524.753 825.647 502.904C825.636 490.22 835.913 479.973 848.597 479.973V479.973V479.973C861.016 479.973 871.083 490.04 871.083 502.459V581.323C871.083 598.178 879.711 613.859 893.948 622.881L895.074 623.595C911.117 633.761 931.691 633.319 947.282 622.473V622.473C959.963 613.652 967.524 599.182 967.524 583.734V502.864C967.524 495.808 971.284 489.287 977.39 485.752V485.752C983.092 482.451 990.063 482.206 995.982 485.1L996.87 485.534C1004.29 489.163 1009 496.703 1009 504.964V583.433C1009 633.568 968.719 674.401 918.589 675.084V675.084Z" fill="#3E3E3E"/>
<path d="M623.228 548.566C617.934 537.578 609.604 528.499 609.744 519.554V519.554C610.064 499.136 641.619 482.435 654.904 497.943V497.943C665.901 510.78 671.168 528.527 678.984 544.132C686.376 558.892 693.92 573.576 703.399 592.234C717.071 565.172 729.434 540.663 741.837 516.175C745.57 508.804 753.606 494.861 753.606 494.861L754.978 493.354C771.987 474.659 802.889 489.588 798.816 514.531V514.531C775.644 565.489 751.061 615.907 724.348 665.088C713.657 684.771 690.344 680.92 678.609 658.785C659.681 623.081 642.108 586.656 623.228 548.566Z" fill="#3E3E3E"/>
<path d="M562.795 721.867C595.678 721.56 628.567 721.507 661.443 720.837C677.208 720.516 689.44 725.429 689.691 742.733C689.957 761.068 678.58 770.816 660.488 770.792C628.56 770.748 596.632 769.899 563.675 764.985C562.696 747.678 562.746 734.773 562.795 721.867Z" fill="#00F200"/>
<path d="M559.514 720.858C562.033 734.386 561.983 747.503 561.551 763.064C520.774 765.467 480.379 765.428 437.42 762.574C434.855 746.93 434.855 734.1 434.855 721.27C475.552 720.996 516.249 720.722 559.514 720.858Z" fill="#00B4F9"/>
<path d="M432.282 720.858C434.851 733.936 434.851 746.607 434.851 761.651C395.922 764.296 356.993 764.568 315.494 762.059C312.926 746.607 312.926 733.936 312.926 721.266C351.855 720.994 390.784 720.723 432.282 720.858Z" fill="#B500FF"/>
<path d="M310.368 721.584C312.926 734.462 312.926 746.938 312.926 761.751C281.072 764.392 249.206 765.246 217.373 764.578C210.266 764.429 203.273 758.94 194.32 754.969C192.156 748.153 191.899 742.277 192.027 734.223C202.863 728.387 213.176 722.128 223.789 721.575C251.727 720.12 279.795 721.145 310.368 721.584Z" fill="#FF00B6"/>
<circle cx="894.568" cy="456.982" r="22.9859" fill="#3E3E3E"/>
<circle cx="945.537" cy="456.982" r="22.9859" fill="#3E3E3E"/>
</g>
<defs>
<clipPath id="clip0_944_244">
<rect width="1200" height="1200" fill="white"/>
</clipPath>
</defs>
</svg>
