<svg width="60" height="60" viewBox="0 0 60 60" fill="none" xmlns="http://www.w3.org/2000/svg">
<circle cx="30" cy="30" r="30" fill="#4C0677"/>
<g clip-path="url(#clip0_620_2032)">
<path d="M20.6761 19.4299C21.5293 18.5274 22.6579 18 23.9917 18C26.5837 18 28.3009 19.9029 28.6303 22.7572C28.7383 23.6868 28.7383 24.9917 28.7329 26.5031V32.6466H25.1689V28.4549C25.1689 28.4549 25.1635 24.8666 25.1419 24.1925C25.0447 21.2729 23.3275 19.4353 20.6761 19.4299C19.8715 20.2889 19.4449 21.3273 19.3801 22.9203C19.3693 23.1432 19.3747 23.9315 19.3747 24.9645C19.3747 25.5027 19.3801 26.1062 19.3801 26.7369V32.652H15.8161V26.1986C15.8161 25.9757 15.8107 25.7528 15.8107 25.5299C15.8053 25.0787 15.7945 24.6274 15.8161 24.1762C15.8539 23.4259 15.9835 22.6865 16.3345 22.0014C17.1283 20.4357 18.7591 19.4244 20.4925 19.4244C20.5519 19.4244 20.6113 19.4299 20.6761 19.4299Z" fill="white"/>
<path d="M42.7837 26.8238C42.8053 26.3726 42.7999 25.9213 42.7891 25.4701C42.7837 25.2472 42.7837 25.0243 42.7837 24.8014V18.348H39.2197V24.2631C39.2197 24.8938 39.2197 25.4973 39.2251 26.0355C39.2305 27.0739 39.2305 27.8623 39.2197 28.0797C39.1549 29.6727 38.7283 30.7111 37.9291 31.5647C35.2777 31.5647 33.5551 29.7271 33.4633 26.8075C33.4417 26.1388 33.4309 24.4697 33.4309 22.5451V18.3425L29.8669 18.348V24.4915C29.8669 26.0029 29.8669 27.3132 29.9695 28.2374C30.2989 31.0917 32.0161 32.9946 34.6081 32.9946C35.9365 32.9946 37.0705 32.4672 37.9237 31.5647C37.9831 31.5647 38.0425 31.5701 38.1073 31.5701C39.8461 31.5701 41.4715 30.5589 42.2653 28.9931C42.6163 28.3081 42.7459 27.5741 42.7837 26.8238Z" fill="white"/>
</g>
<path d="M16.8963 33.7273V41H15.799V33.7273H16.8963ZM19.4709 37.7614V41H18.4091V35.5455H19.4283V36.4332H19.4957C19.6212 36.1444 19.8177 35.9124 20.0852 35.7372C20.3551 35.562 20.6948 35.4744 21.1044 35.4744C21.4761 35.4744 21.8016 35.5526 22.081 35.7088C22.3603 35.8627 22.5769 36.0923 22.7308 36.3977C22.8847 36.7031 22.9616 37.0807 22.9616 37.5305V41H21.8999V37.6584C21.8999 37.263 21.7969 36.9541 21.5909 36.7315C21.3849 36.5066 21.102 36.3942 20.7422 36.3942C20.496 36.3942 20.277 36.4474 20.0852 36.554C19.8958 36.6605 19.7455 36.8168 19.6342 37.0227C19.5253 37.2263 19.4709 37.4725 19.4709 37.7614ZM28.8565 35.5455L26.8786 41H25.7422L23.7607 35.5455H24.9006L26.282 39.7429H26.3388L27.7166 35.5455H28.8565ZM32.0197 41.1101C31.4823 41.1101 31.0195 40.9953 30.6312 40.7656C30.2453 40.5336 29.947 40.2081 29.7363 39.7891C29.528 39.3677 29.4238 38.8741 29.4238 38.3082C29.4238 37.7495 29.528 37.2571 29.7363 36.831C29.947 36.4048 30.2406 36.0722 30.617 35.8331C30.9958 35.594 31.4385 35.4744 31.9451 35.4744C32.2529 35.4744 32.5512 35.5253 32.84 35.6271C33.1288 35.7289 33.3881 35.8887 33.6177 36.1065C33.8474 36.3243 34.0285 36.6072 34.161 36.9553C34.2936 37.3009 34.3599 37.7211 34.3599 38.2159V38.5923H30.024V37.7969H33.3194C33.3194 37.5175 33.2626 37.2701 33.149 37.0547C33.0353 36.8369 32.8755 36.6652 32.6696 36.5398C32.466 36.4143 32.2269 36.3516 31.9522 36.3516C31.6539 36.3516 31.3935 36.425 31.171 36.5717C30.9508 36.7161 30.7804 36.9055 30.6596 37.1399C30.5413 37.3719 30.4821 37.6241 30.4821 37.8963V38.5178C30.4821 38.8823 30.546 39.1925 30.6738 39.4482C30.804 39.7038 30.9851 39.8991 31.2172 40.0341C31.4492 40.1667 31.7202 40.233 32.0304 40.233C32.2316 40.233 32.4151 40.2045 32.5808 40.1477C32.7465 40.0885 32.8897 40.0009 33.0105 39.8849C33.1312 39.7689 33.2235 39.6257 33.2875 39.4553L34.2924 39.6364C34.2119 39.9323 34.0675 40.1915 33.8592 40.4141C33.6532 40.6342 33.394 40.8059 33.0815 40.929C32.7714 41.0497 32.4174 41.1101 32.0197 41.1101ZM39.6254 36.8771L38.663 37.0476C38.6228 36.9245 38.5588 36.8073 38.4712 36.696C38.386 36.5848 38.27 36.4936 38.1232 36.4226C37.9764 36.3516 37.793 36.3161 37.5728 36.3161C37.2721 36.3161 37.0212 36.3835 36.82 36.5185C36.6187 36.651 36.5181 36.8227 36.5181 37.0334C36.5181 37.2157 36.5856 37.3625 36.7205 37.4737C36.8555 37.585 37.0733 37.6761 37.3739 37.7472L38.2404 37.946C38.7423 38.062 39.1164 38.2408 39.3626 38.4822C39.6088 38.7237 39.7319 39.0374 39.7319 39.4233C39.7319 39.75 39.6372 40.0412 39.4478 40.2969C39.2608 40.5502 38.9992 40.7491 38.663 40.8935C38.3292 41.0379 37.9421 41.1101 37.5018 41.1101C36.891 41.1101 36.3926 40.9799 36.0067 40.7195C35.6209 40.4567 35.3841 40.0838 35.2965 39.6009L36.3228 39.4446C36.3867 39.7121 36.5181 39.9145 36.717 40.0518C36.9158 40.1868 37.1751 40.2543 37.4947 40.2543C37.8427 40.2543 38.1209 40.1821 38.3292 40.0376C38.5375 39.8909 38.6417 39.7121 38.6417 39.5014C38.6417 39.331 38.5778 39.1877 38.4499 39.0717C38.3245 38.9557 38.1315 38.8681 37.8711 38.8089L36.9478 38.6065C36.4388 38.4905 36.0624 38.3059 35.8185 38.0526C35.5771 37.7992 35.4563 37.4785 35.4563 37.0902C35.4563 36.7682 35.5463 36.4865 35.7262 36.245C35.9061 36.0036 36.1547 35.8153 36.4719 35.6804C36.7892 35.5431 37.1526 35.4744 37.5621 35.4744C38.1516 35.4744 38.6156 35.6023 38.9542 35.858C39.2927 36.1113 39.5165 36.451 39.6254 36.8771ZM43.4455 35.5455V36.3977H40.4661V35.5455H43.4455ZM41.2651 34.2386H42.3269V39.3984C42.3269 39.6044 42.3577 39.7595 42.4192 39.8636C42.4808 39.9654 42.5601 40.0353 42.6571 40.0732C42.7566 40.1087 42.8643 40.1264 42.9803 40.1264C43.0655 40.1264 43.1401 40.1205 43.204 40.1087C43.2679 40.0968 43.3176 40.0874 43.3532 40.0803L43.5449 40.9574C43.4834 40.9811 43.3958 41.0047 43.2821 41.0284C43.1685 41.0545 43.0265 41.0687 42.856 41.071C42.5766 41.0758 42.3162 41.026 42.0748 40.9219C41.8333 40.8177 41.638 40.6567 41.4888 40.4389C41.3397 40.2211 41.2651 39.9477 41.2651 39.6186V34.2386Z" fill="white"/>
<defs>
<clipPath id="clip0_620_2032">
<rect width="27" height="15" fill="white" transform="translate(15.8 18)"/>
</clipPath>
</defs>
</svg>
