<svg width="60" height="60" viewBox="0 0 60 60" fill="none" xmlns="http://www.w3.org/2000/svg">
<circle cx="30" cy="30" r="30" fill="#820AD1"/>
<g clip-path="url(#clip0_610_2059)">
<path d="M18.9599 22.7158C20.0027 21.6328 21.3821 21 23.0123 21C26.1803 21 28.2791 23.2834 28.6817 26.7086C28.8137 27.8242 28.8137 29.39 28.8071 31.2037V38.5759H24.4511V33.5459C24.4511 33.5459 24.4445 29.2399 24.4181 28.431C24.2993 24.9275 22.2005 22.7224 18.9599 22.7158C17.9765 23.7466 17.4551 24.9928 17.3759 26.9043C17.3627 27.1718 17.3693 28.1178 17.3693 29.3574C17.3693 30.0033 17.3759 30.7274 17.3759 31.4842V38.5825H13.0199V30.8383C13.0199 30.5709 13.0133 30.3034 13.0133 30.0359C13.0067 29.4944 12.9935 28.9529 13.0199 28.4114C13.0661 27.5111 13.2245 26.6238 13.6535 25.8017C14.6237 23.9228 16.6169 22.7093 18.7355 22.7093C18.8081 22.7093 18.8807 22.7158 18.9599 22.7158Z" fill="white"/>
<path d="M45.9803 31.5886C46.0067 31.0471 46.0001 30.5056 45.9869 29.9641C45.9803 29.6966 45.9803 29.4291 45.9803 29.1617V21.4176H41.6243V28.5158C41.6243 29.2726 41.6243 29.9967 41.6309 30.6426C41.6375 31.8887 41.6375 32.8347 41.6243 33.0957C41.5451 35.0073 41.0237 36.2534 40.0469 37.2776C36.8063 37.2776 34.7009 35.0725 34.5887 31.5691C34.5623 30.7666 34.5491 28.7637 34.5491 26.4542V21.411L30.1931 21.4176V28.7898C30.1931 30.6035 30.1931 32.1758 30.3185 33.2849C30.7211 36.71 32.8199 38.9935 35.9879 38.9935C37.6115 38.9935 38.9975 38.3606 40.0403 37.2776C40.1129 37.2776 40.1855 37.2842 40.2647 37.2842C42.3899 37.2842 44.3765 36.0707 45.3467 34.1917C45.7757 33.3697 45.9341 32.489 45.9803 31.5886Z" fill="white"/>
</g>
<defs>
<clipPath id="clip0_610_2059">
<rect width="33" height="18" fill="white" transform="translate(13 21)"/>
</clipPath>
</defs>
</svg>
