<svg width="60" height="60" viewBox="0 0 60 60" fill="none" xmlns="http://www.w3.org/2000/svg">
<circle cx="30" cy="30" r="30" fill="#51AF3E"/>
<mask id="mask0_0_231" style="mask-type:luminance" maskUnits="userSpaceOnUse" x="16" y="16" width="28" height="28">
<path fill-rule="evenodd" clip-rule="evenodd" d="M16 16.1057H43.6661V43.902H16V16.1057Z" fill="white"/>
</mask>
<g mask="url(#mask0_0_231)">
<path fill-rule="evenodd" clip-rule="evenodd" d="M39.0052 34.6486C39.0447 34.6061 39.087 34.5659 39.1235 34.521C39.7088 33.8011 40.1821 33.0126 40.5571 32.165C40.7654 31.6939 40.9418 31.2107 41.0832 30.7151C41.1205 30.5844 41.1347 30.4719 41.0258 30.352C40.4044 29.6684 39.6439 29.2551 38.7252 29.1429C38.5914 29.1265 38.4498 29.1037 38.3102 29.1647C39.0166 30.9479 39.2434 32.7624 39.0052 34.6486ZM42.4275 33.6559C43.6231 30.0782 43.285 26.6157 41.5963 23.2685C40.8117 21.7131 38.573 19.1594 37.922 19.0341C37.9503 19.1492 38.052 19.2028 38.1266 19.2774C38.4908 19.6416 38.8568 20.0028 39.1847 20.4021C41.3373 23.0232 42.1512 26.0077 41.6229 29.3571C41.5896 29.5682 41.6178 29.7491 41.729 29.9375C42.1377 30.6299 42.3292 31.3889 42.4096 32.1858C42.4593 32.6774 42.4464 33.1645 42.4275 33.6559ZM41.3533 30.8326C41.3251 30.8742 41.297 30.9005 41.287 30.9326C40.8062 32.4635 40.0016 33.8115 38.9723 35.0323C38.8932 35.1261 38.841 35.2286 38.8101 35.3475C38.2893 37.3449 37.2325 39.0026 35.6514 40.3284C35.5835 40.3853 35.4839 40.4216 35.4678 40.5459C35.8347 40.603 36.1847 40.5307 36.5299 40.4559C37.5259 40.24 38.394 39.7712 39.1111 39.0504C40.1024 38.0541 41.0157 37.0039 41.5216 35.6527C41.8709 34.7195 42.0735 33.7718 42.0312 32.7765C42.0011 32.0658 41.7681 31.4226 41.3533 30.8326ZM37.6012 33.9135C37.6317 32.3921 37.2304 30.9911 36.5462 29.6613C36.416 29.4083 36.411 29.4107 36.1394 29.5067C36.1169 29.5146 36.0952 29.5249 36.0731 29.5341C34.1006 30.3604 32.7472 31.7837 31.9935 33.7795C31.7161 34.5136 31.5843 35.2816 31.565 36.0624C31.5459 36.835 31.6688 37.5891 32.0081 38.2951C32.1377 38.5647 32.1405 38.5691 32.4112 38.5195C34.121 38.2061 35.6835 37.5494 37.0845 36.5143C37.2075 36.4234 37.2738 36.3223 37.3109 36.1708C37.4933 35.4238 37.6278 34.6725 37.6012 33.9135ZM18.966 32.6322C18.9052 32.7031 18.912 32.7906 18.9069 32.872C18.8773 33.3524 18.9007 33.8342 18.9762 34.3061C19.1673 35.4997 19.5618 36.6243 20.1968 37.6596C21.0063 38.9793 22.0368 40.0741 23.3894 40.8529C24.0343 41.2244 24.6961 41.5566 25.3885 41.829C26.8965 42.4223 28.441 42.7139 30.0648 42.4418C31.3564 42.2253 32.5651 41.7958 33.6785 41.1045C33.772 41.0464 33.892 41.0092 33.9419 40.8694C33.0205 40.6304 32.2404 40.1738 31.639 39.4568C31.4116 39.1857 31.1792 39.066 30.8405 39.1406C30.7944 39.1507 30.745 39.1462 30.6973 39.1507C29.555 39.2589 28.4171 39.1916 27.3029 38.943C23.6641 38.1311 20.9058 36.1191 19.1045 32.8324C19.0655 32.7614 19.051 32.6725 18.966 32.6322ZM41.4475 29.34C41.4609 29.0617 41.4708 28.8244 41.484 28.5872C41.5983 26.5392 41.1956 24.5958 40.1791 22.816C38.0393 19.0694 34.7383 17.1937 30.4728 17.0069C28.1974 16.9073 26.0755 17.5248 24.1719 18.7722C20.9666 20.8728 19.287 23.8516 19.194 27.6989C19.186 28.0351 19.2276 28.3726 19.2482 28.7465C19.3826 28.624 19.4066 28.5033 19.4583 28.3988C19.9344 27.4348 20.5308 26.5485 21.3 25.8006C23.9031 23.2697 27.0272 22.3514 30.5741 22.9985C33.4081 23.5156 35.6724 25.0016 37.3438 27.3601C37.4841 27.5581 37.6295 27.6309 37.8689 27.6395C39.1331 27.6858 40.2127 28.1699 41.1154 29.0552C41.2072 29.1453 41.2741 29.2649 41.4475 29.34ZM35.7194 27.8665C35.6908 27.7282 35.5774 27.6487 35.4887 27.5562C34.5004 26.5234 33.367 25.697 32.0477 25.1314C30.4409 24.4425 28.7633 24.1572 27.0295 24.3373C24.9707 24.5511 23.1515 25.3535 21.6076 26.7458C20.6772 27.5849 19.9847 28.5971 19.4812 29.7408C19.4146 29.8921 19.3654 30.0405 19.4144 30.2235C20.3341 33.6535 22.3966 36.1492 25.5654 37.7287C26.8085 38.3483 28.1345 38.7094 29.5199 38.8315C29.9966 38.8734 30.4762 38.8886 30.9549 38.9009C31.298 38.9098 31.3019 38.8915 31.1494 38.601C31.0826 38.4739 31.018 38.3453 30.9622 38.2133C30.3822 36.8411 30.3117 35.4209 30.6395 33.9874C31.2709 31.2269 32.9048 29.2592 35.4484 28.0342C35.5427 27.9887 35.6544 27.9676 35.7194 27.8665ZM36.9876 36.8837C36.9649 36.891 36.939 36.8937 36.9201 36.9065C35.5796 37.814 34.135 38.4857 32.5506 38.8438C32.3702 38.8845 32.3592 38.9249 32.4735 39.0842C32.915 39.6998 33.5297 40.0743 34.2195 40.3532C34.4438 40.4439 34.5943 40.3968 34.7588 40.2372C35.2755 39.7358 35.7673 39.2133 36.1654 38.6113C36.515 38.0827 36.8551 37.5471 37.033 36.9289C37.0593 36.9021 37.0823 36.8729 37.0388 36.8452C37.0324 36.8412 37.0052 36.87 36.9876 36.8837ZM37.006 40.6428C36.9077 40.6133 36.8174 40.6465 36.7267 40.6783C36.1898 40.866 35.6337 40.9456 35.068 40.9503C34.8665 40.952 34.7005 41.0099 34.5316 41.1155C33.7759 41.5879 32.9662 41.9428 32.1124 42.1989C31.3449 42.429 30.5617 42.5674 29.7295 42.6108C29.8558 42.7174 29.9783 42.6984 30.0932 42.707C30.5262 42.7397 30.9577 42.6853 31.3835 42.6358C33.2495 42.4191 35.005 41.8486 36.6373 40.9129C36.7682 40.8379 36.9224 40.7855 37.0031 40.6396C37.0337 40.6313 37.0643 40.6231 37.095 40.6148C37.0841 40.6036 37.073 40.5829 37.0622 40.583C37.0266 40.5836 37.0008 40.6005 37.006 40.6428ZM37.5081 18.704C37.5382 18.767 37.5862 18.7924 37.655 18.7735C37.655 18.916 37.7529 18.9463 37.9052 19.0015C37.8289 18.8575 37.7593 18.7948 37.6509 18.7787C37.6221 18.7127 37.5714 18.6933 37.5039 18.7094C37.5209 18.6495 37.4793 18.6225 37.4375 18.6002C37.4133 18.5873 37.3899 18.6039 37.3982 18.6253C37.4169 18.6729 37.457 18.698 37.5081 18.704ZM20.5353 38.4841C20.5103 38.4602 20.4855 38.4363 20.4606 38.4125C20.4438 38.3348 20.4163 38.2674 20.3197 38.2669C20.3296 38.2201 20.3081 38.1913 20.267 38.1736C20.2527 38.0409 20.1704 37.951 20.0758 37.8688C20.0239 37.7748 19.976 37.6782 19.9194 37.587C18.865 35.8876 18.4023 34.0309 18.4758 32.0412C18.4878 31.7195 18.4337 31.4318 18.3363 31.1329C17.9211 29.8587 17.7232 28.552 17.7825 27.2091C17.8556 25.551 18.1953 23.9626 18.9881 22.4886C19.043 22.3866 19.1307 22.2905 19.0962 22.1573C19.1522 22.164 19.1652 22.1293 19.1665 22.0838C19.2334 22.0571 19.2346 21.9981 19.2373 21.94C19.2476 21.9362 19.2594 21.9345 19.2675 21.9281C19.2724 21.9243 19.2715 21.9131 19.273 21.9052C19.2626 21.9182 19.252 21.9311 19.2416 21.9441C19.1759 21.9712 19.1625 22.0241 19.1701 22.0875C19.1167 22.0804 19.0995 22.1117 19.0964 22.1576C19.0089 22.1903 18.9815 22.2749 18.9386 22.3445C17.4568 24.745 16.7711 27.3488 16.9166 30.1723C16.9899 31.5968 17.2979 32.9669 17.8113 34.2916C18.3303 35.6307 19.0537 36.8507 20.0057 37.9306C20.0622 38.0404 20.1284 38.1416 20.2434 38.1997C20.2517 38.241 20.274 38.2666 20.3184 38.268C20.3312 38.3524 20.3737 38.4058 20.465 38.4083C20.4693 38.4537 20.491 38.4806 20.5397 38.4792C20.5381 38.5388 20.5642 38.5862 20.6051 38.6267L20.6166 38.6366L20.6016 38.6297C20.594 38.5745 20.5823 38.5213 20.5353 38.4841ZM43.6661 30.0145C43.5062 38.1478 37.1736 43.902 29.8265 43.902C22.4514 43.9019 16.0419 37.9992 16.0002 30.0842C15.9573 21.9628 22.4888 16.2257 29.7014 16.1073C36.8109 15.9908 43.5569 21.7255 43.6661 30.0145Z" fill="#050402"/>
</g>
<path fill-rule="evenodd" clip-rule="evenodd" d="M35.7194 27.8665C35.6544 27.9676 35.5427 27.9888 35.4483 28.0342C32.9048 29.2592 31.2707 31.2269 30.6394 33.9874C30.3116 35.4209 30.3821 36.8411 30.9622 38.2133C31.018 38.3453 31.0826 38.474 31.1492 38.601C31.3019 38.8916 31.298 38.9098 30.9548 38.901C30.4762 38.8886 29.9965 38.8735 29.5198 38.8315C28.1344 38.7094 26.8084 38.3483 25.5654 37.7288C22.3965 36.1492 20.334 33.6535 19.4144 30.2235C19.3654 30.0405 19.4146 29.8921 19.4812 29.7408C19.9845 28.5972 20.6771 27.5849 21.6076 26.7458C23.1515 25.3535 24.9706 24.5511 27.0293 24.3374C28.7633 24.1572 30.4409 24.4425 32.0476 25.1314C33.3669 25.697 34.5003 26.5235 35.4887 27.5562C35.5774 27.6488 35.6907 27.7282 35.7194 27.8665Z" fill="#BF4B37"/>
<path fill-rule="evenodd" clip-rule="evenodd" d="M41.4474 29.34C41.274 29.2649 41.2072 29.1453 41.1153 29.0551C40.2126 28.1699 39.133 27.6858 37.869 27.6396C37.6295 27.6308 37.4841 27.5581 37.3437 27.3601C35.6723 25.0016 33.4081 23.5156 30.574 22.9986C27.0272 22.3515 23.903 23.2698 21.2999 25.8007C20.5307 26.5485 19.9343 27.4348 19.4582 28.3989C19.4066 28.5033 19.3826 28.624 19.2482 28.7465C19.2276 28.3727 19.1859 28.0352 19.194 27.6989C19.2869 23.8516 20.9665 20.8728 24.1718 18.7723C26.0754 17.5247 28.1975 16.9074 30.4729 17.007C34.7384 17.1937 38.0393 19.0695 40.179 22.8161C41.1955 24.5957 41.5983 26.5393 41.484 28.5873C41.4707 28.8244 41.4608 29.0617 41.4474 29.34Z" fill="#E9A812"/>
<path fill-rule="evenodd" clip-rule="evenodd" d="M18.966 32.6323C19.0512 32.6725 19.0655 32.7614 19.1045 32.8325C20.9059 36.1192 23.6641 38.1311 27.3029 38.943C28.4171 39.1917 29.555 39.259 30.6973 39.1508C30.745 39.1462 30.7944 39.1508 30.8405 39.1406C31.1792 39.066 31.4116 39.1857 31.639 39.4568C32.2404 40.1739 33.0205 40.6304 33.9419 40.8694C33.892 41.0092 33.772 41.0464 33.6785 41.1044C32.5652 41.7959 31.3564 42.2254 30.0648 42.4418C28.4411 42.714 26.8966 42.4223 25.3885 41.829C24.6961 41.5566 24.0343 41.2244 23.3894 40.853C22.0368 40.0741 21.0063 38.9794 20.1969 37.6597C19.5618 36.6243 19.1673 35.4998 18.9763 34.3061C18.9007 33.8343 18.8774 33.3524 18.9069 32.872C18.912 32.7906 18.9053 32.7032 18.966 32.6323Z" fill="#E9A812"/>
<path fill-rule="evenodd" clip-rule="evenodd" d="M37.6012 33.9136C37.6278 34.6726 37.4933 35.4239 37.3108 36.1707C37.2737 36.3223 37.2074 36.4235 37.0845 36.5143C35.6834 37.5494 34.1209 38.2061 32.4111 38.5195C32.1403 38.5692 32.1376 38.5647 32.0081 38.2951C31.6688 37.5892 31.5459 36.8351 31.565 36.0624C31.5843 35.2816 31.7161 34.5136 31.9934 33.7794C32.7471 31.7837 34.1004 30.3605 36.0731 29.5342C36.0952 29.5249 36.1169 29.5146 36.1394 29.5067C36.411 29.4107 36.4159 29.4082 36.5462 29.6614C37.2303 30.9911 37.6317 32.3922 37.6012 33.9136Z" fill="#FDE500"/>
<path fill-rule="evenodd" clip-rule="evenodd" d="M41.3534 30.8326C41.7682 31.4227 42.0012 32.0657 42.0313 32.7766C42.0736 33.7719 41.871 34.7195 41.5217 35.6527C41.0158 37.004 40.1024 38.0542 39.1112 39.0504C38.3941 39.7712 37.5259 40.2401 36.53 40.4559C36.1848 40.5308 35.8346 40.6031 35.4679 40.5459C35.4839 40.4217 35.5836 40.3853 35.6514 40.3285C37.2324 39.0027 38.2893 37.345 38.81 35.3474C38.8411 35.2286 38.8932 35.1261 38.9723 35.0324C40.0016 33.8115 40.8062 32.4636 41.287 30.9326C41.2971 30.9006 41.3252 30.8742 41.3534 30.8326Z" fill="#E9A812"/>
<path fill-rule="evenodd" clip-rule="evenodd" d="M42.4275 33.656C42.4465 33.1646 42.4593 32.6774 42.4097 32.1857C42.3292 31.3889 42.1378 30.63 41.7292 29.9376C41.6179 29.7492 41.5897 29.5681 41.623 29.3572C42.1513 26.0078 41.3374 23.0233 39.1847 20.4022C38.8569 20.0029 38.4909 19.6415 38.1267 19.2774C38.052 19.2028 37.9504 19.1492 37.922 19.0342C38.573 19.1595 40.8118 21.7132 41.5964 23.2685C43.2851 26.6157 43.6231 30.0782 42.4275 33.656Z" fill="#BF4B37"/>
<path fill-rule="evenodd" clip-rule="evenodd" d="M20.0056 37.9308C19.0536 36.8507 18.3304 35.6307 17.8114 34.2916C17.298 32.9669 16.99 31.5968 16.9166 30.1723C16.7712 27.3488 17.4568 24.745 18.9386 22.3445C18.9816 22.2749 19.0088 22.1903 19.0963 22.1577L19.0961 22.1573C19.1308 22.2906 19.043 22.3866 18.9881 22.4886C18.1953 23.9626 17.8557 25.5512 17.7824 27.2091C17.7233 28.552 17.9211 29.8587 18.3363 31.1329C18.4336 31.4318 18.4877 31.7195 18.4759 32.0412C18.4023 34.0309 18.8649 35.8876 19.9194 37.587C19.976 37.6782 20.0239 37.7748 20.0756 37.8688C20.052 37.8895 20.0289 37.9101 20.0056 37.9308Z" fill="#BF4B37"/>
<path fill-rule="evenodd" clip-rule="evenodd" d="M39.0052 34.6487C39.2434 32.7624 39.0166 30.9479 38.3102 29.1648C38.4498 29.1037 38.5913 29.1265 38.7252 29.1429C39.6439 29.2551 40.4044 29.6685 41.0258 30.3521C41.1347 30.4719 41.1205 30.5845 41.0832 30.7152C40.9418 31.2108 40.7654 31.694 40.557 32.165C40.1821 33.0126 39.7088 33.8012 39.1234 34.521C39.087 34.5659 39.0447 34.6062 39.0052 34.6487Z" fill="#BF4B37"/>
<path fill-rule="evenodd" clip-rule="evenodd" d="M37.0334 36.9292C36.8551 37.5472 36.515 38.0827 36.1654 38.6113C35.7673 39.2133 35.2755 39.7359 34.7587 40.2372C34.5943 40.3968 34.4438 40.4439 34.2194 40.3532C33.5296 40.0743 32.915 39.6998 32.4735 39.0843C32.3592 38.9249 32.3702 38.8846 32.5506 38.8438C34.135 38.4857 35.5796 37.814 36.9201 36.9065C36.939 36.8937 36.9649 36.8911 36.9875 36.8837C37.0025 36.8991 37.0179 36.9143 37.0334 36.9292Z" fill="#BF4B37"/>
<path fill-rule="evenodd" clip-rule="evenodd" d="M37.0031 40.6396C36.9224 40.7855 36.7683 40.8379 36.6373 40.9129C35.005 41.8487 33.2496 42.4191 31.3835 42.6358C30.9577 42.6852 30.5262 42.7397 30.0932 42.7071C29.9783 42.6984 29.8558 42.7174 29.7296 42.6108C30.5617 42.5674 31.345 42.4291 32.1125 42.1988C32.9663 41.9427 33.7759 41.5878 34.5317 41.1155C34.7005 41.0098 34.8665 40.952 35.0681 40.9504C35.6337 40.9456 36.1898 40.866 36.7267 40.6783C36.8174 40.6466 36.9077 40.6132 37.006 40.6429L37.0031 40.6396Z" fill="#BF4B37"/>
<path fill-rule="evenodd" clip-rule="evenodd" d="M20.4605 38.3689C20.2404 38.2812 20.1138 38.1282 20.0056 37.9623C20.0501 37.9312 20.0944 37.9 20.1393 37.8689C20.3208 37.993 20.4785 38.1289 20.5056 38.3293L20.4605 38.3689Z" fill="#BF4B37"/>
<path fill-rule="evenodd" clip-rule="evenodd" d="M37.6509 18.7851C37.864 18.8203 38.0009 18.9577 38.1509 19.2735C37.8515 19.1523 37.659 19.0861 37.659 18.7735C37.659 18.7737 37.6509 18.7851 37.6509 18.7851Z" fill="#BF4B37"/>
<path fill-rule="evenodd" clip-rule="evenodd" d="M37.8965 19.072C37.6674 19.0455 37.488 18.9351 37.4042 18.7262C37.3668 18.632 37.4719 18.5586 37.5808 18.6157C37.7673 18.7137 37.9538 18.8325 37.8776 19.0956L37.8965 19.072Z" fill="#BF4B37"/>
<path fill-rule="evenodd" clip-rule="evenodd" d="M20.8185 38.7527C20.507 38.7443 20.3621 38.5611 20.3185 38.2708L20.3228 38.2668C20.6519 38.269 20.746 38.5002 20.8033 38.7668C20.8033 38.7672 20.8185 38.7527 20.8185 38.7527Z" fill="#BF4B37"/>
<path fill-rule="evenodd" clip-rule="evenodd" d="M19.1836 22.4399C19.1471 22.2252 19.2106 22.0455 19.5211 21.9543L19.5011 21.9399C19.4881 22.1371 19.4826 22.3369 19.1666 22.4274L19.1836 22.4399Z" fill="#BF4B37"/>
<path fill-rule="evenodd" clip-rule="evenodd" d="M20.8648 38.9701C20.6718 38.8342 20.5488 38.6769 20.5558 38.4792L20.5353 38.495C20.7573 38.619 20.8133 38.796 20.8493 38.9792L20.8648 38.9701Z" fill="#BF4B37"/>
<path fill-rule="evenodd" clip-rule="evenodd" d="M37.0171 40.8661C36.9926 40.6656 37.1151 40.5856 37.2836 40.5831C37.3346 40.5826 37.3866 40.6806 37.4381 40.7336C37.2931 40.7726 37.1481 40.8116 37.0031 40.8506L37.0171 40.8661Z" fill="#BF4B37"/>
<path fill-rule="evenodd" clip-rule="evenodd" d="M37.5039 18.7296C37.7273 18.6531 37.8952 18.7446 37.9903 19.0576C37.9903 19.0576 38.0036 19.0331 38.0039 19.0326C37.7759 19.1221 37.6175 19.0021 37.5179 18.7041L37.5039 18.7296Z" fill="#BF4B37"/>
<path fill-rule="evenodd" clip-rule="evenodd" d="M19.0972 22.4329C19.1122 22.2159 19.1932 22.0679 19.4467 22.1014L19.4297 22.0839C19.4227 22.2994 19.3612 22.4629 19.0962 22.4319L19.0972 22.4329Z" fill="#BF4B37"/>
<path fill-rule="evenodd" clip-rule="evenodd" d="M19.2573 22.0893C19.3073 22.0278 19.3568 21.9668 19.4068 21.9053C19.3988 21.9423 19.4033 21.9953 19.3803 22.0133C19.3418 22.0438 19.2863 22.0518 19.2373 22.0698L19.2573 22.0893Z" fill="#BF4B37"/>
<path fill-rule="evenodd" clip-rule="evenodd" d="M36.9875 37.0286C37.0705 36.9641 37.1995 36.8276 37.2295 36.8466C37.4355 36.9776 37.3265 37.1161 37.2035 37.2431C37.1305 37.1736 37.0585 37.1016 36.9875 37.0286Z" fill="#BF4B37"/>
<path fill-rule="evenodd" clip-rule="evenodd" d="M20.3549 38.1736C20.5494 38.2576 20.6514 38.3941 20.6044 38.6151C20.6049 38.6151 20.5989 38.6206 20.5989 38.6206C20.3879 38.6141 20.2824 38.4926 20.2434 38.2971C20.2434 38.2976 20.3549 38.1736 20.3549 38.1736Z" fill="#BF4B37"/>
<path fill-rule="evenodd" clip-rule="evenodd" d="M20.8351 38.7443C20.6046 38.7508 20.5021 38.6233 20.4816 38.4083L20.4606 38.4283C20.5786 38.5408 20.6966 38.6538 20.8146 38.7668L20.8351 38.7443Z" fill="#BF4B37"/>
<path fill-rule="evenodd" clip-rule="evenodd" d="M20.6016 38.6403L20.6726 38.6728C20.6726 38.6728 20.6181 38.6263 20.6176 38.6268C20.6171 38.6273 20.6016 38.6403 20.6016 38.6403Z" fill="#BF4B37"/>
<rect opacity="0.01" x="15" y="15" width="30" height="30" fill="#FF0000"/>
</svg>
