<svg width="1200" height="1200" viewBox="0 0 1200 1200" fill="none" xmlns="http://www.w3.org/2000/svg">
<g clip-path="url(#clip0_1097_11)">
<path d="M600 1200C931.371 1200 1200 931.371 1200 600C1200 268.629 931.371 0 600 0C268.629 0 0 268.629 0 600C0 931.371 268.629 1200 600 1200Z" fill="#F1F1F1"/>
<path d="M638.197 374.432C633.61 369.826 628.024 366.822 621.243 365.02C620.046 364.419 619.248 363.418 619.647 361.615L620.644 356.008C621.243 352.603 619.048 350 615.657 350H608.078C604.686 350 601.495 352.804 600.896 356.008L599.899 361.014C599.501 363.217 598.104 364.019 596.309 364.619C588.33 366.021 581.149 369.226 575.165 373.831C566.189 380.641 561.003 389.252 559.407 399.666C557.811 409.078 560.005 416.688 565.99 422.296C571.974 427.903 581.349 432.109 594.115 435.113C602.492 437.115 608.078 439.518 610.67 442.122C613.264 444.725 614.261 448.33 613.663 452.335C612.865 456.741 610.67 460.346 606.88 462.95C603.091 465.553 598.104 466.954 592.319 466.954C586.335 466.954 581.548 465.353 577.758 462.148C575.165 459.945 573.769 456.741 573.37 452.736C572.971 451.334 572.372 447.329 568.184 447.329C563.795 447.329 558.011 447.329 553.423 447.329C548.835 447.329 548.037 451.134 548.037 452.736C547.639 460.947 550.431 468.356 556.614 475.166C560.604 479.572 565.591 482.776 571.575 484.778H571.176C574.367 485.78 577.16 486.18 576.362 489.385L575.365 494.992C574.766 498.397 576.96 501 580.351 501H587.931C591.322 501 594.513 498.196 595.112 494.992L596.109 489.985C596.508 487.582 598.104 486.781 600.099 486.38C608.676 484.978 616.256 482.175 622.639 477.569C631.814 471.16 637.4 462.349 638.995 451.134C640.591 441.521 638.397 433.711 632.612 428.103C626.827 422.496 617.053 418.09 603.49 415.086C594.912 413.083 589.527 411.081 587.134 408.677C584.739 406.274 583.742 402.87 584.54 398.664C585.139 394.459 587.333 391.054 590.923 388.05C594.513 385.046 598.902 383.644 604.487 383.644C610.272 383.644 614.46 385.447 617.253 388.851C619.048 391.054 619.647 393.257 620.046 395.46C621.043 399.866 623.636 401.668 626.429 401.668H639.793C645.179 401.668 646.176 398.264 645.977 394.859C646.176 387.449 643.184 379.439 638.197 374.432Z" fill="#FD8832"/>
<path d="M711.452 321C714.662 317.8 717.671 320.4 716.869 323.4L693.194 441.8C692.392 446.2 690.787 453.4 689.984 457.8C689.984 457.8 686.202 476.744 682.257 496.765L681.726 499.46L681.372 501.258C679.722 509.652 678.091 518 676.743 525C673.332 542 665.507 554 652.266 561.6C645.043 565.8 636.015 568 627.387 568H498.984C494.57 568 493.567 564.8 496.777 561.6L531.486 527.2C534.696 524 541.117 521.4 545.531 521.4H569.205C573.819 521.4 574.822 524 571.613 527.2L563.587 535.2C558.344 540.613 557.994 540.974 559.439 540.998L559.658 541H559.775H618.56C622.974 541 630.197 539.8 634.41 538.2C634.41 538.2 648.053 533.2 650.46 520.6C653.67 504.2 684.166 354.6 684.166 354.6C684.968 350.2 688.379 344 691.589 340.8L711.452 321ZM700.015 283C704.43 283 705.433 286.2 702.223 289.4L667.513 323.6C664.304 326.8 657.884 329.4 653.469 329.4H629.795C625.18 329.4 624.178 326.8 627.387 323.6L635.413 315.6C640.656 310.187 641.005 309.826 639.56 309.802L639.343 309.8L639.225 309.8H580.641C576.227 309.8 569.004 311 564.791 312.6C564.791 312.6 551.148 317.6 548.74 330.2C545.531 346.6 515.035 496.2 515.035 496.2C514.232 500.6 510.821 506.8 507.611 510L487.548 529.8C484.338 533 481.329 530.4 482.131 527.4L505.806 409.2C506.608 404.8 508.213 397.6 509.016 393.2C509.016 393.2 512.912 373.687 516.92 353.337L517.274 351.54L517.627 349.742L518.157 347.047C519.624 339.575 521.054 332.25 522.257 326C525.668 309 533.493 297 546.734 289.4C553.957 285.2 562.985 283 571.613 283H700.015Z" fill="#42535C"/>
<path d="M204.119 684.39C186.595 684.39 179.936 692.768 177.834 702.718L165.392 762.588C164.867 765.555 161.887 767.825 158.908 767.825H146.467C143.488 767.825 141.561 765.555 142.086 762.588L161.012 668.331C161.537 665.364 164.516 663.095 167.495 663.095H179.761C182.74 663.095 184.668 665.364 183.967 668.331L183.266 671.822C182.565 674.615 183.792 675.313 185.719 673.044C185.719 673.044 197.81 661.873 212.88 661.873C215.859 661.873 214.633 664.317 214.633 664.317L208.85 681.772C208.85 681.772 207.974 684.39 204.119 684.39Z" fill="#42535C"/>
<path d="M250.206 769.744C208.676 769.744 209.728 727.852 213.232 712.143C216.036 699.75 227.776 661 264.751 661C312.239 661 297.519 717.03 297.519 717.03C296.643 719.823 295.241 722.093 291.036 722.093H236.013C233.209 722.093 232.858 723.663 232.683 724.71C232.158 728.9 231.631 737.627 236.888 744.958C241.97 752.115 254.938 757.7 279.996 743.387C281.923 742.34 282.975 742.689 283.676 744.26C284.026 745.308 286.129 752.115 286.129 752.115C287.005 754.908 285.779 758.573 283.325 760.144C283.325 760.144 278.244 763.635 271.76 765.904C265.627 768.697 258.267 769.744 250.206 769.744ZM261.771 680.026C256.865 680.026 252.309 682.295 248.279 687.008C244.424 691.197 241.62 696.957 239.692 703.415C239.517 703.939 239.167 705.161 240.919 705.161C242.496 705.161 274.213 705.161 274.213 705.161C275.966 705.161 276.141 703.939 276.316 703.241C276.491 702.543 276.491 700.273 276.667 697.306C276.667 697.306 276.842 690.324 274.564 686.135C272.11 682.121 267.905 680.026 261.771 680.026Z" fill="#42535C"/>
<path d="M346.76 750.894C351.666 750.894 356.222 749.149 360.427 745.832C364.107 742.865 365.859 739.898 367.261 735.708C368.138 733.09 370.591 733.265 370.591 733.265C370.591 733.265 385.31 733.265 386.187 733.265C387.764 733.265 388.64 734.661 388.114 736.232C387.939 737.105 387.589 737.977 387.238 738.851C387.238 738.851 382.507 752.64 373.745 759.447C364.984 766.255 354.995 769.746 343.78 769.746C329.762 769.746 319.598 764.684 313.114 754.734C300.848 735.534 304.879 698.355 325.381 675.663C334.317 665.714 345.708 661.176 361.129 661.176C373.044 661.176 381.455 664.841 387.939 672.172C393.897 678.98 396.175 687.533 394.773 697.482C394.598 698.355 394.248 700.449 391.268 700.449H376.899C374.621 700.449 372.869 699.751 372.869 696.784C372.869 696.784 372.869 689.453 370.241 685.613C367.612 681.772 363.406 679.853 357.974 679.853C350.264 679.853 344.481 683.169 339.75 689.627C331.164 701.671 326.257 728.028 330.989 741.468C333.617 747.927 338.699 750.894 346.76 750.894Z" fill="#42535C"/>
<path d="M457.68 767.65C454.7 767.65 452.772 765.38 453.296 762.588L454 757.526C454 757.526 453.824 755.431 452.072 757.002C449.439 759.271 444.536 763.461 440.504 765.555C435.248 768.348 429.816 769.744 424.383 769.744C415.096 769.744 408.087 766.777 403.531 761.017C398.8 755.257 397.398 747.577 399.325 738.151C401.428 727.329 406.685 719.299 415.096 714.063C423.507 708.827 434.547 706.034 448.393 706.034H458.38C463.112 706.034 463.812 705.161 464.688 701.495C465.211 699.052 465.74 694.514 465.916 691.546C465.916 691.546 466.263 686.659 463.988 683.691C461.707 680.724 457.851 679.328 452.42 679.328C438.4 679.328 436.301 687.357 434.372 690.673C433.32 692.593 432.62 693.117 429.816 693.117C427.888 693.117 429.29 693.117 416.673 693.117C413.694 693.117 412.468 690.499 413.694 687.008C413.694 687.008 417.725 676.36 426.311 670.251C434.897 664.142 445.236 661 457.504 661C468.191 661 476.779 664.142 482.911 670.425C489.047 676.71 491.146 685.612 488.871 696.957L476.955 761.715C476.427 764.682 473.623 767.301 470.643 767.475H457.68V767.65ZM433.32 750.893C437.524 750.893 441.909 749.671 446.464 747.402C450.844 745.133 455.047 743.911 456.975 737.104L459.603 725.932C460.308 722.441 461.184 720.696 458.204 720.696H450.321C447.34 720.696 442.608 721.045 439.628 721.569C439.628 721.569 434.547 722.441 430.342 725.758C426.136 729.249 423.507 733.089 422.631 737.627C421.755 741.817 422.106 745.133 423.858 747.402C425.785 749.845 428.764 750.893 433.32 750.893Z" fill="#42535C"/>
<path d="M579.29 674.615C586.997 665.538 597.337 661 609.781 661C615.212 661 619.944 662.222 624.324 664.666C627.827 666.586 630.631 669.378 633.259 672.695C635.011 674.789 635.54 672.346 635.54 672.346L636.416 668.156C637.115 665.364 640.095 662.92 642.899 662.92H653.41C656.39 662.92 658.318 665.364 657.795 668.156L639.396 760.144C629.232 804.48 603.997 811.113 584.022 809.891C579.637 809.541 574.558 809.193 569.126 807.796C564.57 806.574 562.114 805.876 558.61 803.956C557.91 803.607 555.107 802.036 557.211 797.498C558.434 795.054 561.59 788.421 561.59 788.421C562.819 785.803 565.794 784.756 568.427 786.152C568.427 786.152 571.401 787.374 575.61 788.596C579.813 789.643 583.317 789.992 587.873 789.992C594.885 789.992 600.84 787.723 605.572 783.359C610.304 778.995 613.461 772.886 615.036 765.38L615.212 764.857C615.736 762.064 614.336 761.017 612.056 762.937C612.056 762.937 608.729 765.38 604.696 767.126C600.493 768.872 596.108 769.744 591.553 769.744C580.342 769.744 571.754 764.682 565.97 754.384C560.186 744.26 559.139 729.598 562.114 714.761C562.114 714.936 567.022 688.928 579.29 674.615ZM585.245 714.936C585.069 715.983 584.545 719.299 584.369 722.267C584.369 722.267 583.146 735.358 585.597 741.467C588.049 747.577 593.133 750.544 600.493 750.544C604.52 750.544 608.552 749.497 611.88 747.228C615.212 744.958 619.239 742.165 621.167 734.66L628.88 696.084C630.279 688.753 626.252 684.738 623.448 682.819C620.468 680.899 616.964 680.026 612.585 680.026C605.748 680.026 600.141 683.168 595.409 689.451C590.853 696.084 587.349 704.463 585.245 714.936Z" fill="#42535C"/>
<path d="M838.639 757.527C831.28 765.905 821.116 769.745 809.024 769.745C803.764 769.745 799.037 768.698 794.828 766.778C791.677 765.207 788.873 763.287 786.593 760.843C785.893 759.97 783.965 760.145 783.613 762.414C783.089 764.683 775.553 802.909 775.553 802.909C775.03 805.877 772.05 808.146 769.069 808.146H756.631C753.65 808.146 751.722 805.702 752.246 802.909L779.233 668.506C779.756 665.539 782.737 663.27 785.717 663.27H796.756C799.736 663.27 801.664 665.539 801.312 668.332C800.789 671.124 802.188 671.823 804.468 669.902C804.468 669.902 808.319 666.586 812.704 664.491C817.26 662.397 821.992 661.35 827.071 661.35C838.463 661.35 846.875 666.935 852.306 677.932C857.738 689.103 858.438 704.813 855.287 721.046C855.11 720.871 850.726 743.737 838.639 757.527ZM831.979 720.871C832.155 719.824 832.679 716.507 832.855 713.54C832.855 713.54 834.431 698.354 831.979 691.198C829.522 684.041 824.62 680.55 817.084 680.55C806.044 680.55 798.508 688.579 796.756 695.561L788.873 734.835C787.645 743.039 790.972 747.054 793.952 748.624C796.933 750.37 800.612 751.068 805.344 751.068C812.175 751.068 817.783 748.45 822.339 743.039C826.895 737.453 830.051 730.122 831.979 720.871Z" fill="#FD8832"/>
<path d="M1000.2 724.188C1000.55 727.155 1001.78 727.33 1003.18 724.712L1032.09 667.808C1033.49 665.19 1037 663.096 1039.98 663.096H1054.7C1057.68 663.096 1058.9 665.19 1057.5 667.808L998.099 778.997C996.694 781.615 994.243 785.804 992.667 788.247C992.667 788.247 986.707 797.324 980.752 802.386C970.588 811.288 957.968 810.59 950.784 809.193C946.752 808.321 948.333 805.004 948.333 805.004L951.66 795.055C952.536 792.262 955.869 790.168 958.673 790.517C958.673 790.517 959.02 790.517 959.896 790.517C963.399 790.517 966.908 788.946 970.059 785.804C973.216 782.662 975.843 779.345 977.595 776.029L980.399 771.316C983.027 765.731 982.68 764.334 982.327 761.367L969.183 668.507C968.836 665.539 970.935 663.27 973.739 663.27H988.282C991.262 663.27 993.89 665.714 994.243 668.507L1000.2 724.188Z" fill="#FD8832"/>
<path d="M557.213 684.39C539.69 684.39 533.03 692.768 530.926 702.718L518.487 762.588C517.958 765.555 514.983 767.825 512.003 767.825H499.559C496.584 767.825 494.656 765.555 495.179 762.588L514.107 668.331C514.631 665.364 517.611 663.095 520.591 663.095H532.854C535.834 663.095 537.762 665.364 537.062 668.331L536.357 671.822C535.658 674.615 536.886 675.313 538.814 673.044C538.814 673.044 550.906 661.873 565.972 661.873C568.952 661.873 567.724 664.317 567.724 664.317L561.945 681.772C561.945 681.772 561.24 684.39 557.213 684.39Z" fill="#42535C"/>
<path d="M718.949 767.65C715.974 767.65 714.046 765.38 714.393 762.588L715.093 757.526C715.093 757.526 714.922 755.431 713.17 757.002C710.537 759.271 705.634 763.461 701.602 765.555C696.346 768.348 690.915 769.744 685.483 769.744C676.195 769.744 669.183 766.777 664.627 761.017C659.895 755.257 658.496 747.577 660.424 738.151C662.523 727.329 667.783 719.299 676.195 714.063C684.607 708.827 695.647 706.034 709.49 706.034H719.477C724.209 706.034 724.909 705.161 725.785 701.495C726.308 699.052 726.837 694.514 727.013 691.546C727.013 691.546 727.361 686.659 725.085 683.691C722.805 680.724 718.949 679.328 713.517 679.328C699.497 679.328 697.398 687.357 695.47 690.673C694.418 692.593 693.719 693.117 690.915 693.117C688.987 693.117 690.386 693.117 677.771 693.117C674.791 693.117 673.567 690.499 674.791 687.008C674.791 687.008 678.823 676.36 687.411 670.251C695.994 664.142 706.334 661 718.602 661C729.289 661 737.877 664.142 744.008 670.425C750.139 676.71 752.244 685.612 749.968 696.957L738.053 761.715C737.524 764.682 734.72 767.301 731.74 767.475H718.949V767.65ZM694.594 750.893C698.798 750.893 703.177 749.671 707.733 747.402C712.118 745.133 716.321 743.911 718.249 737.104L720.877 725.932C721.576 722.441 722.458 720.696 719.477 720.696H711.589C708.614 720.696 703.882 721.045 700.902 721.569C700.902 721.569 695.818 722.441 691.614 725.758C687.411 729.249 684.778 733.089 683.902 737.627C683.026 741.817 683.379 745.133 685.131 747.402C687.059 749.845 690.039 750.893 694.594 750.893Z" fill="#42535C"/>
<path d="M922.919 767.65C919.939 767.65 918.011 765.38 918.539 762.588L919.239 757.526C919.239 757.526 919.063 755.431 917.311 757.002C914.683 759.271 909.775 763.461 905.748 765.555C900.487 768.348 895.056 769.744 889.624 769.744C880.336 769.744 873.329 766.777 868.773 761.017C864.041 755.257 862.642 747.577 864.565 738.151C866.669 727.329 871.925 719.299 880.336 714.063C888.748 708.827 899.788 706.034 913.631 706.034H923.619C928.351 706.034 929.055 705.161 929.931 701.495C930.455 699.052 930.978 694.514 931.155 691.546C931.155 691.546 931.507 686.659 929.227 683.691C926.951 680.724 923.095 679.328 917.664 679.328C903.644 679.328 901.54 687.357 899.612 690.673C898.565 692.593 897.86 693.117 895.056 693.117C893.128 693.117 894.532 693.117 881.917 693.117C878.937 693.117 877.709 690.499 878.937 687.008C878.937 687.008 882.964 676.36 891.552 670.251C900.14 664.142 910.48 661 922.743 661C933.435 661 942.018 664.142 948.154 670.425C954.286 676.71 956.39 685.612 954.11 696.957L942.194 761.715C941.671 764.682 938.867 767.301 935.886 767.475H922.919V767.65ZM898.565 750.893C902.768 750.893 907.147 749.671 911.703 747.402C916.259 745.133 920.291 743.911 922.219 737.104L924.847 725.932C925.547 722.441 926.423 720.696 923.448 720.696H915.559C912.579 720.696 907.852 721.045 904.872 721.569C904.872 721.569 899.788 722.441 895.584 725.758C891.376 729.249 888.748 733.089 887.872 737.627C886.996 741.817 887.349 745.133 889.277 747.402C890.852 749.845 894.009 750.893 898.565 750.893Z" fill="#FD8832"/>
</g>
<defs>
<clipPath id="clip0_1097_11">
<rect width="1200" height="1200" fill="white"/>
</clipPath>
</defs>
</svg>
