<svg width="1200" height="1200" viewBox="0 0 1200 1200" fill="none" xmlns="http://www.w3.org/2000/svg">
<g clip-path="url(#clip0_853_1278)">
<path d="M600 1200C931.371 1200 1200 931.371 1200 600C1200 268.629 931.371 0 600 0C268.629 0 0 268.629 0 600C0 931.371 268.629 1200 600 1200Z" fill="#010043"/>
<path fill-rule="evenodd" clip-rule="evenodd" d="M449.832 496.848C467.989 496.848 482.709 482.106 482.709 463.924C482.709 445.74 467.989 431 449.832 431C431.673 431 416.953 445.74 416.953 463.924C416.953 482.106 431.673 496.848 449.832 496.848ZM237.57 725.889H294.877V609.018C294.877 595.914 304.959 571.266 333.061 569.805H388.223V513.445H351.111C300.259 510.682 242.793 534.726 237.57 605.45C236.287 651.437 237.57 725.889 237.57 725.889ZM422.012 513.309H478.916V726.047H422.012V513.309ZM801.442 717.009C822.66 728.269 866.282 738.441 908.68 714.85C951.08 691.256 963 651.893 963 618.23C963 584.569 936.953 519.266 873.405 511.426C809.857 503.586 774.599 542.021 774.599 542.021C774.599 542.021 705.721 612.496 697.147 620.03C692.601 624.027 687.817 629.223 682.63 634.855C672.83 645.495 661.601 657.692 647.839 666.289C639.707 671.371 630.835 672.573 622.686 673.162C593.442 675.28 577.519 654.498 570.326 635.129C563.133 615.76 572.984 578.81 603.529 569.443C634.078 560.076 659.41 582.165 659.41 582.165L699.642 542.021C699.642 542.021 646.048 492.91 575.61 519.266C543.621 531.234 515.989 570.105 512.325 606.664C509.101 638.842 521.779 670.659 535.642 688.341C565.256 726.112 620.594 741.409 666.015 720.746C687.015 713.703 737.228 660.148 737.228 660.148C737.228 660.148 764.398 686.824 774.599 696.312C785.727 706.665 793.654 712.877 801.442 717.009ZM842.363 672.862C877.694 672.862 906.335 649.05 906.335 619.677C906.335 590.305 877.694 566.494 842.363 566.494C807.03 566.494 778.389 590.305 778.389 619.677C778.389 649.05 807.03 672.862 842.363 672.862Z" fill="#FF2900"/>
</g>
<defs>
<clipPath id="clip0_853_1278">
<rect width="1200" height="1200" fill="white"/>
</clipPath>
</defs>
</svg>
