<svg width="1200" height="1200" viewBox="0 0 1200 1200" fill="none" xmlns="http://www.w3.org/2000/svg">
<g clip-path="url(#clip0_974_16)">
<path d="M600 1200C931.371 1200 1200 931.371 1200 600C1200 268.629 931.371 0 600 0C268.629 0 0 268.629 0 600C0 931.371 268.629 1200 600 1200Z" fill="#093640"/>
<path d="M310.371 392.426C305.26 392.852 300.148 394.13 295.463 397.111C284.389 403.5 278 415.426 278 427.352C278 432.463 279.278 438.001 281.833 443.112L453.484 741.69L509.281 645.43L600.005 488.687L544.208 392.426H310.371Z" fill="#6EBB49"/>
<path d="M310.371 392.424C305.26 392.85 300.148 394.128 295.463 397.109C284.389 403.498 278 415.424 278 427.35C278 432.462 279.278 437.999 281.833 443.11L453.484 741.688L509.281 645.428L600.005 488.685L544.208 392.424H310.371Z" fill="#6EBB49"/>
<path d="M544.625 392.426L690.72 645.004H793.369H801.462L918.594 442.26C920.723 437.575 922.001 432.889 922.001 427.352C922.001 408.611 907.519 393.704 889.204 392.426H544.625Z" fill="#00AE9C"/>
<path d="M793.792 644.998H509.696L453.898 741.259L571.456 944.002C574.011 948.262 578.271 951.669 582.53 954.651C588.067 957.632 594.03 959.336 599.993 959.336C611.493 959.336 622.568 953.373 629.383 943.576L801.885 644.998H793.792Z" fill="#B8D335"/>
<path d="M918.18 441.834C920.309 437.149 921.587 432.038 921.587 426.5C921.587 413.723 914.346 402.222 904.124 396.259C899.438 393.704 894.327 392 888.79 392L544.211 392.852L600.008 489.113L690.732 645.43L801.9 644.578L918.18 441.834Z" fill="#00AE9C"/>
<path d="M571.034 944.002C574.015 948.262 577.849 951.669 582.534 954.651C593.608 961.04 606.812 960.614 617.46 954.651C622.146 952.095 625.979 948.262 628.961 943.576L801.463 645.424H690.295L509.274 644.998L453.902 741.259L571.034 944.002Z" fill="#B8D335"/>
</g>
<defs>
<clipPath id="clip0_974_16">
<rect width="1200" height="1200" fill="white"/>
</clipPath>
</defs>
</svg>
