<svg width="60" height="60" viewBox="0 0 60 60" fill="none" xmlns="http://www.w3.org/2000/svg">
<circle cx="30" cy="30" r="30" fill="#F4F4F4"/>
<path fill-rule="evenodd" clip-rule="evenodd" d="M25.908 17.8014C25.908 17.8014 30.9004 23.1402 32.2862 25.8164C33.0786 27.3468 33.6817 26.7197 33.8418 25.7355C33.9617 24.9987 33.7014 21.6588 32.8693 19.5283C32.594 18.8232 31.8787 17.1468 31.8787 17.1468C31.8787 17.1468 30.6457 16.9113 28.9719 17.0536C27.298 17.1959 25.908 17.8014 25.908 17.8014Z" fill="#5DC907"/>
<path fill-rule="evenodd" clip-rule="evenodd" d="M36.3311 18.6838C36.3311 18.6838 35.9603 24.9354 34.9973 27.7918C34.4465 29.4251 35.3167 29.4232 36.136 28.8545C36.7495 28.4288 38.6415 26.5677 39.3993 24.98C39.7259 24.2956 40.3809 22.6564 40.3809 22.6564C40.3809 22.6564 39.7699 21.507 38.5048 20.4018C37.2397 19.2967 36.3311 18.6838 36.3311 18.6838Z" fill="#5DC907"/>
<path fill-rule="evenodd" clip-rule="evenodd" d="M42.1341 27.1835C42.1341 27.1835 37.7567 30.2589 35.3114 31.2698C33.913 31.8478 34.3414 32.5241 35.1362 32.8115C35.7314 33.0268 37.967 33.4489 39.4577 33.138C40.9919 32.818 42.14 32.4382 42.14 32.4382C42.14 32.4382 42.4013 31.3211 42.3993 29.4893C42.3973 27.6576 42.1341 27.1835 42.1341 27.1835Z" fill="#5DC907"/>
<path fill-rule="evenodd" clip-rule="evenodd" d="M40.6128 36.7995C40.6128 36.7995 35.389 35.0395 33.0394 33.8203C31.6959 33.1231 31.451 33.8867 31.7409 34.6801C31.9579 35.2741 33.03 37.6672 34.1602 38.7167C35.5431 40.0008 36.711 40.8272 36.711 40.8272C36.711 40.8272 37.8171 40.1837 38.7992 39.2166C39.7813 38.2495 40.6128 36.7995 40.6128 36.7995Z" fill="#5DC907"/>
<path fill-rule="evenodd" clip-rule="evenodd" d="M32.282 42.8385C32.282 42.8385 30.1225 36.7062 29.7707 33.6388C29.5745 31.9283 28.9393 32.1983 28.3485 33.0052C27.9062 33.6094 27.0894 35.4098 26.7102 37.1617C26.2238 39.4089 26.4153 42.227 26.4153 42.227C26.4153 42.227 27.3409 42.8127 29.0855 43.0691C30.8302 43.3254 32.282 42.8385 32.282 42.8385Z" fill="#5DC907"/>
<path fill-rule="evenodd" clip-rule="evenodd" d="M18.2678 27.2496C18.2678 27.2496 25.5874 26.4789 28.8652 26.9426C30.7039 27.2027 30.6423 26.2883 29.8884 25.4978C29.0124 24.5793 26.4216 22.6664 24.0554 21.8646C23.0167 21.5127 21.3676 21.0205 21.3676 21.0205C21.3676 21.0205 20.5969 21.7923 19.635 23.3689C18.6731 24.9455 18.2678 27.2496 18.2678 27.2496Z" fill="#5DC907"/>
<path fill-rule="evenodd" clip-rule="evenodd" d="M21.674 39.2737C21.674 39.2737 24.9514 33.6212 27.8637 30.4905C29.1429 29.1153 28.2522 28.6424 27.1827 28.8632C25.94 29.1197 24.0744 29.2862 20.4563 31.5004C19.4978 32.0869 18.3155 33.3285 18.3155 33.3285C18.3155 33.3285 18.5945 34.5757 19.4197 36.2207C20.2449 37.8656 21.674 39.2737 21.674 39.2737Z" fill="#5DC907"/>
<path opacity="0.349808" fill-rule="evenodd" clip-rule="evenodd" d="M31.7945 17.1119C31.8207 17.1166 31.8468 17.1215 31.8728 17.1264C32.351 18.2464 32.6822 19.0419 32.8663 19.513C33.7009 21.648 33.9619 24.995 33.8416 25.7334C33.6811 26.7196 33.0762 27.3481 32.2814 25.8145C31.8241 24.9319 31.0729 23.8326 30.0278 22.5165C30.3673 20.3427 30.9562 18.5411 31.7945 17.1119Z" fill="#016E32"/>
<path opacity="0.349808" fill-rule="evenodd" clip-rule="evenodd" d="M40.3277 22.7639C39.9061 23.8278 39.589 24.5841 39.3767 25.0329C38.6237 26.624 36.7384 28.4863 36.1267 28.9119C35.3097 29.4804 34.4404 29.4802 34.9864 27.8428C35.2991 26.9052 35.5635 25.6934 35.7797 24.2075C37.0442 23.4579 38.5602 22.9767 40.3277 22.7639V22.7639Z" fill="#016E32"/>
<path opacity="0.349808" fill-rule="evenodd" clip-rule="evenodd" d="M42.1649 32.4209C42.162 32.4338 42.1591 32.4465 42.1562 32.4592C41.3916 32.7165 40.4985 32.9538 39.4769 33.1711C37.9879 33.4877 35.756 33.0626 35.1619 32.8452C34.3685 32.5549 33.9415 31.8703 35.3385 31.2832C36.1646 30.936 37.1564 30.4092 38.3138 29.7029C39.1945 30.0877 40.4783 30.9937 42.1649 32.4209Z" fill="#016E32"/>
<path opacity="0.349808" fill-rule="evenodd" clip-rule="evenodd" d="M36.7488 40.8284C36.7427 40.832 36.7367 40.8355 36.7307 40.839C35.9501 40.289 35.0977 39.5865 34.1736 38.7315C33.0407 37.6835 31.9678 35.2917 31.7507 34.6979C31.4608 33.905 31.7073 33.141 33.0547 33.8367C33.8333 34.2386 34.848 34.6846 36.0989 35.1746C36.6109 37.2131 36.8275 39.0978 36.7488 40.8284Z" fill="#016E32"/>
<path opacity="0.349808" fill-rule="evenodd" clip-rule="evenodd" d="M26.3984 42.0141C26.2865 40.2212 26.3833 38.6049 26.6888 37.1655C27.0601 35.4163 27.8664 33.6202 28.3043 33.018C28.8892 32.2137 29.52 31.9462 29.7209 33.6559C29.8352 34.6286 30.086 35.833 30.4733 37.2691C29.7285 38.7877 28.3702 40.3694 26.3984 42.0141H26.3984Z" fill="#016E32"/>
<path opacity="0.349808" fill-rule="evenodd" clip-rule="evenodd" d="M21.3983 20.9799C21.4005 20.9776 21.4028 20.9754 21.405 20.9732C22.3769 21.2615 23.1888 21.5134 23.8407 21.7288L24.8116 22.0869C26.9434 22.9836 29.0925 24.5972 29.8719 25.4168C30.6199 26.2035 30.6786 27.1158 28.8495 26.8615C27.8408 26.7212 26.5431 26.6702 24.9564 26.7085C23.744 25.4533 22.558 23.5437 21.3983 20.9799H21.3983Z" fill="#016E32"/>
<path opacity="0.349808" fill-rule="evenodd" clip-rule="evenodd" d="M18.392 33.251C19.1588 32.4371 19.8543 31.8367 20.4786 31.4496C24.0718 29.2217 25.927 29.0586 27.1625 28.8027C28.2257 28.5825 29.1131 29.0629 27.8443 30.4492C27.0225 31.347 26.1791 32.3996 25.3141 33.6067C23.9118 33.9356 21.6045 33.817 18.392 33.251H18.392Z" fill="#016E32"/>
<rect opacity="0.01" x="15" y="15" width="30" height="30" fill="#FF0000"/>
</svg>
