<svg width="60" height="60" viewBox="0 0 60 60" fill="none" xmlns="http://www.w3.org/2000/svg">
<g clip-path="url(#clip0_613_2115)">
<path d="M0 30C0 13.4315 13.4315 0 30 0V0C46.5685 0 60 13.4315 60 30V30C60 46.5685 46.5685 60 30 60V60C13.4315 60 0 46.5685 0 30V30Z" fill="#FF5A00"/>
<g clip-path="url(#clip1_613_2115)">
<path d="M30.6311 25.736C31.2081 25.736 31.6409 25.268 31.6409 24.728C31.6409 24.152 31.1721 23.72 30.6311 23.72C30.054 23.72 29.6213 24.188 29.6213 24.728C29.6213 25.268 30.0901 25.736 30.6311 25.736ZM34.7606 34.736C35.1393 34.736 35.4999 34.61 35.7704 34.502C36.059 34.376 36.2393 34.214 36.3114 34.088C36.3835 34.016 36.4376 33.89 36.4376 33.782C36.4376 33.71 36.4016 33.62 36.3655 33.494C36.2393 33.296 36.059 33.188 35.8606 33.188C35.8245 33.188 35.7885 33.188 35.7344 33.188C35.6081 33.224 35.5721 33.26 35.4999 33.26C35.4278 33.296 35.3376 33.296 35.2114 33.296C34.977 33.296 34.8688 33.224 34.7967 33.134C34.7967 33.134 34.6344 32.936 34.5983 32.756C34.5262 32.414 34.5262 31.928 34.5262 31.586C34.5262 31.46 34.5262 24.548 34.5262 24.368C34.5262 24.08 34.3999 23.9 34.2196 23.792C34.0213 23.666 33.8049 23.594 33.5524 23.594C33.2999 23.594 33.0835 23.63 32.8852 23.792C32.6868 23.918 32.5786 24.098 32.5786 24.368V32.576C32.5786 33.044 32.7049 33.548 33.0475 33.998C33.3901 34.43 33.9311 34.736 34.7606 34.736ZM38.6917 28.022C39.1606 27.32 39.7016 27.23 39.936 27.23C40.3147 27.23 40.7294 27.518 40.8196 28.076C40.8196 28.202 40.8557 28.274 40.8557 28.382C40.8557 28.796 40.6934 29.174 40.477 29.426C39.8999 30.092 39.0704 30.254 38.2229 30.344C38.2229 30.272 38.2229 30.182 38.2229 30.11C38.2229 29.426 38.3311 28.562 38.6917 28.022ZM37.4475 33.782C38.0786 34.412 38.9622 34.754 40.0442 34.754C40.6213 34.754 41.1803 34.628 41.595 34.466C41.7934 34.394 41.9737 34.268 42.0999 34.16C42.2262 34.034 42.2983 33.872 42.2983 33.746C42.2983 33.71 42.2983 33.71 42.2983 33.674C42.2622 33.386 42.0098 33.206 41.7573 33.206C41.6852 33.206 41.6311 33.206 41.559 33.242C41.2524 33.368 40.9278 33.404 40.5491 33.404C40.4229 33.404 40.3147 33.404 40.2065 33.404C39.377 33.332 38.9262 32.864 38.6557 32.36C38.4934 32.126 38.4213 31.856 38.3672 31.658C38.3311 31.586 38.3311 31.496 38.3311 31.46C39.4131 31.424 40.3868 31.262 41.2885 30.794C41.7573 30.506 42.2983 30.128 42.6229 29.552C42.8213 29.174 42.9114 28.724 42.9114 28.346C42.9114 28.22 42.9114 28.112 42.8754 28.004C42.677 26.96 41.7032 26.132 40.1885 26.132C39.1426 26.132 37.7721 26.546 36.9606 27.842C36.654 28.346 36.2213 29.264 36.2213 30.524C36.2213 30.812 36.2573 31.1 36.2934 31.406C36.3835 32.342 36.7803 33.188 37.4475 33.782ZM18.6393 34.484C18.8376 34.61 19.054 34.682 19.3065 34.682C19.5409 34.682 19.7754 34.646 19.9737 34.484C20.1721 34.358 20.2803 34.178 20.2803 33.908C20.2803 33.908 20.2803 29.444 20.2803 29.408C20.2803 29.066 20.4065 28.58 20.5868 28.238C20.7852 27.896 21.0917 27.608 21.5606 27.608C21.795 27.608 21.9032 27.68 22.0294 27.806C22.2278 27.968 22.318 28.22 22.3721 28.508C22.4081 28.796 22.4442 29.048 22.4442 29.21C22.4442 29.246 22.4442 33.764 22.4442 33.908C22.4442 34.196 22.6065 34.376 22.7868 34.484C22.9852 34.61 23.2016 34.682 23.454 34.682C23.7065 34.682 23.959 34.646 24.1573 34.484C24.3557 34.358 24.4999 34.178 24.4999 33.908V29.408C24.4999 29.066 24.6262 28.58 24.8065 28.238C25.0049 27.896 25.3114 27.608 25.7803 27.608C26.0147 27.608 26.1229 27.68 26.2491 27.806C26.4475 27.968 26.5376 28.22 26.5917 28.508C26.6278 28.796 26.6639 29.048 26.6639 29.21C26.6639 29.246 26.6639 33.602 26.6639 33.908C26.6639 34.196 26.8262 34.376 27.0065 34.484C27.2049 34.61 27.4213 34.682 27.6737 34.682C27.9081 34.682 28.1786 34.646 28.377 34.484C28.5754 34.358 28.7196 34.178 28.7196 33.908V29.498C28.7196 28.364 28.4852 27.554 28.0885 26.96C27.6737 26.384 27.0786 26.114 26.3393 26.114C25.636 26.114 25.1311 26.456 24.7524 26.816C24.4639 27.104 24.3376 27.356 24.2114 27.608C24.0491 27.14 23.7967 26.78 23.4721 26.564C23.0934 26.258 22.6426 26.15 22.1016 26.15C21.218 26.15 20.6229 26.69 20.2262 27.194V27.158C20.2262 26.87 20.0999 26.69 19.9196 26.582C19.7213 26.456 19.5049 26.384 19.2524 26.384C19.018 26.384 18.7835 26.42 18.5852 26.582C18.3688 26.69 18.2606 26.87 18.2606 27.14C18.2606 27.14 18.2606 33.746 18.2606 33.89C18.2967 34.124 18.4409 34.322 18.6393 34.484ZM31.2983 26.51C31.0999 26.384 30.8835 26.312 30.6311 26.312C30.3967 26.312 30.1622 26.348 29.9639 26.51C29.7655 26.636 29.6573 26.816 29.6573 27.086C29.6573 27.086 29.6573 33.692 29.6573 33.836C29.6573 34.124 29.7835 34.304 29.9639 34.412C30.1622 34.538 30.3786 34.61 30.6311 34.61C30.8655 34.61 31.0999 34.574 31.2983 34.412C31.4967 34.286 31.6049 34.106 31.6049 33.836C31.6049 33.836 31.6049 27.23 31.6049 27.086C31.5868 26.852 31.4786 26.672 31.2983 26.51ZM51.3688 30.02C51.3688 29.984 51.3327 29.948 51.2967 29.894C51.2606 29.894 51.2245 29.894 51.1704 29.93C51.1704 29.93 51.1344 29.966 51.0983 30.002C51.0622 30.038 50.936 30.164 50.8098 30.29C50.5754 30.524 50.2327 30.83 49.7999 31.172C49.4934 31.46 49.0967 31.748 48.6639 32.054C48.6639 31.928 48.6278 31.82 48.6278 31.712C48.5016 31.244 48.2491 30.884 47.8885 30.578C47.3835 30.164 46.7163 29.876 46.2114 29.57C45.9229 29.408 45.7065 29.264 45.5442 29.066C45.3819 28.868 45.2557 28.688 45.2376 28.436C45.2376 28.4 45.2376 28.364 45.2376 28.274C45.2376 28.04 45.3098 27.77 45.5442 27.572C45.6704 27.446 45.959 27.266 46.4278 27.266C47.0049 27.266 47.4737 27.5 47.7622 27.5C48.0688 27.5 48.3393 27.338 48.4294 27.032C48.4294 26.996 48.4655 26.906 48.4655 26.834C48.4655 26.492 48.177 26.168 47.7983 26.096C47.7983 26.096 47.4557 25.97 46.7524 25.97C45.7426 25.97 44.9131 26.204 44.336 26.672C43.759 27.086 43.4524 27.716 43.4524 28.454C43.4524 28.652 43.4885 28.832 43.5245 29.084C43.759 29.966 44.6065 30.452 45.436 30.866C45.8147 31.064 46.2655 31.28 46.518 31.496C46.8245 31.73 47.0229 31.964 47.059 32.198C47.059 32.234 47.059 32.27 47.059 32.324C47.059 32.558 46.9327 32.792 46.7524 32.99C46.554 33.152 46.2114 33.296 45.7426 33.296H45.7065C45.2016 33.296 44.7868 33.134 44.4622 33.008C44.336 32.936 44.1737 32.936 44.0835 32.936C43.777 32.936 43.5426 33.134 43.5065 33.44C43.5065 33.476 43.5065 33.512 43.5065 33.512C43.5065 33.746 43.6327 33.89 43.795 34.052C44.0294 34.25 44.3721 34.394 44.6786 34.466C41.1262 36.248 36.2032 37.85 29.9639 37.85C23.6524 37.85 18.7114 36.212 15.1409 34.43C15.8803 34.268 16.4754 34.016 16.8901 33.602C17.5213 33.026 17.8098 32.27 17.8098 31.478C17.8098 31.28 17.8098 31.136 17.7737 30.938C17.6475 30.308 17.359 29.858 16.9262 29.462C16.259 28.886 15.4114 28.454 14.7081 28.04C14.3655 27.842 14.0049 27.626 13.7885 27.374C13.5721 27.122 13.4098 26.906 13.3737 26.636C13.3737 26.564 13.3737 26.474 13.3737 26.402C13.3737 26.06 13.4999 25.7 13.7885 25.43C14.077 25.142 14.5278 24.962 15.195 24.962C15.5376 24.962 15.9885 25.034 16.4393 25.16C16.6016 25.196 16.7278 25.232 16.818 25.232C17.1606 25.232 17.395 25.034 17.5213 24.818C17.5573 24.746 17.5573 24.62 17.5573 24.53C17.5573 24.296 17.4311 24.116 17.2688 23.99C17.1065 23.864 16.8901 23.756 16.6376 23.702C16.1688 23.63 15.718 23.54 15.159 23.54C13.7885 23.54 12.7786 23.918 12.1114 24.512C11.4442 25.106 11.1737 25.88 11.1737 26.618C11.1737 26.78 11.1737 26.924 11.2098 27.086C11.4081 28.13 12.2917 28.832 13.2114 29.372C14.095 29.912 15.0508 30.38 15.3934 30.848C15.5917 31.136 15.6819 31.424 15.6819 31.73C15.6819 32.036 15.5557 32.36 15.3934 32.558C15.0508 32.972 14.4196 33.26 13.7163 33.26C13.3016 33.26 12.8327 33.134 12.436 32.918C12.3999 32.918 12.3639 32.882 12.3639 32.882C11.3901 32.252 10.5786 31.64 9.98355 31.136C9.51469 30.758 9.15404 30.434 8.97371 30.254C8.84748 30.128 8.77535 30.056 8.68519 29.966C8.64912 29.93 8.61305 29.894 8.61305 29.894C8.57699 29.858 8.54092 29.858 8.48683 29.858C8.45076 29.858 8.41469 29.894 8.41469 29.984C8.3606 30.11 8.3606 30.344 8.3606 30.578V30.614C8.3606 31.28 8.59502 31.784 9.1901 32.324C9.3524 32.486 17.2868 40.532 29.9999 40.532C42.7311 40.532 50.6655 32.486 50.8098 32.324C51.3868 31.784 51.6393 31.28 51.6393 30.614V30.596C51.4049 30.398 51.4049 30.2 51.3688 30.02Z" fill="white"/>
</g>
</g>
<defs>
<clipPath id="clip0_613_2115">
<rect width="60" height="60" rx="30" fill="white"/>
</clipPath>
<clipPath id="clip1_613_2115">
<rect width="44" height="18" fill="white" transform="translate(8 23)"/>
</clipPath>
</defs>
</svg>
