<svg width="1200" height="1200" viewBox="0 0 1200 1200" fill="none" xmlns="http://www.w3.org/2000/svg">
<g clip-path="url(#clip0_974_67)">
<path d="M600 1200C931.371 1200 1200 931.371 1200 600C1200 268.629 931.371 0 600 0C268.629 0 0 268.629 0 600C0 931.371 268.629 1200 600 1200Z" fill="#031604"/>
<path d="M595.26 480.256H596.396C601.591 473.736 608.409 469.823 616.851 469.823C630.325 469.823 637.955 476.181 637.955 491.016C637.955 498.841 637.63 520.523 637.955 527.37H618.474V494.113C618.474 484.332 615.877 479.115 608.084 479.115C599.156 479.115 596.558 486.288 596.558 497.048V527.37H577.078V471.453H595.747L595.26 480.256ZM705.812 481.887C701.429 477.485 696.071 474.714 687.792 474.714C676.429 474.714 670.584 484.332 670.584 499.656C670.584 514.165 677.89 522.479 691.688 522.479C697.045 522.479 702.89 520.034 705.812 517.262L708.409 520.849C703.539 525.087 693.961 529 686.007 529C659.545 529 650.779 513.676 650.779 499.656C650.779 482.702 664.74 469.986 686.494 469.986C696.234 469.986 703.052 472.105 709.383 475.203L705.812 481.887ZM746.883 469.823C767.825 469.823 780 480.909 780 498.189C780 517.099 766.364 528.837 746.883 528.837C730.649 528.837 713.766 521.175 713.766 500.634C713.766 480.093 729.838 469.823 746.883 469.823ZM747.208 474.062C738.117 474.062 732.922 483.191 732.922 500.96C732.922 514.165 736.169 524.761 747.045 524.761C756.299 524.761 760.844 514.654 760.844 496.396C760.844 482.865 756.948 474.062 747.208 474.062ZM507.76 476.181C515.552 471.616 526.266 469.823 534.708 469.823C549.156 469.823 559.383 475.04 559.383 488.571V527.37H542.5C542.5 526.229 542.662 523.457 542.5 520.849L542.338 519.382L541.364 520.523C537.143 525.414 532.11 529 523.994 529C510.357 529 504.838 521.338 504.838 514.165C504.838 504.384 512.305 500.145 524.805 497.537C540.065 494.439 542.013 493.461 542.013 488.571C542.013 482.539 536.656 477.648 528.214 477.648C518.474 477.648 511.981 480.909 510.032 482.05L507.76 476.181ZM542.338 496.396L541.526 496.885C539.578 497.863 537.468 498.515 535.519 499.167C533.409 499.819 531.461 500.471 529.513 501.449C525.779 503.406 523.019 506.34 523.019 512.535C523.019 518.567 526.266 522.153 531.461 522.153C537.955 522.153 542.338 517.751 542.338 509.926V496.396ZM458.247 452.706H450.942L450.455 482.702H457.273C465.39 482.702 473.507 477.485 473.507 467.052C473.507 459.227 469.448 452.706 458.247 452.706ZM430 447H465.552C481.948 447 492.825 452.38 492.825 464.769C492.825 477.159 479.351 482.539 470.909 483.843V484.984C479.351 485.31 495.097 490.527 495.097 504.221C495.097 520.523 479.838 527.207 463.604 527.207H430V447ZM456.948 488.245H450.455L450.617 521.827H458.734C467.175 521.827 474.481 515.795 474.481 505.199C474.481 493.95 468.312 488.245 456.948 488.245Z" fill="#FAB327"/>
<path d="M213.495 632.189C220.623 668.514 251.885 689.757 287.197 689.757C309.227 689.757 328.827 681.486 328.827 663.324C328.827 651.162 320.89 643.054 309.713 636.568C304.043 633.324 297.564 630.405 290.437 627.649C283.472 624.892 276.021 622.135 268.569 619.216C238.603 607.378 209.608 592.622 209.608 557.27C209.608 517.216 248.97 498.243 287.683 498.243C305.501 498.243 317.974 501.973 327.369 505.703C332.066 507.649 336.116 509.432 339.679 510.892C343.243 512.351 346.321 513.324 349.398 513.324C356.04 513.324 359.279 510.243 360.089 501.649H364.625V558.243H359.927C351.828 526.946 325.101 508.459 290.923 508.459C271.971 508.459 256.421 516.568 256.421 534.405C256.421 545.108 264.196 552.081 275.211 557.595C286.225 563.108 300.804 567.486 315.544 573C344.863 583.865 373.372 598.946 373.372 635.919C373.372 681.324 339.517 699.811 293.191 699.811C280.07 699.811 265.492 696.892 253.343 693.973C247.188 692.514 241.842 691.054 237.469 689.919C233.257 688.784 229.856 688.135 228.236 688.135C221.595 688.135 215.925 692.514 213.657 697.541H208.96V632.189H213.495ZM650.847 697.378V692.838C635.783 692.838 629.951 689.432 629.951 673.703V627.973C653.439 627.973 662.995 631.378 664.291 655.703H669.151V591H664.291C662.995 615.324 653.439 618.73 629.951 618.73V560.838H655.22C677.736 560.838 689.561 570.243 691.666 591.811H696.364V551.919H562.081V556.459C577.145 556.459 582.976 559.865 582.976 575.595V673.703C582.976 689.432 577.145 692.838 562.081 692.838V697.378H650.847ZM965.254 697.378V692.838C951.971 692.838 948.246 688.946 948.246 683.595C948.246 679.703 949.38 676.622 950.999 672.081L958.775 651H999.756L1009.96 675.324C1011.09 678.243 1012.39 681.811 1012.39 685.054C1012.39 689.919 1008.5 692.676 1003.48 692.676H993.763V697.216H1072V692.676C1064.87 692.027 1063.09 691.054 1059.2 681.973L1004.29 551.595H989.065L939.337 673.216C933.019 688.459 929.294 691.865 920.385 692.676V697.216H965.254V697.378ZM996.516 642.892H961.852L979.184 599.919L996.516 642.892ZM802.3 698.189H807.159C808.455 694.459 812.667 691.216 817.364 691.216C821.9 691.216 845.873 699.811 865.311 699.811C899.651 699.811 925.244 685.865 925.244 651.811C925.244 596.027 838.746 606.73 838.746 576.892C838.746 564.405 849.599 558.568 863.529 558.568C888.798 558.568 908.236 572.189 913.906 595.378H918.603V551.919H913.906C913.42 558.405 911.314 560.514 906.778 560.514C898.517 560.514 887.664 549.486 861.099 549.486C832.429 549.486 802.624 563.595 802.624 593.757C802.624 647.27 890.742 637.865 890.742 671.919C890.742 684.568 877.136 690.73 860.775 690.73C834.696 690.73 811.857 675 806.997 648.243H802.138V698.189H802.3ZM391.676 624.568C391.676 674.189 427.798 699.811 475.906 699.811C524.177 699.811 560.137 674.351 560.137 624.568C560.137 574.946 524.015 549.324 475.906 549.324C427.798 549.324 391.676 574.946 391.676 624.568ZM439.946 624.568C439.946 576.73 454.687 558.405 476.068 558.405C497.288 558.405 512.19 576.73 512.19 624.568C512.19 672.405 497.45 690.73 476.068 690.73C454.687 690.73 439.946 672.405 439.946 624.568ZM790.313 697.378V692.838C775.573 692.838 769.742 689.432 769.742 673.703V575.595C769.742 559.865 775.573 556.459 790.313 556.459V551.919H701.871V556.459C716.936 556.459 722.767 559.865 722.767 575.595V673.703C722.767 689.432 716.936 692.838 701.871 692.838V697.378H790.313ZM173 447H406.902V461.432H173V447ZM173 471.649H406.902V476.351H173V471.649ZM173 738.568H406.902V753H173V738.568ZM173 723.486H406.902V728.189H173V723.486Z" fill="#17B497"/>
</g>
<defs>
<clipPath id="clip0_974_67">
<rect width="1200" height="1200" fill="white"/>
</clipPath>
</defs>
</svg>
