<svg width="1200" height="1200" viewBox="0 0 1200 1200" fill="none" xmlns="http://www.w3.org/2000/svg">
<g clip-path="url(#clip0_1051_4)">
<path d="M600 1200C931.371 1200 1200 931.371 1200 600C1200 268.629 931.371 0 600 0C268.629 0 0 268.629 0 600C0 931.371 268.629 1200 600 1200Z" fill="#00A868"/>
<path d="M450.171 460.805C446.785 457.422 442.194 455.522 437.407 455.522C432.62 455.522 428.029 457.422 424.643 460.805L320.601 575.511C314.429 582.164 311 590.904 311 599.979C311 609.054 314.429 617.794 320.601 624.447V624.519L424.667 739.225C427.197 741.743 430.416 743.454 433.918 744.144C437.421 744.833 441.048 744.469 444.344 743.099C447.64 741.728 450.455 739.411 452.435 736.442C454.415 733.472 455.471 729.983 455.47 726.413V473.545C455.465 468.756 453.56 464.189 450.171 460.805ZM599.972 871.705C599.978 874.061 600.464 876.392 601.401 878.554C602.338 880.716 603.706 882.665 605.421 884.281C607.136 885.897 609.163 887.146 611.377 887.953C613.591 888.759 615.947 889.106 618.299 888.972C769.376 879.435 889 753.723 889 600.003C888.976 446.283 769.328 320.523 618.275 311.034C615.92 310.886 613.56 311.223 611.341 312.024C609.122 312.826 607.091 314.075 605.375 315.694C603.658 317.313 602.293 319.268 601.364 321.437C600.434 323.605 599.96 325.942 599.972 328.301V436.722C600.013 441.577 601.832 446.248 605.085 449.851C608.338 453.455 612.8 455.741 617.625 456.277C652.613 460.641 684.796 477.653 708.107 504.105C731.45 530.579 744.33 564.66 744.33 599.955C744.33 635.249 731.45 669.331 708.107 695.804C684.796 722.257 652.613 739.268 617.625 743.633C612.787 744.153 608.311 746.437 605.05 750.049C601.789 753.66 599.973 758.346 599.948 763.212V871.705H599.972Z" fill="white"/>
</g>
<defs>
<clipPath id="clip0_1051_4">
<rect width="1200" height="1200" fill="white"/>
</clipPath>
</defs>
</svg>
