<svg width="1200" height="1200" viewBox="0 0 1200 1200" fill="none" xmlns="http://www.w3.org/2000/svg">
<g clip-path="url(#clip0_1097_2)">
<path d="M600 1200C931.371 1200 1200 931.371 1200 600C1200 268.629 931.371 0 600 0C268.629 0 0 268.629 0 600C0 931.371 268.629 1200 600 1200Z" fill="#00C700"/>
<path d="M690.956 922C621.596 922 556.481 894.058 507.345 843.422C493.952 829.567 493.952 807.027 507.345 793.056C520.739 779.201 542.585 779.201 556.095 793.056C592.068 830.223 639.968 850.755 690.956 850.755C741.944 850.755 789.806 830.261 825.818 793.056C839.212 779.201 861.058 779.201 874.567 793.056C887.961 806.912 887.961 829.451 874.567 843.422C825.432 894.173 760.317 922 690.956 922ZM837.243 447.251C755.994 447.251 691.728 511.858 691.728 595.569V684.413C691.728 705.833 708.596 723.123 729.323 723.123C750.05 723.123 766.917 705.833 766.917 684.413V592.829C766.917 549.101 800.305 519.114 837.243 519.114C874.22 519.114 910.811 549.101 910.811 592.829V684.336C910.811 705.756 927.678 723.046 948.405 723.046C969.133 723.046 986 705.756 986 684.336V595.53C985.846 511.819 918.338 447.251 837.243 447.251ZM214 600.548C214 670.017 262.363 718.222 326.282 722.699C329.756 722.969 339.791 723.355 346.005 723.085C365.227 723.085 380.859 706.952 380.859 687.076C380.859 667.2 365.227 651.068 346.005 651.068H335.816C309.028 651.068 289.922 629.03 289.035 602.246V518.264H346.7C365.575 518.264 380.821 502.518 380.821 483.028C380.821 463.538 365.575 447.791 346.7 447.791H289.035V390.71C289.035 369.29 272.322 352 251.595 352C230.867 352 214 369.29 214 390.71V600.548ZM531.701 447.251C456.512 447.251 395.488 510.314 395.488 588.004C395.488 665.695 456.512 728.758 531.701 728.758C606.89 728.758 667.913 665.695 667.913 588.004C667.913 510.314 607.006 447.251 531.701 447.251ZM531.701 656.278C494.608 656.278 464.579 625.788 464.579 587.966C464.579 550.143 494.608 519.654 531.701 519.654C568.793 519.654 598.823 550.143 598.823 587.966C598.823 625.788 568.793 656.278 531.701 656.278Z" fill="white"/>
</g>
<defs>
<clipPath id="clip0_1097_2">
<rect width="1200" height="1200" fill="white"/>
</clipPath>
</defs>
</svg>
