<svg width="60" height="60" viewBox="0 0 60 60" fill="none" xmlns="http://www.w3.org/2000/svg">
<g clip-path="url(#clip0_613_2053)">
<path d="M0 30C0 13.4315 13.4315 0 30 0V0C46.5685 0 60 13.4315 60 30V30C60 46.5685 46.5685 60 30 60V60C13.4315 60 0 46.5685 0 30V30Z" fill="#081828"/>
<path fill-rule="evenodd" clip-rule="evenodd" d="M44.2454 15.1728C41.4476 19.0834 37.6967 22.6868 32.9925 25.983C28.2512 29.3052 22.3022 32.2231 15.1454 34.7366C15.0885 34.7566 15.0262 34.7266 15.0062 34.6697C15.0021 34.6581 15 34.6459 15 34.6335V25.0478C15 19.4985 19.4985 15 25.0478 15H44.1566C44.2169 15 44.2658 15.0489 44.2658 15.1092C44.2658 15.132 44.2587 15.1542 44.2454 15.1728ZM16.3852 45.389C16.3643 45.389 16.3452 45.377 16.3361 45.3582C16.3229 45.3311 16.3342 45.2984 16.3614 45.2853C18.4796 44.2575 20.641 43.0917 22.8457 41.7881C25.0915 40.4601 27.1977 39.0522 29.1642 37.5646C29.1737 37.5574 29.1853 37.5535 29.1972 37.5535C29.2273 37.5535 29.2518 37.578 29.2518 37.6082V45.3344C29.2518 45.3645 29.2273 45.389 29.1972 45.389H16.3852ZM40.5123 26.1725C38.7998 28.7049 36.7758 31.0819 34.4402 33.3035V45.2993C34.4402 45.3596 34.4891 45.4085 34.5494 45.4085L34.5575 45.4082C36.1866 45.2881 37.3754 45.0904 38.1238 44.8151C42.1996 43.3154 45 39.659 45 35.4072V17.8942C45 17.8339 44.9511 17.785 44.8908 17.785C44.8458 17.785 44.8054 17.8125 44.7891 17.8544C43.5572 21.0054 42.1316 23.7781 40.5123 26.1725Z" fill="#1AD7FD"/>
</g>
<defs>
<clipPath id="clip0_613_2053">
<rect width="60" height="60" rx="30" fill="white"/>
</clipPath>
</defs>
</svg>
