<svg width="1200" height="1200" viewBox="0 0 1200 1200" fill="none" xmlns="http://www.w3.org/2000/svg">
<g clip-path="url(#clip0_932_615)">
<path d="M600 1200C931.371 1200 1200 931.371 1200 600C1200 268.629 931.371 0 600 0C268.629 0 0 268.629 0 600C0 931.371 268.629 1200 600 1200Z" fill="#DB4260"/>
<path fill-rule="evenodd" clip-rule="evenodd" d="M747.502 673.347C747.502 704.634 722.307 729.995 691.23 729.995C684.709 729.995 679.424 724.674 679.424 718.109V469.377C679.424 462.812 684.709 457.49 691.23 457.49H735.694C742.216 457.49 747.502 462.812 747.502 469.377V673.347ZM622.232 729.995H577.768C571.247 729.995 565.962 724.674 565.962 718.109V537.504C565.962 530.938 571.247 525.617 577.768 525.617H622.232C628.754 525.617 634.04 530.938 634.04 537.504V718.109C634.04 724.674 628.754 729.995 622.232 729.995ZM508.772 729.995H464.307C457.786 729.995 452.501 724.674 452.501 718.109V503.644C452.501 497.079 457.786 491.758 464.307 491.758H508.772C515.292 491.758 520.578 497.079 520.578 503.644V718.109C520.578 724.674 515.292 729.995 508.772 729.995ZM679.424 309H520.578C401.518 309 305 406.166 305 526.025V866.601C305 873.164 310.286 878.487 316.807 878.487H679.424C798.485 878.487 895 781.32 895 661.461V526.025C895 406.166 798.485 309 679.424 309Z" fill="white"/>
</g>
<defs>
<clipPath id="clip0_932_615">
<rect width="1200" height="1200" fill="white"/>
</clipPath>
</defs>
</svg>
