<svg width="1200" height="1200" viewBox="0 0 1200 1200" fill="none" xmlns="http://www.w3.org/2000/svg">
<g clip-path="url(#clip0_929_563)">
<path d="M600 1200C931.371 1200 1200 931.371 1200 600C1200 268.629 931.371 0 600 0C268.629 0 0 268.629 0 600C0 931.371 268.629 1200 600 1200Z" fill="#282B66"/>
<path d="M450.577 682.577C450.577 696.707 439.588 707.698 425.459 708.483H266.903C257.484 708.483 248.064 702.987 244.14 694.352C239.43 685.717 240.215 674.727 246.495 666.877L374.439 502.025H266.118C251.989 502.025 241 490.25 241 476.12C241 461.99 251.989 451 266.118 451H425.459C435.663 451 444.297 456.495 448.222 465.13C452.932 473.765 452.147 483.97 445.867 491.82L317.924 656.672H426.244C439.588 657.457 450.577 669.232 450.577 682.577Z" fill="white"/>
<path d="M704.113 579.743C704.113 509.093 761.413 451.787 832.057 451.787C902.701 451.787 960.001 509.093 960.001 579.743C960.001 650.394 902.701 707.7 832.057 707.7C761.413 708.485 704.113 651.179 704.113 579.743ZM754.349 579.743C754.349 622.919 788.886 657.459 832.057 657.459C875.229 657.459 909.766 622.919 909.766 579.743C909.766 536.568 875.229 502.028 832.057 502.028C788.886 502.028 754.349 537.353 754.349 579.743Z" fill="white"/>
<path d="M475.691 678.65C475.691 662.165 489.035 648.82 505.519 648.82C522.003 648.82 535.346 662.165 535.346 678.65C535.346 695.136 522.003 708.481 505.519 708.481C489.035 708.481 475.691 695.136 475.691 678.65ZM490.605 678.65C490.605 686.501 496.885 692.781 504.734 692.781C512.583 692.781 518.863 686.501 518.863 678.65C518.863 670.8 512.583 664.52 504.734 664.52C496.885 664.52 490.605 670.8 490.605 678.65Z" fill="url(#paint0_linear_929_563)"/>
<path d="M686.846 451.787C656.234 451.787 626.406 462.777 602.858 483.187C593.439 472.982 577.741 471.412 567.536 480.832C562.042 485.543 558.902 492.608 558.902 499.673V568.753C558.902 572.678 558.117 576.603 558.117 579.743V682.579C558.117 696.709 569.106 707.7 583.235 707.7C597.364 707.7 608.353 696.709 608.353 682.579V586.023V575.033C610.708 534.213 644.46 502.028 686.061 502.028C700.19 502.028 711.179 490.253 711.964 476.122C712.749 462.777 700.975 451.787 686.846 451.787Z" fill="white"/>
<path d="M784.953 768.93C784.953 777.565 781.813 783.06 768.469 783.06C765.329 783.06 759.05 782.275 755.125 781.49V728.109L761.405 727.324V745.379C763.759 743.809 768.469 743.024 773.179 743.024C781.028 743.024 784.168 747.734 784.168 754.799V768.93H784.953ZM761.405 776.78C763.759 777.565 766.899 777.565 769.254 777.565C777.103 777.565 778.673 774.425 778.673 769.715V755.585C778.673 751.659 777.103 750.089 772.394 750.089C769.254 750.089 764.544 751.659 762.189 753.229V776.78H761.405Z" fill="#39C4E2"/>
<path d="M825.769 782.274H820.275V779.134C817.135 781.489 812.426 783.059 807.716 783.059C800.652 783.059 797.512 779.134 797.512 772.069C797.512 764.218 801.436 761.079 809.286 761.079H819.49V754.799C819.49 750.089 817.135 748.518 810.856 748.518C806.931 748.518 802.221 749.303 799.082 750.088L798.297 744.593C802.221 743.808 806.931 743.023 810.856 743.023C821.845 743.023 824.984 746.949 824.984 755.584V782.274H825.769ZM819.49 766.574H810.071C806.146 766.574 804.576 768.144 804.576 771.284C804.576 775.209 805.361 776.779 810.071 776.779C813.21 776.779 817.135 775.209 820.275 773.639V766.574H819.49Z" fill="#39C4E2"/>
<path d="M863.447 782.274V753.228C863.447 750.873 861.877 749.303 859.522 749.303C856.382 749.303 850.888 750.873 846.963 753.228V782.274H840.684V743.808H846.178L846.963 746.948C850.888 744.593 857.952 743.023 862.662 743.023C868.941 743.023 871.296 746.948 871.296 752.443V781.489H863.447V782.274Z" fill="#39C4E2"/>
<path d="M885.422 782.275V728.109L891.701 727.324V782.275H885.422ZM915.249 743.809L901.906 762.65L916.034 782.275H908.185L894.056 762.65L907.4 743.809H915.249Z" fill="#39C4E2"/>
</g>
<defs>
<linearGradient id="paint0_linear_929_563" x1="480.748" y1="695.774" x2="529.255" y2="661.782" gradientUnits="userSpaceOnUse">
<stop stop-color="#39C4E2"/>
<stop offset="0.99" stop-color="#8DC73F"/>
</linearGradient>
<clipPath id="clip0_929_563">
<rect width="1200" height="1200" fill="white"/>
</clipPath>
</defs>
</svg>
