<svg width="60" height="60" viewBox="0 0 60 60" fill="none" xmlns="http://www.w3.org/2000/svg">
<circle cx="30" cy="30" r="30" fill="#FFDD00"/>
<path fill-rule="evenodd" clip-rule="evenodd" d="M24.9031 27.7064L24.6937 28.0314C24.1932 28.71 23.3982 29.151 22.5001 29.151C20.9848 29.151 19.7562 27.9013 19.7562 26.3598L19.7565 26.3549C19.7591 24.8156 20.9863 23.5685 22.5001 23.5685C24.0139 23.5685 25.2411 24.8156 25.2436 26.3549L25.2439 26.3598C25.2439 26.8482 25.1198 27.307 24.9031 27.7064ZM29.9933 26.3549C29.9375 24.758 29.4011 23.2861 28.5245 22.0853C27.1578 20.2134 24.9683 19 22.5001 19C20.0277 19 17.8353 20.2175 16.469 22.0948C15.5965 23.2938 15.0624 24.7622 15.0069 26.3549H15V26.6296C15 30.2513 17.4814 33.2813 20.8083 34.0618L16.6521 40.5131C16.5174 40.7222 16.6649 41 16.9106 41H22.016C22.1405 41 22.2566 40.9362 22.3249 40.8302L22.4937 40.5682L22.5001 40.5583L28.7602 30.8416C29.5464 29.6354 30 28.1854 30 26.6296V26.3549H29.9933Z" fill="black"/>
<path fill-rule="evenodd" clip-rule="evenodd" d="M42.5632 27.7064L42.3399 28.0314C41.8061 28.71 40.9581 29.151 40.0001 29.151C38.3836 29.151 37.0733 27.9013 37.0733 26.3598L37.0735 26.3549C37.0764 24.8156 38.3853 23.5685 40.0001 23.5685C41.6147 23.5685 42.9237 24.8156 42.9265 26.3549L42.9267 26.3598C42.9267 26.8482 42.7943 27.307 42.5632 27.7064ZM47.9927 26.3549C47.9333 24.758 47.3612 23.2861 46.4261 22.0853C44.9682 20.2134 42.6329 19 40.0001 19C37.3628 19 35.0244 20.2175 33.567 22.0948C32.6361 23.2938 32.0666 24.7622 32.0074 26.3549H32V26.6296C32 30.2513 34.6469 33.2813 38.1955 34.0618L33.7623 40.5131C33.6185 40.7222 33.7758 41 34.038 41H39.4837C39.6165 41 39.7404 40.9362 39.8132 40.8302L39.9933 40.5682L40.0001 40.5583L46.6775 30.8416C47.5161 29.6354 48 28.1854 48 26.6296V26.3549H47.9927Z" fill="black"/>
</svg>
