<svg width="1200" height="1200" viewBox="0 0 1200 1200" fill="none" xmlns="http://www.w3.org/2000/svg">
<g clip-path="url(#clip0_103_10)">
<path d="M600 1200C931.371 1200 1200 931.371 1200 600C1200 268.629 931.371 0 600 0C268.629 0 0 268.629 0 600C0 931.371 268.629 1200 600 1200Z" fill="#F1F1F1"/>
<path fill-rule="evenodd" clip-rule="evenodd" d="M633.359 460.859C615.239 462.218 594.401 463.577 573.563 466.295C541.626 470.599 509.69 476.035 483.415 488.492C432 509.33 397.345 553.725 397.345 618.957C397.345 700.95 450.12 742.627 516.711 742.627C538.908 742.627 557.028 739.909 573.563 735.605C600.064 727.225 622.261 712.049 648.535 684.189C663.711 705.027 668.014 714.767 694.288 736.964C701.31 739.682 708.105 739.682 713.767 735.605C730.528 721.788 759.747 696.647 774.923 682.83C781.944 677.168 780.585 669.014 776.282 661.992C761.106 642.513 745.704 625.752 745.704 588.379V463.804C745.704 411.029 750.007 362.331 711.049 326.317C679.113 297.099 629.056 286 590.098 286H573.336C502.668 290.077 427.696 320.655 410.935 408.311C408.217 419.409 416.598 423.713 422.034 425.072L499.724 434.811C508.104 433.452 512.181 426.431 513.54 419.636C520.562 389.058 545.477 373.883 573.11 370.938H578.772C595.534 370.938 613.427 377.96 623.167 391.776C634.265 408.537 632.906 430.734 632.906 450.213L633.359 460.859ZM617.957 626.205C608.218 645.684 591.457 658.142 573.563 662.445C570.845 662.445 566.541 663.804 562.464 663.804C531.887 663.804 513.993 640.248 513.993 605.367C513.993 560.973 540.267 540.134 573.563 530.395C591.683 526.318 612.521 524.732 633.359 524.732V541.493C633.359 573.43 634.718 598.345 617.957 626.205Z" fill="#343B45"/>
<path fill-rule="evenodd" clip-rule="evenodd" d="M823.167 795.401C819.996 795.401 816.825 796.081 813.881 797.44C810.483 798.799 807.085 800.384 803.914 801.743L799.158 803.782L793.042 806.273C725.545 833.68 654.65 849.762 588.965 851.121C586.473 851.121 584.208 851.121 581.717 851.121C478.432 851.121 394.174 803.329 309.236 755.99C306.291 754.405 303.12 753.725 300.176 753.725C296.325 753.725 292.475 755.084 289.53 757.802C286.586 760.52 285 764.371 285 768.448C285 773.657 287.718 778.414 291.569 781.358C371.297 850.668 458.726 914.994 576.281 914.994C578.546 914.994 580.811 914.994 583.302 914.994C658.048 913.408 742.533 888.04 808.218 846.817L808.671 846.591C817.278 841.381 825.885 835.492 834.039 829.15C839.022 825.526 842.646 819.637 842.646 813.521C842.193 802.649 833.133 795.401 823.167 795.401ZM914.221 757.123C913.994 750.554 912.635 745.571 909.917 741.494L909.691 741.041L909.464 740.588C906.746 737.643 904.028 736.511 901.084 735.152C892.476 731.754 880.019 729.942 864.843 729.942C853.971 729.942 841.967 731.075 829.962 733.566V732.66L817.958 736.737H817.731L810.936 739.002V739.229C803.008 742.626 795.534 746.703 788.739 751.687C784.435 754.858 781.038 758.935 780.811 765.503C780.811 768.901 782.397 772.978 785.341 775.243C788.286 777.508 791.683 778.414 794.628 778.414C795.307 778.414 795.987 778.414 796.666 778.187H797.346H797.799C803.688 776.828 812.295 776.149 822.488 774.563C831.095 773.657 840.381 772.978 848.309 772.978C853.971 772.978 858.954 773.431 862.578 774.11C864.39 774.563 865.523 775.016 866.202 775.243C866.429 775.243 866.655 775.469 866.655 775.469C866.882 775.922 867.108 777.281 866.882 778.867C866.882 785.435 864.164 797.893 860.313 809.897C856.463 821.902 851.933 834.133 848.988 842.061C848.309 843.873 847.856 845.911 847.856 848.176C847.856 851.347 849.215 855.424 851.933 857.916C854.651 860.407 858.275 861.54 861.219 861.54H861.446C865.976 861.54 869.6 859.728 872.997 857.236C903.801 829.603 914.447 785.435 914.9 760.747L914.221 757.123Z" fill="#F4981A"/>
</g>
<defs>
<clipPath id="clip0_103_10">
<rect width="1200" height="1200" fill="white"/>
</clipPath>
</defs>
</svg>
