<svg width="60" height="60" viewBox="0 0 60 60" fill="none" xmlns="http://www.w3.org/2000/svg">
<circle cx="30" cy="30" r="30" fill="#00A8E4"/>
<path fill-rule="evenodd" clip-rule="evenodd" d="M26.1079 28.3747C26.0681 28.3312 26.0453 28.3146 26.0335 28.2921C25.7129 27.6837 25.3989 27.0718 25.0675 26.4693C25.0215 26.3855 24.8915 26.2964 24.8001 26.2961C21.3989 26.2872 17.9975 26.2874 14.5962 26.295C14.5108 26.2952 14.3858 26.3722 14.3469 26.448C14.1102 26.9083 13.8926 27.3784 13.6697 27.8457C12.648 29.9867 11.6259 32.1275 10.6059 34.2694C10.4022 34.6971 10.207 35.1288 10 35.5757H15.5638C15.7803 35.0791 15.9929 34.5915 16.2052 34.1045C16.5795 34.1045 16.9314 34.0935 17.2816 34.1124C17.3659 34.1169 17.4808 34.2023 17.5205 34.2813C17.7351 34.7083 17.9304 35.1449 18.1352 35.5842C18.2004 35.5842 18.257 35.5842 18.3135 35.5842C25.8289 35.5842 33.3441 35.585 40.8594 35.5766C41.001 35.5765 41.1728 35.5 41.2787 35.4027C41.7007 35.0147 42.1021 34.6045 42.5182 34.1955C42.9737 34.6323 43.3856 35.0391 43.8133 35.4283C43.9058 35.5124 44.0553 35.5769 44.1788 35.5775C46.1455 35.5867 48.1122 35.5842 50.0789 35.5832C50.1486 35.5832 50.2184 35.5722 50.3175 35.5638C48.8158 34.015 47.3406 32.4935 45.9047 31.0124C47.4314 29.4205 48.944 27.8437 50.4343 26.2899C50.483 26.3019 50.458 26.2904 50.4331 26.2904C48.3429 26.2893 46.2526 26.2873 44.1625 26.2946C44.0647 26.295 43.948 26.3582 43.8727 26.4275C43.4606 26.8059 43.0587 27.1953 42.6818 27.5538C42.2972 27.1884 41.9182 26.8173 41.5245 26.4625C41.4295 26.3768 41.2858 26.2961 41.1644 26.2959C36.5564 26.2875 31.9484 26.2899 27.3404 26.2843C27.1695 26.2841 27.0905 26.3451 27.0218 26.4901C26.7277 27.1107 26.4234 27.7266 26.1079 28.3747" fill="white"/>
<path fill-rule="evenodd" clip-rule="evenodd" d="M18.0011 31.3925C17.6113 30.4935 17.2409 29.6394 16.8572 28.7543C16.4378 29.6554 16.0372 30.5161 15.6292 31.3925H18.0011ZM21.0985 33.8514V27.5817C21.4152 27.5817 21.7155 27.5817 22.0157 27.5817C22.5573 27.5817 23.0999 27.6009 23.64 27.5731C23.8939 27.56 23.9833 27.6834 24.0774 27.8709C24.6554 29.0239 25.239 30.1742 25.8221 31.3248C25.9241 31.5261 26.0321 31.7244 26.1687 31.9838C26.3346 31.6469 26.4845 31.3532 26.6251 31.0551C27.1467 29.949 27.6639 28.8408 28.1885 27.7362C28.2187 27.6725 28.2989 27.589 28.3565 27.5884C29.2577 27.5791 30.159 27.5819 31.0784 27.5819V34.3046C30.5313 34.3046 30.0115 34.3041 29.4917 34.3048C29.2803 34.3051 29.3135 34.1507 29.3134 34.0219C29.3123 33.0908 29.313 32.1597 29.3131 31.2286C29.3132 30.5638 29.3131 29.8991 29.2691 29.2168C29.1308 29.5007 28.9865 29.7818 28.855 30.0689C28.2406 31.41 27.6272 32.7516 27.0207 34.0963C26.9469 34.26 26.85 34.3145 26.6746 34.3089C26.2854 34.2964 25.8954 34.2983 25.5061 34.3082C25.3466 34.3122 25.2583 34.2705 25.1874 34.1132C24.514 32.6213 23.8305 31.1339 23.1493 29.6454C23.073 29.4786 22.9926 29.3136 22.8621 29.1593V34.2841C22.7527 34.2924 22.6708 34.304 22.5888 34.3041C21.5818 34.3052 20.5746 34.2993 19.5675 34.3095C19.3739 34.3114 19.2839 34.243 19.2105 34.0714C19.0476 33.6909 18.8712 33.3154 18.6783 32.9493C18.6338 32.8648 18.5017 32.7761 18.4089 32.775C17.3545 32.7628 16.2997 32.7726 15.2452 32.7619C15.0625 32.7601 14.9946 32.8449 14.9383 32.9866C14.7894 33.362 14.6412 33.7376 14.4821 34.1088C14.45 34.1837 14.3726 34.2932 14.3141 34.2945C13.7109 34.3082 13.1072 34.303 12.4583 34.303C12.8142 33.5359 13.1487 32.8131 13.4851 32.0913C14.1566 30.651 14.8333 29.213 15.495 27.768C15.5643 27.6163 15.6374 27.578 15.7875 27.5792C16.5285 27.585 17.2697 27.5884 18.0107 27.5772C18.1947 27.5744 18.2746 27.6451 18.345 27.8038C19.2403 29.823 20.1419 31.8393 21.0419 33.8564C21.0608 33.8547 21.0796 33.8531 21.0985 33.8514V33.8514Z" fill="#00A8E4"/>
<path fill-rule="evenodd" clip-rule="evenodd" d="M34.4009 30.1015H38.4316V31.5162H34.4127V32.9512H38.4601V33.6632C39.4154 32.7162 40.381 31.759 41.2846 30.8633C40.3401 29.9185 39.3816 28.9595 38.4379 28.0155V28.9511H34.4009V30.1015ZM42.6472 29.7091C43.2788 29.0739 43.903 28.4581 44.5113 27.827C44.691 27.6405 44.8782 27.5657 45.1353 27.5726C45.7306 27.5885 46.3265 27.5777 47.0127 27.5777C45.8907 28.7159 44.8242 29.7979 43.7412 30.8966C44.7921 32.0179 45.8303 33.1257 46.8686 34.2336C46.859 34.2565 46.8494 34.2794 46.8397 34.3023C46.4763 34.3023 46.113 34.3023 45.7496 34.3023C44.7783 34.3023 44.7738 34.3067 44.0866 33.6111C43.5993 33.1178 43.1261 32.6107 42.5831 32.0435C42.088 32.5638 41.6406 33.0362 41.1905 33.506C41.0404 33.6627 40.8767 33.8068 40.731 33.9672C40.4947 34.2274 40.2199 34.3143 39.8597 34.3114C37.5512 34.2935 35.2424 34.2979 32.9338 34.308C32.6622 34.3092 32.5783 34.238 32.5799 33.9596C32.5911 31.9361 32.5858 29.9124 32.5866 27.8887C32.5866 27.7961 32.5948 27.7034 32.6007 27.5779C32.7182 27.5779 32.8196 27.5779 32.9209 27.5779C35.4102 27.5778 37.8993 27.5797 40.3885 27.5738C40.5739 27.5733 40.7059 27.6226 40.8319 27.7599C41.4274 28.409 42.0317 29.0499 42.6472 29.7091V29.7091Z" fill="#00A8E4"/>
<rect opacity="0.01" x="10" y="10" width="40.5161" height="40.5161" fill="#FF0000"/>
</svg>
