<svg width="60" height="60" viewBox="0 0 60 60" fill="none" xmlns="http://www.w3.org/2000/svg">
<circle cx="30" cy="30" r="30" fill="#F9E900"/>
<path fill-rule="evenodd" clip-rule="evenodd" d="M21.9338 29.3166L28.7266 24.8451L25.8923 22.8415L29.7134 20.2629L37.5252 25.5944L24.664 34.3477L27.3116 36.2144L43.4971 25.5944L30.0014 16.3636L16.4393 25.4111L21.9338 29.3166ZM32.3738 23.8391L35.1646 25.6934L22.2177 34.2974L30.2165 39.7136L33.7859 37.2392L31.1426 35.3549L37.8263 30.7907L43.3871 34.6472L29.8286 43.6364L16.4502 34.5172L32.3738 23.8391ZM21.7848 39.8695L19.1552 37.9326L16.3636 39.8129V43.5361L21.7848 39.8695ZM37.887 20.1641L40.6551 22.1175L43.4276 20.3246V16.3902L37.887 20.1641Z" fill="#2D589D"/>
</svg>
