<svg width="1200" height="1200" viewBox="0 0 1200 1200" fill="none" xmlns="http://www.w3.org/2000/svg">
<g clip-path="url(#clip0_0_29)">
<path d="M600 1200C931.371 1200 1200 931.371 1200 600C1200 268.629 931.371 0 600 0C268.629 0 0 268.629 0 600C0 931.371 268.629 1200 600 1200Z" fill="#00205B"/>
<path d="M780.405 441.516L707.866 315.22C700.68 302.714 687.402 295 673.03 295H527.952C513.58 295 500.301 302.714 493.115 315.22L420.576 441.516C413.39 454.021 413.39 469.45 420.576 481.955L493.115 608.252C500.301 620.757 513.58 628.471 527.952 628.471H580.574L600.491 593.804H527.952C525.896 593.804 523.991 592.691 522.972 590.918L450.433 464.621C449.415 462.848 449.415 460.623 450.433 458.85L522.972 332.553C523.991 330.78 525.896 329.667 527.952 329.667H673.03C675.086 329.667 676.991 330.78 678.009 332.553L750.548 458.85C751.567 460.623 751.567 462.848 750.548 464.621L708.375 538.068H748.191L780.424 481.955C787.61 469.45 787.61 454.021 780.424 441.516H780.405Z" fill="#0094FF"/>
<path d="M653.152 684.904L620.855 628.791H580.938L623.219 702.218C624.24 703.991 624.24 706.217 623.219 707.99L550.494 834.287C549.473 836.059 547.563 837.172 545.502 837.172H400.053C397.992 837.172 396.082 836.059 395.061 834.287L322.336 707.99C321.315 706.217 321.315 703.991 322.336 702.218L395.061 575.922C396.082 574.149 397.992 573.036 400.053 573.036H472.778L452.829 538.369H400.053C385.644 538.369 372.332 546.083 365.128 558.588L292.403 684.885C285.199 697.39 285.199 712.819 292.403 725.324L365.128 851.62C372.332 864.125 385.644 871.84 400.053 871.84H545.502C559.911 871.84 573.223 864.125 580.428 851.62L653.152 725.324C660.357 712.819 660.357 697.39 653.152 684.885V684.904Z" fill="#936FFA"/>
<path d="M908.603 684.885L835.957 558.588C828.761 546.083 815.463 538.369 801.07 538.369H655.78C641.387 538.369 628.09 546.083 620.893 558.588L580.529 628.772H620.402L650.794 575.922C651.814 574.149 653.722 573.036 655.78 573.036H801.07C803.129 573.036 805.037 574.149 806.057 575.922L878.702 702.218C879.722 703.991 879.722 706.217 878.702 707.99L806.057 834.287C805.037 836.06 803.129 837.172 801.07 837.172H655.78C653.722 837.172 651.814 836.06 650.794 834.287L620.289 781.588L600.362 816.236L620.893 851.62C628.09 864.125 641.387 871.84 655.78 871.84H801.07C815.463 871.84 828.761 864.125 835.957 851.62L908.603 725.324C915.799 712.819 915.799 697.39 908.603 684.885Z" fill="#1CD8CA"/>
</g>
<defs>
<clipPath id="clip0_0_29">
<rect width="1200" height="1200" fill="white"/>
</clipPath>
</defs>
</svg>
