<svg width="60" height="60" viewBox="0 0 60 60" fill="none" xmlns="http://www.w3.org/2000/svg">
<circle cx="30" cy="30" r="30" fill="#D20D2A"/>
<path fill-rule="evenodd" clip-rule="evenodd" d="M27.5047 19.4126C32.9701 17.3834 38.4019 21.1455 38.4019 21.1455C38.4019 21.1455 36.6126 18.413 33.2088 17.3113C31.8471 16.7387 24.4097 15.8233 21.4055 21.7706C21.3768 21.8273 21.3487 21.8841 21.3213 21.9409C18.6869 22.818 17.266 23.8904 17.266 23.8904C17.266 23.8904 18.866 23.4565 20.8603 23.0596C18.9648 28.571 22.5241 33.8665 24.5312 34.4326C23.9791 33.3457 23.0477 30.7905 22.8457 29.8955C22.2879 27.4229 22.4701 24.7113 23.6961 22.5872C24.7346 22.4553 25.7363 22.3842 26.5563 22.4305C29.0594 22.5718 31.6334 22.7797 34.3048 23.8904C43.4877 27.708 36.375 34.1386 36.375 34.1386C36.375 34.1386 37.2791 34.4567 40.374 32.2023C43.4689 29.9479 43.2552 23.0783 33.2104 21.258C29.9679 20.6704 27.1573 20.7365 24.8377 21.0955C25.5434 20.3913 26.426 19.813 27.5047 19.4126ZM26.9785 33.6553H28.8692V43.1087H26.9785V33.6553ZM33.5329 29.6219H30.5078V43.1087H33.5329V29.6219Z" fill="white"/>
</svg>
