<svg width="60" height="60" viewBox="0 0 60 60" fill="none" xmlns="http://www.w3.org/2000/svg">
<g clip-path="url(#clip0_807_1982)">
<path d="M0 30C0 13.4315 13.4315 0 30 0V0C46.5685 0 60 13.4315 60 30V30C60 46.5685 46.5685 60 30 60V60C13.4315 60 0 46.5685 0 30V30Z" fill="#001E61"/>
<path fill-rule="evenodd" clip-rule="evenodd" d="M39.2726 28.7982L39.7208 26.5351H35.8634V23.4436L33.1556 23.8676V33.1017C33.1556 36.2941 34.3631 37.2441 37.6554 37.2441H39.0968L39.5452 35.0009H37.8502C36.3504 35.0009 35.8631 34.6175 35.8631 32.9198V28.7982H39.2726ZM20.6684 22.3723V32.2938C20.6684 35.9714 22.3046 37.5069 25.8697 37.5069C29.571 37.5069 31.2074 36.0118 31.2074 32.3138V31.3643C31.2074 27.8889 29.6877 26.1914 26.3762 26.1914C25.3241 26.1914 24.1747 26.4135 23.3954 27.0398V21.9278L20.6684 22.3723ZM25.967 28.4138C27.8371 28.4138 28.4997 29.1818 28.4997 31.4649V32.3138C28.4997 34.5362 27.8371 35.3044 25.928 35.3044C24.019 35.3044 23.3562 34.5362 23.3562 32.2935V31.1419C23.3562 29.1009 24.019 28.4138 25.967 28.4138ZM45.8181 26.1914C42.253 26.1914 40.6166 27.7471 40.6166 31.3034V31.849C40.6166 35.2233 42.0388 36.8599 45.3892 36.8599C46.4608 36.8599 47.5324 36.6583 48.292 36.0315V36.4361C48.292 38.3355 47.4935 38.9613 45.6231 38.9613H44.5034C43.8633 38.9731 43.5725 39.091 43.1867 39.7469L43.1846 39.7459C39.9725 45.0187 34.3958 48.2399 28.3184 48.2399C18.6215 48.2399 10.7328 40.0578 10.7328 29.9999C10.7328 19.9422 18.6215 11.7601 28.3184 11.7601C35.1296 11.7601 41.3259 15.8514 44.2249 22.2183H45.0329C42.0784 15.4006 35.5286 11 28.3184 11C18.2177 11 10 19.5234 10 29.9999C10 40.4766 18.2177 49 28.3184 49C34.2587 49 39.7407 46.0459 43.1583 41.1435H45.779C49.2272 41.1435 51 39.79 51 36.3348V31.1217C51 27.6865 49.3052 26.1914 45.8181 26.1914ZM48.3117 32.1925C48.3117 34.0919 47.6688 34.6777 45.8184 34.6777C43.7336 34.6777 43.3246 33.9302 43.3246 31.728V31.3845C43.3246 29.2018 43.6947 28.4138 45.8181 28.4138C47.9025 28.4138 48.3117 29.1818 48.3117 31.4045V32.1925Z" fill="white"/>
</g>
<defs>
<clipPath id="clip0_807_1982">
<rect width="60" height="60" rx="30" fill="white"/>
</clipPath>
</defs>
</svg>
