<svg width="1200" height="1200" viewBox="0 0 1200 1200" fill="none" xmlns="http://www.w3.org/2000/svg">
<g clip-path="url(#clip0_944_71)">
<path d="M600 1200C931.371 1200 1200 931.371 1200 600C1200 268.629 931.371 0 600 0C268.629 0 0 268.629 0 600C0 931.371 268.629 1200 600 1200Z" fill="#015DA9"/>
<path d="M651.495 735.772C651.495 747.325 651.495 757.938 651.495 769.242C634.414 769.242 617.953 769.242 600.665 769.242C600.665 722.83 600.665 676.086 600.652 629.338C625.887 623.667 636.665 628.111 643.208 648.165C655.854 634.261 670.394 625.224 689.32 624.578C708.493 623.923 724.463 629.288 735.922 646.908C747.825 631.872 763.2 625.065 781.594 624.689C815.091 624.004 835.877 640.358 838.234 673.952C840.439 705.372 838.706 737.068 838.706 769.427C826.402 769.427 813.945 770.129 801.611 769.199C792.153 768.486 788.049 762.62 787.953 752.162C787.757 730.862 788.135 709.553 787.723 688.259C787.49 676.141 782.363 670.12 772.772 668.662C762.953 667.17 753.266 672.577 749.643 682.402C747.83 687.316 746.578 692.713 746.453 697.924C745.974 717.959 746.05 738.007 745.929 758.051C745.906 761.743 745.926 765.436 745.926 769.522C728.314 769.522 711.799 769.522 693.866 769.522C693.866 766.064 693.866 762.765 693.866 759.466C693.865 736.597 693.935 713.728 693.837 690.859C693.776 676.761 689.286 670.388 678.608 668.64C666.52 666.66 656.876 671.955 654.698 685.393C652.069 701.62 652.428 718.331 651.495 735.772Z" fill="#AEC90C"/>
<path d="M766.568 823.36C786.118 817.895 805.62 812.241 825.265 807.141C828.697 806.25 833.315 806.582 836.404 808.211C896.47 839.887 966.499 824.791 1006.07 771.37C1046.45 716.865 1041.77 640.138 995.213 593.088C939.904 537.197 855.35 538.613 802.511 596.316C796.083 603.336 792.126 604.055 774.417 601.098C791.132 575.937 812.84 557.348 840.069 545.44C936.034 503.469 1041.17 568.985 1051.33 670.692C1057.98 737.242 1032.36 789.898 974.621 824.24C929.488 851.084 881.936 850.89 834.165 829.372C829.607 827.319 823.319 826.764 818.495 828.032C791.679 835.082 765.068 842.909 736.516 851.001C741.85 834.196 745.854 818.515 752.222 803.861C753.661 800.551 763.329 800.818 771.315 798.944C768.719 807.827 766.917 813.994 764.705 821.197C765.053 822.609 765.81 822.985 766.568 823.36Z" fill="#F7FAFC"/>
<path d="M495.567 767.305C461.828 753.236 446.001 725.693 449.494 688.065C452.464 656.075 475.425 629.4 507.644 624.187C554.982 616.528 586.655 638.116 592.726 686.691C593.534 693.153 593.73 699.692 594.301 707.437C562.02 707.437 530.628 707.437 499.144 707.437C501.669 735.128 540.875 741.094 574.852 720.133C592.409 734.827 589.982 754.044 568.663 763.596C545.218 774.101 520.869 774.891 495.567 767.305ZM544.494 674.258C539.656 662.1 531.808 657.606 518.985 659.652C506.636 661.622 500.154 668.404 499.263 680.895C513.254 680.895 527.212 681.033 541.156 680.669C542.459 680.635 543.679 677.427 544.494 674.258Z" fill="#ADC90C"/>
<path d="M344.084 739.606C342.141 721.599 340.343 704.29 338.847 686.955C338.394 681.706 338.777 676.385 338.777 670.502C331.354 668.893 324.307 667.738 317.529 665.691C315.18 664.982 311.899 662.149 311.784 660.13C311.199 649.886 311.515 639.59 311.515 628.417C320.659 628.417 328.969 628.417 338.251 628.417C340.539 615.888 342.702 604.042 344.988 591.523C359.785 591.523 374.654 591.523 390.612 591.523C390.612 603.165 390.612 614.914 390.612 627.767C408.694 627.767 425.745 627.767 443.363 627.767C443.363 642.175 443.363 655.482 443.363 669.938C426.382 669.938 409.366 669.938 391.586 669.938C391.586 685.609 390.739 700.224 391.916 714.675C392.581 722.84 399.657 727.898 407.821 728.122C418.875 728.426 429.97 727.242 441.992 726.65C453.558 745.756 446.634 765.449 423.18 770.062C409.116 772.829 393.843 772.894 379.653 770.693C362.705 768.064 350.634 756.812 344.084 739.606Z" fill="#ADC90C"/>
<path d="M636.385 529.188C651.195 499.814 665.809 471.125 680.045 442.25C682.897 436.467 686.295 434.156 692.918 434.4C707.892 434.952 722.9 434.574 738.605 434.574C747.552 479.749 756.393 524.392 765.342 569.576C747.789 569.576 730.98 569.576 713.704 569.576C712.906 564.14 712.152 558.994 711.286 553.086C699.945 553.086 689.005 552.651 678.152 553.425C675.759 553.595 672.5 557.712 671.669 560.596C669.489 568.165 665.371 570.608 657.512 570.188C644.15 569.473 630.721 569.991 615.672 569.991C622.868 555.804 629.462 542.806 636.385 529.188ZM694.113 521.154C698.634 521.154 703.156 521.154 708.026 521.154C706.948 505.248 705.97 490.816 704.992 476.384C698.362 489.84 693.234 503.684 688.449 517.646C688.235 518.27 691.132 519.959 694.113 521.154Z" fill="#FCFDFE"/>
<path d="M394.326 550.16C395.61 556.962 396.672 563.004 397.831 569.59C380.286 569.59 363.8 569.59 346.449 569.59C345.651 564.517 344.844 559.385 343.854 553.09C332.913 553.09 321.697 552.483 310.636 553.521C307.909 553.777 304.629 559.045 303.468 562.615C301.598 568.368 298.752 570.328 292.721 570.136C278.667 569.691 264.589 569.994 248.961 569.994C250.61 566.255 251.77 563.278 253.2 560.436C272.982 521.12 292.903 481.874 312.497 442.465C315.336 436.756 318.483 434.089 325.234 434.402C338.347 435.008 351.512 434.76 364.647 434.486C369.559 434.383 371.749 435.756 372.739 440.932C379.663 477.125 386.94 513.251 394.326 550.16ZM338.689 492.177C338.689 486.844 338.689 481.51 338.689 476.177C337.861 476.09 337.033 476.003 336.205 475.916C330.783 490.721 325.361 505.526 319.867 520.527C327.579 520.527 333.977 520.527 340.99 520.527C340.193 511.203 339.454 502.557 338.689 492.177Z" fill="#FCFDFE"/>
<path d="M206.1 486.618C196.097 500.153 195.608 512.097 204.227 521.227C214.034 531.614 228.61 530.703 251.563 517.338C248.467 534.007 245.669 549.396 242.634 564.737C242.406 565.894 240.62 567.308 239.329 567.606C215.718 573.047 192.171 576.149 170.688 560.924C150.745 546.79 143.499 521.859 150.748 494.366C163.321 446.683 218.815 418.59 262.632 438.444C260.554 454.558 258.446 470.911 256.648 484.855C246.226 481.826 236.232 477.051 226.064 476.649C219.703 476.397 213.082 482.73 206.1 486.618Z" fill="#FBFDFE"/>
<path d="M471.545 434.578C476.594 434.204 477.509 435.738 476.815 440.02C470.072 481.652 463.659 523.337 456.807 564.95C456.485 566.903 452.952 569.7 450.843 569.765C436.814 570.195 422.764 569.988 407.094 569.988C414.229 524.73 421.244 480.23 428.442 434.575C442.767 434.575 456.726 434.575 471.545 434.578Z" fill="#FBFDFE"/>
<path d="M924.882 709.463C909.704 709.669 895.401 709.669 880.162 709.669C878.846 669.903 877.559 630.986 876.254 591.537C889.813 591.537 902.556 590.821 915.171 591.785C923.803 592.444 929.717 598.31 929.546 607.488C928.921 640.938 927.856 674.38 926.901 707.823C926.888 708.311 926.155 708.779 924.882 709.463Z" fill="#ADC90C"/>
<path d="M542.165 545.217C539.869 547.322 537.092 549.092 535.356 551.587C524.236 567.568 509.111 572.678 490.146 570.232C480.415 568.976 470.388 570.011 458.449 570.011C461.949 566.211 464.066 563.748 466.352 561.456C483.345 544.416 500.234 527.267 517.527 510.536C520.317 507.837 524.916 505.718 528.746 505.604C545.293 505.113 561.865 505.467 578.853 506.326C566.907 519.832 554.536 532.524 542.165 545.217Z" fill="#EE9104"/>
<path d="M587.258 498.373C569.424 498.53 551.59 498.817 533.758 498.676C531.52 498.659 528.222 496.946 527.237 495.064C516.979 475.478 507.094 455.696 496.422 434.617C515.623 434.617 533.614 434.462 551.595 434.844C553.523 434.885 555.922 437.739 557.174 439.841C560.474 445.384 563.262 451.232 566.819 458.107C574.009 472.295 580.633 485.334 587.258 498.373Z" fill="#FEFEFD"/>
<path d="M542.664 545.668C554.535 532.524 566.906 519.831 579.614 506.562C582.171 509.241 584.757 512.307 586.548 515.783C595.547 533.247 604.338 550.819 614.026 569.983C594.557 569.983 576.324 570.108 558.099 569.78C556.369 569.748 554.163 567.176 553.087 565.27C549.553 559.014 546.439 552.521 542.664 545.668Z" fill="#F7FAFC"/>
<path d="M587.826 498.209C580.626 485.334 574.001 472.295 567 458.811C573.536 452.289 580.167 445.843 587.479 440.293C591.113 437.535 595.94 434.992 600.323 434.822C616.718 434.184 633.154 434.567 651.317 434.567C629.454 456.626 608.928 477.335 587.826 498.209Z" fill="#EE9104"/>
<path d="M909.029 723.911C924.089 727.505 931.332 735.679 931.962 749.103C932.532 761.274 926.023 771.334 914.937 775.416C901.887 780.221 887.589 776.519 880.28 766.444C873.574 757.2 873.661 742.963 880.717 733.986C887.771 725.011 897.334 722.42 909.029 723.911Z" fill="#ADC90C"/>
<path d="M766.161 822.898C765.81 822.986 765.053 822.61 764.598 821.89C765.185 821.841 765.47 822.138 766.161 822.898Z" fill="#015DA9"/>
<path d="M544.714 674.976C543.678 677.427 542.458 680.635 541.154 680.669C527.21 681.034 513.253 680.896 499.262 680.896C500.153 668.405 506.634 661.623 518.983 659.653C531.806 657.607 539.655 662.101 544.714 674.976Z" fill="#015DA9"/>
<path d="M693.35 521.158C691.136 519.964 688.239 518.275 688.453 517.651C693.238 503.689 698.366 489.845 704.996 476.389C705.974 490.821 706.952 505.253 708.029 521.159C703.159 521.159 698.638 521.159 693.35 521.158Z" fill="#1167AF"/>
<path d="M338.703 493.042C339.454 502.555 340.193 511.201 340.99 520.525C333.978 520.525 327.58 520.525 319.867 520.525C325.361 505.523 330.784 490.719 336.206 475.914C337.034 476.001 337.862 476.088 338.69 476.174C338.69 481.508 338.69 486.841 338.703 493.042Z" fill="#1167AF"/>
</g>
<defs>
<clipPath id="clip0_944_71">
<rect width="1200" height="1200" fill="white"/>
</clipPath>
</defs>
</svg>
