<svg width="1200" height="1200" viewBox="0 0 1200 1200" fill="none" xmlns="http://www.w3.org/2000/svg">
<g clip-path="url(#clip0_1052_1731)">
<path d="M600 1200C931.371 1200 1200 931.371 1200 600C1200 268.629 931.371 0 600 0C268.629 0 0 268.629 0 600C0 931.371 268.629 1200 600 1200Z" fill="#F1F1F1"/>
<g clip-path="url(#clip1_1052_1731)">
<mask id="mask0_1052_1731" style="mask-type:luminance" maskUnits="userSpaceOnUse" x="203" y="419" width="793" height="361">
<path d="M996 419H203V780H996V419Z" fill="white"/>
</mask>
<g mask="url(#mask0_1052_1731)">
<path d="M313.313 779.976C349.122 780.631 378.951 769.243 395.954 741.427C408.247 721.326 403.398 697.928 409.711 663.935C416.166 629.133 431.788 595.492 421.082 571.587C416.457 561.254 410.335 554.349 402.857 548.614C382.262 532.833 352.632 534.445 331.912 542.896C307.524 552.836 294.755 541.087 281.513 538.658C270.183 536.588 261.108 534.109 243.191 538.559C235.671 540.425 218.636 548.05 208.729 566.981C195.079 593.054 208.829 613.801 218.653 658.937C227.761 700.799 224.775 728.304 239.98 748.463C255.186 768.612 277.503 779.322 313.313 779.976Z" fill="#FF6338"/>
<path d="M344.197 505.164C344.231 492.818 333.592 482.936 320.491 483.132C317.762 483.173 315.201 482.215 313.296 480.448C311.391 478.673 310.343 476.276 310.351 473.707C310.359 471.13 311.416 468.709 313.329 466.884C315.25 465.052 317.812 464.029 320.541 463.988C333.642 463.792 344.33 453.508 344.364 441.048C344.397 428.703 333.758 418.82 320.657 419.017C305.377 419.237 290.861 425.177 279.807 435.731C268.885 446.129 262.854 459.873 262.813 474.403C262.78 488.932 268.744 502.497 279.607 512.592C290.612 522.827 305.094 528.341 320.374 528.112C333.484 527.915 344.173 517.624 344.197 505.164Z" fill="#00E984"/>
<path d="M523.603 687.022C511.808 675.716 505.91 659.844 505.91 639.408C505.91 626.416 508.614 614.995 514.037 605.146C519.452 595.295 527.13 587.703 537.078 582.377C547.018 577.052 558.597 574.385 571.806 574.385C607.865 574.385 628.569 591.54 633.91 625.835H600.521C599.331 617.81 596.436 611.788 591.837 607.772C587.236 603.755 580.707 601.75 572.247 601.75C562.157 601.75 554.105 605.113 548.1 611.821C542.086 618.538 539.083 627.734 539.083 639.408C539.083 650.935 542.053 660.024 547.983 666.668C553.914 673.311 562.149 676.632 572.688 676.632C581.289 676.632 588.085 674.513 593.059 670.284C598.025 666.054 601.036 659.926 602.076 651.892H635.465C634.725 661.963 631.905 670.938 627.005 678.825C622.106 686.703 615.019 692.872 605.744 697.322C596.469 701.773 585.373 703.998 572.463 703.998C551.685 703.99 535.406 698.337 523.603 687.022Z" fill="#E80537"/>
<path d="M787.534 577.674V700.709H755.264V661.955C754.072 676.403 749.731 687.022 742.246 693.813C734.751 700.603 724.617 703.998 711.86 703.998C700.13 703.998 689.899 701.445 681.139 696.332C672.379 691.227 665.591 683.824 660.768 674.113C655.943 664.409 653.531 652.768 653.531 639.195C653.531 625.77 656.093 614.169 661.209 604.385C666.333 594.609 673.305 587.164 682.129 582.05C690.953 576.945 700.863 574.385 711.842 574.385C724.309 574.385 734.325 577.78 741.893 584.562C749.465 591.352 753.916 601.898 755.255 616.198V577.665H787.534V577.674ZM747.577 666.774C753.44 660.066 756.369 650.935 756.369 639.408C756.369 627.587 753.44 618.317 747.577 611.601C741.71 604.892 733.583 601.53 723.205 601.53C712.222 601.53 703.357 604.851 696.6 611.494C689.848 618.137 686.47 627.365 686.47 639.187C686.47 650.861 689.88 660.057 696.71 666.774C703.531 673.491 712.364 676.845 723.196 676.845C733.592 676.845 741.71 673.491 747.577 666.774Z" fill="#E80537"/>
<path d="M779.52 758.065V726.323C785.9 728.221 792.281 729.17 798.662 729.17C806.669 729.17 812.385 727.419 815.805 723.918C819.215 720.416 820.921 714.207 820.921 705.305V577.672H853.195V706.835C853.195 720.26 851.371 730.92 847.736 738.799C844.101 746.677 838.463 752.339 830.817 755.766C823.171 759.195 812.977 760.913 800.206 760.913C791.914 760.913 785.016 759.955 779.52 758.065Z" fill="#E80537"/>
<path d="M996 577.672V700.708H963.725V658.894H963.5C963.5 669.259 961.722 677.8 958.16 684.509C954.598 691.226 949.96 696.151 944.244 699.284C938.528 702.417 932.335 703.996 925.661 703.996C912.152 703.996 902.031 700.315 895.275 692.944C888.523 685.572 885.145 674.078 885.145 658.46V577.672H917.419V650.353C917.419 659.107 919.23 665.496 922.874 669.505C926.509 673.522 932.032 675.526 939.463 675.526C945.99 675.526 951.665 673.121 956.487 668.302C961.314 663.483 963.725 656.914 963.725 648.602V577.672H996Z" fill="#E80537"/>
<path d="M823.701 552.058C819.92 548.409 818.031 544.032 818.031 538.919C818.031 533.666 819.92 529.216 823.701 525.567C827.488 521.918 831.971 520.094 837.169 520.094C842.362 520.094 846.813 521.918 850.53 525.567C854.239 529.216 856.095 533.666 856.095 538.919C856.095 544.024 854.239 548.409 850.53 552.058C846.818 555.706 842.371 557.531 837.169 557.531C831.98 557.531 827.488 555.706 823.701 552.058Z" fill="#00E984"/>
</g>
</g>
</g>
<defs>
<clipPath id="clip0_1052_1731">
<rect width="1200" height="1200" fill="white"/>
</clipPath>
<clipPath id="clip1_1052_1731">
<rect width="793" height="361" fill="white" transform="translate(203 419)"/>
</clipPath>
</defs>
</svg>
