<svg width="1200" height="1200" viewBox="0 0 1200 1200" fill="none" xmlns="http://www.w3.org/2000/svg">
<g clip-path="url(#clip0_1051_652)">
<path d="M600 1200C931.371 1200 1200 931.371 1200 600C1200 268.629 931.371 0 600 0C268.629 0 0 268.629 0 600C0 931.371 268.629 1200 600 1200Z" fill="#00263D"/>
<path d="M532.953 666.518C535.433 668.625 537.914 670.731 540.925 675.457C546.957 682.56 552.458 687.046 557.959 691.531C557.959 691.531 558.163 691.529 558.557 692.528C559.739 694.652 560.8 695.378 562.133 695.708C563.299 696.482 564.465 697.257 566.066 700.536C572.038 707.627 577.575 712.211 583.112 716.796C583.112 716.796 583.101 716.867 583.541 717.796C584.802 719.899 585.909 720.65 587.304 720.978C587.304 720.978 587.306 721.046 587.763 721.994C589.068 724.125 590.201 724.881 591.618 725.213C591.618 725.213 591.444 725.288 591.89 726.074C593.144 727.952 594.222 728.585 595.569 728.76C596.54 728.955 597.511 729.151 600.579 730.176C604.338 728.925 605.999 726.845 607.66 724.766C607.66 724.766 608.211 725.217 608.845 724.591C610.619 723.171 611.324 722.093 611.595 720.731C611.595 720.731 611.615 720.319 612.715 719.958C614.942 718.825 615.642 717.769 615.914 716.43C615.914 716.43 616.022 716.343 617.002 715.905C619.163 714.653 619.907 713.545 620.214 712.144C620.214 712.144 620.784 712.706 621.48 712.005C622.991 710.144 623.806 708.983 624.621 707.822C624.621 707.822 624.62 708.187 625.424 707.752C627.017 706.164 627.806 705.011 628.595 703.858C628.595 703.858 629.003 704.187 629.806 703.554C631.398 701.768 632.186 700.615 632.975 699.462C632.975 699.462 632.982 699.784 633.788 699.353C635.37 697.787 636.144 696.652 636.919 695.517C636.919 695.517 637.008 695.403 638.359 695.165C641.626 692.266 643.542 689.604 645.458 686.942C645.458 686.942 645.538 687.248 646.403 686.768C648.115 685.098 648.961 683.907 649.807 682.716C649.807 682.716 649.815 683.086 650.637 682.62C652.277 680.959 653.097 679.764 653.916 678.57C653.916 678.57 653.974 678.871 654.833 678.38C656.513 676.684 657.335 675.478 658.157 674.272C658.157 674.272 658.17 674.689 658.937 674.23C660.47 672.597 661.235 671.423 662.001 670.25C662.001 670.25 662.425 670.567 663.205 669.953C665.168 668.508 665.925 667.388 666.257 665.982C666.257 665.982 666.844 666.6 667.48 665.912C669.306 664.407 670.059 663.294 670.375 661.886C670.375 661.886 670.544 661.894 672.042 661.835C676.754 657.62 679.97 653.466 683.185 649.312C683.185 649.312 683.338 649.642 684.158 649.11C685.754 647.385 686.53 646.192 687.306 644.999C687.306 644.999 687.529 645.374 688.35 644.841C690.023 643.134 690.874 641.96 691.725 640.786C691.725 640.786 691.718 641.206 692.526 640.741C694.158 639.079 694.983 637.88 695.807 636.682C695.807 636.682 696.054 637.051 697.165 636.715C700.227 633.716 702.177 631.054 704.127 628.392C704.127 628.392 704.386 628.787 705.2 628.198C706.838 626.413 707.664 625.217 708.49 624.021C708.49 624.021 708.477 624.327 710 624.432C721.923 627.268 732.324 629.997 742.725 632.726C742.725 632.726 742.372 632.949 742.926 633.748C744.635 635.327 745.791 636.107 746.946 636.887C746.946 636.887 746.537 637.219 747.144 638.007C748.926 639.607 750.102 640.42 751.278 641.233C751.278 641.233 750.903 641.24 751.351 642.035C752.965 643.615 754.131 644.399 755.297 645.184C755.297 645.184 754.882 645.637 755.504 646.355C756.948 648.232 758.053 648.962 759.442 649.262C759.442 649.262 759.578 649.339 759.483 650.993C759.538 655.817 759.688 658.987 758.07 662.231C751.587 662.411 746.872 662.519 740.833 662.865C738.649 663.364 737.789 663.625 737.448 663.451C737.967 663.017 736.864 663.797 736.483 662.76C734.927 660.881 733.752 660.038 732.777 659.188C732.977 659.18 732.955 659.58 732.522 658.601C730.89 656.93 729.69 656.237 728.501 655.435C728.512 655.326 728.293 655.344 728.022 654.131C721.263 644.584 717.252 646.517 715.026 656.129C714.995 656.279 714.69 656.3 713.21 656.133C704.467 664.286 697.203 672.605 689.913 681.113C689.886 681.301 689.507 681.331 687.984 681.022C675.651 692.673 664.841 704.632 654.167 716.741C654.303 716.89 654.001 716.622 652.495 716.699C645.028 723.713 639.067 730.649 632.677 738.543C631.084 740.245 629.922 740.988 627.597 742.045C625.21 744.287 623.985 746.215 622.261 747.73C621.761 747.317 622.639 748.272 621.333 748.406C618.148 751.171 616.269 753.802 614.371 756.564C614.352 756.696 614.091 756.738 612.74 756.728C609.687 759.397 607.985 762.076 606.248 764.842C606.214 764.929 606.072 765.051 604.864 765.253C602.321 767.356 600.985 769.258 599.23 772.112C597.959 774.245 596.82 774.99 594.205 775.588C591.735 777.819 590.455 779.762 588.837 781.486C588.499 781.267 589.03 781.872 587.716 781.748C583.792 783.698 581.182 785.773 577.301 788.527C567.269 799.688 569.045 806.525 583.009 809.121C583.082 809.073 582.983 809.218 583.058 810.716C589.265 817.393 595.397 822.571 601.529 827.75C606.577 821.431 611.626 815.112 617.12 807.705C619.96 804.667 622.354 802.717 626.297 800.703C632.452 795.009 637.058 789.38 641.702 783.854C641.74 783.958 641.527 783.897 642.449 783.383C644.209 781.757 645.048 780.645 645.916 779.647C645.944 779.76 645.717 779.704 646.642 779.204C648.416 777.607 649.265 776.509 650.135 775.498C650.155 775.584 649.988 775.524 651.487 775.489C657.977 771.28 662.968 767.106 669.655 762.942C677.047 763.073 682.744 763.196 688.342 764.85C688.119 769.443 687.995 772.505 687.87 775.567C687.87 775.567 687.834 775.563 686.877 775.967C684.705 777.182 683.942 778.301 683.631 779.728C682.87 780.883 682.109 782.039 678.872 783.623C658.89 792.199 643.434 802.212 640.439 823.565C640.439 823.565 640.341 824.352 638.546 824.209C634.207 827.471 631.663 830.878 629.119 834.284C629.119 834.284 629.112 834.161 628.175 834.558C626.468 836.122 625.697 837.288 624.925 838.454C624.925 838.454 624.926 838.347 623.54 838.469C619.903 841.96 617.652 845.33 615.4 848.699C615.4 848.699 615.212 849.592 613.221 849.308C601.738 848.37 592.245 847.716 582.753 847.062C582.753 847.062 583.066 846.859 582.533 846.061C581.172 844.079 580.057 843.31 578.657 842.953C577.236 842.663 576.095 841.936 574.403 838.814C572.403 836.031 571.231 835.205 570.059 834.378C570.059 834.378 570.356 834.363 569.893 833.515C568.249 831.842 567.069 831.016 565.888 830.19C565.888 830.19 566.18 830.18 565.737 829.328C564.131 827.664 562.967 826.852 561.803 826.04C560.383 825.783 559.27 825.056 557.652 821.945C555.685 819.257 554.53 818.483 553.374 817.709C551.969 817.498 550.877 816.8 549.715 813.16C545.094 807.444 540.854 804.181 536.615 800.918C536.615 800.918 536.885 800.831 536.405 799.979C534.748 798.293 533.572 797.459 532.395 796.626C532.395 796.626 532.69 796.631 532.239 795.748C530.583 794.033 529.378 793.201 528.173 792.369C526.82 792.182 525.769 791.517 524.223 788.458C522.204 785.728 520.983 784.914 519.762 784.1C518.407 783.853 517.345 783.157 515.794 780.079C513.804 777.321 512.599 776.497 511.394 775.673C510.043 775.464 508.987 774.792 507.447 771.728C505.458 768.975 504.245 768.15 503.033 767.326C503.033 767.326 503.335 767.306 502.859 766.468C501.205 764.795 500.025 763.96 498.846 763.125C498.846 763.125 499.137 763.046 498.684 762.214C497.069 760.532 495.908 759.682 494.746 758.832C493.32 758.689 492.22 758.015 490.651 754.924C488.736 752.221 487.613 751.403 486.49 750.585C485.018 750.382 483.871 749.661 482.213 746.498C480.24 743.754 479.106 742.932 477.971 742.111C476.549 741.986 475.453 741.323 473.899 738.196C471.949 735.421 470.782 734.571 469.616 733.721C469.616 733.721 469.901 733.694 469.378 732.889C467.712 731.228 466.569 730.372 465.427 729.517C465.427 729.517 465.718 729.521 465.227 728.689C463.582 727.013 462.426 726.169 461.271 725.325C461.271 725.325 461.529 725.283 461.4 723.941C457.871 720.309 454.469 718.018 451.068 715.727C451.068 715.727 450.268 715.644 450.469 713.828C447.261 709.477 443.852 706.942 440.442 704.406C440.442 704.406 440.642 704.321 440.13 703.453C438.438 701.775 437.257 700.964 436.076 700.154C434.64 700.056 433.527 699.405 431.976 696.292C430.092 693.538 428.97 692.694 427.848 691.85C427.848 691.85 428.045 691.753 427.883 690.22C425.06 678.215 420.741 667.843 420.09 657.246C418.829 636.71 419.631 616.046 419.625 593.469C419.706 549.728 419.742 507.954 419.774 466.179C419.821 405.03 454.309 373.495 515.364 375.332C580.731 377.299 646.172 376.789 711.581 377.318C724.32 377.421 737.06 377.333 756.279 377.333C745.582 388.523 738.945 394.38 733.655 401.27C726.762 410.248 720.938 420.045 714.654 429.49C714.093 428.921 713.533 428.353 712.359 428.433C708.025 430.128 704.304 431.175 700.545 430.466C700.431 422.856 700.356 417.002 700.818 410.314C702.158 408.425 703.075 407.484 705.372 406.269C707.102 400.073 707.568 394.263 708.034 388.454C691.793 392.701 672.895 379.229 658.513 395.877C657.953 396.337 657.394 396.796 654.919 397.457C651.806 397.792 650.645 398.072 648.969 399.425C648.165 401.754 647.912 403.159 647.658 404.563C647.658 404.563 647.5 404.088 646.632 404.503C644.827 406.181 643.889 407.442 642.951 408.704C642.951 408.704 642.904 407.946 642.193 408.475C640.596 410.31 639.71 411.615 638.825 412.92C638.825 412.92 638.86 412.316 637.874 412.515C634.278 414.791 631.668 416.867 627.824 419.599C618.374 430.376 610.157 440.496 601.94 450.616C601.94 450.616 601.833 450.777 600.776 451.026C598.449 452.024 597.855 453.134 597.936 454.606C597.936 454.606 597.877 455.09 596.296 455.074C592.997 457.706 591.277 460.354 589.557 463.002C589.557 463.002 589.543 463.306 588.202 463.53C585.533 465.626 584.206 467.498 582.879 469.371C582.879 469.371 583.034 469.636 581.736 469.85C579.219 471.98 578.001 473.896 576.783 475.812C576.783 475.812 576.566 475.813 575.599 476.118C573.391 477.178 572.833 478.279 572.958 479.726C572.958 479.726 572.939 480.227 571.386 480.344C567.968 483.061 566.104 485.661 564.24 488.261C564.24 488.261 564.17 488.59 562.684 488.509C558.741 491.6 556.283 494.772 553.826 497.945C540.557 510.838 527.287 523.731 511.474 537.378C507.724 572.612 506.271 607.089 505.79 641.58C505.752 644.275 512.506 647.065 516.104 649.811C516.104 649.811 516.035 649.858 516.49 650.766C517.798 652.855 518.935 653.607 520.355 653.93C520.355 653.93 520.228 654.046 520.702 654.941C522.311 656.61 523.446 657.384 524.582 658.158C524.582 658.158 524.409 658.241 524.876 659.121C526.487 660.78 527.63 661.559 528.774 662.338C528.774 662.338 528.601 662.428 529.069 663.306C530.676 664.961 531.814 665.74 532.953 666.518ZM503.5 674.947C503.5 674.947 503.473 675.136 502.515 673.261C501.396 672.441 500.278 671.621 499.322 670.776C499.322 670.776 499.275 670.934 498.416 668.987C497.268 668.194 496.121 667.401 495.113 666.575C495.113 666.575 495.081 666.715 494.877 663.792C490.738 660.531 486.598 657.271 482.557 654.005C482.557 654.005 482.559 654.103 481.584 652.187C480.416 651.389 479.248 650.592 476.231 649.179C475.047 648.438 474.36 647.375 473.243 643.943C472.027 643.11 470.811 642.276 467.764 640.828C466.604 640.056 465.975 638.975 465.841 634.374C460.279 630.057 454.718 625.74 448.3 621.279C448.3 621.279 448.141 620.425 447.778 618.245C444.297 621.198 438.251 623.812 437.805 627.168C436.362 638.056 436.873 649.215 436.814 660.27C436.741 674.083 442.732 682.695 459.711 684.634C463.092 688.393 466.474 692.152 470.756 697.818C471.876 698.637 472.995 699.456 475.979 701.046C477.183 701.828 477.905 702.926 478.749 706.881C481.39 708.851 484.031 710.821 486.7 712.719C486.7 712.719 486.633 712.753 487.54 714.623C488.39 715.79 489.506 716.58 492.779 717.731C493.973 718.531 494.7 719.637 495.793 722.941C496.6 724.129 497.691 724.93 499.281 725.272C499.281 725.272 499.207 725.488 500.08 727.323C500.917 728.465 502.022 729.213 503.463 729.472C503.463 729.472 503.368 729.541 504.238 731.418C505.078 732.589 506.192 733.367 507.647 733.662C507.647 733.662 507.549 733.718 508.118 736.266C510.769 738.249 513.42 740.233 517.95 742.981C519.126 743.796 519.845 744.908 521.01 748.192C521.862 749.363 522.984 750.147 526.27 751.28C527.45 752.087 528.19 753.191 529.387 756.506C530.517 757.318 531.647 758.13 534.981 759.872C536.994 762.29 539.007 764.708 541.697 769.528C543.679 770.804 545.662 772.08 547.004 773.88C547.004 773.88 547.423 773.166 548.046 775.476C551.266 775.216 554.486 774.956 557.659 775.203C557.659 775.203 557.155 775.133 559.205 774.243C560.118 773.088 561.031 771.933 561.94 771.182C561.94 771.182 561.537 771.165 563.531 770.173C564.415 769.001 565.298 767.829 566.154 766.955C566.154 766.955 565.861 766.891 568.889 766.755C571.897 762.524 574.906 758.294 577.519 752.001C576.574 750.149 575.629 748.297 573.747 744.509C572.588 743.698 571.43 742.888 570.512 742.021C570.512 742.021 570.474 742.266 569.528 740.372C568.413 739.535 567.298 738.699 566.352 737.824C566.352 737.824 566.295 737.988 565.379 736.03C564.211 735.223 563.043 734.415 559.983 732.965C558.779 732.183 558.1 731.078 556.992 727.727C555.845 726.902 554.699 726.076 551.679 724.557C550.499 723.762 549.808 722.661 548.667 719.311C547.513 718.487 546.359 717.664 543.339 716.17C542.148 715.408 541.446 714.327 540.256 710.979C539.081 710.159 537.906 709.338 534.806 707.86C533.607 707.039 532.924 705.907 532.628 701.416C527.072 696.795 521.515 692.173 516.077 687.531C516.077 687.531 516.062 687.651 515.141 685.759C514.015 684.957 512.888 684.154 511.89 683.333C511.89 683.333 511.872 683.462 510.957 681.574C509.838 680.767 508.72 679.959 507.696 679.151C507.696 679.151 507.691 679.245 506.788 677.324C505.631 676.55 504.474 675.776 503.5 674.947ZM596.94 418.059C597.785 416.886 598.629 415.713 599.484 414.862C599.484 414.862 599.163 414.85 601.145 413.915C601.943 412.722 602.742 411.528 603.675 410.675C603.675 410.675 603.335 410.539 605.342 409.657C606.166 408.477 606.99 407.298 607.831 406.457C607.831 406.457 607.492 406.447 609.367 405.565C610.524 404.699 611.236 403.556 611.843 400.046C611.914 399.343 611.985 398.641 613.459 396.247C611.092 394.286 608.729 390.628 606.358 390.623C575.978 390.557 545.59 390.798 515.225 391.655C512.023 391.746 506.266 396.188 506.215 398.702C505.567 431.192 505.559 463.7 506.094 496.193C506.132 498.469 511.733 500.653 514.748 502.88C516.255 500.035 517.762 497.189 519.276 493.912C519.276 493.912 519.706 493.858 521.57 493.165C522.753 492.414 523.528 491.363 524.264 490.5C524.264 490.5 523.79 490.115 525.692 489.204C526.447 488.047 527.202 486.89 528.537 486.381C528.537 486.381 527.896 485.793 529.877 484.955C530.705 483.809 531.533 482.663 532.375 481.834C532.375 481.834 532.059 481.82 534.009 480.881C534.785 479.695 535.56 478.509 536.835 477.916C536.835 477.916 536.243 477.415 538.219 476.562C539.032 475.408 539.846 474.253 540.719 473.415C540.719 473.415 540.404 473.355 542.353 472.49C543.149 471.345 543.945 470.2 545.329 469.678C545.329 469.678 544.771 469.032 547.319 468.506C549.236 465.889 551.154 463.273 553.739 461.306C553.739 461.306 553.056 460.67 554.976 459.835C556.178 459.01 556.987 457.899 557.838 457.035C557.838 457.035 557.321 456.579 559.188 455.716C560.349 454.871 561.085 453.747 561.646 452.444C561.646 452.444 561.554 452.192 563.489 451.42C564.711 450.611 565.508 449.499 566.001 448.415C566.001 448.415 565.672 448.283 567.672 447.388C568.471 446.193 569.27 444.998 570.082 444.121C570.082 444.121 569.765 444.107 571.8 443.225C572.631 442.032 573.462 440.839 574.306 439.96C574.306 439.96 573.992 439.947 576.018 439.063C576.856 437.879 577.694 436.696 578.589 435.825C578.589 435.825 578.284 435.737 580.86 435.179C582.775 432.504 584.69 429.83 587.266 427.785C587.266 427.785 586.602 427.155 588.571 426.329C589.41 425.202 590.248 424.074 591.111 423.252C591.111 423.252 590.806 423.22 592.776 422.26C593.574 421.066 594.373 419.871 595.229 418.991C595.229 418.991 594.917 418.926 596.94 418.059ZM466.662 601.243C467.435 602.32 468.469 602.999 472.124 604.534C485.222 614.4 481.707 602.098 481.761 596.797C482.059 567.577 481.864 538.352 481.856 509.13C481.846 473.217 481.854 437.305 481.854 400.793C460.287 407.07 457.192 409.919 442.97 435.622C441.607 476.435 439.63 517.244 439.392 558.063C439.344 566.349 445.859 574.673 451.162 583.737C452.254 584.565 452.962 585.644 454.141 588.884C455.281 589.649 456.42 590.415 457.341 591.226C457.341 591.226 457.394 591.008 458.206 592.934C459.029 594.139 460.148 594.923 461.638 595.311C461.638 595.311 461.666 595.386 462.485 597.254C463.321 598.411 464.435 599.151 465.78 599.56C465.78 599.56 465.869 599.517 466.662 601.243Z" fill="#FAC331"/>
<path d="M715.898 428.862C720.939 420.044 726.764 410.247 733.656 401.27C738.947 394.379 745.584 388.522 756.281 377.332C737.062 377.332 724.321 377.42 711.583 377.317C646.174 376.788 580.732 377.298 515.366 375.331C454.311 373.494 419.822 405.029 419.776 466.178C419.744 507.953 419.708 549.727 418.734 593.457C417.794 595.413 416.008 595.445 416.008 595.445C415.794 544.63 414.955 493.808 415.578 443.003C416.019 407.017 445.068 370.765 480.75 369.845C575.216 367.411 669.786 369.02 768.484 373.852C751.37 391.979 734.256 410.107 715.898 428.862Z" fill="#EABF44"/>
<path d="M549.688 554.013C550.239 552.941 550.79 551.868 551.943 549.282C552.545 547.769 552.132 547.888 552.132 547.888C553.235 547.508 554.339 547.128 558.083 545.614C562.041 542.704 563.357 540.929 564.673 539.154C565.22 539.735 565.766 540.315 566.481 539.794C567.92 538.07 568.819 537.104 569.348 535.792C569.348 535.792 569.619 535.325 570.907 535.206C573 533.134 573.807 531.182 574.613 529.229C601.311 502.557 628.009 475.885 657.271 448.739C660.752 448.305 661.669 448.346 662.536 449.956C659.289 456.302 656.781 461.785 652.759 465.719C642.454 475.795 631.475 485.182 620.779 494.833C620.792 494.821 620.808 494.789 619.685 495.564C610.171 505.548 611.271 511.903 624.547 515.255C625 515.778 625.906 516.825 625.906 516.825C610.04 533.015 594.173 549.204 576.038 566.279C571.481 568.709 569.194 570.255 566.906 571.801C566.487 572.579 566.068 573.356 563.8 575.346C560.879 578.918 559.808 581.278 558.737 583.638C558.737 583.638 558.013 582.882 557.216 583.655C554.398 586.965 552.377 589.502 550.356 592.039C550.356 592.039 549.582 591.194 548.707 591.422C545.308 591.344 542.783 591.039 540.258 590.734C539.8 589.85 539.342 588.966 538.234 586.621C537.583 585.159 537.895 585.105 537.895 585.105C537.895 585.105 538.345 583.937 539.337 582.057C540.298 576.192 540.266 572.208 540.233 568.224C540.233 568.224 539.929 567.096 541.07 565.655C542.801 562.666 543.389 561.117 543.977 559.569C543.977 559.569 544.651 558.312 546.15 557.659C548.735 556.286 549.415 555.288 549.688 554.013Z" fill="#EABF44"/>
<path d="M742.159 662.627C746.874 662.519 751.589 662.411 759.109 662.987C778.729 672.053 768.574 684.838 767.222 696.186C767.036 697.549 766.364 698.602 763.276 700.064C760.563 701.971 759.78 703.161 758.997 704.35C758.997 704.35 759.034 704.294 757.479 704.263C751.377 709.851 746.83 715.47 742.283 721.089C742.283 721.089 742.299 721.084 740.807 721.082C729.49 726.981 719.666 732.88 709.478 738.456C709.114 738.133 708.424 737.49 708.471 735.779C708.6 728.316 708.682 722.564 708.782 716.869C708.801 716.925 708.686 716.898 709.596 716.409C711.638 715.062 712.445 713.966 712.951 712.67C712.975 712.71 712.894 712.662 713.808 712.186C715.87 710.872 716.692 709.788 717.189 708.5C717.192 708.542 717.108 708.532 718.642 708.484C724.722 702.828 729.267 697.219 733.864 691.687C733.917 691.764 733.758 691.665 734.645 691.164C736.636 689.81 737.434 688.73 738 687.486C738.075 687.55 737.974 687.387 739.198 687.415C742.291 684.64 744.159 681.837 746.061 677.735C746.015 675.573 745.937 674.71 745.775 672.774C744.091 670.3 742.489 668.9 741.153 667.384C741.419 667.269 741.038 667.705 741.389 666.451C741.879 664.34 742.019 663.483 742.159 662.627Z" fill="#FCC230"/>
<path d="M620.766 494.846C631.475 485.183 642.453 475.795 652.758 465.719C656.781 461.786 659.288 456.303 663.106 448.89C664.519 443.979 665.312 441.705 666.105 439.43C666.105 439.43 666.308 439.829 667.367 439.379C670.507 436.314 672.589 433.699 674.67 431.085C674.67 431.085 674.68 431.419 675.762 431.038C678.864 428.02 680.882 425.383 682.901 422.747C682.901 422.747 683.249 423.21 684.227 422.694C687.228 419.609 689.251 417.039 691.275 414.469C691.275 414.469 692.023 415.189 692.827 414.614C695.847 413.076 698.065 412.112 700.282 411.148C700.357 417.002 700.432 422.856 700.523 431.563C700.626 435.877 700.714 437.338 700.802 438.8C691.535 448.447 682.269 458.095 670.858 469.112C661.256 476.365 654.439 483.489 646.153 487.768C638.511 491.715 629.291 492.608 620.766 494.846Z" fill="#FCC22F"/>
<path d="M515.392 648.175C512.505 647.063 505.752 644.274 505.789 641.579C506.27 607.088 507.723 572.61 510.106 537.922C511.08 566.704 510.606 595.696 510.865 624.681C510.93 631.978 513.345 639.255 515.392 648.175Z" fill="#D3B550"/>
<path d="M620.777 494.833C629.289 492.607 638.509 491.715 646.152 487.768C654.438 483.489 661.255 476.364 670.159 470.338C657.224 485.356 642.844 500.516 627.184 516.251C625.905 516.825 624.999 515.778 624.933 514.174C623.514 506.643 622.16 500.716 620.806 494.789C620.806 494.789 620.79 494.821 620.777 494.833Z" fill="#EABF44"/>
<path d="M660.422 396.3C672.894 379.228 691.792 392.7 708.033 388.453C707.567 394.262 707.101 400.072 705.589 405.079C702.517 401.465 700.492 398.653 698.467 395.842C686.422 396.136 674.377 396.43 660.422 396.3Z" fill="#EABF44"/>
<path d="M709.839 738.78C719.664 732.88 729.488 726.98 740.808 721.074C728.523 735.393 714.743 749.718 699.225 764.18C697.488 764.316 696.212 762.989 696.613 761.623C701.29 753.098 705.564 745.939 709.839 738.78Z" fill="#D3B550"/>
<path d="M415.669 597.376C416.005 595.445 417.791 595.412 418.684 595.423C419.629 616.045 418.827 636.708 420.089 657.245C420.739 667.842 425.059 678.213 427.825 690.313C423.703 684.029 416.425 676.339 415.836 668.167C414.188 645.32 415.307 622.274 415.669 597.376Z" fill="#E0BE4D"/>
<path d="M641.598 822.89C643.436 802.211 658.892 792.198 677.896 784.033C667.182 796.749 654.968 809.483 641.598 822.89Z" fill="#D3B550"/>
<path d="M768.57 695.612C768.571 684.838 778.725 672.053 760.874 662.914C759.686 658.987 759.536 655.817 759.508 651.066C763.248 652.512 766.717 655.741 770.511 658.527C787.544 671.034 787.477 683.148 768.57 695.612Z" fill="#D3B550"/>
<path d="M603.188 450.009C610.156 440.494 618.373 430.374 628.832 419.683C631.074 419.112 633.073 419.41 633.073 419.41C623.528 429.408 613.982 439.406 603.188 450.009Z" fill="#C7AA4A"/>
<path d="M742.235 631.418C732.324 629.997 721.923 627.268 709.848 624.415C723.821 600.515 731.509 622.664 742.235 631.418Z" fill="#D3B550"/>
<path d="M583.301 848.413C592.245 847.714 601.737 848.368 612.778 849.414C604.147 864.656 593.993 861.121 583.301 848.413Z" fill="#D3B550"/>
<path d="M743.559 720.649C746.829 715.47 751.376 709.851 757.506 704.244C754.338 709.574 749.587 714.891 743.559 720.649Z" fill="#D3B550"/>
<path d="M699.198 397.508C700.491 398.654 702.516 401.465 704.324 405.466C703.073 407.483 702.156 408.424 700.817 410.313C698.061 412.112 695.844 413.075 692.441 414.265C694.147 409.385 697.038 404.279 699.198 397.508Z" fill="#C7AA4A"/>
<path d="M557.517 690.281C552.457 687.045 546.956 682.56 541.434 676.582C546.634 679.737 551.855 684.384 557.517 690.281Z" fill="#D3B550"/>
<path d="M582.669 715.529C577.574 712.211 572.037 707.627 566.469 701.525C571.701 704.76 576.964 709.511 582.669 715.529Z" fill="#D3B550"/>
<path d="M681.949 649.744C679.968 653.464 676.753 657.619 672.047 661.748C673.942 657.875 677.328 654.027 681.949 649.744Z" fill="#D3B550"/>
<path d="M702.06 438.806C700.711 437.338 700.623 435.877 700.559 433.319C704.303 431.175 708.024 430.128 713.201 429.285C710.878 432.596 707.099 435.704 702.06 438.806Z" fill="#EABF44"/>
<path d="M539.934 591.973C542.783 591.039 545.308 591.344 549.086 591.849C546.997 594.599 544.62 606.061 539.934 591.973Z" fill="#C5AC4F"/>
<path d="M537.074 802.164C540.856 804.18 545.095 807.444 549.391 812.217C545.476 810.289 541.504 806.85 537.074 802.164Z" fill="#D3B550"/>
<path d="M554.992 497.751C556.284 494.772 558.741 491.599 562.518 488.529C561.277 491.607 558.718 494.582 554.992 497.751Z" fill="#C7AA4A"/>
<path d="M630.293 833.921C631.663 830.877 634.207 827.471 638.155 824.273C636.861 827.507 634.164 830.533 630.293 833.921Z" fill="#D3B550"/>
<path d="M616.43 848.077C617.651 845.328 619.903 841.959 623.594 838.467C622.509 841.382 619.984 844.419 616.43 848.077Z" fill="#D3B550"/>
<path d="M440.797 705.578C443.852 706.941 447.261 709.477 450.428 713.428C447.174 712.146 444.163 709.448 440.797 705.578Z" fill="#E0BE4D"/>
<path d="M689.063 775.173C687.996 772.504 688.121 769.442 689.634 764.816C692.753 763.165 694.483 763.077 696.214 762.988C696.214 762.988 697.489 764.315 698.101 765.003C695.893 768.721 693.073 771.75 689.063 775.173Z" fill="#D3B550"/>
<path d="M451.68 716.781C454.468 718.017 457.87 720.308 461.369 724.067C458.408 722.969 455.35 720.403 451.68 716.781Z" fill="#E0BE4D"/>
<path d="M644.273 687.322C643.542 689.604 641.626 692.266 638.422 695.128C639.118 692.787 641.104 690.245 644.273 687.322Z" fill="#D3B550"/>
<path d="M590.613 462.553C591.279 460.353 592.998 457.706 596.056 455.104C595.485 457.468 593.576 459.787 590.613 462.553Z" fill="#C7AA4A"/>
<path d="M606.625 725.02C606 726.844 604.339 728.924 602.039 730.457C602.797 728.365 604.193 726.82 606.625 725.02Z" fill="#D3B550"/>
<path d="M690.068 414.832C689.249 417.038 687.226 419.608 683.98 422.538C684.793 420.33 686.828 417.763 690.068 414.832Z" fill="#C7AA4A"/>
<path d="M664.869 439.801C665.309 441.704 664.517 443.978 663.154 447.319C661.666 448.345 660.749 448.305 658.469 448.081C659.282 445.322 661.459 442.748 664.869 439.801Z" fill="#C7AA4A"/>
<path d="M702.941 628.785C702.176 631.053 700.226 633.715 696.973 636.602C697.698 634.277 699.727 631.728 702.941 628.785Z" fill="#D3B550"/>
<path d="M634.133 418.812C633.074 419.41 631.075 419.112 630.066 419.027C631.668 416.866 634.278 414.79 638.173 412.566C638.035 414.351 636.613 416.282 634.133 418.812Z" fill="#EABF44"/>
<path d="M681.677 423.125C680.88 425.383 678.862 428.02 675.594 431.031C676.381 428.771 678.418 426.138 681.677 423.125Z" fill="#C7AA4A"/>
<path d="M568 571.629C569.192 570.254 571.479 568.708 574.832 566.928C573.63 568.282 571.363 569.87 568 571.629Z" fill="#C5AC4F"/>
<path d="M539.43 569.547C540.264 572.207 540.296 576.191 539.683 581.536C538.901 578.887 538.764 574.879 539.43 569.547Z" fill="#C5AC4F"/>
<path d="M559.77 583.323C559.806 581.277 560.878 578.917 562.673 576.043C562.532 578.022 561.668 580.516 559.77 583.323Z" fill="#C5AC4F"/>
<path d="M673.441 431.459C672.586 433.699 670.505 436.313 667.168 439.271C668.013 437.02 670.113 434.427 673.441 431.459Z" fill="#C7AA4A"/>
<path d="M565.312 487.791C566.103 485.66 567.967 483.06 571.139 480.395C570.427 482.661 568.407 484.992 565.312 487.791Z" fill="#C7AA4A"/>
<path d="M551.512 591.597C552.374 589.501 554.395 586.964 557.6 584.006C556.746 586.109 554.708 588.632 551.512 591.597Z" fill="#C5AC4F"/>
<path d="M577.836 475.354C578 473.895 579.218 471.979 581.599 469.777C581.471 471.293 580.181 473.095 577.836 475.354Z" fill="#C7AA4A"/>
<path d="M573.75 529.752C573.806 531.182 573 533.134 571.15 535.321C571.034 533.796 571.962 532.035 573.75 529.752Z" fill="#C5AC4F"/>
<path d="M583.977 469.039C584.208 467.497 585.535 465.624 588.059 463.578C587.862 465.172 586.467 466.94 583.977 469.039Z" fill="#C7AA4A"/>
<path d="M649.52 398.5C650.645 398.072 651.806 397.791 653.882 397.781C653.776 399.243 652.791 400.582 650.762 401.179C649.718 400.437 649.52 398.5 649.52 398.5Z" fill="#C7AA4A"/>
<path d="M563.606 539.523C563.356 540.929 562.04 542.704 559.629 544.794C559.87 543.37 561.205 541.631 563.606 539.523Z" fill="#C5AC4F"/>
<path d="M528.508 793.472C529.377 793.2 530.582 794.032 532.225 795.894C531.391 796.141 530.117 795.359 528.508 793.472Z" fill="#D3B550"/>
<path d="M465.73 730.629C466.568 730.372 467.711 731.227 469.376 733.031C468.611 733.234 467.323 732.488 465.73 730.629Z" fill="#E0BE4D"/>
<path d="M595.308 727.79C594.223 728.584 593.146 727.95 591.926 725.984C592.968 725.11 594.145 725.68 595.308 727.79Z" fill="#D3B550"/>
<path d="M469.973 734.806C470.784 734.571 471.95 735.421 473.615 737.249C472.851 737.448 471.589 736.669 469.973 734.806Z" fill="#E0BE4D"/>
<path d="M570.375 835.468C571.232 835.203 572.404 836.029 574.008 837.858C573.19 838.093 571.94 837.327 570.375 835.468Z" fill="#D3B550"/>
<path d="M461.594 726.418C462.427 726.168 463.583 727.012 465.217 728.834C464.436 729.044 463.176 728.278 461.594 726.418Z" fill="#E0BE4D"/>
<path d="M610.607 720.998C611.326 722.093 610.621 723.171 608.572 724.353C607.732 723.254 608.383 722.096 610.607 720.998Z" fill="#D3B550"/>
<path d="M625.984 838.143C625.698 837.287 626.469 836.121 628.238 834.562C628.504 835.391 627.772 836.613 625.984 838.143Z" fill="#D3B550"/>
<path d="M591.313 724.17C590.201 724.88 589.068 724.123 587.797 721.994C588.586 721.741 589.797 722.434 591.313 724.17Z" fill="#D3B550"/>
<path d="M587.031 719.94C585.908 720.649 584.8 719.898 583.574 717.787C584.365 717.535 585.562 718.219 587.031 719.94Z" fill="#D3B550"/>
<path d="M614.942 716.688C615.643 717.768 614.943 718.823 612.922 719.946C612.054 718.82 612.7 717.703 614.942 716.688Z" fill="#D3B550"/>
<path d="M578.941 843.992C580.055 843.309 581.17 844.079 582.419 846.209C581.634 846.447 580.431 845.739 578.941 843.992Z" fill="#D3B550"/>
<path d="M639.953 412.452C639.711 411.613 640.596 410.308 642.573 408.48C642.803 409.3 641.942 410.643 639.953 412.452Z" fill="#EABF44"/>
<path d="M428.137 692.935C428.969 692.693 430.091 693.537 431.684 695.338C430.911 695.538 429.669 694.78 428.137 692.935Z" fill="#E0BE4D"/>
<path d="M532.703 797.736C533.571 797.458 534.748 798.292 536.393 800.119C535.579 800.357 534.295 799.603 532.703 797.736Z" fill="#D3B550"/>
<path d="M520.117 785.204C520.983 784.914 522.203 785.728 523.891 787.561C523.063 787.822 521.768 787.065 520.117 785.204Z" fill="#D3B550"/>
<path d="M684.676 779.456C683.944 778.301 684.707 777.182 686.882 775.984C687.135 776.793 686.427 777.988 684.676 779.456Z" fill="#D3B550"/>
<path d="M648.968 399.424C649.519 398.498 649.717 400.436 649.911 401.39C650.104 402.344 649.3 403.914 648.478 404.238C647.911 403.157 648.164 401.753 648.968 399.424Z" fill="#EABF44"/>
<path d="M553.699 818.761C554.528 818.482 555.684 819.256 557.275 820.997C556.482 821.247 555.254 820.53 553.699 818.761Z" fill="#D3B550"/>
<path d="M511.738 776.77C512.598 776.497 513.803 777.321 515.454 779.166C514.628 779.414 513.356 778.64 511.738 776.77Z" fill="#D3B550"/>
<path d="M503.383 768.425C504.247 768.15 505.459 768.974 507.118 770.825C506.287 771.076 505.009 770.3 503.383 768.425Z" fill="#D3B550"/>
<path d="M499.164 764.236C500.025 763.959 501.204 764.794 502.866 766.618C502.059 766.854 500.771 766.1 499.164 764.236Z" fill="#D3B550"/>
<path d="M566.207 831.293C567.07 831.015 568.25 831.841 569.894 833.664C569.079 833.906 567.802 833.151 566.207 831.293Z" fill="#D3B550"/>
<path d="M495.082 759.926C495.91 759.681 497.071 760.531 498.723 762.359C497.947 762.566 496.682 761.793 495.082 759.926Z" fill="#E0BE4D"/>
<path d="M562.105 827.121C562.965 826.851 564.129 827.662 565.721 829.472C564.903 829.715 563.656 828.959 562.105 827.121Z" fill="#D3B550"/>
<path d="M486.801 751.651C487.613 751.402 488.736 752.22 490.342 753.977C489.587 754.184 488.349 753.451 486.801 751.651Z" fill="#E0BE4D"/>
<path d="M478.305 743.177C479.105 742.932 480.24 743.754 481.862 745.517C481.113 745.721 479.876 744.983 478.305 743.177Z" fill="#E0BE4D"/>
<path d="M644.089 408.291C643.888 407.442 644.825 406.181 646.878 404.463C647.071 405.297 646.15 406.587 644.089 408.291Z" fill="#EABF44"/>
<path d="M746.622 635.831C745.789 636.106 744.634 635.326 743.043 633.574C743.838 633.327 745.069 634.051 746.622 635.831Z" fill="#D3B550"/>
<path d="M542.853 560.309C543.387 561.117 542.799 562.665 541.4 565.173C540.97 564.438 541.351 562.743 542.853 560.309Z" fill="#C5AC4F"/>
<path d="M537.322 585.658C537.895 585.105 537.583 585.159 537.726 585.216C537.496 585.585 537.123 585.899 537.322 585.658Z" fill="#C5AC4F"/>
<path d="M707.389 624.355C707.663 625.217 706.837 626.413 705.005 628.062C704.762 627.241 705.526 625.965 707.389 624.355Z" fill="#D3B550"/>
<path d="M548.748 554.24C549.414 555.288 548.734 556.285 546.788 557.341C545.956 556.256 546.583 555.186 548.748 554.24Z" fill="#C5AC4F"/>
<path d="M694.724 637.043C694.981 637.879 694.156 639.078 692.314 640.729C692.079 639.923 692.861 638.664 694.724 637.043Z" fill="#D3B550"/>
<path d="M750.956 640.146C750.101 640.419 748.925 639.607 747.309 637.802C748.124 637.56 749.38 638.31 750.956 640.146Z" fill="#D3B550"/>
<path d="M690.614 641.088C690.876 641.96 690.024 643.134 688.16 644.738C687.931 643.909 688.716 642.649 690.614 641.088Z" fill="#D3B550"/>
<path d="M754.972 644.117C754.132 644.398 752.967 643.613 751.355 641.846C752.156 641.593 753.401 642.323 754.972 644.117Z" fill="#D3B550"/>
<path d="M686.236 645.344C686.53 646.192 685.754 647.385 683.991 649.036C683.725 648.226 684.446 646.958 686.236 645.344Z" fill="#D3B550"/>
<path d="M759.158 648.247C758.053 648.961 756.948 648.231 755.727 646.143C756.508 645.887 757.691 646.559 759.158 648.247Z" fill="#D3B550"/>
<path d="M598.821 454.291C597.855 453.132 598.449 452.022 600.692 451.072C601.488 452.207 600.836 453.242 598.821 454.291Z" fill="#C7AA4A"/>
<path d="M573.811 479.396C572.834 478.278 573.392 477.177 575.587 476.225C576.369 477.321 575.743 478.334 573.811 479.396Z" fill="#C7AA4A"/>
<path d="M568.281 535.83C568.816 537.103 567.916 538.069 565.659 538.925C565.521 538.062 566.37 536.966 568.281 535.83Z" fill="#C5AC4F"/>
<path d="M552.252 547.996C552.132 547.887 552.544 547.769 552.613 547.601C552.682 547.434 552.373 548.105 552.252 547.996Z" fill="#C5AC4F"/>
<path d="M436.43 701.238C437.257 700.963 438.438 701.773 440.106 703.558C439.323 703.795 438.053 703.059 436.43 701.238Z" fill="#E0BE4D"/>
<path d="M652.818 678.902C653.097 679.764 652.278 680.959 650.452 682.615C650.203 681.796 650.961 680.516 652.818 678.902Z" fill="#D3B550"/>
<path d="M648.702 683.047C648.963 683.907 648.116 685.097 646.25 686.735C646.018 685.913 646.806 684.646 648.702 683.047Z" fill="#D3B550"/>
<path d="M561.884 694.705C560.801 695.377 559.74 694.65 558.562 692.629C559.685 691.759 560.839 692.416 561.884 694.705Z" fill="#D3B550"/>
<path d="M635.877 695.824C636.144 696.652 635.37 697.787 633.627 699.347C633.385 698.558 634.111 697.345 635.877 695.824Z" fill="#D3B550"/>
<path d="M631.915 699.783C632.186 700.614 631.397 701.768 629.642 703.349C629.402 702.553 630.129 701.329 631.915 699.783Z" fill="#D3B550"/>
<path d="M760.066 704.034C759.779 703.16 760.562 701.971 762.371 700.395C762.644 701.244 761.89 702.481 760.066 704.034Z" fill="#D3B550"/>
<path d="M627.546 704.184C627.807 705.011 627.018 706.164 625.243 707.742C625.003 706.948 625.75 705.729 627.546 704.184Z" fill="#D3B550"/>
<path d="M623.54 708.129C623.807 708.983 622.992 710.144 621.191 711.73C620.955 710.915 621.706 709.676 623.54 708.129Z" fill="#D3B550"/>
<path d="M669.355 662.182C670.058 663.294 669.305 664.407 667.167 665.621C666.925 664.837 667.63 663.657 669.355 662.182Z" fill="#D3B550"/>
<path d="M520.055 652.881C518.936 653.605 517.8 652.854 516.512 650.728C517.302 650.466 518.528 651.15 520.055 652.881Z" fill="#D3B550"/>
<path d="M524.28 657.109C523.446 657.384 522.311 656.61 520.758 654.875C521.553 654.629 522.766 655.344 524.28 657.109Z" fill="#D3B550"/>
<path d="M528.468 661.282C527.631 661.558 526.487 660.779 524.918 659.033C525.715 658.787 526.938 659.507 528.468 661.282Z" fill="#D3B550"/>
<path d="M532.653 665.463C531.813 665.739 530.675 664.961 529.113 663.219C529.912 662.973 531.133 663.69 532.653 665.463Z" fill="#D3B550"/>
<path d="M619.194 712.428C619.907 713.545 619.164 714.652 617.046 715.851C616.796 715.06 617.484 713.886 619.194 712.428Z" fill="#D3B550"/>
<path d="M665.227 666.277C665.926 667.388 665.169 668.507 663.044 669.744C662.799 668.957 663.497 667.765 665.227 666.277Z" fill="#D3B550"/>
<path d="M660.949 670.596C661.234 671.423 660.468 672.597 658.728 674.228C658.468 673.437 659.183 672.189 660.949 670.596Z" fill="#D3B550"/>
<path d="M657.056 674.615C657.336 675.477 656.514 676.683 654.683 678.351C654.433 677.528 655.194 676.244 657.056 674.615Z" fill="#D3B550"/>
<path d="M745.859 673.846C745.937 674.709 746.015 675.572 744.932 678.161C741.839 682.386 739.906 684.886 737.973 687.385C737.973 687.385 738.075 687.549 736.965 687.786C735.156 689.236 734.456 690.45 733.757 691.663C733.757 691.663 733.916 691.763 732.603 692.161C726.563 697.883 721.835 703.207 717.108 708.531C717.108 708.531 717.192 708.541 716.142 708.803C714.359 710.264 713.626 711.463 712.894 712.661C712.894 712.661 712.975 712.709 711.903 712.977C710.116 714.462 709.401 715.679 708.685 716.897C708.685 716.897 708.8 716.923 707.501 717.364C700.027 724.46 693.853 731.115 686.721 738.12C684.591 739.307 683.896 740.439 682.614 742.199C680.788 743.758 680.027 744.984 679.375 746.235C679.484 746.26 679.434 746.043 678.36 746.379C676.522 747.961 675.759 749.208 674.063 750.775C671.966 751.887 671.285 752.978 670.012 754.698C668.201 756.282 667.464 757.536 666.813 758.812C666.898 758.833 666.834 758.669 665.565 759.131C659.527 764.903 654.759 770.213 649.99 775.523C649.99 775.523 650.157 775.582 649.072 775.813C647.231 777.262 646.475 778.482 645.719 779.702C645.719 779.702 645.946 779.759 644.857 779.98C643.021 781.433 642.275 782.664 641.529 783.895C641.529 783.895 641.741 783.957 640.443 784.355C634.347 790.09 629.548 795.428 624.75 800.766C622.356 802.716 619.962 804.666 615.789 808.235C609.213 814.161 604.416 818.468 599.708 822.695C593.222 817.467 588.103 813.342 582.985 809.216C582.985 809.216 583.084 809.072 582.585 807.898C581.05 801.774 580.013 796.823 580.081 791.397C583.802 787.905 586.417 784.888 589.031 781.871C589.031 781.871 588.5 781.265 589.89 780.994C592.652 778.915 594.025 777.107 595.398 775.298C596.822 774.989 597.96 774.243 600.313 771.722C603.233 768.605 604.653 766.828 606.074 765.05C606.074 765.05 606.216 764.928 607.261 764.296C610.235 761.355 612.164 759.046 614.092 756.737C614.092 756.737 614.354 756.694 615.448 756.056C618.575 753.035 620.608 750.653 622.64 748.271C622.64 748.271 621.763 747.316 623.288 747.231C626.129 745.341 627.445 743.535 628.761 741.73C629.923 740.987 631.085 740.244 633.947 738.026C641.765 729.907 647.884 723.264 654.003 716.62C654.003 716.62 654.305 716.889 655.458 716.194C667.577 704.109 678.543 692.72 689.508 681.33C689.508 681.33 689.888 681.3 691.123 680.504C699.803 671.906 707.247 664.102 714.691 656.298C714.691 656.298 714.996 656.277 716.322 655.526C721.197 654.964 724.746 655.153 728.294 655.343C728.294 655.343 728.514 655.324 728.869 656.449C730.468 658.242 731.712 658.91 732.956 659.579C732.956 659.579 732.979 659.179 733.102 660.27C734.438 662.173 735.652 662.984 736.865 663.796C736.865 663.796 737.968 663.016 737.773 664.414C738.409 667.033 739.562 667.664 741.038 667.704C741.038 667.704 741.418 667.268 741.401 668.434C742.875 671.016 744.367 672.431 745.859 673.846Z" fill="#0B272F"/>
<path d="M445.139 433.209C457.19 409.919 460.285 407.069 481.852 400.793C481.852 437.304 481.844 473.217 481.854 509.129C481.862 538.352 482.057 567.577 481.759 596.797C481.705 602.098 485.22 614.4 470.671 602.967C468.401 600.241 467.284 599.614 465.868 599.517C465.868 599.517 465.778 599.56 465.475 598.517C464.003 596.777 462.834 596.082 461.664 595.386C461.664 595.386 461.636 595.31 461.285 594.271C459.753 592.49 458.573 591.749 457.392 591.008C457.392 591.008 457.339 591.226 457.13 590.162C455.71 588.39 454.498 587.682 453.286 586.974C452.96 585.644 452.252 584.565 449.481 581.726C446.742 573.063 444.785 566.414 444.767 559.76C444.652 517.577 444.966 475.393 445.139 433.209Z" fill="#132C2E"/>
<path d="M494.963 721.049C494.702 719.636 493.974 718.53 491.522 716.317C489.053 714.187 487.844 713.469 486.635 712.752C486.635 712.752 486.701 712.718 486.281 711.575C483.29 708.401 480.719 706.37 478.148 704.339C477.906 702.925 477.184 701.827 474.735 699.6C472.278 697.407 471.068 696.659 469.858 695.91C466.476 692.151 463.094 688.392 457.922 682.667C437.22 662.763 443.713 641.457 448.143 620.424C448.143 620.424 448.301 621.278 449.181 622.523C455.334 628.373 460.607 632.979 465.879 637.584C465.977 638.974 466.606 640.055 469.068 642.219C471.637 644.404 472.905 645.197 474.172 645.99C474.362 647.374 475.048 648.437 477.528 650.543C480.069 652.638 481.315 653.37 482.56 654.102C482.56 654.102 482.558 654.004 482.972 655.24C487.285 659.889 491.184 663.302 495.083 666.714C495.083 666.714 495.114 666.574 495.371 667.64C496.844 669.448 498.06 670.19 499.276 670.933C499.276 670.933 499.324 670.775 499.518 671.88C500.966 673.701 502.22 674.418 503.475 675.135C503.475 675.135 503.501 674.946 503.764 676.012C505.248 677.801 506.47 678.523 507.692 679.244C507.692 679.244 507.697 679.15 507.939 680.218C509.412 682.011 510.643 682.736 511.874 683.461C511.874 683.461 511.892 683.332 512.138 684.401C513.611 686.196 514.837 686.923 516.063 687.65C516.063 687.65 516.078 687.53 516.481 688.812C522.175 694.884 527.466 699.674 532.757 704.463C532.925 705.906 533.609 707.038 536.126 709.266C538.708 711.424 539.971 712.176 541.234 712.928C541.447 714.326 542.149 715.407 544.615 717.572C547.129 719.734 548.367 720.493 549.606 721.253C549.809 722.66 550.501 723.761 552.954 725.972C555.468 728.143 556.708 728.896 557.948 729.649C558.101 731.077 558.78 732.182 561.302 734.336C563.845 736.467 565.07 737.227 566.296 737.987C566.296 737.987 566.353 737.823 566.55 738.931C567.989 740.781 569.232 741.523 570.475 742.265C570.475 742.265 570.514 742.02 570.736 743.114C572.201 744.952 573.443 745.698 574.685 746.444C575.63 748.296 576.576 750.148 576.585 753.569C572.387 759.056 569.125 762.973 565.863 766.89C565.863 766.89 566.155 766.954 565.041 767.123C563.131 768.582 562.335 769.873 561.538 771.164C561.538 771.164 561.941 771.181 560.824 771.297C558.857 772.652 558.007 773.892 557.156 775.132C557.156 775.132 557.66 775.202 556.348 775.079C552.499 774.359 549.961 773.762 547.424 773.165C547.424 773.165 547.005 773.879 546.776 772.564C544.705 769.874 542.863 768.5 541.021 767.125C539.008 764.707 536.995 762.289 533.556 758.346C530.916 756.077 529.703 755.333 528.489 754.589C528.191 753.19 527.452 752.086 525.013 749.866C522.538 747.74 521.322 747.028 520.105 746.316C519.846 744.907 519.128 743.795 516.577 741.419C512.652 737.811 510.101 735.764 507.55 733.718C507.55 733.718 507.649 733.661 507.319 732.661C505.783 730.953 504.576 730.247 503.369 729.54C503.369 729.54 503.464 729.471 503.143 728.488C501.617 726.832 500.413 726.16 499.208 725.487C499.208 725.487 499.283 725.271 498.899 724.262C497.332 722.518 496.148 721.783 494.963 721.049Z" fill="#0C272C"/>
<path d="M612.058 397.938C611.986 398.64 611.915 399.342 610.646 401.387C608.797 403.969 608.145 405.208 607.493 406.446C607.493 406.446 607.831 406.456 606.733 406.615C604.868 408.029 604.102 409.283 603.336 410.537C603.336 410.537 603.676 410.674 602.525 410.848C600.637 412.297 599.9 413.573 599.163 414.849C599.163 414.849 599.485 414.861 598.38 415.018C596.489 416.425 595.703 417.675 594.918 418.925C594.918 418.925 595.23 418.99 594.118 419.177C592.273 420.649 591.54 421.934 590.807 423.219C590.807 423.219 591.111 423.251 590.022 423.403C588.156 424.755 587.38 425.954 586.603 427.154C586.603 427.154 587.267 427.784 585.76 427.879C582.263 430.561 580.274 433.149 578.285 435.736C578.285 435.736 578.59 435.824 577.457 435.993C575.547 437.423 574.77 438.684 573.992 439.945C573.992 439.945 574.307 439.959 573.19 440.119C571.304 441.555 570.534 442.83 569.765 444.106C569.765 444.106 570.083 444.12 568.986 444.291C567.15 445.735 566.412 447.009 565.673 448.282C565.673 448.282 566.001 448.414 564.896 448.539C563.046 449.839 562.3 451.015 561.555 452.19C561.555 452.19 561.647 452.443 560.504 452.693C558.681 454.155 558.001 455.366 557.322 456.578C557.322 456.578 557.838 457.033 556.567 457.067C554.55 458.29 553.803 459.479 553.056 460.669C553.056 460.669 553.74 461.304 552.246 461.391C548.759 463.996 546.765 466.513 544.772 469.031C544.772 469.031 545.329 469.677 543.981 469.683C541.89 470.911 541.147 472.132 540.405 473.354C540.405 473.354 540.72 473.414 539.619 473.574C537.76 474.961 537.002 476.188 536.244 477.414C536.244 477.414 536.836 477.915 535.521 477.964C533.49 479.281 532.775 480.55 532.059 481.819C532.059 481.819 532.376 481.833 531.295 481.989C529.442 483.361 528.67 484.576 527.897 485.791C527.897 485.791 528.538 486.38 527.212 486.393C525.188 487.642 524.489 488.877 523.79 490.113C523.79 490.113 524.265 490.499 523.068 490.512C520.459 491.186 519.737 492.297 519.706 493.856C519.706 493.856 519.277 493.91 517.508 494.235C513.492 462.657 511.245 430.754 508.934 397.938C547.161 397.938 579.609 397.938 612.058 397.938Z" fill="#0B2730"/>
<path d="M612.759 397.091C579.61 397.937 547.161 397.937 508.934 397.937C511.246 430.754 513.493 462.657 517.505 494.451C517.763 497.188 516.256 500.033 514.749 502.878C511.735 500.651 506.133 498.467 506.096 496.191C505.56 463.699 505.569 431.19 506.217 398.701C506.267 396.187 512.024 391.744 515.226 391.654C545.592 390.797 575.979 390.556 606.359 390.622C608.73 390.627 611.093 394.285 612.759 397.091Z" fill="#CAAB45"/>
<path d="M444.054 434.414C444.966 475.391 444.652 517.576 444.767 559.759C444.785 566.413 446.742 573.062 448.574 581.345C445.857 574.672 439.343 566.348 439.391 558.062C439.628 517.243 441.606 476.433 444.054 434.414Z" fill="#C8B15E"/>
<path d="M671.083 754.37C671.283 752.979 671.964 751.888 675.005 750.267C677.733 748.306 678.583 747.175 679.432 746.044C679.432 746.044 679.481 746.261 680.311 745.738C681.986 744.098 682.831 742.982 683.677 741.866C683.893 740.44 684.588 739.308 688.456 738.179C696.907 737.755 702.664 737.623 708.421 737.49C708.421 737.49 709.112 738.133 709.475 738.456C705.564 745.939 701.289 753.098 696.613 761.623C694.481 763.077 692.75 763.166 689.73 763.286C682.743 763.196 677.046 763.073 669.38 761.872C667.218 760.086 667.025 759.378 666.832 758.67C666.832 758.67 666.896 758.835 667.747 758.305C669.427 756.64 670.255 755.505 671.083 754.37Z" fill="#FCC230"/>
<path d="M447.961 619.334C443.712 641.457 437.22 662.763 456.762 682.136C442.733 682.694 436.742 674.082 436.815 660.27C436.874 649.214 436.362 638.055 437.806 627.167C438.251 623.811 444.298 621.197 447.961 619.334Z" fill="#DAB74C"/>
<path d="M687.984 681.021C678.541 692.72 667.576 704.11 655.32 716.045C664.841 704.631 675.651 692.672 687.984 681.021Z" fill="#CEAF4B"/>
<path d="M583.059 810.716C588.102 813.343 593.22 817.469 599.707 822.696C604.415 818.47 609.212 814.163 615.341 809.324C611.626 815.112 606.577 821.431 601.529 827.75C595.397 822.571 589.265 817.393 583.059 810.716Z" fill="#E2BB46"/>
<path d="M713.211 656.133C707.246 664.103 699.802 671.907 691.148 680.317C697.203 672.605 704.467 664.285 713.211 656.133Z" fill="#CEAF4B"/>
<path d="M652.494 716.699C647.882 723.265 641.763 729.908 634.375 737.068C639.067 730.649 645.027 723.713 652.494 716.699Z" fill="#CEAF4B"/>
<path d="M578.974 791.872C580.011 796.823 581.048 801.774 582.511 807.946C569.045 806.523 567.268 799.687 577.38 789.535C578.729 789.866 578.974 791.872 578.974 791.872Z" fill="#E2BB46"/>
<path d="M465.86 635.979C460.606 632.98 455.334 628.374 449.609 622.596C454.719 625.74 460.28 630.057 465.86 635.979Z" fill="#DAB74C"/>
<path d="M626.297 800.703C629.546 795.43 634.345 790.092 640.403 784.252C637.057 789.38 632.452 795.009 626.297 800.703Z" fill="#E2BB46"/>
<path d="M665.565 759.131C667.027 759.377 667.22 760.085 667.687 761.862C662.969 767.105 657.978 771.278 651.488 775.488C654.758 770.213 659.527 764.903 665.565 759.131Z" fill="#E2BB46"/>
<path d="M532.69 702.939C527.463 699.674 522.172 694.884 516.418 688.822C521.513 692.172 527.07 696.793 532.69 702.939Z" fill="#DAB74C"/>
<path d="M567.375 766.821C569.124 762.972 572.386 759.055 576.781 754.6C574.906 758.292 571.897 762.523 567.375 766.821Z" fill="#DAB74C"/>
<path d="M494.98 665.252C491.183 663.301 487.284 659.889 482.922 655.242C486.599 657.269 490.738 660.53 494.98 665.252Z" fill="#DAB74C"/>
<path d="M728.021 654.129C724.743 655.153 721.194 654.964 716.352 655.376C717.251 646.516 721.262 644.582 728.021 654.129Z" fill="#CEAF4B"/>
<path d="M580.081 791.399C578.976 791.874 578.731 789.867 578.652 788.858C581.184 785.773 583.794 783.698 587.717 781.748C586.416 784.889 583.801 787.906 580.081 791.399Z" fill="#CEAF4B"/>
<path d="M579.57 435.457C580.272 433.149 582.261 430.562 585.427 427.564C584.689 429.829 582.773 432.503 579.57 435.457Z" fill="#CAAB45"/>
<path d="M612.739 756.727C612.161 759.046 610.233 761.355 607.293 764.208C607.984 762.074 609.686 759.395 612.739 756.727Z" fill="#CEAF4B"/>
<path d="M546.047 468.768C546.767 466.513 548.76 463.996 551.914 461.066C551.156 463.272 549.238 465.888 546.047 468.768Z" fill="#CAAB45"/>
<path d="M621.332 748.404C620.605 750.653 618.573 753.035 615.465 755.925C616.268 753.8 618.147 751.169 621.332 748.404Z" fill="#CEAF4B"/>
<path d="M478.449 705.609C480.719 706.37 483.29 708.401 486.267 711.611C484.033 710.82 481.392 708.85 478.449 705.609Z" fill="#DAB74C"/>
<path d="M507.832 734.992C510.099 735.765 512.65 737.812 515.635 741.038C513.419 740.234 510.768 738.25 507.832 734.992Z" fill="#DAB74C"/>
<path d="M547.734 774.319C549.96 773.761 552.497 774.358 556.37 774.825C554.486 774.954 551.266 775.214 547.734 774.319Z" fill="#DAB74C"/>
<path d="M541.359 768.326C542.863 768.5 544.704 769.874 547.096 772.301C545.663 772.079 543.68 770.803 541.359 768.326Z" fill="#DAB74C"/>
<path d="M604.864 765.252C604.652 766.828 603.232 768.606 600.73 770.772C600.985 769.258 602.321 767.356 604.864 765.252Z" fill="#CEAF4B"/>
<path d="M627.596 742.045C627.442 743.537 626.126 745.342 623.785 747.646C623.984 746.215 625.209 744.287 627.596 742.045Z" fill="#CEAF4B"/>
<path d="M594.206 775.588C594.024 777.108 592.651 778.916 590.227 781.214C590.455 779.761 591.735 777.819 594.206 775.588Z" fill="#CEAF4B"/>
<path d="M503.805 730.478C504.576 730.246 505.783 730.953 507.286 732.704C506.193 733.365 505.079 732.588 503.805 730.478Z" fill="#DAB74C"/>
<path d="M557.471 728.687C556.708 728.896 555.468 728.142 553.891 726.319C554.7 726.075 555.847 726.9 557.471 728.687Z" fill="#DAB74C"/>
<path d="M549.136 720.282C548.366 720.494 547.127 719.735 545.547 717.907C546.359 717.663 547.513 718.487 549.136 720.282Z" fill="#DAB74C"/>
<path d="M499.645 726.404C500.412 726.159 501.617 726.832 503.108 728.535C502.024 729.212 500.919 728.464 499.645 726.404Z" fill="#DAB74C"/>
<path d="M604.339 410.098C604.101 409.284 604.867 408.03 606.724 406.447C606.991 407.298 606.166 408.478 604.339 410.098Z" fill="#CAAB45"/>
<path d="M495.379 721.994C496.147 721.783 497.331 722.518 498.791 724.299C497.692 724.929 496.601 724.128 495.379 721.994Z" fill="#DAB74C"/>
<path d="M642.451 783.382C642.276 782.665 643.022 781.433 644.829 779.867C645.051 780.644 644.211 781.756 642.451 783.382Z" fill="#E2BB46"/>
<path d="M646.64 779.203C646.471 778.482 647.227 777.263 649.048 775.727C649.263 776.508 648.414 777.606 646.64 779.203Z" fill="#E2BB46"/>
<path d="M558.179 774.688C558.004 773.893 558.854 772.653 560.823 771.096C561.029 771.933 560.116 773.088 558.179 774.688Z" fill="#DAB74C"/>
<path d="M562.534 770.669C562.333 769.874 563.13 768.583 565.054 766.975C565.298 767.829 564.415 769.001 562.534 770.669Z" fill="#DAB74C"/>
<path d="M608.428 406.005C608.143 405.208 608.795 403.969 610.476 402.434C611.235 403.555 610.522 404.698 608.428 406.005Z" fill="#CAAB45"/>
<path d="M528.938 755.547C529.701 755.333 530.915 756.078 532.452 757.882C531.647 758.129 530.517 757.317 528.938 755.547Z" fill="#DAB74C"/>
<path d="M520.559 747.253C521.322 747.028 522.538 747.74 524.065 749.499C522.985 750.146 521.863 749.362 520.559 747.253Z" fill="#DAB74C"/>
<path d="M574.214 745.476C573.441 745.698 572.199 744.953 570.613 743.142C571.429 742.887 572.587 743.697 574.214 745.476Z" fill="#DAB74C"/>
<path d="M570.002 741.318C569.232 741.523 567.989 740.781 566.465 738.95C567.299 738.698 568.414 739.535 570.002 741.318Z" fill="#DAB74C"/>
<path d="M565.836 737.008C565.068 737.227 563.843 736.467 562.246 734.657C563.043 734.415 564.21 735.222 565.836 737.008Z" fill="#DAB74C"/>
<path d="M453.715 587.929C454.5 587.682 455.712 588.39 457.242 590.139C456.421 590.415 455.281 589.649 453.715 587.929Z" fill="#C8B15E"/>
<path d="M457.801 591.97C458.575 591.748 459.756 592.489 461.25 594.256C460.149 594.921 459.03 594.138 457.801 591.97Z" fill="#C8B15E"/>
<path d="M462.074 596.319C462.834 596.081 464.003 596.776 465.498 598.472C464.433 599.149 463.32 598.409 462.074 596.319Z" fill="#C8B15E"/>
<path d="M466.266 600.379C467.285 599.613 468.403 600.24 469.493 602.339C468.469 602.998 467.435 602.319 466.266 600.379Z" fill="#C8B15E"/>
<path d="M587.588 426.742C587.38 425.956 588.156 424.756 590.01 423.252C590.249 424.074 589.41 425.202 587.588 426.742Z" fill="#CAAB45"/>
<path d="M473.705 644.966C472.902 645.197 471.634 644.404 469.98 642.526C470.81 642.275 472.026 643.109 473.705 644.966Z" fill="#DAB74C"/>
<path d="M537.231 476.987C537.002 476.187 537.759 474.961 539.589 473.416C539.847 474.252 539.033 475.406 537.231 476.987Z" fill="#CAAB45"/>
<path d="M566.672 447.836C566.411 447.01 567.149 445.736 568.978 444.133C569.27 444.998 568.471 446.193 566.672 447.836Z" fill="#CAAB45"/>
<path d="M562.523 451.805C562.3 451.015 563.046 449.84 564.836 448.373C565.509 449.498 564.712 450.611 562.523 451.805Z" fill="#CAAB45"/>
<path d="M570.784 443.666C570.535 442.831 571.304 441.556 573.184 439.963C573.464 440.839 572.632 442.032 570.784 443.666Z" fill="#CAAB45"/>
<path d="M558.255 456.148C558.001 455.368 558.68 454.156 560.378 452.645C561.085 453.747 560.349 454.871 558.255 456.148Z" fill="#CAAB45"/>
<path d="M554.016 460.252C553.803 459.48 554.549 458.29 556.349 456.801C556.987 457.898 556.178 459.009 554.016 460.252Z" fill="#CAAB45"/>
<path d="M541.377 472.923C541.145 472.134 541.888 470.912 543.685 469.373C543.943 470.2 543.148 471.345 541.377 472.923Z" fill="#CAAB45"/>
<path d="M575.006 439.505C574.77 438.685 575.547 437.424 577.429 435.838C577.695 436.696 576.857 437.88 575.006 439.505Z" fill="#CAAB45"/>
<path d="M482.073 653.145C481.315 653.371 480.069 652.639 478.453 650.851C479.25 650.591 480.418 651.389 482.073 653.145Z" fill="#DAB74C"/>
<path d="M533.032 481.35C532.772 480.551 533.488 479.282 535.269 477.668C535.559 478.509 534.783 479.695 533.032 481.35Z" fill="#CAAB45"/>
<path d="M528.887 485.374C528.67 484.577 529.442 483.362 531.288 481.832C531.534 482.663 530.706 483.809 528.887 485.374Z" fill="#CAAB45"/>
<path d="M524.742 489.658C524.489 488.877 525.187 487.641 526.922 486.068C527.203 486.888 526.448 488.045 524.742 489.658Z" fill="#CAAB45"/>
<path d="M520.639 493.51C519.738 492.297 520.46 491.187 522.885 490.268C523.53 491.362 522.754 492.414 520.639 493.51Z" fill="#CAAB45"/>
<path d="M600.154 414.381C599.9 413.573 600.637 412.297 602.457 410.678C602.742 411.527 601.944 412.72 600.154 414.381Z" fill="#CAAB45"/>
<path d="M515.603 686.704C514.838 686.923 513.611 686.196 512.074 684.41C512.89 684.153 514.016 684.956 515.603 686.704Z" fill="#DAB74C"/>
<path d="M470.305 696.863C471.065 696.658 472.275 697.407 473.799 699.215C472.993 699.455 471.874 698.636 470.305 696.863Z" fill="#DAB74C"/>
<path d="M511.415 682.517C510.641 682.736 509.411 682.011 507.891 680.218C508.72 679.958 509.838 680.765 511.415 682.517Z" fill="#DAB74C"/>
<path d="M540.743 711.954C539.968 712.177 538.705 711.425 537.086 709.595C537.904 709.338 539.08 710.159 540.743 711.954Z" fill="#DAB74C"/>
<path d="M487.086 713.688C487.842 713.471 489.051 714.188 490.574 715.949C489.505 716.58 488.389 715.79 487.086 713.688Z" fill="#DAB74C"/>
<path d="M591.79 422.74C591.539 421.935 592.272 420.65 594.088 419.021C594.372 419.871 593.573 421.066 591.79 422.74Z" fill="#CAAB45"/>
<path d="M595.928 418.492C595.702 417.675 596.488 416.425 598.373 414.857C598.629 415.712 597.784 416.885 595.928 418.492Z" fill="#CAAB45"/>
<path d="M732.521 658.601C731.71 658.911 730.466 658.243 728.855 656.559C729.689 656.237 730.889 656.929 732.521 658.601Z" fill="#CEAF4B"/>
<path d="M736.485 662.76C735.652 662.985 734.439 662.174 732.902 660.279C733.754 660.038 734.929 660.88 736.485 662.76Z" fill="#CEAF4B"/>
<path d="M741.387 666.451C739.561 667.665 738.408 667.035 737.254 664.85C737.79 663.625 738.65 663.364 740.834 662.865C742.018 663.484 741.878 664.34 741.387 666.451Z" fill="#CEAF4B"/>
<path d="M498.846 669.96C498.059 670.191 496.843 669.448 495.301 667.656C496.122 667.401 497.269 668.193 498.846 669.96Z" fill="#DAB74C"/>
<path d="M502.993 674.198C502.218 674.418 500.963 673.702 499.434 671.893C500.277 671.621 501.395 672.44 502.993 674.198Z" fill="#DAB74C"/>
<path d="M507.24 678.283C506.469 678.522 505.248 677.8 503.672 676.039C504.475 675.774 505.632 676.548 507.24 678.283Z" fill="#DAB74C"/>
<path d="M619.681 495.562C622.158 500.715 623.512 506.642 624.478 513.65C611.267 511.902 610.168 505.547 619.681 495.562Z" fill="#FCC22F"/>
<path d="M708.469 735.778C702.665 737.622 696.908 737.755 689.414 737.83C693.852 731.116 700.026 724.46 707.481 717.309C708.68 722.564 708.598 728.315 708.469 735.778Z" fill="#E2BB46"/>
<path d="M718.641 708.483C721.834 703.207 726.561 697.883 732.549 692.084C729.265 697.218 724.72 702.827 718.641 708.483Z" fill="#E2BB46"/>
<path d="M739.195 687.415C739.904 684.887 741.836 682.387 744.897 679.461C744.157 681.837 742.288 684.64 739.195 687.415Z" fill="#E2BB46"/>
<path d="M745.772 672.774C744.364 672.432 742.872 671.017 741.133 668.551C742.486 668.9 744.088 670.3 745.772 672.774Z" fill="#CEAF4B"/>
<path d="M709.594 716.409C709.399 715.68 710.114 714.463 711.877 712.938C712.443 713.965 711.636 715.062 709.594 716.409Z" fill="#E2BB46"/>
<path d="M734.643 691.163C734.455 690.45 735.154 689.237 736.888 687.723C737.433 688.729 736.635 689.809 734.643 691.163Z" fill="#E2BB46"/>
<path d="M713.808 712.186C713.626 711.463 714.359 710.265 716.139 708.762C716.691 709.788 715.87 710.872 713.808 712.186Z" fill="#E2BB46"/>
<path d="M670.012 754.699C670.258 755.505 669.429 756.64 667.665 758.283C667.465 757.537 668.202 756.283 670.012 754.699Z" fill="#E2BB46"/>
<path d="M678.358 746.379C678.584 747.174 677.734 748.305 675.94 749.945C675.758 749.208 676.521 747.961 678.358 746.379Z" fill="#E2BB46"/>
<path d="M682.614 742.199C682.834 742.981 681.988 744.097 680.205 745.712C680.027 744.984 680.788 743.759 682.614 742.199Z" fill="#E2BB46"/>
</g>
<defs>
<clipPath id="clip0_1051_652">
<rect width="1200" height="1200" fill="white"/>
</clipPath>
</defs>
</svg>
