<svg width="1200" height="1200" viewBox="0 0 1200 1200" fill="none" xmlns="http://www.w3.org/2000/svg">
<g clip-path="url(#clip0_1110_2)">
<path d="M600 1200C931.371 1200 1200 931.371 1200 600C1200 268.629 931.371 0 600 0C268.629 0 0 268.629 0 600C0 931.371 268.629 1200 600 1200Z" fill="#F1F1F1"/>
<g clip-path="url(#clip1_1110_2)">
<path fill-rule="evenodd" clip-rule="evenodd" d="M513.257 277.633V641.049C513.257 679.234 545.092 698.303 608.763 698.255C630.786 698.913 652.638 694.179 672.422 684.463C692.206 674.747 709.326 660.343 722.297 642.499C752.579 598.663 767.504 546.007 764.736 492.769C766.778 437.352 748.643 383.082 713.71 340.068C696.109 318.204 673.068 301.375 646.908 291.275C613.531 280.86 578.624 276.239 543.693 277.609L513.257 277.633ZM455.73 719.051L455.351 337.834C457.199 321.057 453.984 304.111 446.123 289.183C440.928 284.602 434.807 281.199 428.179 279.206C421.551 277.212 414.571 276.676 407.717 277.633H402.023V259.023H567.486C607.72 258.422 647.901 262.175 687.33 270.217C714.386 278.247 739.761 291.131 762.221 308.244C806.756 343.799 829.023 398.05 829.023 470.998C830.661 536.069 809.219 599.614 768.508 650.342C748.968 675.07 722.85 693.764 693.166 704.268C652.283 715.739 609.864 720.751 567.438 719.122L455.73 719.051Z" fill="#1B438B"/>
<path d="M598.633 822.555H745.165V972H598.633V822.555Z" fill="#71C2FF"/>
<path d="M456.133 822.555H602.618V972H456.133V822.555Z" fill="#71C2FF"/>
</g>
</g>
<defs>
<clipPath id="clip0_1110_2">
<rect width="1200" height="1200" fill="white"/>
</clipPath>
<clipPath id="clip1_1110_2">
<rect width="427" height="713" fill="white" transform="translate(402 259)"/>
</clipPath>
</defs>
</svg>
