<svg width="60" height="60" viewBox="0 0 60 60" fill="none" xmlns="http://www.w3.org/2000/svg">
<circle cx="30" cy="30" r="30" fill="#00285E"/>
<path d="M39.7408 26.1596C39.7408 26.4305 39.6323 26.6902 39.4391 26.8817C39.246 27.0732 38.9841 27.1807 38.7111 27.1805C38.1428 27.1802 37.6824 26.723 37.6826 26.1592C37.6828 25.5955 38.1436 25.1386 38.7119 25.1387C39.2801 25.1388 39.7408 25.5959 39.7408 26.1596ZM24.3971 25.1307C24.3971 25.7294 23.9078 26.2148 23.3043 26.2148C22.7007 26.2148 22.2114 25.7294 22.2114 25.1307C22.2114 24.5319 22.7007 24.0466 23.3043 24.0466C23.9078 24.0466 24.3971 24.5319 24.3971 25.1307Z" fill="#31E6C8"/>
<path d="M18.5627 21C18.3668 20.9982 18.1784 21.0746 18.0399 21.212C17.9013 21.3494 17.8244 21.5363 17.8262 21.7306V25.8694C16.3564 24.3931 14.1333 23.9437 12.1984 24.7318C10.2634 25.5199 9 27.3894 9 29.4644C9 31.5394 10.2634 33.4089 12.1984 34.197C14.1333 34.9851 16.3564 34.5357 17.8262 33.0593V33.8468C17.8262 34.2505 18.1561 34.5777 18.563 34.5777C18.9699 34.5777 19.2998 34.2505 19.2998 33.8468V21.7306C19.3016 21.5362 19.2246 21.3492 19.0859 21.2118C18.9473 21.0743 18.7587 20.998 18.5627 21ZM14.1433 33.1162C12.1093 33.1162 10.4603 31.4805 10.4603 29.4626C10.4603 27.4448 12.1093 25.809 14.1433 25.809C16.1773 25.809 17.8262 27.4448 17.8262 29.4626C17.8262 31.5671 16.1175 33.1162 14.1433 33.1162ZM23.3534 27.3231C23.5494 27.3211 23.7379 27.3974 23.8764 27.5349C24.015 27.6724 24.0919 27.8594 24.0899 28.0537V33.8785C24.0899 34.282 23.7602 34.6091 23.3534 34.6091C22.9467 34.6091 22.617 34.282 22.617 33.8785V28.0537C22.6151 27.8594 22.6921 27.6725 22.8306 27.5351C22.9691 27.3976 23.1575 27.3213 23.3534 27.3231ZM38.6693 28.2446L38.6658 28.2429C38.8509 28.2405 39.0291 28.3125 39.1601 28.4423C39.291 28.5722 39.3635 28.749 39.3611 28.9327V34.4211C39.3795 34.6786 39.2515 34.9247 39.0293 35.0589C38.8071 35.1932 38.5279 35.1932 38.3058 35.0589C38.0836 34.9247 37.9555 34.6786 37.9739 34.4211V28.9344C37.9716 28.7507 38.0441 28.5739 38.175 28.4441C38.3059 28.3142 38.4841 28.2423 38.6693 28.2446ZM46.7102 25.4837C44.0282 25.484 41.8542 27.641 41.8545 30.3017C41.8547 32.9623 44.029 35.119 46.711 35.1189C49.393 35.1188 51.5671 32.9619 51.5671 30.3013C51.5703 29.0225 51.0596 27.7952 50.1481 26.891C49.2365 25.9868 47.9993 25.4803 46.7102 25.4837ZM46.7102 33.7428C44.7942 33.7428 43.2411 32.202 43.2411 30.3013C43.2411 28.4006 44.7942 26.8598 46.7102 26.8598C48.6261 26.8598 50.1793 28.4006 50.1793 30.3013C50.1787 32.2017 48.6259 33.7421 46.7102 33.7428ZM35.2772 26.1735C35.2796 25.9898 35.2071 25.813 35.0762 25.6832C34.9453 25.5533 34.767 25.4814 34.5819 25.4837H30.5148H30.4957H30.4203C28.3204 25.4873 26.4606 26.8295 25.8108 28.8105C25.1609 30.7915 25.8683 32.9624 27.5639 34.1914C29.2596 35.4203 31.5594 35.4288 33.2643 34.2125C34.0788 35.3705 34.0974 36.9047 33.3113 38.0819C32.5251 39.2591 31.0937 39.8403 29.7012 39.5477C28.3086 39.2552 27.2376 38.1483 26.9999 36.7561C26.9217 36.3991 26.5765 36.1645 26.2127 36.221C25.8489 36.2776 25.5927 36.6057 25.6283 36.9693C26.0202 39.3486 28.1286 41.0716 30.5577 40.9977C33.0881 40.9293 35.17 38.895 35.2732 36.3864C35.3239 35.2543 34.9697 34.1409 34.2731 33.2427C35.7654 31.3077 35.5737 28.5736 33.8257 26.8621H34.5831C34.7682 26.8645 34.9464 26.7926 35.0773 26.6627C35.2083 26.5328 35.2808 26.356 35.2784 26.1723L35.2772 26.1735ZM33.8877 30.3019C33.8877 32.2026 32.3346 33.7434 30.4186 33.7434C28.5027 33.7434 26.9495 32.2026 26.9495 30.3019C26.9495 28.4012 28.5027 26.8604 30.4186 26.8604C32.3343 26.861 33.8871 28.4015 33.8877 30.3019Z" fill="white"/>
</svg>
