<svg width="60" height="60" viewBox="0 0 60 60" fill="none" xmlns="http://www.w3.org/2000/svg">
<rect width="60" height="60" fill="#0078C2"/>
<path fill-rule="evenodd" clip-rule="evenodd" d="M37.3841 30.0655C37.4262 24.5916 32.9738 19.917 27.27 19.8886C21.6342 19.8606 17.0381 24.3591 17.0324 30.0573C17.0266 35.7729 21.6396 40.2637 27.2515 40.2469C32.9184 40.2299 37.4275 35.5849 37.3841 30.0655ZM32.9969 41.1774H26.6177C26.5357 41.1588 26.4542 41.128 26.3714 41.1236C25.4995 41.0772 24.6501 40.91 23.8189 40.6482C21.7752 40.0041 20.0545 38.8665 18.66 37.2414C17.2196 35.5628 16.3551 33.6269 16.0978 31.4251C16.069 31.1789 16.0328 30.9337 16 30.6881C16 30.3456 16 30.0031 16 29.6606C16.0178 29.5706 16.04 29.4813 16.0528 29.3907C16.1428 28.7508 16.1843 28.1 16.3279 27.4724C16.8767 25.0745 18.0885 23.0707 20.0029 21.5117C21.7114 20.1205 23.6756 19.3377 25.8615 19.0981C26.1141 19.0705 26.3657 19.0329 26.6177 19H32.9969C33.0714 19.0185 33.1452 19.0494 33.2205 19.0537C34.156 19.107 35.0698 19.2782 35.9631 19.5577C38.2055 20.2592 40.1014 21.4864 41.5834 23.3182C42.9947 25.0627 43.7744 27.0627 43.9482 29.3032C44.0277 30.3272 43.975 31.3392 43.745 32.3384C43.1536 34.9079 41.7555 36.9663 39.7045 38.5872C37.9328 39.9875 35.9223 40.8384 33.6668 41.084C33.4428 41.1084 33.2202 41.1459 32.9969 41.1774Z" fill="white"/>
<path fill-rule="evenodd" clip-rule="evenodd" d="M24.8741 35.9897C22.9508 35.3632 20.9363 33.1998 20.8145 30.3891C20.662 26.8711 23.1735 24.6784 24.8741 24.142V35.9897Z" fill="white"/>
<path fill-rule="evenodd" clip-rule="evenodd" d="M29.5607 35.9892V24.1398C31.5911 24.8374 33.7639 27.1588 33.6151 30.3806C33.4812 33.2783 31.4372 35.3677 29.5607 35.9892Z" fill="white"/>
<rect opacity="0.01" x="15" y="15" width="30" height="30" fill="#FF0303"/>
</svg>
