<svg width="1200" height="1200" viewBox="0 0 1200 1200" fill="none" xmlns="http://www.w3.org/2000/svg">
<g clip-path="url(#clip0_1121_18)">
<path d="M600 1200C931.371 1200 1200 931.371 1200 600C1200 268.629 931.371 0 600 0C268.629 0 0 268.629 0 600C0 931.371 268.629 1200 600 1200Z" fill="#2F2F2F"/>
<path d="M863.332 446.648L961 411.005V316L842.765 407.616C835.328 413.286 830.753 418.922 830.753 427.426C830.753 442.12 845.035 453.458 863.298 446.648H863.332ZM830.753 776.364H893.574V476.622H830.753V776.364ZM545.711 776.364H608.53V660.996H765.597V604.436H608.53C607.379 557.487 639.365 529.207 683.362 529.207C707.352 529.207 727.918 537.678 743.352 548.43L783.334 503.762C754.211 482.259 722.785 470.953 685.073 470.953C602.245 470.953 545.711 525.232 545.711 604.436V776.364ZM262.972 594.824C272.12 554.099 304.665 529.207 349.781 529.207C394.897 529.207 425.764 554.099 431.457 594.824H262.972ZM496.021 620.27C496.021 551.264 445.739 470.953 349.781 470.953C265.275 470.953 199 533.736 199 624.212C199 714.689 265.835 782 356.1 782C412.075 782 457.19 755.414 486.905 716.415L442.942 680.772C421.223 709.052 391.541 723.746 354.388 723.746C305.258 723.746 272.12 696.02 263.005 651.352H465.055C484.471 651.352 496.087 642.295 496.087 620.237" fill="white"/>
</g>
<defs>
<clipPath id="clip0_1121_18">
<rect width="1200" height="1200" fill="white"/>
</clipPath>
</defs>
</svg>
