<svg width="1200" height="1200" viewBox="0 0 1200 1200" fill="none" xmlns="http://www.w3.org/2000/svg">
<g clip-path="url(#clip0_1051_1497)">
<path d="M600 1200C931.371 1200 1200 931.371 1200 600C1200 268.629 931.371 0 600 0C268.629 0 0 268.629 0 600C0 931.371 268.629 1200 600 1200Z" fill="#F1F1F1"/>
<path d="M840.719 429C840.784 479.162 840.883 529.324 840.908 579.486C840.941 646.197 841.148 712.908 840.805 779.617C840.663 807.176 823.998 829.573 798.095 837.92C757.724 850.93 716.932 821.097 717 778.958C717.158 681.027 717.046 583.095 717.051 484.069C717.058 482.973 717.111 482.263 717.857 482.2C739.69 482.123 760.782 482.399 781.861 482.007C800.208 481.665 815.661 473.983 826.095 459.193C832.46 450.171 835.942 439.133 840.719 429Z" fill="#5F81A5"/>
<path d="M717.229 481.715C717.229 481.715 717.176 482.422 717.154 482.776C619.347 483.075 521.563 482.992 423.779 482.981C392.295 482.978 365.282 464.843 359.21 432.828C355.82 414.948 359.424 397.669 371.655 382.931C385.29 366.501 402.767 359.946 424.007 360C536.796 360.287 649.586 360.155 763 360.866C758.387 364.031 752.838 366.006 747.966 369.049C726.655 382.36 717.329 402.172 717.233 426.683C717.162 445.027 717.225 463.371 717.229 481.715Z" fill="#32384E"/>
<path d="M436 552.429C454.682 552.297 473.364 552.088 492.047 552.052C524.364 551.989 556.681 551.977 588.998 552.051C619.969 552.122 646.813 579.936 647.954 611.011C649.071 641.426 629.571 665.849 602.991 673.318C597.268 674.926 591.158 675.82 585.219 675.862C551.568 676.102 517.914 675.983 483.15 675.854C481.7 675.305 481.361 674.888 481.033 673.706C481.047 652.889 481.104 632.836 481.037 612.783C480.954 587.414 465.309 565.23 441.446 556.21C439.442 555.452 437.807 553.712 436 552.429Z" fill="#32384E"/>
<path d="M481.254 674.209C481.594 674.625 481.934 675.04 482.648 675.622C482.958 709.656 483.232 743.528 482.696 777.388C482.41 795.389 476.663 811.693 463.013 824.38C439.407 846.319 404.498 845.888 381.346 826.917C365.757 814.144 358.912 797.777 359.001 777.847C359.221 728.776 359.097 679.704 359.839 630C361.311 630.711 362.296 631.976 362.764 633.409C370.604 657.399 396.828 675.718 421.807 674.382C441.569 673.326 461.434 674.195 481.254 674.209Z" fill="#32384E"/>
<path d="M480.964 672.998C461.038 673.744 441.078 672.876 421.222 673.931C396.124 675.266 369.776 656.96 361.898 632.988C361.428 631.557 360.439 630.293 359.135 628.843C358.519 628.054 358.457 627.373 358.814 625.932C358.965 624.249 358.699 623.326 358.433 622.403C357.226 609.449 358.293 596.828 364.843 585.242C376.652 564.356 394.214 552.478 418.859 552.018C421.816 551.962 424.775 552.023 428.625 552.411C429.984 552.661 430.452 552.531 430.921 552.402C432.094 552.34 433.267 552.279 435.021 552.31C437.422 553.678 439.069 555.409 441.088 556.162C465.125 565.131 480.884 587.19 480.968 612.417C481.035 632.357 480.978 652.298 480.964 672.998Z" fill="#0A0C18"/>
<path d="M717.768 481.977C717.014 463.536 716.95 445.033 717.023 426.529C717.119 401.805 726.488 381.821 747.897 368.394C752.791 365.325 758.366 363.333 763.746 360.295C780.87 356.856 797.527 360.483 811.591 368.622C824.999 376.382 834.523 389.687 838.023 405.677C839.566 412.729 839.932 420.037 841 427.88C836.37 438.711 832.873 449.801 826.48 458.864C816 473.722 800.479 481.439 782.052 481.782C760.881 482.177 739.696 481.899 717.768 481.977Z" fill="#131C32"/>
<path d="M431 552.109C430.911 552.868 430.089 553.209 429 552.867C429.244 552.02 429.755 551.855 431 552.109Z" fill="#32384E"/>
</g>
<defs>
<clipPath id="clip0_1051_1497">
<rect width="1200" height="1200" fill="white"/>
</clipPath>
</defs>
</svg>
