<svg width="1200" height="1200" viewBox="0 0 1200 1200" fill="none" xmlns="http://www.w3.org/2000/svg">
<g clip-path="url(#clip0_974_158)">
<path d="M600 1200C931.371 1200 1200 931.371 1200 600C1200 268.629 931.371 0 600 0C268.629 0 0 268.629 0 600C0 931.371 268.629 1200 600 1200Z" fill="#265421"/>
<path fill-rule="evenodd" clip-rule="evenodd" d="M723.616 640.09C727.976 638.301 732.609 637.274 737.314 637.051C738.384 636.99 739.456 636.99 740.526 637.051C750.798 637.108 760.873 639.875 769.74 645.072L774.377 615.662L775.165 609.13C761.204 603.403 746.025 601.312 731.041 603.054C697.554 607.915 668.492 634.439 657.764 667.16L657.279 666.856H657.097C656.733 666.583 656.309 666.37 655.915 666.127L655.158 665.641C654.03 665.007 652.866 664.439 651.673 663.94C650.279 663.484 648.642 663.059 646.43 662.573C633.459 660.02 617.974 666.948 610.276 672.113C609.809 672.519 609.301 672.876 608.761 673.176L607.943 673.844V673.51C606.276 673.723 607.7 669.804 608.549 666.522C608.549 665.702 608.761 664.882 608.852 663.727L581.032 663.909L568.94 746.154H597.033L604.458 700.095C604.618 696.562 605.844 693.161 607.973 690.342C609.269 688.699 610.789 687.246 612.488 686.028C614.793 684.416 617.456 683.394 620.244 683.05C623.033 682.706 625.864 683.05 628.489 684.053C630.272 684.728 631.789 685.963 632.815 687.572C633.842 689.181 634.323 691.08 634.187 692.985C633.187 710.941 629.823 727.925 627.641 746.154H654.915L657.309 730.963C657.309 731.145 657.461 731.328 657.552 731.48L659.4 719.6C663.527 729.819 670.69 738.517 679.917 744.514C683.399 747.03 687.162 749.13 691.129 750.772C703.413 755.567 716.651 757.389 729.768 756.089C739.086 755.298 748.21 752.967 756.77 749.193C758.315 740.078 758.527 730.052 759.588 720.329C759.952 716.137 759.952 715.894 760.073 711.61C752.315 717.868 743.314 719.874 732.526 721.15C726.604 722.197 720.513 721.692 714.842 719.686C709.172 717.679 704.114 714.238 700.16 709.696C695.657 703.511 693.17 696.083 693.039 688.428C692.626 683.298 693.223 678.136 694.796 673.237C696.792 665.889 700.422 659.089 705.413 653.348C710.405 647.608 716.628 643.075 723.616 640.09ZM1032.7 613.505V613.93L1023.6 671.08H1023.06C1021.39 671.475 1018.63 668.041 1015.97 666.401L1014.69 665.672L1014.12 665.489C1007.97 662.912 1001.3 661.869 994.663 662.451H994.057C984.768 663.355 976.019 667.245 969.116 673.541C955.418 684.752 945.114 708.48 953.297 730.234L953.478 730.72L953.66 731.176L953.872 731.662L954.085 732.118L954.297 732.573L954.509 733.029L954.721 733.485L954.963 733.941L955.206 734.396L955.479 734.852L955.721 735.277L955.994 735.733L956.266 736.159L956.539 736.614L956.842 737.04L957.024 737.313L957.206 737.587L957.388 737.86L958.297 739.045L958.933 739.804L959.267 740.169C960.419 741.446 961.665 742.634 962.994 743.724L963.752 744.331L964.115 744.635C964.509 744.909 964.903 745.212 965.297 745.456L965.691 745.699L966.116 745.972L966.479 746.185L966.813 746.367L967.146 746.58H967.297L967.6 746.762L967.994 746.944H968.51L969.298 747.309H975.328C980.18 748.199 985.142 748.301 990.026 747.613C997.867 746.735 1005.12 743.019 1010.42 737.161C1010.78 739.653 1010.42 742.144 1010.78 744.817L1039.45 744.271L1061 613.171L1032.7 613.505ZM1011.82 721.332C1008.75 724.089 1004.96 725.893 1000.89 726.525C996.819 727.156 992.656 726.587 988.905 724.887H988.602L988.238 724.644C986.519 723.671 984.997 722.383 983.753 720.846C977.328 712.977 979.45 700.581 988.511 693.107C997.572 685.633 1010.15 686.028 1016.57 693.866C1023 701.705 1020.88 713.888 1011.82 721.332ZM844.048 671.718C839.771 667.149 834.176 664.036 828.047 662.816C824.175 662.226 820.244 662.134 816.349 662.542H815.682C809.175 663.361 802.899 665.486 797.229 668.79C791.559 672.095 786.611 676.511 782.68 681.774C772.71 694.96 768.255 714.952 774.831 731.54C777.567 737.317 781.8 742.251 787.089 745.827C792.377 749.402 798.526 751.488 804.894 751.866H809.197C810.743 751.866 812.227 751.532 813.803 751.259H814.016C821.926 749.958 829.252 746.27 835.017 740.686H835.168L834.805 748.19H862.837L874.231 664.912H846.442L844.048 671.718ZM833.714 721.21C824.622 728.654 812.076 728.32 805.651 720.451C799.227 712.582 801.348 700.155 810.44 692.712C819.531 685.268 832.047 685.602 838.502 693.471C844.957 701.34 842.623 713.736 833.714 721.21ZM940.175 664.79H939.781L937.871 665.125C934.981 665.761 932.188 666.783 929.568 668.163C928.346 668.813 927.162 669.533 926.022 670.32C924.083 671.748 922.355 673.358 920.537 675.029C919.963 675.573 919.355 676.08 918.719 676.548L919.961 665.672C910.082 665.854 900.354 665.489 891.172 665.672L879.625 748.342L908.233 748.676C911.627 731.206 913.385 705.958 920.143 696.175C923.64 692.151 928.497 689.565 933.78 688.914H933.72C936.728 688.439 939.766 688.175 942.811 688.124C943.872 679.951 945.145 671.93 945.842 664.092C943.902 664.092 942.023 664.365 940.144 664.639L940.175 664.79ZM217.647 671.718L213.707 700.399C219.101 700.399 224.859 700.55 230.556 700.733C234.951 700.733 239.314 700.733 243.436 701.037V701.432C242.852 706.609 240.669 711.474 237.193 715.347C231.81 720.567 225.06 724.149 217.726 725.677C210.393 727.204 202.778 726.614 195.766 723.975C182.493 718.932 177.584 707.356 176.614 692.499L176.341 690.433C176.523 687.759 176.826 685.055 177.25 682.382C178.578 671.635 182.454 661.362 188.554 652.425L189.433 651.21L189.857 650.632C194.057 645.009 199.423 640.365 205.585 637.021C211.334 633.682 217.965 632.187 224.586 632.737C235.984 632.675 247.206 635.563 257.164 641.123L270.741 608.614C254.255 598.952 231.496 598.557 211.858 601.899C208.787 602.38 205.75 603.06 202.767 603.935C173.492 612.533 148.218 638.874 141.309 668.133C139.508 674.576 138.421 681.199 138.066 687.881V688.884C137.308 708.571 143.036 728.381 157.007 741.202C179.341 761.285 219.222 760.89 244.891 747.491C249.837 744.786 254.48 741.558 258.74 737.86C275.953 721.028 280.832 695.872 282.984 670.867C258.922 670.654 241.527 671.08 217.647 671.718ZM435.357 662.39C427.292 659.284 418.554 658.362 410.022 659.717C402.971 660.35 396.127 662.44 389.92 665.854C383.714 669.269 378.279 673.934 373.959 679.556L373.535 680.073L373.201 680.528C370.013 684.741 367.563 689.467 365.958 694.504C360.807 708.966 361.867 729.11 373.444 739.258C381.236 745.925 391.171 749.54 401.415 749.436H402.082C408.431 749.552 414.767 748.837 420.931 747.309C434.235 743.784 447.024 733.546 450.448 721.302H423.356L422.932 721.97C421.055 724.24 418.651 726.014 415.931 727.135C409.87 729.171 402.082 729.961 396.869 725.829C396.119 725.239 395.438 724.566 394.839 723.823C393.393 721.807 392.427 719.485 392.018 717.035C391.608 714.586 391.764 712.075 392.475 709.696H453.994C456.479 700.581 456.479 687.608 452.57 679.313C450.959 675.492 448.608 672.029 445.653 669.124C442.699 666.219 439.199 663.93 435.357 662.39ZM395.809 692.773C396.748 678.706 422.356 671.353 428.508 686.332L428.75 686.939C429.296 688.508 429.632 690.143 429.75 691.8L395.809 692.773ZM515.937 659.747C507.746 660.364 499.848 663.073 492.996 667.616L492.299 668.072C482.756 674.354 475.586 683.66 471.934 694.504C466.783 708.966 467.843 729.079 479.389 739.258C491.299 750.469 511.209 751.198 527.029 747.278C537.82 744.464 547.204 737.771 553.394 728.472L553.636 728.046C554.928 725.947 555.946 723.691 556.667 721.332H529.392C529.392 721.514 529.18 721.697 529.059 721.848C527.176 724.173 524.737 725.982 521.968 727.105C515.21 729.414 505.967 730.143 500.997 723.884C499.537 721.851 498.566 719.506 498.162 717.034C497.757 714.562 497.929 712.029 498.663 709.635H560.182C562.637 700.52 562.637 687.608 558.728 679.252C551.697 662.968 533.696 657.256 515.937 659.747ZM501.936 692.773C502.967 677.217 534.15 669.895 535.878 691.891L501.936 692.773ZM355.776 661.54C345.806 662.846 335.047 671.08 330.714 674.938C328.199 677.186 328.714 674.118 329.593 670.381C329.892 667.655 330.337 664.947 330.926 662.269C326.774 662.269 322.501 662.086 318.228 662.269H303.076L290.954 746.853H318.956C322.501 729.93 322.683 711.974 329.774 696.844C330.108 696.327 330.441 695.841 330.805 695.355C335.987 688.458 345.018 686.24 354.352 686.939C355.564 678.766 356.806 669.743 357.685 661.57H355.746L355.776 661.54Z" fill="white"/>
<path fill-rule="evenodd" clip-rule="evenodd" d="M727.511 335.254C721.658 334.437 715.805 333.844 709.952 333.475C777.261 348.881 800.322 394.748 760.112 440.383C726.516 478.577 658.416 505.771 592.218 510.731L593.418 510.118C647.061 499.731 697.485 475.892 724.935 444.818C768.043 395.828 738.573 346.663 659.382 335.05L653.529 335.78C714.985 352.82 734.739 396.82 696.08 440.82C678.521 460.632 651.948 477.468 621.074 489.781C639.218 467.343 628.858 437.261 557.305 398.221C663.771 490.569 561.549 510.177 453.531 541.543C484.377 540.726 541.326 532.41 581.976 515.283C659.85 522.227 752.913 491.94 794.147 445.11C837.46 395.945 807.521 346.576 727.511 335.254Z" fill="white"/>
<path fill-rule="evenodd" clip-rule="evenodd" d="M605.388 332.252C550.206 342.206 497.857 366.563 469.696 398.737C426.462 448.125 456.346 497.688 536.213 509.047L540.624 509.603C542.435 509.399 544.217 509.135 546.028 508.872C484.682 491.775 465.11 447.627 503.67 403.48C534.197 368.7 593.207 342.997 653.384 334.887C650.142 333.98 646.811 333.131 643.335 332.369C630.704 331.452 618.025 331.412 605.388 332.252Z" fill="white"/>
<path fill-rule="evenodd" clip-rule="evenodd" d="M434.552 403.417C468.668 364.517 538.331 337.024 605.48 332.695C611.97 331.525 618.548 330.56 625.096 329.771C545.903 320.119 448.292 350.858 405.845 399.322C362.579 448.693 392.427 498.21 472.351 509.558C477.087 510.23 481.881 510.698 486.734 511.079C417.743 496.104 394.005 449.687 434.552 403.417ZM486.734 511.079C491.324 512.073 496.118 512.921 501.117 513.653C513.708 515.382 526.412 516.154 539.12 515.963C543.622 514.354 547.89 512.717 552.129 511.02C548.212 510.728 544.353 510.347 540.436 509.88C522.615 511.995 504.632 512.397 486.734 511.079Z" fill="white"/>
</g>
<defs>
<clipPath id="clip0_974_158">
<rect width="1200" height="1200" fill="white"/>
</clipPath>
</defs>
</svg>
