<svg width="1200" height="1200" viewBox="0 0 1200 1200" fill="none" xmlns="http://www.w3.org/2000/svg">
<g clip-path="url(#clip0_853_1137)">
<path d="M0 600C0 931.371 268.629 1200 600 1200C931.371 1200 1200 931.371 1200 600C1200 268.629 931.371 0 600 0C268.629 0 0 268.629 0 600Z" fill="#B61613"/>
<path fill-rule="evenodd" clip-rule="evenodd" d="M399.111 531.152C399.729 527.737 398.401 524.575 394.623 523.391C392.01 522.572 389.037 522.604 386.289 523.637C379.484 526.181 378.073 531.761 378.073 538.184C378.073 543.018 380.499 545.69 385.351 545.977C393.913 546.494 399.052 541.134 399.111 531.152ZM393.221 561.997C389.443 561.997 385.638 561.962 381.833 562.006C374.582 562.089 374.455 562.08 373.381 569.089C369.129 596.917 364.236 624.632 358.402 652.173C358.023 653.981 358.242 654.572 360.195 654.531C365.014 654.43 369.839 654.413 374.659 654.54C376.676 654.59 377.295 653.939 377.6 651.892C379.534 638.824 381.496 625.756 383.786 612.748C386.753 595.857 390.043 579.02 393.221 561.997ZM837.91 576.553C838.688 571.92 839.12 568.284 839.958 564.743C840.549 562.234 839.68 561.76 837.422 561.852C833.845 561.988 830.254 562.03 826.677 561.834C824.236 561.701 823.644 562.681 823.304 564.956C820.778 582.284 818.038 599.585 814.751 616.798C812.52 628.428 810.263 640.052 807.911 651.649C807.438 653.972 807.979 654.649 810.39 654.555C815.071 654.371 819.772 654.463 824.473 654.522C826.017 654.54 827.135 654.386 826.973 652.374C826.695 648.901 827.277 645.487 827.86 642.07C830.499 626.644 832.121 611.023 836.603 595.943C838.393 589.926 841.41 584.591 845.898 580.195C852.46 573.772 860.431 573.053 868.892 575.065C870.777 575.512 871.765 575.615 871.987 573.213C872.265 570.281 872.907 567.364 873.584 564.491C873.981 562.817 873.575 562.139 871.919 561.533C864.75 558.902 857.919 559.571 851.259 563.136C845.789 566.071 842.298 571.006 837.91 576.553ZM612.98 575.867C612.784 575.793 612.589 575.725 612.397 575.648C613.089 571.834 613.663 568.006 614.518 564.228C614.932 562.376 614.542 561.811 612.648 561.861C608.574 561.953 604.492 561.979 600.418 561.843C598.442 561.784 598.027 562.604 597.764 564.396C595.989 576.239 594.264 588.1 592.152 599.881C589.066 617.126 585.684 634.327 582.371 651.537C581.966 653.634 582.102 654.699 584.738 654.563C589.057 654.336 593.394 654.353 597.714 654.555C600.181 654.673 601.155 653.989 601.341 651.404C601.669 646.738 602.27 642.07 603.004 637.439C605.211 623.543 607.104 609.579 610.992 596.02C615.119 581.633 624.619 574.305 638.219 574.151C640.89 574.118 644.035 577.041 645.819 574.532C647.375 572.352 646.766 568.751 647.686 565.97C648.787 562.657 647.367 561.769 644.535 560.947C634.322 557.982 626.133 561.465 619.057 568.58C616.835 570.813 614.992 573.426 612.98 575.867ZM704.88 637.617C694.94 641.75 685.555 644.327 675.422 643.635C665.683 642.966 659.437 637.963 657.982 628.283C655.523 611.887 659.142 596.612 667.712 582.58C670.393 578.192 674.653 575.361 679.756 573.873C690.925 570.6 701.768 572.479 712.522 575.739C714.617 576.367 715.623 576.449 715.851 573.846C716.132 570.66 716.697 567.482 717.389 564.355C717.907 561.979 716.907 561.269 714.794 561.11C704.076 560.281 693.383 559.148 682.623 560.373C667.18 562.13 655.446 569.426 648.026 583.254C639.657 598.834 636.243 615.437 638.751 632.966C640.098 642.291 647.204 652.046 657.5 654.732C672.064 658.519 686.147 656.205 700.23 652.41C701.44 652.087 702.173 651.436 702.419 650.203C703.188 646.229 703.975 642.247 704.88 637.617ZM568.197 636.771C556.49 642.315 544.67 644.167 532.39 643.543C523.709 643.111 515.135 638.283 512.946 628.901C511.156 621.209 512.272 613.694 513.337 606.121C513.564 604.523 514.825 604.742 515.905 604.7C520.842 604.49 525.78 604.126 530.724 604.126C544.934 604.135 559.152 604.245 573.368 604.437C575.753 604.473 576.85 603.899 577.282 601.354C578.27 595.502 579.362 589.713 579.329 583.727C579.253 572.157 573.167 564.447 561.939 561.642C554.528 559.79 547.082 559.385 539.531 560.237C521.958 562.225 508.526 570.127 501.02 586.813C494.917 600.372 492.171 614.505 493.023 629.324C493.725 641.623 502.44 651.7 514.479 654.682C531.224 658.833 547.596 655.765 563.969 652.365C564.942 652.164 565.534 651.768 565.711 650.776C566.495 646.324 567.291 641.868 568.197 636.771ZM775.42 641.117C775.663 641.182 775.917 641.241 776.163 641.3C775.849 644.59 775.598 647.886 775.19 651.158C774.888 653.602 775.48 654.768 778.275 654.563C781.725 654.312 785.198 654.371 788.657 654.549C790.828 654.658 791.648 654.149 791.692 651.768C791.766 647.203 792.047 642.62 792.645 638.09C794.938 620.576 798.361 603.248 801.337 585.852C802.08 581.506 802.535 576.949 801.115 572.657C798.994 566.231 793.728 563.382 787.601 561.834C774.379 558.497 761.083 559.891 747.847 561.666C744.329 562.139 739.764 559.899 737.516 563.095C735.531 565.911 735.613 570.145 734.616 573.713C733.915 576.222 734.244 577.05 737.119 576.316C746.468 573.941 755.909 572.098 765.631 572.115C768.894 572.124 772.063 572.598 775.139 573.441C782.772 575.529 784.902 580.313 783.222 589.73C782.571 593.349 781.411 594.896 777.364 594.615C770.965 594.186 764.506 594.701 758.083 594.491C752.308 594.295 746.856 595.428 741.371 597.094C722.732 602.73 713.738 618.023 715.791 637.303C716.451 643.466 718.954 648.697 724.347 652.137C735.522 659.265 760.042 658.951 771.557 645.51C772.823 644.031 774.125 642.578 775.42 641.117ZM413.83 645.436C418.377 653.202 424.918 656.525 433.32 657.066C436.439 657.27 439.533 657.066 442.551 656.679C452.163 655.442 460.87 652.046 468.03 645.164C477.808 635.774 482.39 623.676 485.527 611.032C487.985 601.073 489.313 590.881 486.432 580.618C483.666 570.796 477.666 564.201 467.749 561.556C453.134 557.66 439.643 560.068 427.504 569.299C427.007 569.68 426.575 570.408 425.619 569.985C425.951 568.124 426.078 566.257 426.643 564.524C427.412 562.139 426.415 561.793 424.377 561.861C421.04 561.97 417.682 562.107 414.368 561.82C411.336 561.556 410.448 562.766 410.016 565.615C408.031 578.674 405.865 591.701 403.667 604.727C398.673 634.431 393.244 664.048 387.304 693.574C386.94 695.358 387.218 696.018 389.156 695.983C393.981 695.882 398.8 695.855 403.617 695.992C405.714 696.051 406.321 695.264 406.543 693.261C407.058 688.477 407.827 683.72 408.563 678.959C410.294 667.776 412.069 656.611 413.83 645.436ZM926.379 642.078C926.524 643.676 926.583 644.404 926.651 645.132C926.971 648.241 924.107 652.3 926.625 654.126C928.746 655.655 932.829 654.522 936.042 654.489C938.24 654.463 940.944 655.054 942.5 653.998C944.012 652.966 942.873 650.093 943.092 648.04C945.601 624.818 949.396 601.801 953.734 578.861C957.174 560.669 960.615 542.471 964.106 524.288C964.417 522.664 964.47 521.735 962.355 521.776C957.411 521.888 952.464 521.871 947.521 521.785C945.704 521.752 945.29 522.563 945.095 524.196C944.426 529.581 943.648 534.965 942.796 540.323C941.586 547.929 940.275 555.521 938.982 563.254C929.761 560.272 920.793 559.266 911.554 560.222C894.072 562.021 881.291 570.645 873.176 586.162C867.555 596.917 864.235 608.342 863.608 620.49C863.176 628.715 863.599 636.916 867.786 644.226C872.611 652.655 880.886 655.469 889.939 656.315C901.149 657.362 911.986 656.501 920.861 648.41C922.719 646.711 924.199 644.599 926.379 642.078ZM281.288 524.592C275.394 524.592 269.714 524.871 264.075 524.492C260.415 524.246 258.853 525.445 258.853 528.98C258.853 529.468 258.735 529.959 258.649 530.45C254.702 554.068 251.389 577.796 246.892 601.328C243.738 617.81 240.602 634.303 237.357 650.768C236.824 653.489 237.01 654.8 240.348 654.572C244.78 654.276 249.291 654.117 253.688 654.608C257.989 655.087 258.862 653.22 259.46 649.484C262.477 630.585 265.826 611.751 268.98 592.875C269.341 590.704 270.019 589.748 272.486 589.763C290.163 589.881 307.846 589.89 325.521 589.763C328.411 589.748 328.793 590.736 328.275 593.212C327.136 598.647 326.18 604.126 325.166 609.585C322.604 623.416 320.095 637.262 317.432 651.081C316.882 653.904 317.55 654.726 320.459 654.563C325.139 654.318 329.867 654.226 334.541 654.59C338.014 654.859 339.062 653.652 339.577 650.321C342.529 631.537 345.579 612.774 348.884 594.059C352.958 570.982 357.313 547.956 361.597 524.592C354.92 524.592 348.26 524.643 341.606 524.566C339.526 524.542 339.695 525.885 339.467 527.237C336.84 542.944 334.142 558.639 331.565 574.355C331.287 576.044 330.973 577 328.961 577.041C310.669 577.432 292.376 577.751 274.084 576.958C272.208 576.873 271.726 576.171 272.072 574.464C272.699 571.319 273.273 568.16 273.856 565.006C276.309 551.657 278.758 538.311 281.288 524.592ZM897.599 791.07C652.582 791.07 407.558 791.07 162.539 791.096C160.358 791.096 158.346 791.298 159.201 788.102C160.476 787.327 160.166 785.889 160.385 784.783C170.408 736.05 180.343 687.302 190.334 638.564C201.99 581.716 213.721 524.897 225.354 468.049C228.295 453.656 233.984 440.816 245.135 430.798C262.827 414.908 284.483 408.541 307.27 408.45C431.199 407.899 555.129 408.163 679.055 408.136C680.662 408.136 682.268 408.05 683.866 408C684.481 408.044 685.1 408.109 685.718 408.109C772.453 408.104 859.197 408.077 945.932 408.068C977.316 408.068 1008.7 408.118 1040.09 408.145C1039.5 414.553 1037.75 420.748 1036.46 427.029C1015.4 529.646 994.342 632.274 973.227 734.884C969.65 752.245 960.615 766.091 945.66 775.822C935.906 782.162 925.068 785.771 913.752 788.129C908.382 789.253 902.838 789.33 897.599 791.07Z" fill="white"/>
<path fill-rule="evenodd" clip-rule="evenodd" d="M883.27 621.022C883.279 609.839 885.637 599.221 890.876 589.307C894.995 581.496 900.521 575.02 909.533 573.085C918.358 571.183 927.183 571.985 935.704 575.239C936.997 575.739 936.76 576.627 936.556 577.665C933.583 593.041 931.594 608.629 927.284 623.735C923.574 636.744 914.444 643.844 901.494 644.105C890.767 644.327 883.566 637.404 883.279 626.584C883.229 624.732 883.27 622.871 883.27 621.022Z" fill="white"/>
<path fill-rule="evenodd" clip-rule="evenodd" d="M467.992 596.96C467.814 610.173 464.61 622.285 457.542 633.291C451.22 643.131 439.667 646.14 429.622 643.841C421.862 642.057 417.055 634.82 417.67 626.504C418.475 615.64 421.324 605.099 422.981 594.366C423.2 592.901 423.418 591.422 423.815 590.002C424.702 586.86 423.883 583.088 426.495 580.602C430.756 576.546 435.753 573.511 441.684 572.659C449.471 571.535 457.036 571.913 463.039 578.026C466.412 581.466 467.527 585.886 467.956 590.493C468.16 592.7 467.992 594.939 467.992 596.96Z" fill="white"/>
<path fill-rule="evenodd" clip-rule="evenodd" d="M767.099 605.367C770.554 605.367 774.013 605.358 777.477 605.373C778.797 605.382 780.066 605.509 779.661 607.394C777.335 618.207 776.075 629.618 767.04 637.452C759.703 643.81 751.123 646.082 741.596 642.591C734.31 639.914 732.603 632.686 734.123 625.254C736.762 612.414 746.111 605.391 759.312 605.367C761.91 605.358 764.504 605.367 767.099 605.367Z" fill="white"/>
<path fill-rule="evenodd" clip-rule="evenodd" d="M516.438 593.63C520.47 576.572 531.076 570.841 547.052 571.956C549.242 572.107 551.422 572.311 553.552 573.14C559.241 575.353 561.676 579.622 561.753 585.456C561.863 593.908 561.83 593.926 553.375 593.908C542.277 593.882 531.18 593.84 520.079 593.79C518.878 593.781 517.671 593.69 516.438 593.63Z" fill="white"/>
</g>
<defs>
<clipPath id="clip0_853_1137">
<rect width="1200" height="1200" fill="white"/>
</clipPath>
</defs>
</svg>