<svg width="1200" height="1200" viewBox="0 0 1200 1200" fill="none" xmlns="http://www.w3.org/2000/svg">
<g clip-path="url(#clip0_12_2)">
<path d="M600 1200C931.371 1200 1200 931.371 1200 600C1200 268.629 931.371 0 600 0C268.629 0 0 268.629 0 600C0 931.371 268.629 1200 600 1200Z" fill="#EA7100"/>
<path d="M136 706.697H234.921L235.447 703.95L137.896 683.667L139.792 672.787L237.343 693.915L238.185 690.111L146.008 649.968L150.011 638.876L242.4 677.856L244.296 675.11L162.443 614.155L170.87 600.844L252.198 661.798L254.621 658.523L190.57 576.969L206.267 564.186L269.79 641.938L272.53 639.508L235.553 545.171L257.992 535.664L292.862 628.099L295.601 627.254V524.783H331.418V714.511H136.001L136 706.697ZM705.289 673.103H743.951V714.832H711.82C678.004 714.832 657.25 703.106 657.25 660.11V566.934H634.284C630.281 566.934 628.174 562.075 630.913 559.117L697.387 483.479C700.232 480.415 705.394 482.423 705.394 486.648V525.206H743.738V566.933H705.394V673.102L705.289 673.103ZM567.496 522.144C544.424 522.144 527.149 535.454 518.721 556.37H517.14V525.101H471.314V714.828H519.458V567.778H551.589C565.6 567.778 570.762 570.735 570.762 585.736V714.828H618.906V576.333C618.804 538.198 600.575 522.14 567.497 522.14L567.496 522.144ZM388.09 714.83H436.233V525.103H388.09V714.83ZM1017.96 558.693H1015.96V525.099H968.131V714.827H1019.12V570.417H1064V522.14H1057.78C1034.18 522.14 1023.75 532.598 1017.96 558.691L1017.96 558.693ZM945.802 615.105V629.472H801.476C804.107 657.678 821.699 676.377 848.878 676.377C873.214 676.377 890.807 663.383 894.387 647.326H945.692C934.949 687.363 898.29 718 848.141 718C789.674 718 749.961 676.273 749.961 621.551C749.961 566.829 788.308 522.144 849.407 522.144C907.136 522.144 945.804 561.971 945.804 615.107L945.802 615.105ZM802.946 594.506H896.076C888.804 575.49 873.427 561.863 849.617 561.863C828.759 561.968 810.429 572.955 802.946 594.506Z" fill="white"/>
</g>
<defs>
<clipPath id="clip0_12_2">
<rect width="1200" height="1200" fill="white"/>
</clipPath>
</defs>
</svg>
