<svg width="1200" height="1200" viewBox="0 0 1200 1200" fill="none" xmlns="http://www.w3.org/2000/svg">
<g clip-path="url(#clip0_12_2)">
<path d="M600 1200C931.371 1200 1200 931.371 1200 600C1200 268.629 931.371 0 600 0C268.629 0 0 268.629 0 600C0 931.371 268.629 1200 600 1200Z" fill="#FC6800"/>
<path d="M297 805.872H564.78L566.204 798.445L302.132 743.602L307.264 714.183L571.336 771.311L573.618 761.027L324.091 652.483L334.927 622.492L585.027 727.89L590.159 720.465L368.581 555.65L391.394 519.66L611.55 684.47L618.108 675.616L444.723 455.102L487.214 420.539L659.173 630.772L666.588 624.203L566.491 369.127L627.233 343.419L721.628 593.352L729.043 591.067V314H826V827H297.002L297 805.872Z" fill="white"/>
</g>
<defs>
<clipPath id="clip0_12_2">
<rect width="1200" height="1200" fill="white"/>
</clipPath>
</defs>
</svg>
