<svg width="1200" height="1200" viewBox="0 0 1200 1200" fill="none" xmlns="http://www.w3.org/2000/svg">
<g clip-path="url(#clip0_0_105)">
<path d="M600 1200C931.371 1200 1200 931.371 1200 600C1200 268.629 931.371 0 600 0C268.629 0 0 268.629 0 600C0 931.371 268.629 1200 600 1200Z" fill="#FF6200"/>
<path d="M297.459 982.107C251.954 972.218 228.199 944.909 219.893 904.541C202.86 833.697 191 720.515 191 601C191 481.485 202.86 368.303 219.893 297.459C228.199 256.706 251.954 229.782 297.459 219.507C371.469 201.276 481.097 191 601 191C720.903 191 830.528 201.276 904.541 219.507C950.046 229.782 973.801 256.706 982.107 297.459C999.14 368.303 1011 481.097 1011 601C1011 720.903 999.14 833.697 982.107 904.541C973.801 944.909 950.046 972.218 904.541 982.107C830.528 1000.72 720.903 1011 601 1011C481.097 1011 371.469 1000.72 297.459 982.107ZM311.713 607.723C332.687 607.723 347.329 593.469 347.329 573.303C347.329 553.136 332.687 538.885 311.713 538.885C290.736 538.885 276.097 553.136 276.097 573.303C276.097 593.469 290.736 607.723 311.713 607.723ZM341.803 834.507V629.12H281.657V834.507H341.803ZM394.839 675.82V763.664C394.839 813.531 420.951 838.449 467.266 838.449C483.878 838.449 497.744 836.478 504.465 834.47V788.58C500.1 789.775 492.182 790.936 483.103 790.936C463.712 790.936 455.018 781.435 455.018 759.685V675.785H507.246V629.085H455.018V566.933L394.874 577.595V629.048H364.818V675.751H394.874L394.839 675.82ZM596.67 839.679C620.813 839.679 638.233 829.79 650.482 813.18L651.255 834.542H707.459V713.829C707.459 655.268 674.625 623.982 616.027 623.982C585.973 623.982 561.02 628.732 536.877 637.848V686.132C560.632 677.018 584.353 671.493 606.525 671.493C634.222 671.493 649.671 684.161 649.671 706.333C644.922 705.945 637.003 705.56 629.47 705.56C566.16 705.56 526.18 731.671 526.18 776.403C526.18 815.185 553.489 839.714 596.636 839.714L596.67 839.679ZM635.067 742.722C639.819 742.722 647.35 743.109 650.094 743.532V759.756C650.094 781.541 635.455 796.568 614.478 796.568C595.863 796.568 584.39 788.264 584.39 771.651C584.39 752.648 602.583 742.759 635.032 742.759L635.067 742.722ZM806.422 839.679C831.339 839.679 848.373 830.565 861.817 812.37L862.59 834.542H920.378V629.154H860.234V750.255C860.234 775.171 847.951 791.008 827.784 791.008C807.618 791.008 797.308 777.564 797.308 752.611V629.154H737.162V762.538C737.162 809.626 764.086 839.714 806.422 839.714V839.679ZM882.018 601.422V549.197L781.892 567.005V601.422H882.018Z" fill="#000066"/>
<path d="M311.691 607.782C332.668 607.782 347.307 593.529 347.307 573.362C347.307 553.198 332.668 538.944 311.691 538.944C290.717 538.944 276.075 553.198 276.075 573.362C276.075 593.529 290.717 607.782 311.691 607.782Z" fill="white"/>
<path d="M341.834 629.018H281.69V834.406H341.834V629.018Z" fill="white"/>
<path d="M394.801 675.85V763.691C394.801 813.56 420.912 838.477 467.227 838.477C483.837 838.477 497.706 836.506 504.426 834.5V788.607C500.062 789.805 492.144 790.966 483.064 790.966C463.673 790.966 454.979 781.464 454.979 759.715V675.815H507.207V629.112H454.979V566.963L394.835 577.625V629.078H364.779V675.778H394.835L394.801 675.85Z" fill="white"/>
<path d="M615.982 624.02C585.926 624.02 560.975 628.772 536.832 637.885V686.172C560.587 677.055 584.308 671.53 606.48 671.53C634.177 671.53 649.626 684.201 649.626 706.373C644.874 705.985 636.956 705.597 629.425 705.597C566.112 705.597 526.135 731.711 526.135 776.441C526.135 815.225 553.444 839.754 596.591 839.754C620.734 839.754 638.154 829.864 650.399 813.254L651.175 834.616H707.377V713.903C707.377 655.343 674.542 624.057 615.947 624.057L615.982 624.02ZM650.014 759.759C650.014 781.546 635.373 796.573 614.398 796.573C595.78 796.573 584.308 788.266 584.308 771.657C584.308 752.651 602.503 742.761 634.95 742.761C639.702 742.761 647.233 743.149 649.977 743.572V759.796L650.014 759.759Z" fill="white"/>
<path d="M806.393 839.543C831.309 839.543 848.344 830.427 861.788 812.234L862.561 834.406H920.348V629.018H860.204V750.117C860.204 775.035 847.922 790.872 827.755 790.872C807.591 790.872 797.279 777.426 797.279 752.475V629.018H737.133V762.399C737.133 809.487 764.057 839.578 806.393 839.578V839.543Z" fill="white"/>
<path d="M881.911 601.378V549.152L781.784 566.96V601.378H881.911Z" fill="white"/>
</g>
<defs>
<clipPath id="clip0_0_105">
<rect width="1200" height="1200" fill="white"/>
</clipPath>
</defs>
</svg>
