<svg width="60" height="60" viewBox="0 0 60 60" fill="none" xmlns="http://www.w3.org/2000/svg">
<circle cx="30" cy="30" r="30" fill="#EC7600"/>
<path fill-rule="evenodd" clip-rule="evenodd" d="M19.569 15H40.431C42.9544 15 45 17.0456 45 19.569V40.431C45 42.9544 42.9544 45 40.431 45H19.569C17.0456 45 15 42.9544 15 40.431V19.569C15 17.0456 17.0456 15 19.569 15Z" fill="#1D3F89"/>
<path fill-rule="evenodd" clip-rule="evenodd" d="M37.8532 32.2088H39.5201L41.4309 30H39.3505L37.8532 32.2088ZM20.0001 30.0388H17.3276V40.3837H20.0001V30.0388ZM30.14 34.0934C28.3669 34.0321 27.7284 34.6318 27.7284 34.6318L27.0185 33.2409C27.0185 33.2409 27.8734 32.7452 28.3221 32.5958C28.7707 32.4464 30.385 32.0608 31.8737 32.6225C32.8301 33.0066 33.48 33.6393 33.6831 34.9248C33.7125 36.3357 33.6831 40.2549 33.6831 40.2549H31.4055V39.5417C31.4055 39.5417 31.4055 39.6507 30.5401 40.0634C29.6748 40.476 28.2512 40.3971 27.5399 39.8356C26.8286 39.2741 26.205 38.5606 26.6035 37.1654C27.002 35.7701 28.4882 35.3529 28.9709 35.2671C29.4536 35.1813 31.3383 35.2174 31.3383 35.2174C31.3383 35.2174 31.2813 34.1448 30.14 34.0934ZM31.4189 36.6307V37.8666C31.4189 37.8666 30.1943 39.3392 29.1785 38.6293C28.6903 38.2882 28.6663 37.7913 28.8674 37.3892C29.0849 36.9546 29.5909 36.6418 29.9335 36.6307C30.5929 36.6093 31.4189 36.6307 31.4189 36.6307ZM42.6282 32.666H40.1327C40.1327 32.666 40.1718 36.1331 40.1327 36.9644C40.0937 37.7958 39.8884 38.4167 38.7468 38.5204C37.612 38.6236 37.3848 37.6654 37.331 37.4383L37.33 37.4344C37.2579 35.2604 37.2803 32.666 37.2803 32.666H34.9366C34.9366 32.666 34.8501 37.2359 35.0387 38.4417C35.2272 39.6476 36.6152 40.2073 38.0879 40.257C39.5606 40.3068 40.389 39.1347 40.389 39.1347V40.2989H42.6282V32.666ZM24.2974 37.6231V34.368L25.7712 34.385V32.6101H24.3171V30.0546H21.978V32.631H20.8314V34.368H21.967V36.42C21.7967 38.4987 22.3719 39.6626 23.1011 40.0956C23.8304 40.5285 25.6788 40.1366 25.6788 40.1366V38.4343C25.6882 38.4293 25.6788 38.4245 25.6788 38.4245V38.4343C25.6588 38.4449 25.5531 38.4565 25.0881 38.4245C24.4051 38.3774 24.2974 37.6231 24.2974 37.6231Z" fill="#F4E800"/>
</svg>
