<svg width="1200" height="1200" viewBox="0 0 1200 1200" fill="none" xmlns="http://www.w3.org/2000/svg">
<g clip-path="url(#clip0_853_1158)">
<path d="M600 1200C931.371 1200 1200 931.371 1200 600C1200 268.629 931.371 0 600 0C268.629 0 0 268.629 0 600C0 931.371 268.629 1200 600 1200Z" fill="black"/>
<path fill-rule="evenodd" clip-rule="evenodd" d="M386.188 779.767H452.306V475.985C415.939 475.985 386.188 505.753 386.188 542.136V779.767ZM516.709 666.794C516.921 774.793 602.219 807.18 694.026 777.575C694.026 757.242 694.026 736.91 694.026 716.578C638.204 737.245 588.094 732.096 582.825 666.794V530.577H695.744V475.594H582.825V363.011H571.663C541.437 363.011 516.709 387.753 516.709 417.993V666.794ZM813.812 779.767H747.694V475.985C784.061 475.985 813.812 505.753 813.812 542.136V779.767ZM780.753 321C757.42 321 738.506 339.925 738.506 363.268C738.506 386.613 757.42 405.536 780.753 405.536C804.084 405.536 823 386.613 823 363.268C823 339.925 804.084 321 780.753 321ZM419.247 321C442.58 321 461.494 339.925 461.494 363.268C461.494 386.613 442.58 405.536 419.247 405.536C395.916 405.536 377 386.613 377 363.268C377 339.925 395.916 321 419.247 321Z" fill="white"/>
<path fill-rule="evenodd" clip-rule="evenodd" d="M646 857.11H656.352V926.955H646V857.11ZM715.006 874.321C715.006 877.516 715.006 880.71 715.006 883.904C725.591 876.944 745.252 874.711 744.445 893.168C721.482 890.843 712.687 900.712 711.898 911.131C711.336 918.594 714.967 926.111 725.197 926.886C733.389 927.506 740.329 925.651 744.938 919.888C745.349 919.374 745.901 918.836 746.116 919.783C746.116 921.772 746.116 923.759 746.116 925.747C748.471 925.711 750.686 925.674 753.041 925.639L753.036 886.912C751.661 868.423 729.124 868.299 715.006 874.321ZM744.175 900.322C744.822 903.288 744.589 906.622 744.164 909.141C743.818 911.199 743.067 913.885 740.913 916.111C736.031 921.153 729.09 921.813 724.946 919.408C715.84 914.119 723.102 896.279 744.175 900.322ZM784.772 862.054H795.664L808.388 848H795.988L784.772 862.054ZM803.648 872.488H814V925.892H803.648V918.59C793.764 932.087 768.495 930.249 768.495 905.707V872.488H778.847V906.559C778.847 918.629 788.332 923.087 797.271 916.049C799.639 914.184 801.797 911.544 803.648 908.369V872.488ZM668.535 874.09H677.163V859.77H687.515V874.09H701.747V881.17H687.515V910.448C687.232 921.434 694.247 919.603 701.638 919.709C701.602 922.087 701.566 924.465 701.53 926.842C687.162 926.842 676.765 929.359 677.163 910.448V881.17H668.535V874.09Z" fill="white"/>
</g>
<defs>
<clipPath id="clip0_853_1158">
<rect width="1200" height="1200" fill="white"/>
</clipPath>
</defs>
</svg>
