<svg width="60" height="60" viewBox="0 0 60 60" fill="none" xmlns="http://www.w3.org/2000/svg">
<circle cx="30" cy="30" r="30" fill="#E50091"/>
<path fill-rule="evenodd" clip-rule="evenodd" d="M48.6459 24.4127C45.7773 22.0782 40.8591 21.9122 39.4479 20.559C38.0955 19.147 37.9296 14.2258 35.5965 11.3555C34.4541 9.94977 32.6313 9 30.0126 9C27.3918 9 25.5711 9.94977 24.4287 11.3555C22.0956 14.2258 21.9255 19.1449 20.5773 20.559C19.8276 21.347 16.833 22.0278 16.2282 22.2043C15.4134 22.4418 13.0215 23.0721 11.3562 24.4127C9.9429 25.5495 9 27.3797 9 30C9 32.6203 9.9492 34.4442 11.3541 35.5873C14.2227 37.9218 19.1409 38.0878 20.5521 39.441C21.9045 40.8509 22.0704 45.7742 24.4035 48.6445C25.5459 50.0502 27.3687 51 29.9874 51C32.6061 51 34.4289 50.0502 35.5713 48.6445C37.9044 45.7742 38.0703 40.853 39.4227 39.441C40.2963 38.6047 42.5118 38.218 44.7546 37.4952C44.7588 37.4931 47.241 36.7703 48.6459 35.5873C50.0319 34.4211 51 32.6224 51 30C51 27.3797 50.0508 25.5558 48.6459 24.4127Z" fill="white"/>
<path fill-rule="evenodd" clip-rule="evenodd" d="M30.1089 30.6036C30.0976 30.5183 30.0931 30.433 30.0931 30.3456C30.1134 29.1693 31.1106 28.227 32.3267 28.2445C32.9877 28.2554 33.5788 28.5484 33.9736 29.001L30.1089 30.6036ZM32.3537 26.7578C30.2894 26.725 28.5905 28.321 28.5589 30.3215C28.5476 31.0693 28.7732 31.7711 29.1658 32.3526L35.932 29.5498C35.5507 27.9712 34.1 26.784 32.3537 26.7578ZM42.3101 32.3002C41.2159 31.7907 40.7534 30.5139 41.279 29.4557L39.8938 28.8108C39.0003 30.6123 39.7832 32.7746 41.6445 33.6426C43.0591 34.3006 44.6881 34.0186 45.78 33.0544L44.7467 31.9547C44.0992 32.521 43.1426 32.6871 42.3101 32.3002ZM44.8821 27.112C43.4675 26.4561 41.8408 26.7359 40.7466 27.7001L41.7822 28.7998C42.4252 28.2314 43.384 28.0674 44.2165 28.4544C45.3108 28.9638 45.7733 30.2384 45.2453 31.2988L46.6306 31.9438C47.524 30.1444 46.7412 27.98 44.8821 27.112ZM32.2612 32.5122C31.8416 32.5057 31.4535 32.3832 31.1241 32.1821L30.3029 33.4436C30.8647 33.7869 31.528 33.9902 32.2364 33.9989C33.272 34.0142 34.2196 33.6185 34.9077 32.9692L33.8315 31.9001C33.4254 32.2827 32.8726 32.521 32.2612 32.5122ZM38.055 25.1268H36.6291V32.1384C36.6291 32.5188 36.7284 32.8008 36.866 33.0042C37.0104 33.2075 37.1977 33.3868 37.4774 33.5026L38.7138 33.9989L39.3049 32.6215L38.0527 32.1187V25.1268H38.055ZM15.4259 25.1268H14V32.1384C14 32.5188 14.1015 32.8008 14.2392 33.0042C14.3813 33.2075 14.5708 33.3868 14.8483 33.5026L16.0847 33.9989L16.678 32.6215L15.4259 32.1187V25.1268ZM18.9793 27.969L17.7429 27.4706L17.1518 28.8479L18.404 29.3508V33.8765H19.8299V29.3333C19.8299 28.9551 19.7306 28.6708 19.5907 28.4675C19.4463 28.2664 19.2591 28.0871 18.9793 27.969ZM19.1214 25C18.5574 25 18.0972 25.4438 18.0972 25.9926C18.0972 26.5414 18.5552 26.9874 19.1214 26.9874C19.69 26.9874 20.148 26.5414 20.148 25.9926C20.148 25.4438 19.69 25 19.1214 25ZM24.7731 31.9044L23.2502 27.9647C23.2502 27.9647 23.0742 27.4815 22.5305 27.2629L21.5806 26.8802L20.9895 28.2576L21.9958 28.6643L24.0128 33.8765H25.5379L28.2002 26.9896H26.675L24.7731 31.9044Z" fill="#E50091"/>
</svg>
