<svg width="60" height="60" viewBox="0 0 60 60" fill="none" xmlns="http://www.w3.org/2000/svg">
<circle cx="30" cy="30" r="30" fill="#0E87FE"/>
<path d="M53.5164 27.1664H52.4284C52.1175 27.1664 51.9293 27.3487 51.9293 27.6418V30.7084C51.9293 31.8336 51.2913 32.4675 50.4078 32.4675C49.4834 32.4754 48.9516 31.897 48.9516 30.7876V27.6498C48.9516 27.3566 48.7635 27.1743 48.4526 27.1743H47.3646C47.0538 27.1743 46.8656 27.3566 46.8656 27.6498V30.9382C46.8656 33.0301 48.0027 34.2108 49.7042 34.2108C50.7268 34.2108 51.5203 33.8859 52.0766 33.2203L52.1666 33.6323C52.232 33.9017 52.412 34.0444 52.7065 34.0444H53.5C53.8109 34.0444 53.999 33.8621 53.999 33.5689V27.6418C54.0154 27.3487 53.8272 27.1664 53.5164 27.1664ZM45.9412 32.2377H43.9861C43.3071 32.2377 42.9471 31.897 42.9471 31.2472V27.6498C42.9471 27.3566 42.759 27.1743 42.4481 27.1743H41.3274C41.0165 27.1743 40.8284 27.3566 40.8284 27.6498V31.5008C40.8284 33.0856 41.8346 34.0523 43.5034 34.0523H45.9412C46.2521 34.0523 46.4402 33.87 46.4402 33.5769V32.7132C46.4402 32.412 46.2521 32.2377 45.9412 32.2377ZM14.299 27.626C14.2663 27.317 14.0945 27.1664 13.7836 27.1664H12.9656C12.7038 27.1664 12.5156 27.2694 12.3766 27.4913L10.3723 30.7242L8.50719 27.4992C8.38448 27.2773 8.17997 27.1743 7.91819 27.1743H7.0347C6.72384 27.1743 6.55205 27.3249 6.51932 27.6339L6.00395 33.561C5.97123 33.8859 6.14302 34.0523 6.47024 34.0523H7.46826C7.77912 34.0523 7.96727 33.9017 7.98364 33.5927L8.20451 30.2726L9.39886 32.3328C9.52157 32.5547 9.72609 32.6577 9.98786 32.6577H10.6668C10.9286 32.6577 11.1168 32.5705 11.2558 32.3328L12.6056 30.122L12.7611 33.5848C12.7774 33.9017 12.9492 34.0444 13.2601 34.0444H14.3317C14.6589 34.0444 14.8307 33.878 14.798 33.5531L14.299 27.626ZM39.3886 27.1664H38.5378C38.2433 27.1664 38.0388 27.317 37.9979 27.5943L37.9488 27.935C37.4662 27.4437 36.7709 27 35.601 27C33.6459 27 32.198 28.4659 32.198 30.5816C32.198 32.6577 33.5477 34.1949 35.4702 34.1949C36.6809 34.1949 37.4744 33.7036 37.957 33.2044L38.0388 33.6165C38.0879 33.8859 38.2761 34.0285 38.5706 34.0285H39.3968C39.7077 34.0285 39.8958 33.8463 39.8958 33.5531V27.626C39.8876 27.3487 39.6995 27.1664 39.3886 27.1664ZM36.051 32.4754C34.9466 32.4754 34.2513 31.7464 34.2513 30.6212C34.2513 29.4802 34.9793 28.7433 36.051 28.7433C37.1553 28.7433 37.8507 29.4723 37.8507 30.5975C37.8507 31.7306 37.1226 32.4754 36.051 32.4754ZM30.9627 27.1664H30.1119C29.8174 27.1664 29.6129 27.317 29.572 27.5943L29.5229 27.935C29.0403 27.4437 28.3449 27 27.1751 27C25.22 27 23.7802 28.3788 23.7802 30.4945C23.7802 32.5071 25.1136 33.9334 27.036 33.9334C28.2304 33.9334 28.9421 33.458 29.4248 32.9588V33.2995C29.4248 34.4881 28.7294 35.2409 27.2487 35.2409C26.6434 35.2409 26.0462 35.122 25.4899 34.8843C25.1954 34.7496 24.9582 34.813 24.8191 35.0903L24.4755 35.7401C24.3365 36.0095 24.3856 36.2314 24.6473 36.374C25.4736 36.8177 26.4798 37 27.4533 37C29.891 37 31.4453 35.5341 31.4453 33.4897V27.6418C31.4535 27.3487 31.2736 27.1664 30.9627 27.1664ZM27.625 32.2536C26.5534 32.2536 25.8253 31.5721 25.8253 30.5182C25.8253 29.4089 26.5861 28.7433 27.625 28.7433C28.6967 28.7433 29.4248 29.3534 29.4248 30.4945C29.4248 31.5087 28.664 32.2536 27.625 32.2536ZM22.5286 27.1664H21.6778C21.3833 27.1664 21.1788 27.317 21.1379 27.5943L21.0888 27.935C20.6062 27.4437 19.9108 27 18.7492 27C16.794 27 15.3461 28.4659 15.3461 30.5816C15.3461 32.6577 16.6959 34.1949 18.6183 34.1949C19.829 34.1949 20.6225 33.7036 21.1052 33.2044L21.187 33.6165C21.2361 33.8859 21.4242 34.0285 21.7187 34.0285H22.5286C22.8394 34.0285 23.0276 33.8463 23.0276 33.5531V27.626C23.0276 27.3487 22.8394 27.1664 22.5286 27.1664ZM19.1909 32.4754C18.0866 32.4754 17.3912 31.7464 17.3912 30.6212C17.3912 29.4802 18.1193 28.7433 19.1909 28.7433C20.2953 28.7433 20.9906 29.4723 20.9906 30.5975C20.9906 31.7306 20.2626 32.4754 19.1909 32.4754Z" fill="white"/>
</svg>
