<svg width="1200" height="1200" viewBox="0 0 1200 1200" fill="none" xmlns="http://www.w3.org/2000/svg">
<g clip-path="url(#clip0_944_113)">
<path d="M600 1200C931.371 1200 1200 931.371 1200 600C1200 268.629 931.371 0 600 0C268.629 0 0 268.629 0 600C0 931.371 268.629 1200 600 1200Z" fill="#015DA9"/>
<path d="M879.444 679.114V491.614H911.262V679.114H879.444ZM801.603 601.273V569.455H989.103V601.273H801.603Z" fill="white"/>
<path d="M750.232 409.935H702.864C701.249 409.772 699.621 410.057 698.158 410.759C696.695 411.461 695.455 412.552 694.573 413.913L510.321 646.356C508.883 648.236 506.888 649.616 504.62 650.298C502.351 650.98 499.925 650.929 497.687 650.154C495.294 649.279 493.234 647.681 491.791 645.584C490.348 643.486 489.595 640.992 489.636 638.448V425.212C489.715 421.159 488.233 417.231 485.497 414.237C484.369 412.898 482.962 411.819 481.375 411.077C479.789 410.334 478.059 409.944 476.307 409.935H428.939C427.324 409.774 425.696 410.059 424.234 410.761C422.771 411.463 421.531 412.553 420.648 413.913L212.46 671.086C209.018 675.425 207.13 680.791 207.097 686.326L206.065 767.214C205.833 769.23 206.225 771.268 207.189 773.054C208.152 774.841 209.639 776.29 211.452 777.206C212.882 777.71 214.436 777.749 215.89 777.319C217.344 776.889 218.626 776.011 219.55 774.81L402.915 544.297C404.357 542.421 406.352 541.046 408.62 540.367C410.887 539.687 413.312 539.737 415.549 540.51C417.939 541.391 419.997 542.992 421.437 545.091C422.877 547.19 423.628 549.684 423.588 552.228V764.135C423.497 767.843 424.557 771.488 426.623 774.57C427.674 776.217 429.122 777.574 430.835 778.516C432.548 779.458 434.47 779.955 436.425 779.962H483.949C485.796 780.05 487.631 779.638 489.264 778.772C490.896 777.905 492.264 776.615 493.224 775.038L677.272 543.722C678.725 541.86 680.722 540.496 682.985 539.818C685.248 539.14 687.667 539.181 689.906 539.935C692.296 540.816 694.354 542.417 695.794 544.516C697.234 546.615 697.985 549.109 697.945 551.653V763.727C697.799 768.197 699.321 772.561 702.216 775.972C703.351 777.249 704.747 778.269 706.309 778.963C707.872 779.658 709.564 780.011 711.274 779.998H749.572C752.795 780.044 755.923 778.91 758.366 776.811C760.064 775.296 761.406 773.427 762.298 771.335C763.19 769.244 763.609 766.981 763.525 764.71V425.212C763.604 421.159 762.122 417.231 759.386 414.237C758.258 412.898 756.851 411.819 755.265 411.077C753.678 410.334 751.948 409.944 750.196 409.935" fill="white"/>
</g>
<defs>
<clipPath id="clip0_944_113">
<rect width="1200" height="1200" fill="white"/>
</clipPath>
</defs>
</svg>
