<svg width="1200" height="1200" viewBox="0 0 1200 1200" fill="none" xmlns="http://www.w3.org/2000/svg">
<g clip-path="url(#clip0_28_22)">
<path d="M600 1200C931.371 1200 1200 931.371 1200 600C1200 268.629 931.371 0 600 0C268.629 0 0 268.629 0 600C0 931.371 268.629 1200 600 1200Z" fill="#24292E"/>
<path d="M901.814 273.485L639.791 468.093L688.245 353.277L901.814 273.485Z" fill="#E2761B" stroke="#E2761B" stroke-linecap="round" stroke-linejoin="round"/>
<path d="M296.923 273.485L556.839 469.937L510.755 353.277L296.923 273.485ZM807.538 724.586L737.753 831.502L887.067 872.583L929.991 726.956L807.538 724.586ZM269.272 726.956L311.933 872.583L461.247 831.502L391.462 724.586L269.272 726.956Z" fill="#E4761B" stroke="#E4761B" stroke-linecap="round" stroke-linejoin="round"/>
<path d="M452.82 543.935L411.212 606.873L559.472 613.457L554.206 454.136L452.82 543.935ZM745.917 543.935L643.214 452.293L639.791 613.457L787.788 606.873L745.917 543.935ZM461.247 831.502L550.255 788.051L473.36 728.01L461.247 831.502ZM648.481 788.051L737.753 831.502L725.376 728.01L648.481 788.051Z" fill="#E4761B" stroke="#E4761B" stroke-linecap="round" stroke-linejoin="round"/>
<path d="M737.753 831.502L648.481 788.051L655.591 846.249L654.801 870.74L737.753 831.502ZM461.247 831.502L544.199 870.74L543.672 846.249L550.255 788.051L461.247 831.502Z" fill="#D7C1B3" stroke="#D7C1B3" stroke-linecap="round" stroke-linejoin="round"/>
<path d="M545.515 689.562L471.254 667.705L523.658 643.741L545.515 689.562ZM653.221 689.562L675.079 643.741L727.746 667.705L653.221 689.562Z" fill="#233447" stroke="#233447" stroke-linecap="round" stroke-linejoin="round"/>
<path d="M461.247 831.502L473.887 724.586L391.462 726.956L461.247 831.502ZM725.113 724.586L737.753 831.502L807.538 726.956L725.113 724.586ZM787.788 606.874L639.791 613.457L653.485 689.562L675.342 643.741L728.01 667.705L787.788 606.874ZM471.254 667.705L523.922 643.741L545.515 689.562L559.472 613.457L411.212 606.874L471.254 667.705Z" fill="#CD6116" stroke="#CD6116" stroke-linecap="round" stroke-linejoin="round"/>
<path d="M411.212 606.874L473.36 728.01L471.254 667.705L411.212 606.874ZM728.01 667.705L725.376 728.01L787.788 606.874L728.01 667.705ZM559.472 613.457L545.515 689.562L562.896 779.361L566.846 661.121L559.472 613.457ZM639.791 613.457L632.681 660.858L635.841 779.361L653.485 689.562L639.791 613.457Z" fill="#E4751F" stroke="#E4751F" stroke-linecap="round" stroke-linejoin="round"/>
<path d="M653.485 689.562L635.841 779.361L648.481 788.051L725.376 728.01L728.01 667.705L653.485 689.562ZM471.254 667.705L473.36 728.01L550.256 788.051L562.896 779.361L545.515 689.562L471.254 667.705Z" fill="#F6851B" stroke="#F6851B" stroke-linecap="round" stroke-linejoin="round"/>
<path d="M654.801 870.74L655.591 846.249L649.008 840.456H549.729L543.672 846.249L544.199 870.74L461.247 831.502L490.214 855.203L548.939 896.02H649.798L708.786 855.203L737.753 831.502L654.801 870.74Z" fill="#C0AD9E" stroke="#C0AD9E" stroke-linecap="round" stroke-linejoin="round"/>
<path d="M648.481 788.051L635.841 779.361H562.896L550.255 788.051L543.672 846.249L549.729 840.456H649.008L655.591 846.249L648.481 788.051Z" fill="#161616" stroke="#161616" stroke-linecap="round" stroke-linejoin="round"/>
<path d="M912.874 480.734L935.258 373.291L901.814 273.485L648.481 461.51L745.917 543.935L883.643 584.226L914.191 548.675L901.024 539.195L922.091 519.971L905.764 507.331L926.831 491.267L912.874 480.734ZM263.742 373.291L286.126 480.734L271.905 491.267L292.973 507.331L276.909 519.971L297.976 539.195L284.809 548.675L315.093 584.226L452.82 543.935L550.255 461.51L296.923 273.485L263.742 373.291Z" fill="#763D16" stroke="#763D16" stroke-linecap="round" stroke-linejoin="round"/>
<path d="M883.644 584.226L745.917 543.935L787.788 606.873L725.376 728.01L807.538 726.956H929.991L883.644 584.226ZM452.82 543.935L315.093 584.226L269.272 726.956H391.462L473.36 728.01L411.212 606.873L452.82 543.935ZM639.791 613.457L648.481 461.51L688.509 353.277H510.755L550.256 461.51L559.472 613.457L562.633 661.385L562.896 779.361H635.841L636.368 661.385L639.791 613.457Z" fill="#F6851B" stroke="#F6851B" stroke-linecap="round" stroke-linejoin="round"/>
</g>
<defs>
<clipPath id="clip0_28_22">
<rect width="1200" height="1200" fill="white"/>
</clipPath>
</defs>
</svg>
