<svg width="1200" height="1200" viewBox="0 0 1200 1200" fill="none" xmlns="http://www.w3.org/2000/svg">
<g clip-path="url(#clip0_944_267)">
<path d="M600 1200C931.371 1200 1200 931.371 1200 600C1200 268.629 931.371 0 600 0C268.629 0 0 268.629 0 600C0 931.371 268.629 1200 600 1200Z" fill="#50EBE6"/>
<path fill-rule="evenodd" clip-rule="evenodd" d="M650.215 868V569.798L511.009 753.048L371.803 571.079V868H279V421H362.532L511.009 615.741L646.749 439.214C655.565 427.682 669.018 421 683.263 421H743V868H650.215Z" fill="#006666"/>
<path d="M852.012 318C813.889 318 783 348.887 783 387C783 425.113 813.889 456 852.012 456C890.108 456 921 425.113 921 387C921 348.887 890.108 318 852.012 318Z" fill="white"/>
</g>
<defs>
<clipPath id="clip0_944_267">
<rect width="1200" height="1200" fill="white"/>
</clipPath>
</defs>
</svg>
