<svg width="1200" height="1200" viewBox="0 0 1200 1200" fill="none" xmlns="http://www.w3.org/2000/svg">
<g clip-path="url(#clip0_1051_44)">
<path d="M600 1200C931.371 1200 1200 931.371 1200 600C1200 268.629 931.371 0 600 0C268.629 0 0 268.629 0 600C0 931.371 268.629 1200 600 1200Z" fill="#FAFBFF"/>
<path d="M244.647 790C215.036 765.737 206.003 726.929 224.88 690.555C241.906 657.749 262.652 626.894 281.05 594.774C311.685 541.289 342.843 488.055 371.706 433.616C393.213 393.051 441.407 372.839 483 392.736C479.628 398.456 475.801 401.394 473.15 405.16C395.498 515.503 318.237 626.123 240.126 736.139C227.805 753.493 230.06 765.757 245.781 779.25C245.347 783.867 244.997 786.933 244.647 790Z" fill="#6736E9"/>
<path d="M244.999 790.578C245.023 786.785 243.645 780.421 244.998 774.5C307.738 683.732 371.711 599.465 432.697 511.033C457.788 474.651 479.886 438.401 503.5 401C513.981 415.178 524.746 427.356 533.999 443.493C524.259 452.955 513.936 459.166 507.516 468.162C450.46 548.115 393.718 628.299 337.722 708.998C316.994 738.871 300.463 772.374 279.5 803.5C274.293 805.3 272.758 806.61 269 808C266.165 806.753 259.143 803.506 254.79 800.097C251.01 796.086 248.749 794.238 246.487 792.39C246.487 792.39 245.325 791.304 244.999 790.578Z" fill="#5E2CDA"/>
<path d="M266 807.569C268.883 804.843 272.633 803.45 278.726 802.494C303.388 811.272 311.562 793.651 321.127 780.129C388.667 684.651 455.727 588.829 523.479 493.503C530.445 483.701 540.958 476.44 549.825 468C556.095 477.865 562.365 487.729 567 499.54C558.207 506.933 549.241 511.062 544.193 518.047C517.935 554.375 492.165 591.091 467.503 628.52C462.649 635.887 463.409 646.983 461.581 656.359C434.556 654.334 432.264 679.718 422.149 694.526C402.411 723.417 387.183 755.39 367.808 784.561C348.02 814.352 298.479 825.059 266 807.569Z" fill="#5324CC"/>
<path d="M503.5 401C481.265 439.358 457.209 475.673 431.923 512.505C370.462 602.031 307.733 690.678 244.589 781C227.736 770.229 221.084 753.57 233.502 736C312.221 624.615 392.743 516.215 471 404.5C473.671 400.687 475.441 396.359 480 392C486.38 392.703 496.812 398.809 503.5 401Z" fill="#6431E2"/>
<path d="M550 468.053C541.03 478.065 530.508 483.972 523.535 493.747C455.719 588.805 391.103 684.79 323.5 780C313.926 793.484 301.237 813.662 278 804.5C296.591 772.965 317.063 738.53 337.766 708.682C393.693 628.053 450.365 547.937 507.351 468.053C513.763 459.064 523.425 451.359 533.5 443.5C539.864 449.966 545.303 459.628 550 468.053Z" fill="#5928D3"/>
<path d="M583.775 524C591.131 538.633 600.487 557.019 607 573.5C596.155 584.566 583.028 592.801 575 603.5C554.081 631.378 534.472 660.574 515 689.5C505.914 702.997 497.317 705.176 483.5 696.5C479.09 688.053 472.41 676.278 469 665.708C476.818 657.399 483.603 649.743 489 642.5C507.1 618.211 524.902 595.139 543.228 571.031C555.731 554.584 570.19 539.624 583.775 524Z" fill="#481BBC"/>
<path d="M482 695.011C495.395 702.216 505.689 699.002 514.79 685.516C534.296 656.614 553.999 627.796 574.953 599.941C582.995 589.251 594.67 581.279 606.338 571.702C609.326 569.286 610.666 567.238 613.132 563.936C614.259 562.682 615.862 562.65 615.85 564.074C620.529 574.21 625.22 582.921 630.51 592.984C634.627 599.002 638.143 603.669 641 608.542C640.34 608.747 638.992 609.049 637.242 609.139C625.236 615.052 613.058 619.02 605.185 627.141C594.035 638.642 586.622 653.647 576.608 666.369C555.761 692.852 534.735 720.82 513.5 747C503.308 730.825 492.637 712.649 482 695.011Z" fill="#4116B3"/>
<path d="M738 643C735.135 654.742 734.737 667.885 728.958 677.974C708.68 713.376 689.096 749.652 664.443 781.964C636.967 817.975 606.728 822.81 563 804.853C566.368 802.353 570.003 801.386 575.304 801.008C593.398 807.759 605.325 802.409 615.141 788.366C640.983 751.395 667.812 715.101 693.221 677.844C699.054 669.292 700.762 657.954 705.2 647.185C707.463 646.151 708.857 645.713 711.962 644.795C721.806 643.954 729.903 643.477 738 643Z" fill="#2A0392"/>
<path d="M513 746.822C533.861 718.883 555.347 692.762 576.175 666.122C586.18 653.326 593.585 638.232 604.726 626.663C612.592 618.495 626.015 612.003 638.5 607.5C642.73 612.395 643.464 618.437 646.096 622.863C647.612 624.927 648.525 626.078 649.281 626.323C649.089 625.447 650.728 624.736 649.602 626.086C617.643 671.24 587.181 715.316 555.643 758.601C549.747 766.693 541.219 772.615 533 779C527.012 769.142 519.343 758.284 513 746.822Z" fill="#3B10A9"/>
<path d="M532 778.819C539.425 771.126 549.635 766.232 555.531 758.188C587.069 715.156 615.77 669.838 649 625.5C654.696 626.404 659.756 629.599 664.03 632.059C666.012 634.109 667.02 635.394 668.137 637.563C669.661 641.06 673.076 643.806 674 648C666.449 661.454 657.812 673.472 650.25 685.019C624.961 723.632 599.341 762.029 573.848 800.51C570.23 801.475 567.89 802.94 563 804.5C552.51 796.951 542.012 788.308 532 778.819Z" fill="#350CA2"/>
<path d="M629.442 591C624.756 582.266 616.57 572.78 613.5 562C670.636 530.633 729.431 501.623 785.316 473.016C801.65 464.655 822.757 458.581 840 452L853 475.321C843.496 478.013 834.643 477.973 827.534 481.478C771.209 509.249 715.68 538.465 660 567.5C648.798 573.341 639.335 582.644 629.442 591Z" fill="#1661E8"/>
<path d="M840 452C822.848 460.223 801.819 465.307 785.47 473.614C729.533 502.036 674.187 531.604 617.01 561.348C615.404 561.962 613.801 561.994 613 562C614.883 550.387 617.567 538.768 622.857 525.701C637.92 520.415 651.988 516.717 663.5 511C709.893 487.96 754.741 464.908 801.16 441.922C810.309 437.391 821.18 435.195 831.5 433L840 452Z" fill="#1955E4"/>
<path d="M584 524.5C570.627 541.71 556.093 554.3 543.526 570.761C525.104 594.891 508.45 620.353 490.256 644.663C484.831 651.912 477.784 659.206 469.5 666C466.568 664.495 463.053 659.283 461 656C462.29 645.467 462.525 635.49 467.412 628.136C492.243 590.769 517.087 553.267 543.526 517C548.609 510.027 557.7 505.252 566.5 499.5C572.955 505.805 578.856 516.308 584 524.5Z" fill="#4F20C5"/>
<path d="M663.998 632.5C660.702 630.81 657.065 628.74 652.498 626.5C651.228 625.951 648.354 626.357 648.498 626C647.337 624.735 647.306 623.408 646 622.5C644.01 618.99 641.479 612.942 638.999 608C638.51 606.568 639.957 608.403 641.531 607.077C651.412 598.951 658.868 590.571 668.163 585.608C730.475 552.332 796.423 519.284 859 486.5L873 507.5C807.228 541.747 740.326 571.43 676.314 605.151C669.339 608.826 668.227 623.651 663.998 632.5Z" fill="#0E7AF1"/>
<path d="M819 756.5C809.748 741.622 798.83 724.244 790 707.094C791.639 704.058 792.885 703.345 795.135 703.77C805.476 704.398 816.062 706.608 823.995 703.004C855.088 688.879 885.633 673.456 915.737 657.32C924.938 652.389 932.077 643.629 941.515 636.554C944.67 636.323 946.471 636.162 948.271 636C950.17 639.647 952.069 643.295 954 650.218C947.196 662.147 942.069 673.657 933.21 678.925C905.195 695.582 875.155 708.866 847.242 725.675C837.034 731.822 830.593 744.193 821.159 753.801C819.035 753.918 819.85 756.459 819 756.5Z" fill="#3FB7FB"/>
<path d="M831.5 433C821.483 436.639 810.661 437.206 801.512 441.728C755.098 464.667 709.446 489.125 663.058 512.118C651.547 517.823 638.288 522.56 624 526.5C625.754 519.435 629.341 509.761 635.217 501.434C639.909 495.795 642.311 491.309 644.712 486.823C644.712 486.823 644.636 486.535 646.661 486.494C677.565 474.298 706.684 462.668 735.252 449.832C761.829 437.89 787.819 424.662 814.067 412C819.944 418.641 825.321 424.911 831.5 433Z" fill="#1E48E0"/>
<path d="M814.5 412.5C789.108 426.642 761.692 438.097 735.19 450.114C706.703 463.031 675.166 475.233 644.5 487.5C650.215 473.034 660.3 458.033 670.587 442.043C702.492 428.664 732.003 417.446 760.626 404.293C766.058 401.797 767.968 391.628 771.503 385C785.075 393.081 800.147 403.018 814.5 412.5Z" fill="#233BDB"/>
<path d="M859 486.771C796.455 521.274 730.59 552.296 668.117 585.838C658.798 590.841 649.746 601.288 640.5 609.271C636.063 605.711 633.12 596.82 629 590.771C638.31 581.038 648.099 572.709 659.321 566.854C715.103 537.752 772.073 507.107 828.5 479.271C835.622 475.758 843.507 476.365 853 475.271L859 486.771Z" fill="#116FED"/>
<path d="M739.483 642.802C729.654 643.92 715.57 645.788 706 645C711.145 635.556 720.63 623.554 729 618C744.796 605.235 767.504 594.201 786 584C818.797 565.911 851.535 551.122 884.313 533C888.906 539.713 893.499 546.427 898 555.197C897.908 557.253 897.41 558.062 895.855 558.379C852.955 579.652 811.469 600.338 770.431 621.878C764.836 624.815 761.476 632.012 756.28 637.992C754.418 639.763 753.378 640.799 752.359 641.856C748.649 641.958 744.938 642.06 739.483 642.802Z" fill="#059AFB"/>
<path d="M794.692 703.275C793.42 703.939 792.177 704.653 790.053 706C784.069 698.012 777.496 684.973 773.5 674.5C785.49 666.549 797.613 664.355 808.869 659.036C848.913 640.11 887.822 619.642 928 601C934.076 611.152 941.503 623.304 948 634.959C946.624 636.624 944.828 636.786 940.582 635.964C928.775 635.17 918.148 632.523 910.291 636.058C881.297 649.103 852.834 663.493 824.984 678.857C813.804 685.025 804.726 695.021 794.692 703.275Z" fill="#22ADFC"/>
<path d="M929 601.674C889.253 621.582 849.126 640.704 809 659.5C797.721 664.783 786.861 670.621 774.475 677C766.631 666.32 760.238 655.267 753 642.831C753.175 640.397 754.215 639.368 757.139 638.6C768.834 639.884 780.345 644.726 788.207 641.303C820.145 627.396 850.805 610.626 882.258 595.574C899.352 587.393 905.098 575.754 897.268 558.211C897.268 558.211 897.767 557.408 898.007 557C904.061 564.061 910.191 571.312 915.592 579.064C920.316 585.844 924.221 593.187 929 601.674Z" fill="#15A9FD"/>
<path d="M664 632.3C667.27 622.605 667.491 608.207 674.5 604.5C738.813 570.484 805.66 539.113 872.228 506L879 523.5C816.188 556.087 753.706 585.677 692.768 617.08C685.99 620.573 682.311 630.083 675.669 636.944C672.1 637.04 670.057 636.993 668.014 636.947C667.002 635.654 665.99 634.362 664 632.3Z" fill="#0A85F4"/>
<path d="M675.5 637C680.614 630.311 685.791 619.774 692.567 616.297C753.487 585.036 815.933 554.327 879 523.5C879 523.5 884.518 531.038 886 534.5C853.321 553.898 818.542 568.857 785.731 586.875C767.228 597.036 747.985 606.071 730.44 617.663C722.067 623.195 716.875 633.504 709.983 643.273C708.368 645.453 706.975 645.89 704.435 647.11C722 638 705.867 648.966 705 647.5C695.814 642.801 683.82 640.233 675.5 637Z" fill="#078FF8"/>
<path d="M981.506 745C988.54 789.652 918.732 829.258 881.73 811.775C876.352 809.234 870.125 808.452 862.719 804.357C860.793 799.99 860.44 798.123 861.892 796.102C883.119 787.961 902.662 780.248 921.928 771.91C941.927 763.255 961.658 753.995 981.506 745Z" fill="#77C8F7"/>
<path d="M819 755.5C827.114 745.966 835.35 731.649 845.5 725.5C873.255 708.687 904.143 694.162 932 677.5C940.809 672.231 946.472 660.399 953.5 650C961.249 659.898 969.354 673.54 975 686.947C961.003 693.442 949.892 698.741 938 704C899.985 720.811 856.918 738.467 819 755.5Z" fill="#4DBCFA"/>
<path d="M821.574 754.26C860.77 737.205 898.637 720.088 936.664 703.33C948.56 698.088 960.62 691.319 974.5 686.5C977.783 688.583 979.578 693.27 980 697.819C942.617 719.683 906.558 739.604 869.96 758.479C855.663 765.853 845.257 774.566 845.991 792C836.737 780.564 827.484 769.128 818 756.076C818.615 754.418 819.461 754.377 821.574 754.26Z" fill="#5AC0F9"/>
<path d="M846.183 792C845.367 774.629 854.654 764.396 869 757C905.721 738.069 942.425 717.583 980 697C982.939 705.687 984.378 720.364 984 732C972.834 736.042 963.871 733.476 955.88 737.599C921.997 755.081 888.683 773.668 853.637 791.868C850.075 791.915 848.22 791.969 846.183 792Z" fill="#66C3F8"/>
<path d="M771.5 385C770.062 391.891 766.932 402.499 761.5 405C732.873 418.18 701.076 431.002 670 443C682.686 420.802 696.185 392.924 725.885 387.555C739.348 385.122 755.717 385.949 771.5 385Z" fill="#2A2DD5"/>
<path d="M852.5 791.5C885.838 773.5 921.468 754.924 955.166 737.618C963.113 733.537 972.97 733.138 983.773 731C984.5 734.637 983.276 740.943 981.5 746C961.128 756.348 942.343 764.367 922.5 773C903.383 781.317 882.501 790.106 860.5 797.5C856.571 795.892 853.698 792.535 852.5 791.5Z" fill="#70C8F8"/>
<path d="M853.354 792C856.17 792.971 857.413 793.959 859.63 795.64C860.968 798.111 861.332 799.889 862 803C857.045 801.228 851.285 796.564 845.5 792.001C847.076 790.514 849.679 792.044 853.354 792Z" fill="#5AC0F9"/>
<path d="M247 793C248.893 793.858 251.156 795.929 254 799C252.178 798.071 249.774 796.142 247 793Z" fill="#6736E9"/>
<path d="M704 649.075C704 649.075 705.222 648.353 705.5 648.168C702.196 658.028 698.912 669.522 693.119 678.065C667.881 715.283 641.667 753.568 616 790.5C606.25 804.529 588.972 807.745 571 801C594.786 761.911 624.263 722.634 649.5 684C657.047 672.447 664.76 661.25 673.723 648.168C685.093 647.669 694.547 648.372 704 649.075Z" fill="#2F0699"/>
<path d="M646 623C646.801 623.031 648.372 623.915 650 625.992C648.917 626.103 647.821 624.993 646 623Z" fill="#350CA2"/>
<path d="M708.5 649C699.833 649.74 683.976 650.05 673 649C670.136 646.095 665.034 635.894 663.5 632.499C665.438 631.687 671.987 637.092 675.566 637C685.441 639.998 699.286 644.444 708.5 649Z" fill="#2A0392"/>
<path d="M792.5 704.5C801.527 695.201 814.068 684.511 825.205 678.372C852.945 663.083 881.295 648.762 910.175 635.78C918.001 632.262 937.086 634.922 947.5 635.78C940.564 643.814 924.97 652.523 915.828 657.441C885.917 673.53 855.569 688.909 824.675 702.993C816.794 706.586 802.775 705.125 792.5 704.5Z" fill="#2FB3FC"/>
<path d="M897 554C906.368 571.44 904.063 586.719 887 595C855.604 610.237 820.092 627.716 788.211 641.795C780.364 645.26 765.374 640.559 754.5 638.5C757.83 632.242 764.685 624.804 770.273 621.851C811.254 600.192 854.16 575.391 897 554Z" fill="#05A5FF"/>
</g>
<defs>
<clipPath id="clip0_1051_44">
<rect width="1200" height="1200" fill="white"/>
</clipPath>
</defs>
</svg>
