<svg width="1200" height="1200" viewBox="0 0 1200 1200" fill="none" xmlns="http://www.w3.org/2000/svg">
<g clip-path="url(#clip0_103_2)">
<path d="M600 1200C931.371 1200 1200 931.371 1200 600C1200 268.629 931.371 0 600 0C268.629 0 0 268.629 0 600C0 931.371 268.629 1200 600 1200Z" fill="#FFCE00"/>
<path d="M346 777.409C346 793.961 359.449 808.445 377.037 808.445C393.589 808.445 408.073 794.996 408.073 777.409V475.319L787.752 790.857C799.134 800.168 806.375 807.411 821.893 807.411H823.962C841.549 807.411 855 793.961 855 776.373V416.35C855 399.797 841.549 385.313 823.962 385.313C807.409 385.313 792.926 398.762 792.926 416.35V714.301L418.419 402.9C408.073 393.589 399.797 385.313 384.278 385.313H378.071C359.449 385.313 346 399.797 346 417.384V777.409ZM526.012 607.742C508.424 607.742 494.975 621.19 494.975 638.778V823.964C494.975 840.516 508.424 855 526.012 855C542.565 855 557.048 841.552 557.048 823.964V637.745C557.048 621.19 543.599 607.742 526.012 607.742ZM676.023 730.853C658.435 730.853 644.985 744.304 644.985 761.889V823.964C644.985 840.516 658.435 855 676.023 855C692.575 855 707.059 841.552 707.059 823.964V761.889C706.024 744.304 692.575 730.853 676.023 730.853ZM676.023 346C658.435 346 644.985 359.449 644.985 377.037V551.877C644.985 568.429 658.435 582.913 676.023 582.913C692.575 582.913 707.059 569.462 707.059 551.877V377.037C706.024 359.449 692.575 346 676.023 346ZM526.012 346C508.424 346 494.975 359.449 494.975 377.037V428.764C494.975 445.317 508.424 459.801 526.012 459.801C542.565 459.801 557.048 446.352 557.048 428.764V377.037C557.048 359.449 543.599 346 526.012 346Z" fill="#1A1A13"/>
</g>
<defs>
<clipPath id="clip0_103_2">
<rect width="1200" height="1200" fill="white"/>
</clipPath>
</defs>
</svg>
