<svg width="60" height="60" viewBox="0 0 60 60" fill="none" xmlns="http://www.w3.org/2000/svg">
<circle cx="30" cy="30" r="30" fill="#18AD47"/>
<rect opacity="0.01" x="15" y="15" width="30" height="30" fill="#FF0101"/>
<mask id="path-3-inside-1_0_257" fill="white">
<path fill-rule="evenodd" clip-rule="evenodd" d="M30.7551 17.1076L41.1977 23.2023C41.718 23.5059 41.7197 24.2572 41.2008 24.5633L30.7582 30.7234C30.5125 30.8683 30.2076 30.8693 29.9609 30.7259L19.3925 24.5833C18.8685 24.2787 18.8693 23.5216 19.394 23.2182L29.9623 17.106C30.2077 16.9641 30.5103 16.9647 30.7551 17.1076ZM21.362 23.9029L30.3544 29.1295L39.2409 23.8873L30.3555 18.7015L21.362 23.9029ZM40.7681 27.6432C40.3323 27.6432 39.9791 27.9965 39.9791 28.4322V36.7338L30.3645 42.296L20.7533 36.5654V28.4919C20.7533 28.0562 20.4001 27.7029 19.9643 27.7029C19.5286 27.7029 19.1753 28.0562 19.1753 28.4919V37.0135C19.1753 37.2915 19.3216 37.5489 19.5603 37.6912L29.9544 43.8887C30.2001 44.0352 30.5059 44.0372 30.7536 43.894L41.1632 37.8718C41.4069 37.7308 41.5571 37.4705 41.5571 37.1889V28.4322C41.5571 27.9965 41.2038 27.6432 40.7681 27.6432Z"/>
</mask>
<path fill-rule="evenodd" clip-rule="evenodd" d="M30.7551 17.1076L41.1977 23.2023C41.718 23.5059 41.7197 24.2572 41.2008 24.5633L30.7582 30.7234C30.5125 30.8683 30.2076 30.8693 29.9609 30.7259L19.3925 24.5833C18.8685 24.2787 18.8693 23.5216 19.394 23.2182L29.9623 17.106C30.2077 16.9641 30.5103 16.9647 30.7551 17.1076ZM21.362 23.9029L30.3544 29.1295L39.2409 23.8873L30.3555 18.7015L21.362 23.9029ZM40.7681 27.6432C40.3323 27.6432 39.9791 27.9965 39.9791 28.4322V36.7338L30.3645 42.296L20.7533 36.5654V28.4919C20.7533 28.0562 20.4001 27.7029 19.9643 27.7029C19.5286 27.7029 19.1753 28.0562 19.1753 28.4919V37.0135C19.1753 37.2915 19.3216 37.5489 19.5603 37.6912L29.9544 43.8887C30.2001 44.0352 30.5059 44.0372 30.7536 43.894L41.1632 37.8718C41.4069 37.7308 41.5571 37.4705 41.5571 37.1889V28.4322C41.5571 27.9965 41.2038 27.6432 40.7681 27.6432Z" fill="white"/>
<path d="M41.1977 23.2023L40.6936 24.0659V24.0659L41.1977 23.2023ZM30.7551 17.1076L31.2591 16.2439L30.7551 17.1076ZM41.2008 24.5633L41.7089 25.4246V25.4246L41.2008 24.5633ZM30.7582 30.7234L31.2663 31.5847L30.7582 30.7234ZM29.9609 30.7259L29.4584 31.5905L29.9609 30.7259ZM19.3925 24.5833L18.89 25.4479H18.89L19.3925 24.5833ZM19.394 23.2182L19.8946 24.0838H19.8946L19.394 23.2182ZM29.9623 17.106L30.463 17.9717V17.9717L29.9623 17.106ZM30.3544 29.1295L29.8519 29.9941L30.3581 30.2883L30.8625 29.9908L30.3544 29.1295ZM21.362 23.9029L20.8614 23.0372L19.3683 23.9007L20.8595 24.7674L21.362 23.9029ZM39.2409 23.8873L39.749 24.7486L41.2169 23.8827L39.745 23.0237L39.2409 23.8873ZM30.3555 18.7015L30.8596 17.8378L30.3578 17.545L29.8549 17.8358L30.3555 18.7015ZM39.9791 36.7338L40.4798 37.5994L40.9791 37.3106V36.7338H39.9791ZM30.3645 42.296L29.8524 43.1549L30.3568 43.4557L30.8652 43.1616L30.3645 42.296ZM20.7533 36.5654H19.7533V37.1334L20.2412 37.4243L20.7533 36.5654ZM19.5603 37.6912L19.0481 38.5501H19.0481L19.5603 37.6912ZM29.9544 43.8887L29.4423 44.7476L29.4423 44.7476L29.9544 43.8887ZM30.7536 43.894L31.2543 44.7595L31.2543 44.7595L30.7536 43.894ZM41.1632 37.8718L41.6639 38.7374L41.6639 38.7374L41.1632 37.8718ZM41.7017 22.3386L31.2591 16.2439L30.251 17.9712L40.6936 24.0659L41.7017 22.3386ZM41.7089 25.4246C42.8855 24.7305 42.8815 23.0272 41.7017 22.3386L40.6936 24.0659C40.5544 23.9847 40.554 23.7838 40.6928 23.702L41.7089 25.4246ZM31.2663 31.5847L41.7089 25.4246L40.6928 23.702L30.2501 29.8621L31.2663 31.5847ZM29.4584 31.5905C30.0177 31.9156 30.7091 31.9134 31.2663 31.5847L30.2501 29.8621C30.3159 29.8233 30.3974 29.823 30.4634 29.8614L29.4584 31.5905ZM18.89 25.4479L29.4584 31.5905L30.4634 29.8614L19.895 23.7187L18.89 25.4479ZM18.8933 22.3525C17.7037 23.0406 17.7019 24.7573 18.89 25.4479L19.895 23.7187C20.0352 23.8002 20.0349 24.0027 19.8946 24.0838L18.8933 22.3525ZM29.4617 16.2403L18.8933 22.3525L19.8946 24.0838L30.463 17.9717L29.4617 16.2403ZM31.2591 16.2439C30.7041 15.92 30.018 15.9186 29.4617 16.2403L30.463 17.9717C30.3974 18.0096 30.3165 18.0094 30.251 17.9712L31.2591 16.2439ZM30.8569 28.2649L21.8645 23.0383L20.8595 24.7674L29.8519 29.9941L30.8569 28.2649ZM38.7328 23.026L29.8463 28.2682L30.8625 29.9908L39.749 24.7486L38.7328 23.026ZM29.8515 19.5651L38.7369 24.751L39.745 23.0237L30.8596 17.8378L29.8515 19.5651ZM21.8627 24.7685L30.8562 19.5671L29.8549 17.8358L20.8614 23.0372L21.8627 24.7685ZM40.9791 28.4322C40.9791 28.5488 40.8846 28.6432 40.7681 28.6432V26.6432C39.78 26.6432 38.9791 27.4442 38.9791 28.4322H40.9791ZM40.9791 36.7338V28.4322H38.9791V36.7338H40.9791ZM30.8652 43.1616L40.4798 37.5994L39.4783 35.8682L29.8637 41.4304L30.8652 43.1616ZM20.2412 37.4243L29.8524 43.1549L30.8766 41.4371L21.2654 35.7065L20.2412 37.4243ZM19.7533 28.4919V36.5654H21.7533V28.4919H19.7533ZM19.9643 28.7029C19.8478 28.7029 19.7533 28.6085 19.7533 28.4919H21.7533C21.7533 27.5039 20.9524 26.7029 19.9643 26.7029V28.7029ZM20.1753 28.4919C20.1753 28.6085 20.0809 28.7029 19.9643 28.7029V26.7029C18.9763 26.7029 18.1753 27.5039 18.1753 28.4919H20.1753ZM20.1753 37.0135V28.4919H18.1753V37.0135H20.1753ZM20.0724 36.8323C20.1362 36.8704 20.1753 36.9392 20.1753 37.0135H18.1753C18.1753 37.6437 18.5069 38.2274 19.0481 38.5501L20.0724 36.8323ZM30.4665 43.0298L20.0724 36.8323L19.0481 38.5501L29.4423 44.7476L30.4665 43.0298ZM30.2528 43.0284C30.319 42.99 30.4008 42.9906 30.4665 43.0298L29.4423 44.7476C29.9995 45.0798 30.6928 45.0844 31.2543 44.7595L30.2528 43.0284ZM40.6624 37.0062L30.2528 43.0284L31.2543 44.7595L41.6639 38.7374L40.6624 37.0062ZM40.5571 37.1889C40.5571 37.1136 40.5972 37.0439 40.6624 37.0062L41.6639 38.7374C42.2167 38.4176 42.5571 37.8275 42.5571 37.1889H40.5571ZM40.5571 28.4322V37.1889H42.5571V28.4322H40.5571ZM40.7681 28.6432C40.6515 28.6432 40.5571 28.5488 40.5571 28.4322H42.5571C42.5571 27.4442 41.7561 26.6432 40.7681 26.6432V28.6432Z" fill="white" mask="url(#path-3-inside-1_0_257)"/>
</svg>
