<svg width="1200" height="1200" viewBox="0 0 1200 1200" fill="none" xmlns="http://www.w3.org/2000/svg">
<g clip-path="url(#clip0_853_1416)">
<path d="M600 1200C931.371 1200 1200 931.371 1200 600C1200 268.629 931.371 0 600 0C268.629 0 0 268.629 0 600C0 931.371 268.629 1200 600 1200Z" fill="#414141"/>
<path d="M591.598 669.059H560.309V625.69H591.598C606.387 625.916 616.473 634.266 616.473 647.328C616.473 660.393 606.387 669.059 591.598 669.059ZM595.855 593.666H523.332V747H560.309V703.109H595.631C634.626 703.109 653.665 675.404 653.665 647.328C653.665 619.253 634.848 593.666 595.855 593.666Z" fill="white"/>
<path d="M945.64 687.244L875.364 593.666H837.668V747H875.364V653.196L945.64 747H983.335V593.666H945.64V687.244Z" fill="white"/>
<path d="M540.614 547.102V532.219H555.581C562.431 532.219 566.013 534.022 566.013 539.661C566.013 544.622 562.535 547.102 555.581 547.102H540.614ZM540.614 502.117H554.422C561.06 502.117 564.222 504.596 564.222 509.783C564.222 515.758 561.905 518.126 554.422 518.126H540.614V502.117ZM584.665 540.675C584.665 532.446 580.873 525.793 573.918 522.071C575.498 520.832 580.662 515.309 580.662 507.416C580.662 495.127 574.129 486.332 553.368 486.332H523.332V562.999H557.584C577.185 562.999 584.665 553.19 584.665 540.675Z" fill="white"/>
<path d="M733.769 516.097L772.9 562.999H791.667V486.332H772.9V533.121L733.769 486.332H715V562.999H733.769V516.097Z" fill="white"/>
<path d="M891.332 547.802L876.088 537.334C872.44 541.758 866.909 544.575 860.724 544.575C849.715 544.575 840.786 535.659 840.786 524.659C840.786 513.67 849.715 504.756 860.724 504.756C866.887 504.756 872.417 507.56 876.056 511.963L891.3 501.484C884.287 492.267 873.202 486.332 860.724 486.332C839.512 486.332 822.332 503.495 822.332 524.659C822.332 545.834 839.512 562.999 860.724 562.999C873.224 562.999 884.321 557.041 891.332 547.802Z" fill="white"/>
<path d="M952.665 504.747C963.657 504.747 972.572 513.673 972.572 524.665C972.572 535.656 963.657 544.57 952.665 544.57C941.673 544.57 932.759 535.656 932.759 524.665C932.759 513.673 941.673 504.747 952.665 504.747ZM952.665 562.999C973.838 562.999 990.999 545.837 990.999 524.665C990.999 503.493 973.838 486.332 952.665 486.332C931.493 486.332 914.332 503.493 914.332 524.665C914.332 545.837 931.493 562.999 952.665 562.999Z" fill="white"/>
<path d="M650.129 507.302L660.496 532.75C657.042 533.279 653.531 533.563 650.019 533.563C646.511 533.563 643.035 533.285 639.607 532.763L650.129 507.302ZM633.012 548.716C638.584 549.865 644.27 550.454 650.019 550.454C655.134 550.454 660.263 549.987 665.264 549.068C665.841 548.962 666.418 548.825 666.996 548.706L672.819 562.999H692.001L659.995 486.332H639.934L607.668 562.999H627.108L633.012 548.716Z" fill="white"/>
<path d="M730.333 688.773C723.203 688.773 716.135 688.211 709.161 687.153L730.557 635.608L751.639 687.126C744.618 688.197 737.474 688.773 730.333 688.773ZM710.076 593.666L646 747H684.314L696.172 718.434C707.365 720.733 718.789 721.909 730.335 721.909C740.612 721.909 750.916 720.976 760.956 719.138C762.117 718.925 763.275 718.652 764.437 718.413L776.135 747H814.667L750.372 593.666H710.076Z" fill="white"/>
<path d="M320.166 624.688C295.018 624.688 274.577 604.646 274.577 579.992C274.577 555.335 295.018 535.294 320.166 535.294C345.315 535.294 365.757 555.335 365.757 579.992C365.757 604.646 345.315 624.688 320.166 624.688ZM320.166 471C258.866 471 209 519.89 209 579.992V747H274.577V679.557L279.738 681.541C292.641 686.478 306.228 688.982 320.166 688.982C381.468 688.982 431.334 640.092 431.334 579.992C431.334 519.89 381.468 471 320.166 471Z" fill="white"/>
<path d="M209 440.333H270.333V379H209V440.333Z" fill="#00C5FF"/>
</g>
<defs>
<clipPath id="clip0_853_1416">
<rect width="1200" height="1200" fill="white"/>
</clipPath>
</defs>
</svg>
