<svg width="60" height="60" viewBox="0 0 60 60" fill="none" xmlns="http://www.w3.org/2000/svg">
<circle cx="30" cy="30" r="30" fill="#003087"/>
<path fill-rule="evenodd" clip-rule="evenodd" d="M28.8149 44H24.6204C24.2081 44 23.8738 43.6657 23.8738 43.2533C23.8738 43.216 23.8766 43.1787 23.8821 43.1419L26.8696 23.351C26.973 22.6663 27.5614 22.16 28.2539 22.16L35.6931 22.16C37.7137 22.4134 38.9102 22.4772 40.4177 23.872C41.4718 24.8473 41.9725 26.6938 41.7316 28.2482C41.188 31.756 40.6977 32.3188 39.1287 33.9964C37.8168 35.2833 35.8702 36.0133 33.2889 36.1865H32.1306C31.4744 36.1865 30.92 36.6731 30.8349 37.3237L30.1105 42.8628C30.0254 43.5134 29.471 44 28.8149 44Z" fill="#738DBD"/>
<path fill-rule="evenodd" clip-rule="evenodd" d="M24.244 40.9272H18.7467C18.3343 40.9272 18 40.593 18 40.1806C18 40.1415 18.0031 40.1025 18.0092 40.064L21.6277 17.1813C21.7353 16.501 22.3217 16 23.0105 16L32.4843 16C34.9003 16.2893 36.331 16.3621 38.1335 17.954C39.3938 19.0672 39.855 20.9089 39.567 22.6832C38.917 26.6867 38.1335 27.5949 36.2575 29.5096C34.6888 30.9784 32.0435 31.6629 28.3216 31.5633H26.7827C26.1364 31.5633 25.5872 32.0358 25.4907 32.6748L24.244 40.9272Z" fill="white"/>
<path fill-rule="evenodd" clip-rule="evenodd" d="M36.2575 29.5096C34.6889 30.9783 32.0436 31.6629 28.3216 31.5633H26.6784C26.0332 31.675 25.8062 31.8919 25.5365 32.4779L26.8697 23.351C26.973 22.6663 27.5615 22.16 28.254 22.16L35.6932 22.16C37.2845 22.3596 38.3648 22.4416 39.4883 23.1488C38.8526 26.7609 38.0585 27.6714 36.2575 29.5096Z" fill="#9DAFD1"/>
<rect opacity="0.01" x="15" y="15" width="30" height="30" fill="#FF0000"/>
</svg>
