<svg width="60" height="60" viewBox="0 0 60 60" fill="none" xmlns="http://www.w3.org/2000/svg">
<circle cx="30" cy="30" r="30" fill="#21C15D"/>
<path d="M0 30C0 13.4315 13.4315 0 30 0C46.5685 0 60 13.4315 60 30C60 46.5685 46.5685 60 30 60C13.4315 60 0 46.5685 0 30Z" fill="#21C15D"/>
<path fill-rule="evenodd" clip-rule="evenodd" d="M20.6319 38.4096H26.8066C31.7533 38.4096 35.7633 34.3996 35.7633 29.4529V28.9101C35.7633 24.2632 31.9963 20.4962 27.3494 20.4962H20.564V25.1781H15V45.2629H20.6319V38.4096ZM20.6319 33.6599H25.9923C28.3158 33.6599 30.1993 31.7763 30.1993 29.4529C30.1993 27.1295 28.3158 25.2459 25.9923 25.2459H20.6319V33.6599Z" fill="white"/>
<rect x="42.3452" y="18.5963" width="3.86768" height="3.93554" fill="white"/>
<path fill-rule="evenodd" clip-rule="evenodd" d="M49.877 15H38.7489V26.1281H49.877V15ZM40.7166 24.1602V16.9677H47.9092V24.1602H40.7166Z" fill="white"/>
</svg>
