<svg width="1200" height="1200" viewBox="0 0 1200 1200" fill="none" xmlns="http://www.w3.org/2000/svg">
<g clip-path="url(#clip0_944_290)">
<path d="M600 1200C931.371 1200 1200 931.371 1200 600C1200 268.629 931.371 0 600 0C268.629 0 0 268.629 0 600C0 931.371 268.629 1200 600 1200Z" fill="black"/>
<path d="M792.794 697.744C733.889 697.744 675.337 697.744 616.842 697.744C616.113 694.998 615.844 508.796 616.526 502.484C725.213 502.484 833.922 502.484 942.994 502.484C942.994 503.872 942.994 505.129 942.994 506.385C942.994 568.722 942.994 631.059 942.994 693.396C942.994 694.099 942.965 694.803 942.997 695.505C943.073 697.176 942.233 697.83 940.626 697.75C939.688 697.703 938.745 697.744 937.804 697.744C889.585 697.744 841.366 697.744 792.794 697.744ZM815.024 632.352C835.68 632.352 856.336 632.352 877.142 632.352C877.142 610.625 877.142 589.27 877.142 567.897C811.979 567.897 747.036 567.897 682.115 567.897C681.408 575.651 681.713 629.631 682.509 632.352C726.41 632.352 770.364 632.352 815.024 632.352Z" fill="#FF3C00"/>
<path d="M257.078 697.13C257.052 695.956 257.003 694.783 257.003 693.61C257 631.133 257 568.656 257 506.179C257 504.903 257 503.628 257 502.411C259.89 501.657 574.816 501.316 583.626 502.026C583.704 502.861 583.859 503.748 583.859 504.635C583.87 567.817 583.871 630.999 583.865 694.181C583.865 697.739 583.837 697.754 580.01 697.755C552.11 697.759 524.21 697.758 496.311 697.757C416.967 697.753 337.624 697.749 257.903 697.583C257.418 697.262 257.269 697.165 257.078 697.13ZM322.703 587.571C322.703 602.333 322.703 617.094 322.703 632.006C388.004 632.006 452.916 632.006 517.923 632.006C517.923 610.388 517.923 588.975 517.923 567.632C452.761 567.632 387.843 567.632 322.703 567.632C322.703 574.217 322.703 580.542 322.703 587.571Z" fill="#FF3C00"/>
<path d="M631.858 469.374C626.6 469.374 621.694 469.374 616.847 469.374C616.117 466.595 615.852 410.833 616.504 404C638.088 404 659.695 404 681.507 404C681.507 425.629 681.507 447.195 681.507 468.827C681.488 468.846 681.411 468.934 681.326 469.014C681.243 469.092 681.152 469.227 681.064 469.228C664.779 469.283 648.495 469.328 631.858 469.374Z" fill="#FF3C00"/>
<path d="M257 743.163C257 738.603 257 734.397 257 730.02C279.105 730.02 300.826 730.02 322.54 730.02C323.233 732.617 323.506 788.413 322.845 795.393C301.05 795.393 279.233 795.393 257 795.393C257 778.064 257 760.79 257 743.163Z" fill="#FF3C00"/>
<path d="M814.353 632.384C770.081 632.384 726.161 632.384 682.294 632.384C681.498 629.66 681.193 575.622 681.9 567.859C746.771 567.859 811.663 567.859 876.776 567.859C876.776 589.256 876.776 610.634 876.776 632.384C855.986 632.384 835.346 632.384 814.353 632.384Z" fill="black"/>
<path d="M323.223 587.492C323.223 580.799 323.223 574.459 323.223 567.859C388.097 567.859 452.75 567.859 517.646 567.859C517.646 589.252 517.646 610.716 517.646 632.384C452.904 632.384 388.257 632.384 323.223 632.384C323.223 617.438 323.223 602.641 323.223 587.492Z" fill="black"/>
</g>
<defs>
<clipPath id="clip0_944_290">
<rect width="1200" height="1200" fill="white"/>
</clipPath>
</defs>
</svg>
