<svg width="1200" height="1200" viewBox="0 0 1200 1200" fill="none" xmlns="http://www.w3.org/2000/svg">
<g clip-path="url(#clip0_8_2)">
<path d="M600 1200C931.371 1200 1200 931.371 1200 600C1200 268.629 931.371 0 600 0C268.629 0 0 268.629 0 600C0 931.371 268.629 1200 600 1200Z" fill="#00EB5E"/>
<path d="M300 708.623C302.131 705.168 303.695 701.152 306.48 698.345C336.496 668.088 366.71 638.026 396.853 607.894C399.593 605.155 402.217 602.3 407.574 596.697C402.809 593.307 397.934 590.735 394.185 587.029C364.894 558.072 335.789 528.927 306.726 499.742C304.034 497.039 302.027 493.655 300.446 489.339C301.97 483.637 303.416 479.186 303.429 474.73C303.588 422.131 303.51 369.53 303.548 316.93C303.558 302.907 304.146 302.304 318.001 302.293C370.666 302.252 423.332 302.329 475.997 302.184C480.898 302.171 485.795 300.902 491.459 300.17C493.243 300.082 494.263 300.041 495.282 300C529.484 335.089 563.685 370.178 599.28 406.696C635.987 369.728 670.244 335.227 705.878 300.397C708.276 300.117 709.296 300.167 711.102 300.619C716.491 301.439 721.093 302.212 725.697 302.22C777.978 302.306 830.258 302.255 882.539 302.289C897.069 302.299 897.458 302.704 897.467 317.52C897.497 370.093 897.392 422.666 897.634 475.239C897.655 479.876 899.827 484.504 901 489.136C898.874 492.594 897.318 496.616 894.534 499.423C864.519 529.679 834.306 559.74 804.164 589.87C801.421 592.613 798.795 595.473 793.304 601.22C797.609 604.041 802.059 606.023 805.298 609.225C834.842 638.434 864.207 667.823 893.522 697.261C896.47 700.221 898.743 703.852 900.581 708.419C899.049 714.113 897.597 718.558 897.583 723.008C897.423 774.484 897.485 825.961 897.477 877.438C897.474 895.468 897.459 895.479 878.913 895.482C827.372 895.488 775.831 895.395 724.291 895.638C719.65 895.66 715.02 897.828 710.384 899C706.927 896.879 702.905 895.328 700.099 892.551C669.803 862.572 639.704 832.396 609.534 802.291C606.792 799.554 603.931 796.935 598.295 791.565C594.911 796.325 592.347 801.204 588.636 804.949C559.645 834.205 530.463 863.273 501.242 892.301C498.537 894.988 495.151 896.992 490.831 898.57C485.128 897.045 480.676 895.6 476.22 895.587C424.68 895.427 373.139 895.489 321.598 895.481C303.546 895.478 303.536 895.463 303.533 876.938C303.527 825.461 303.62 773.984 303.376 722.508C303.354 717.875 301.177 713.251 300 708.623Z" fill="#231C46"/>
</g>
<defs>
<clipPath id="clip0_8_2">
<rect width="1200" height="1200" fill="white"/>
</clipPath>
</defs>
</svg>
