<svg width="1200" height="1200" viewBox="0 0 1200 1200" fill="none" xmlns="http://www.w3.org/2000/svg">
<g clip-path="url(#clip0_1051_218)">
<path d="M600 1200C931.371 1200 1200 931.371 1200 600C1200 268.629 931.371 0 600 0C268.629 0 0 268.629 0 600C0 931.371 268.629 1200 600 1200Z" fill="#48484A"/>
<path d="M519.254 528.555C520.147 527.587 520.949 526.54 521.65 525.427C523.507 521.998 526.161 519.059 529.392 516.857C532.623 514.655 536.337 513.253 540.224 512.768C544.782 511.831 549.487 511.863 554.031 512.865C558.575 513.866 562.854 515.812 566.587 518.577C568.938 520.213 570.766 522.487 571.855 525.127C572.944 527.767 573.247 530.663 572.728 533.47C572.147 535.535 571.343 537.533 570.331 539.427C565.688 550.448 560.745 561.171 556.251 572.191C549.361 588.425 543.819 605.254 538.427 622.083C536.887 627.198 536.229 632.536 536.479 637.869C536.406 638.861 536.406 639.857 536.479 640.848C536.547 641.337 536.731 641.804 537.015 642.209C537.3 642.614 537.677 642.947 538.115 643.179C538.553 643.411 539.041 643.537 539.538 643.546C540.034 643.555 540.526 643.447 540.973 643.231C542.531 642.59 543.993 641.738 545.317 640.699C556.76 632.079 565.659 620.556 571.08 607.339C580.517 581.723 591.301 556.405 601.038 530.789C603.247 523.986 608.028 518.304 614.373 514.941C620.717 511.579 628.128 510.8 635.039 512.768C641.605 514.393 647.512 517.98 651.965 523.045L656.159 520.215C661.102 516.789 665.895 513.066 671.138 509.939C677.404 506.146 684.491 503.9 691.809 503.386C700.768 502.404 709.769 504.818 717.016 510.146C724.264 515.474 729.223 523.325 730.903 532.129C733.575 544.498 733.575 557.291 730.903 569.66C725.841 599.627 714.067 628.079 696.452 652.911C695.553 654.103 694.804 655.294 694.055 656.486C693.306 657.677 696.302 656.486 697.351 656.486C715.301 646.49 728.982 630.346 735.846 611.062C741.538 595.276 747.529 579.638 753.521 564.149C757.715 553.277 762.209 542.554 766.702 531.831C767.182 530.415 767.732 529.024 768.35 527.661C770.832 521.383 775.679 516.315 781.861 513.534C788.042 510.753 795.071 510.478 801.453 512.768C805.447 513.936 809.201 515.802 812.537 518.279L818.528 522.3C821.309 520.606 823.962 518.715 826.467 516.641C834.209 510.333 843.347 505.943 853.129 503.833C862.278 501.7 871.903 503.198 879.958 508.009C888.014 512.82 893.865 520.565 896.268 529.597C898.067 535.908 899.122 542.405 899.413 548.958C899.555 563.515 897.33 577.999 892.823 591.85C886.643 613.162 876.923 633.297 864.064 651.422C863.179 652.606 862.378 653.85 861.667 655.145C861.667 656.337 863.165 656.039 864.064 655.145C882.866 644.432 896.809 626.943 903.008 606.296C910.193 581.367 919.878 557.219 931.917 534.214C933.715 530.789 935.512 527.364 937.609 524.087C939.896 520.64 942.859 517.687 946.321 515.405C949.783 513.124 953.673 511.561 957.757 510.81C961.841 510.059 966.035 510.136 970.089 511.035C974.142 511.935 977.972 513.639 981.347 516.045C984.667 517.955 987.124 521.058 988.211 524.716C989.298 528.373 988.932 532.306 987.189 535.704C983.144 545.831 978.801 555.809 974.756 565.49L958.579 605.254C955.748 611.929 953.785 618.935 952.738 626.104C951.334 631.065 951.814 636.365 954.086 640.997C955.765 641.36 957.512 641.245 959.128 640.666C960.745 640.086 962.164 639.066 963.223 637.721C972.393 629.352 980.675 620.07 987.938 610.02C989.604 607.637 991.405 605.35 993.33 603.169C995.322 601.204 998.014 600.102 1000.82 600.102C1003.62 600.102 1006.32 601.204 1008.31 603.169C1009.46 604.285 1010.24 605.729 1010.54 607.302C1010.83 608.876 1010.63 610.501 1009.96 611.956L1008.46 614.487C997.72 632.114 985.17 648.584 971.012 663.634C963.487 671.558 955.211 678.74 946.297 685.08C939.941 689.597 932.602 692.557 924.877 693.718C921.939 694.014 918.978 694.014 916.04 693.718C911.866 693.733 907.78 692.527 904.291 690.249C900.802 687.972 898.064 684.724 896.418 680.91C894.376 677.294 893.149 673.279 892.823 669.145L891.924 660.805C890.276 659.613 889.378 660.805 888.479 660.805C883.536 664.23 878.593 667.953 873.5 671.081C858.423 681.015 841.525 687.898 823.771 691.335C811.512 693.468 799.039 694.118 786.624 693.271C783.737 693.024 780.929 692.212 778.358 690.883C775.788 689.554 773.507 687.734 771.645 685.527C769.997 683.889 768.949 681.506 766.103 680.463C766.103 682.251 764.755 683.74 764.306 685.229L745.432 753.886C744.63 757.447 743.527 760.934 742.137 764.311C741.142 767.353 739.085 769.942 736.338 771.608C733.59 773.274 730.335 773.908 727.158 773.396C719.761 773.066 712.624 770.58 706.637 766.247C702.248 763.115 698.912 758.737 697.068 753.688C695.224 748.639 694.957 743.153 696.302 737.95C697.482 731.771 698.982 725.657 700.796 719.632C704.99 703.994 709.483 688.357 713.827 672.719C713.91 671.33 713.91 669.938 713.827 668.549C710.682 668.549 708.884 670.038 706.937 671.23C695.691 679.283 683.585 686.075 670.838 691.484C654.933 696.257 638.269 698.025 621.708 696.697C618.534 696.434 615.444 695.548 612.616 694.091C609.788 692.634 607.278 690.635 605.232 688.208C603.734 686.719 602.835 684.633 600.139 683.591C599.39 685.676 598.491 687.314 598.042 689.101C591.901 711.59 585.609 733.78 579.468 756.269C578.57 759.396 578.12 762.524 577.371 765.502C577 768.048 575.83 770.412 574.028 772.257C572.226 774.102 569.884 775.335 567.335 775.779C564.212 776.301 561.023 776.301 557.899 775.779C552.985 775.283 548.248 773.685 544.045 771.105C539.842 768.525 536.282 765.031 533.633 760.886C530.379 755.968 529.096 750.017 530.038 744.205C530.734 739.431 531.735 734.705 533.034 730.057C537.228 714.419 541.572 698.782 545.916 683.144C546.87 680.73 547.279 678.137 547.114 675.549C546.187 675.754 545.284 676.054 544.418 676.442C541.273 678.974 538.277 681.357 535.431 683.889C526.284 691.34 515.025 695.766 503.227 696.548C498.481 697.212 493.646 696.339 489.438 694.06C485.23 691.78 481.872 688.214 479.86 683.889C479.86 682.697 478.961 681.655 478.362 680.463C475.965 675.698 474.467 675.4 470.124 679.123L463.982 684.336C456.987 690.002 448.794 694.024 440.016 696.101C433.316 697.652 426.346 697.652 419.645 696.101C414.055 694.726 408.873 692.051 404.524 688.297C400.175 684.543 396.785 679.817 394.631 674.506C391.12 666.24 389.141 657.41 388.789 648.444C388.36 640.216 388.913 631.968 390.437 623.87C394.461 597.913 403.625 573.007 417.399 550.597C422.842 542.299 429.17 534.609 436.272 527.661C447.325 516.558 461.458 508.987 476.864 505.918C483.084 504.589 489.517 504.589 495.737 505.918C500.135 506.559 504.312 508.248 507.911 510.841C511.511 513.434 514.426 516.855 516.408 520.811C517.007 523.045 517.906 525.278 519.254 528.555ZM674.733 540.171C673.649 540.033 672.548 540.165 671.528 540.555C670.509 540.945 669.602 541.581 668.891 542.405C665.621 545.309 662.568 548.445 659.754 551.788C652.787 560.167 646.806 569.311 641.929 579.042C633.626 595.506 627.195 612.839 622.757 630.721C621.161 637.038 620.01 643.457 619.312 649.933C619.118 653.327 619.37 656.731 620.061 660.06C620.061 662.592 622.757 663.337 625.004 661.847L626.801 660.507C631.624 656.405 635.947 651.757 639.683 646.656C657.128 622.298 669.457 594.692 675.931 565.49C677.194 559.315 677.797 553.025 677.729 546.724C677.813 545.471 677.584 544.216 677.061 543.073C676.538 541.929 675.738 540.932 674.733 540.171ZM840.697 538.98C838.207 539.596 835.962 540.946 834.256 542.852C826.689 550.029 820.274 558.316 815.233 567.426C800.684 591.097 790.536 617.178 785.276 644.422C784.825 648.73 784.825 653.072 785.276 657.379C785.194 658.548 785.429 659.717 785.956 660.765C786.482 661.812 787.282 662.7 788.271 663.337C789.683 662.654 791.036 661.857 792.316 660.954C797.441 656.637 801.929 651.623 805.647 646.061C822.172 622.53 834.065 596.101 840.697 568.17C842.633 561.389 843.592 554.369 843.543 547.32C843.68 545.809 843.497 544.287 843.007 542.851C842.517 541.414 841.73 540.096 840.697 538.98ZM494.239 538.086C492.823 538.702 491.469 539.45 490.195 540.32C485.434 544.702 481.302 549.713 477.913 555.213C463.241 577.908 453.072 603.184 447.955 629.678C446.21 638.25 445.655 647.019 446.307 655.741C446.202 656.871 446.334 658.011 446.695 659.088C447.056 660.164 447.638 661.155 448.404 661.996C451.55 661.996 452.898 660.358 454.396 659.018C461.559 652.352 467.491 644.488 471.921 635.784C481.572 617.856 488.919 598.792 493.79 579.042C496.009 570.571 497.265 561.878 497.535 553.128C497.966 547.9 496.819 542.663 494.239 538.086Z" fill="white"/>
<path d="M275.703 647.547C274.905 648.206 274.253 649.023 273.788 649.946C273.324 650.869 273.058 651.878 273.007 652.908L262.821 692.97C262.131 695.796 261.281 698.58 260.275 701.31C259.508 703.23 258.245 704.916 256.615 706.197C254.985 707.478 253.044 708.309 250.988 708.608C243.764 710.079 236.262 709.361 229.452 706.546C222.643 703.732 216.839 698.951 212.792 692.821C209.279 687.231 208.097 680.499 209.497 674.056C211.412 660.364 214.315 646.826 218.185 633.547C230.744 589.756 246.411 546.906 265.068 505.319C266.215 502.733 267.567 500.243 269.112 497.872C270.801 495.174 273.166 492.958 275.976 491.444C278.786 489.93 281.944 489.168 285.14 489.234C295.586 488.771 306.053 489.12 316.445 490.277C324.534 491.617 327.829 496.234 325.582 504.127C325.582 506.212 324.084 508.297 323.335 510.233L298.321 573.082C297.123 575.762 296.224 578.443 295.325 580.975C295.441 581.287 295.629 581.567 295.876 581.791C296.122 582.016 296.419 582.179 296.741 582.266C297.064 582.354 297.402 582.363 297.729 582.294C298.056 582.225 298.362 582.079 298.62 581.869C321.701 571.424 340.398 553.307 351.495 530.637C357.126 519.24 359.063 506.388 357.037 493.851C356.054 487.079 352.874 480.81 347.98 475.999C343.087 471.187 336.748 468.095 329.926 467.193C312.975 464.13 295.482 467.082 280.496 475.533C267.515 482.221 256.04 491.467 246.769 502.707C237.499 513.947 230.627 526.947 226.573 540.913C225.524 544.636 225.075 548.508 224.326 552.38C224.246 553.073 224.246 553.773 224.326 554.466C224.274 556.429 223.793 558.359 222.917 560.12C222.041 561.881 220.79 563.431 219.251 564.663C217.712 565.896 215.922 566.781 214.005 567.257C212.088 567.734 210.09 567.79 208.149 567.422C203.241 566.917 198.573 565.061 194.668 562.061C189.996 558.554 186.332 553.887 184.045 548.529C181.758 543.17 180.927 537.308 181.637 531.53C182.288 523.313 184.852 515.36 189.126 508.297C198.183 491.858 211.012 477.775 226.573 467.193C246.087 453.764 268.331 444.765 291.73 440.832C319.046 436.322 347.071 438.939 373.065 448.427C384.322 452.188 394.568 458.453 403.022 466.746C411.131 474.124 416.969 483.637 419.859 494.182C422.749 504.726 422.572 515.869 419.349 526.318C415.466 540.92 407.826 554.265 397.18 565.04C383.408 578.869 366.946 589.764 348.799 597.059C342.957 599.442 336.966 601.527 330.974 603.761C327.23 605.251 326.331 606.293 326.78 610.314C327.761 627.012 330.625 643.548 335.318 659.61C339.847 674.461 347.279 688.278 357.187 700.268C366.292 711.534 378.961 719.407 393.136 722.607C403.067 724.781 413.399 724.319 423.094 721.267C428.785 719.48 434.028 717.097 439.42 714.863C441.517 714.118 443.315 712.927 445.412 712.033C447.677 710.798 450.329 710.465 452.832 711.101C455.335 711.737 457.501 713.294 458.893 715.459C460.209 717.522 460.664 720.015 460.161 722.407C459.657 724.799 458.235 726.901 456.197 728.267C444.832 738.579 432.138 747.343 418.45 754.329C411.079 758.105 403.286 761.004 395.233 762.967C379.641 767.366 363.079 767.006 347.696 761.934C332.312 756.862 318.815 747.312 308.956 734.522C300.856 724.784 294.566 713.689 290.382 701.757C285.658 688.507 282.198 674.845 280.047 660.95C280.047 657.674 278.998 654.249 278.249 650.972C277.658 649.661 276.79 648.493 275.703 647.547Z" fill="white"/>
<path d="M981.202 423.41C986.019 423.231 990.825 424.005 995.339 425.688C999.852 427.371 1003.99 429.928 1007.5 433.212C1011.01 436.496 1013.83 440.44 1015.8 444.817C1017.76 449.193 1018.83 453.915 1018.95 458.706C1019.34 466.128 1017.48 473.495 1013.62 479.86C1009.77 486.225 1004.08 491.296 997.299 494.421C990.518 497.546 982.952 498.582 975.573 497.396C968.195 496.209 961.342 492.854 955.898 487.763C950.453 482.672 946.665 476.077 945.022 468.827C943.378 461.578 943.955 454.005 946.676 447.084C949.398 440.162 954.14 434.209 960.293 429.99C966.446 425.771 973.728 423.479 981.202 423.41Z" fill="white"/>
</g>
<defs>
<clipPath id="clip0_1051_218">
<rect width="1200" height="1200" fill="white"/>
</clipPath>
</defs>
</svg>
