<svg width="1200" height="1200" viewBox="0 0 1200 1200" fill="none" xmlns="http://www.w3.org/2000/svg">
<g clip-path="url(#clip0_944_284)">
<path d="M600 1200C931.371 1200 1200 931.371 1200 600C1200 268.629 931.371 0 600 0C268.629 0 0 268.629 0 600C0 931.371 268.629 1200 600 1200Z" fill="#D61F27"/>
<path fill-rule="evenodd" clip-rule="evenodd" d="M515.546 392.313C598.301 371.025 609.994 422.297 606.996 449.882C600.699 506.551 592.904 523.941 580.31 578.211C633.681 500.854 693.648 386.916 781.5 388.715C802.189 388.116 822.578 398.01 822.578 398.01C897.537 446.883 828.275 547.928 771.606 538.333C737.125 532.936 731.128 513.147 727.23 479.565C722.133 466.972 700.245 469.071 688.251 481.664C625.586 550.027 582.409 647.474 582.409 647.474C582.409 647.474 551.826 727.53 517.345 793.194C517.345 793.194 507.75 806.386 483.763 808.785L404.607 807.886C378.221 805.487 384.218 787.197 384.218 787.197C384.218 787.197 478.366 504.452 477.767 488.86C479.566 479.865 477.167 454.079 452.281 466.373C419.299 482.864 418.099 505.651 382.719 532.037C382.719 532.037 364.728 540.432 364.728 520.643C377.022 488.561 446.884 408.504 515.546 392.313ZM234 599.5C234 397.71 397.71 234 599.5 234C801.29 234 965 397.71 965 599.5C965 801.289 801.29 965 599.5 965C397.71 965.299 234 801.589 234 599.5Z" fill="white"/>
</g>
<defs>
<clipPath id="clip0_944_284">
<rect width="1200" height="1200" fill="white"/>
</clipPath>
</defs>
</svg>
