<svg width="60" height="60" viewBox="0 0 60 60" fill="none" xmlns="http://www.w3.org/2000/svg">
<circle cx="30" cy="30" r="30" fill="#E36000"/>
<path fill-rule="evenodd" clip-rule="evenodd" d="M18.8245 32.8103C18.7883 33.4311 18.9276 34.4169 19.1305 35.0516C19.7276 36.9189 20.8948 38.3922 22.3792 39.6193C23.4119 40.4731 24.6088 41.0793 25.8026 41.6785C27.2512 42.4059 28.7325 43.0745 30.0494 44.0384C30.1221 44.0916 30.1678 44.0662 30.2275 44.0221C31.0556 43.4094 31.963 42.9318 32.8816 42.4746C34.2159 41.8104 35.561 41.1694 36.8349 40.3884C38.4659 39.3883 39.706 38.0247 40.62 36.3619C41.2176 35.2749 41.5279 34.0992 41.4676 32.8514C41.3812 31.0641 40.7065 29.535 39.3952 28.2994C39.2932 28.2033 39.2064 28.0889 39.1238 27.975C38.9873 27.7864 38.9828 27.588 39.1033 27.3868C39.1892 27.2433 39.2829 27.103 39.3543 26.9524C39.7815 26.0498 40.2081 25.147 40.6236 24.2391C40.7405 23.9837 40.8337 23.7152 40.9119 23.4452C41.0094 23.109 40.9463 22.7967 40.6742 22.557C40.3291 22.2529 39.9822 21.9501 39.6221 21.6642C39.2701 21.3847 38.8964 21.1326 38.5404 20.8579C38.3894 20.7414 38.3919 20.6383 38.4882 20.4754C38.6079 20.2729 38.7253 20.0685 38.8309 19.8585C38.9862 19.5499 38.9855 19.4723 38.6979 19.2809C38.3601 19.0559 38.0029 18.8524 37.6343 18.683C36.6444 18.2282 35.6123 17.8829 34.5679 17.5782C33.9258 17.391 33.2717 17.2456 32.6294 17.0593C31.7963 16.8176 31.0289 16.4202 30.2684 16.0115C30.1864 15.9674 30.1238 15.9586 30.0394 16.0071C29.8581 16.1111 29.6707 16.2047 29.4836 16.2981C28.8561 16.6112 28.2262 16.9273 27.5419 17.0926C25.8512 17.501 24.1909 18.0014 22.6007 18.7102C22.2177 18.8809 21.8678 19.1276 21.5092 19.35C21.3581 19.4436 21.3356 19.5917 21.4176 19.7487C21.541 19.9849 21.66 20.2241 21.7961 20.4529C21.9106 20.6456 21.9134 20.7392 21.7355 20.8836C21.5285 21.0517 21.3158 21.2138 21.097 21.3661C20.5637 21.7373 20.0224 22.1 19.5928 22.5943C19.4851 22.7181 19.3978 22.8846 19.3665 23.0443C19.3051 23.3574 19.4045 23.6638 19.5427 23.9391C20.1126 25.0741 20.5487 26.2732 21.1903 27.3736C21.3068 27.5734 21.3188 27.7729 21.1792 27.962C21.0801 28.0962 20.9645 28.2182 20.8546 28.3441C20.5932 28.6436 20.3074 28.925 20.073 29.2442C19.2757 30.3299 18.8843 31.5612 18.8245 32.8103ZM30.1831 15C30.326 15.1011 30.4632 15.212 30.6129 15.3019C31.483 15.8241 32.4336 16.1384 33.4118 16.384C34.7365 16.7166 36.0493 17.0915 37.3126 17.6151C38.1005 17.9417 38.8692 18.3175 39.571 18.807C40.1145 19.1861 40.0432 19.1321 39.8251 19.6728C39.7529 19.8518 39.6595 20.0224 39.5788 20.1982C39.485 20.4027 39.5577 20.5479 39.7161 20.7033C40.2436 21.2212 40.9207 21.5594 41.4017 22.1325C41.8629 22.6821 41.9885 23.278 41.6816 23.9395C41.3889 24.5704 41.0898 25.1982 40.7869 25.8241C40.5616 26.2898 40.3291 26.7523 40.0931 27.2127C39.9238 27.543 39.9492 27.788 40.2277 28.0646C40.7785 28.6117 41.24 29.2228 41.5857 29.9187C42.323 31.4033 42.4771 32.9577 42.113 34.5649C41.7371 36.2239 40.965 37.6715 39.7974 38.9177C39.0035 39.765 38.1258 40.5114 37.1473 41.1207C36.2438 41.6834 35.2858 42.1595 34.3467 42.6642C33.3055 43.2236 32.2539 43.764 31.2164 44.3302C30.878 44.515 30.5712 44.7573 30.2453 44.9661C30.2015 44.9941 30.1104 45.0065 30.0749 44.9803C29.1682 44.3141 28.1706 43.8045 27.1766 43.2889C26.0854 42.7229 24.9881 42.1684 23.9033 41.5905C22.8525 41.0306 21.9175 40.3032 21.0597 39.4841C20.2969 38.7556 19.6056 37.9621 19.1069 37.0197C18.4441 35.7671 18.0143 34.4453 18.0004 33.0191C17.9825 31.1928 18.6242 29.6133 19.8696 28.2781C19.9694 28.171 20.0705 28.0645 20.161 27.9497C20.3468 27.7138 20.3418 27.472 20.2074 27.2035C19.7016 26.194 19.2013 25.1815 18.7155 24.1622C18.5979 23.9151 18.5128 23.6432 18.4663 23.3734C18.371 22.8194 18.6462 22.3826 19.0112 22.0135C19.2855 21.7362 19.6104 21.5088 19.9129 21.2592C20.1667 21.0499 20.4227 20.8434 20.6731 20.6301C20.7775 20.541 20.7905 20.3609 20.7215 20.207C20.604 19.9447 20.48 19.6848 20.3731 19.4182C20.2723 19.1664 20.2758 19.1092 20.501 18.9698C21.0426 18.6346 21.5843 18.2944 22.1511 18.0057C23.7279 17.2024 25.4309 16.761 27.1326 16.3203C28.1512 16.0565 29.1265 15.6889 30.0069 15.0994C30.0483 15.0717 30.0826 15.0333 30.1202 15H30.1831Z" fill="white"/>
<path fill-rule="evenodd" clip-rule="evenodd" d="M30.1298 19.0094C30.0403 19.1858 29.9523 19.3596 29.8591 19.5434C30.0155 19.6397 30.1715 19.6551 30.3273 19.5868C30.3619 19.5717 30.399 19.4789 30.3834 19.4473C30.311 19.3001 30.2204 19.1619 30.1298 19.0094ZM30.129 41.0379C29.9465 41.2908 29.7775 41.5226 29.6126 41.7572C29.596 41.7808 29.5897 41.8321 29.604 41.8538C29.7727 42.1086 29.9463 42.3603 30.1291 42.6284C30.3265 42.3392 30.5081 42.0734 30.6879 41.81C30.4996 41.5499 30.322 41.3044 30.129 41.0379ZM26.1942 39.4597C26.2387 39.4192 26.2761 39.3761 26.3219 39.3451C26.4551 39.2548 26.5817 39.1441 26.7286 39.0869C27.147 38.9241 27.6367 39.3161 27.5879 39.7606C27.5692 39.9305 27.4554 40.0018 27.3165 39.9021C27.2024 39.8203 27.1077 39.7008 27.0304 39.5812C26.9426 39.4454 26.8733 39.4196 26.7488 39.5236C26.5411 39.6971 26.4543 39.9384 26.5721 40.185C26.6829 40.4171 26.8232 40.6471 26.9973 40.8347C27.5038 41.3803 28.1136 41.7009 28.8873 41.5588C29.2799 41.4867 29.6235 41.3287 29.753 40.9071C29.8833 40.4826 29.606 40.0359 29.2109 40.0163C28.9969 40.0058 28.9094 40.0883 28.9234 40.3038C28.9304 40.4129 28.9203 40.5203 28.8072 40.5474C28.7144 40.5697 28.5864 40.5734 28.5166 40.5246C28.4559 40.4822 28.4203 40.3492 28.4334 40.2655C28.5007 39.8336 28.8882 39.5758 29.3015 39.71C29.5138 39.7789 29.7082 39.9153 29.8955 40.0432C29.9932 40.1099 30.0581 40.2246 30.1383 40.3183C30.3153 40.0335 30.5852 39.8175 30.8844 39.72C31.3251 39.5763 31.7004 39.7795 31.8202 40.2247C31.8506 40.3375 31.8648 40.4648 31.7555 40.5214C31.6705 40.5654 31.5455 40.568 31.4489 40.5449C31.3225 40.5145 31.3309 40.3971 31.3422 40.2851C31.3594 40.1163 31.2648 40.0205 31.0939 40.016C30.7323 40.0064 30.4236 40.3814 30.4758 40.7698C30.5343 41.206 30.8316 41.4166 31.2179 41.5258C32.1503 41.7896 33.3923 41.1158 33.6945 40.1893C33.7026 40.1645 33.7082 40.1388 33.7146 40.1135C33.771 39.8926 33.6643 39.6161 33.4727 39.4962C33.3703 39.4321 33.29 39.4393 33.2368 39.5673C33.2053 39.6432 33.1595 39.7176 33.1042 39.7783C33.0122 39.8793 32.899 39.9979 32.7551 39.9182C32.6204 39.8435 32.6615 39.6894 32.6846 39.5606C32.7527 39.1815 33.311 38.8417 33.7917 39.22C33.8854 39.2936 33.9712 39.3773 34.0614 39.4571C34.2446 39.1835 34.4161 38.9151 34.6002 38.6557C34.7849 38.3954 35.0171 38.1969 35.3236 38.076C35.606 37.9645 35.7599 37.7247 35.8079 37.4271C35.8364 37.2502 35.7993 37.107 35.6407 36.9745C35.1755 36.5857 34.9247 36.0791 34.9313 35.4648C34.9373 34.9016 35.1829 34.4427 35.5589 34.034C35.6885 33.8931 35.7844 33.7099 35.8561 33.5303C35.9134 33.3867 35.8085 33.276 35.6655 33.2923C35.5723 33.303 35.5001 33.3018 35.4777 33.1876C35.455 33.0723 35.4921 32.992 35.5999 32.9476C35.8259 32.8545 36.0366 32.9653 36.0898 33.2053C36.1056 33.2767 36.1139 33.3498 36.1263 33.422C36.15 33.5601 36.2123 33.6579 36.3568 33.7091C36.5034 33.7612 36.6457 33.8324 36.7793 33.913C36.9597 34.0218 37.0283 34.1926 36.9789 34.3982C36.9666 34.4491 36.912 34.4898 36.8768 34.5353C36.8339 34.4992 36.7711 34.4718 36.7512 34.4258C36.6051 34.0886 36.4792 34.022 36.1277 34.1361C35.6152 34.3022 35.3231 34.6778 35.2215 35.1879C35.1095 35.7501 35.2483 36.2686 35.6963 36.6369C36.6486 37.4199 38.1357 37.0682 38.668 35.9458C38.9914 35.2639 38.9629 34.5477 38.7665 33.8434C38.491 32.8548 37.8219 32.1866 36.9285 31.7257C36.6224 31.5678 36.3482 31.3711 36.1178 31.1159C35.4657 30.3938 35.1912 29.5372 35.2403 28.5755C35.3082 27.2423 35.9259 26.264 37.1414 25.6805C37.2206 25.6425 37.2946 25.5915 37.3655 25.5392C37.4618 25.468 37.4632 25.3819 37.4074 25.2772C37.2309 24.9457 37.2065 24.6061 37.3631 24.2568C37.4691 24.0204 37.3604 23.6738 37.1548 23.5629C36.9468 23.4507 36.5675 23.5457 36.4459 23.7686C36.3921 23.8671 36.3804 24.0122 36.4056 24.1236C36.4317 24.2394 36.5569 24.2133 36.6596 24.2044C36.6935 24.2015 36.7678 24.2708 36.7653 24.3024C36.7473 24.526 36.5586 24.6413 36.3473 24.5626C36.1779 24.4997 36.0247 24.4107 35.9359 24.2422C35.8934 24.1618 35.8432 24.122 35.7371 24.1354C35.6568 24.1455 35.5483 24.1211 35.49 24.0694C35.4203 24.0077 35.3356 23.8843 35.3556 23.8169C35.391 23.6978 35.5161 23.7706 35.597 23.8003C35.7665 23.8625 35.8899 23.8322 36.0083 23.685C36.198 23.4493 36.4534 23.3036 36.7533 23.2532C37.0615 23.2014 37.3498 23.2239 37.5532 23.5129C37.5937 23.5705 37.6564 23.6234 37.7207 23.6503C37.7871 23.6779 37.8869 23.7036 37.9387 23.6733C38.0795 23.5909 38.2027 23.4784 38.3479 23.3662C38.2846 23.3278 38.2507 23.305 38.2148 23.2858C37.3843 22.8403 36.7193 22.1981 36.1104 21.4945C35.7918 21.1264 35.5034 20.7325 35.1925 20.3576C34.9656 20.0841 34.7532 19.7871 34.4823 19.5638C34.0678 19.2219 33.6195 18.9169 33.1651 18.6286C32.6995 18.3331 32.1977 18.1065 31.6349 18.0612C31.2626 18.0313 30.9281 18.1245 30.6529 18.3858C30.441 18.587 30.4087 18.8599 30.5638 19.0653C30.6549 19.1859 30.7246 19.1868 30.803 19.0605C30.8469 18.9898 30.8742 18.9087 30.9179 18.8378C30.9391 18.8034 30.9808 18.7815 31.0134 18.754C31.0307 18.7985 31.067 18.8455 31.0616 18.8871C31.049 18.9848 31.0073 19.0786 30.994 19.1762C30.9705 19.3492 31.1193 19.4683 31.2714 19.3858C31.3529 19.3415 31.4052 19.239 31.4634 19.1574C31.4905 19.1194 31.5 19.0689 31.5176 19.024C31.5727 19.0486 31.6391 19.0611 31.6805 19.1001C31.7784 19.1925 31.8154 19.3132 31.7735 19.4448C31.6967 19.6856 31.2156 19.8886 30.9791 19.8024C30.892 19.7706 30.765 19.7657 30.6866 19.8066C30.3122 20.0023 29.9499 20.0064 29.5774 19.8066C29.5107 19.7708 29.4035 19.7466 29.3421 19.7753C29.0332 19.9192 28.8011 19.7612 28.5859 19.5873C28.405 19.4413 28.4425 19.1688 28.6356 19.0516C28.72 19.0004 28.7869 18.9989 28.7952 19.1232C28.7966 19.144 28.7972 19.1653 28.8018 19.1856C28.8348 19.33 29.0038 19.4373 29.1375 19.3996C29.2569 19.3658 29.2966 19.2557 29.2497 19.0872C29.2315 19.0216 29.2025 18.957 29.1977 18.8906C29.1943 18.8415 29.2222 18.7904 29.2384 18.7317C29.2814 18.7559 29.2944 18.7586 29.2984 18.7661C29.3452 18.8535 29.3885 18.9429 29.4369 19.0294C29.5308 19.1974 29.6159 19.197 29.7174 19.0306C29.833 18.8411 29.8236 18.595 29.6477 18.4409C29.4945 18.3066 29.3126 18.1875 29.123 18.1163C28.786 17.9899 28.4344 18.044 28.1071 18.1648C26.9409 18.5954 25.9434 19.2681 25.1542 20.2423C24.6605 20.8518 24.163 21.4605 23.6327 22.0378C23.1645 22.5476 22.6269 22.9856 22.0061 23.3087C21.9812 23.3216 21.9625 23.3463 21.9273 23.3776C22.0652 23.4857 22.1828 23.6031 22.3232 23.6773C22.3928 23.714 22.5145 23.6937 22.5937 23.6576C22.662 23.6265 22.7151 23.5428 22.7546 23.4712C22.8394 23.3172 22.972 23.2514 23.1365 23.2327C23.5131 23.1901 23.853 23.2965 24.1167 23.5572C24.3155 23.7539 24.486 23.9123 24.7868 23.7708C24.8972 23.7189 24.9352 23.8049 24.9043 23.9106C24.8635 24.0502 24.7011 24.1609 24.5316 24.1376C24.4226 24.1226 24.3663 24.1565 24.3197 24.2453C24.2346 24.408 24.0872 24.4968 23.923 24.5601C23.7204 24.6384 23.576 24.5662 23.5088 24.3583C23.4639 24.2198 23.491 24.1871 23.6353 24.2053C23.8227 24.229 23.9096 24.1415 23.8831 23.9557C23.8487 23.7141 23.6239 23.5302 23.3477 23.5177C23.101 23.5067 22.9336 23.6264 22.8868 23.8919C22.8638 24.0226 22.8791 24.1735 22.9221 24.2999C23.0285 24.6127 23.0255 24.9167 22.8886 25.2119C22.7849 25.4358 22.7926 25.5036 23.0077 25.6277C23.0664 25.6616 23.1301 25.6866 23.1914 25.716C23.7524 25.9863 24.2074 26.3772 24.5312 26.9114C25.0127 27.7058 25.1361 28.5697 24.9581 29.4677C24.755 30.4917 24.2172 31.277 23.2593 31.7641C22.4902 32.1554 21.9095 32.7469 21.5816 33.5615C21.3755 34.0732 21.3509 34.6061 21.3777 35.1504C21.4321 36.2571 22.3953 37.1258 23.5015 37.0499C24.4261 36.9865 25.0327 36.3975 25.0686 35.5281C25.0946 34.8986 24.6953 34.3022 24.1292 34.1361C24.031 34.1072 23.9228 34.0876 23.8221 34.0968C23.6291 34.1144 23.5738 34.2774 23.5075 34.4289C23.4878 34.4739 23.4239 34.524 23.379 34.5252C23.3454 34.5262 23.2879 34.457 23.2787 34.4114C23.2425 34.2317 23.271 34.0636 23.4329 33.9494C23.5178 33.8895 23.6061 33.8213 23.7033 33.7942C23.9914 33.7136 24.1581 33.5561 24.1288 33.2373C24.1247 33.1928 24.1357 33.1368 24.1613 33.1019C24.2025 33.0458 24.259 32.9654 24.3138 32.9614C24.4464 32.9519 24.5848 32.9686 24.714 33.0016C24.75 33.0109 24.7787 33.1136 24.781 33.1746C24.7838 33.255 24.7398 33.3049 24.6409 33.2985C24.4277 33.2847 24.3338 33.3932 24.4161 33.5911C24.4847 33.7558 24.5864 33.9167 24.7078 34.0474C24.9661 34.3257 25.1842 34.6291 25.2582 35.0009C25.4034 35.7298 25.348 36.4114 24.6827 36.9017C24.6366 36.9357 24.5891 36.9732 24.557 37.0193C24.5141 37.0809 24.4673 37.1493 24.4541 37.2206C24.394 37.5442 24.6009 37.95 24.9171 38.0685C25.2706 38.2009 25.5162 38.4446 25.7219 38.7413C25.8821 38.9724 26.0313 39.2111 26.1942 39.4597ZM21.0436 23.2962C21.3627 23.1588 21.677 23.0347 21.9803 22.8878C22.1236 22.8184 22.2544 22.715 22.3736 22.6079C22.429 22.5582 22.468 22.4635 22.4697 22.3882C22.4714 22.3088 22.4198 22.2283 22.3915 22.1483C22.3293 22.1775 22.2622 22.1994 22.2061 22.2374C22.1126 22.3007 22.0277 22.2633 22.0088 22.1426C21.9847 21.9879 22.1276 21.8127 22.2974 21.789C22.5083 21.7595 22.6972 21.8782 22.8033 22.107C22.8724 22.2559 22.9193 22.2796 23.0456 22.1774C23.2239 22.0332 23.4045 21.8838 23.5494 21.708C23.8319 21.3655 24.0968 21.0079 24.3562 20.6472C24.5073 20.4372 24.519 20.1975 24.4173 19.9593C24.3582 19.8212 24.259 19.7825 24.1418 19.8341C24.0354 19.8811 23.9956 19.9568 24.0599 20.0592C24.1352 20.1791 24.1463 20.2933 24.0194 20.3723C23.8923 20.4512 23.7873 20.3701 23.7031 20.2786C23.5302 20.0907 23.5582 19.8025 23.7613 19.6201C24.1251 19.2933 24.5956 19.3898 24.794 19.8314C24.8106 19.8683 24.8309 19.9034 24.8606 19.9605C24.9228 19.9093 24.9766 19.8718 25.0225 19.8262C25.5514 19.3024 26.0882 18.7883 26.7326 18.4032C27.429 17.9871 28.1697 17.7223 28.9936 17.7653C29.128 17.7722 29.2647 17.8222 29.3908 17.8751C29.5132 17.9266 29.68 17.9133 29.8122 17.7984C29.8749 17.744 29.9297 17.6792 29.9818 17.6141C30.0336 17.5494 30.0773 17.4784 30.1315 17.4001C30.2123 17.5089 30.2814 17.6127 30.3612 17.7073C30.5478 17.9289 30.6862 17.9454 30.9465 17.8219C31.0413 17.7769 31.1583 17.7679 31.2663 17.7629C32.1603 17.7223 32.9631 18.0108 33.6815 18.5114C34.1386 18.8297 34.5478 19.2175 34.9747 19.5786C35.1131 19.6957 35.2398 19.8266 35.3928 19.971C35.429 19.8986 35.4545 19.851 35.477 19.8021C35.5797 19.5797 35.7432 19.438 35.996 19.4337C36.2618 19.4292 36.4765 19.538 36.6127 19.7695C36.7353 19.9778 36.6536 20.2699 36.4433 20.3628C36.3796 20.391 36.2583 20.3884 36.2197 20.3472C36.1727 20.2971 36.1527 20.1784 36.1788 20.1122C36.228 19.9879 36.2581 19.8937 36.1081 19.8305C35.9863 19.7793 35.8924 19.8283 35.8324 19.9821C35.7567 20.1761 35.745 20.3754 35.8519 20.559C36.1968 21.1511 36.6179 21.6824 37.141 22.1291C37.1725 22.156 37.2087 22.1783 37.2447 22.1992C37.3374 22.2528 37.3999 22.2505 37.4482 22.1308C37.5434 21.895 37.7187 21.7767 37.9221 21.7852C38.087 21.7919 38.2316 21.9093 38.2472 22.0706C38.2529 22.1296 38.2223 22.2034 38.1834 22.2494C38.169 22.2663 38.0828 22.2233 38.0297 22.2064C37.9738 22.1886 37.904 22.1402 37.8664 22.1587C37.8248 22.1792 37.8001 22.2578 37.7904 22.3149C37.7604 22.492 37.8453 22.6285 37.9902 22.7093C38.2631 22.8616 38.5441 23.0002 38.8262 23.1353C38.948 23.1937 39.0808 23.2293 39.2287 23.2825C39.0563 23.3648 38.8887 23.424 38.7437 23.5183C38.4515 23.7084 38.1538 23.8971 37.8914 24.1244C37.6318 24.3496 37.5492 24.6573 37.664 24.9966C37.7451 25.2363 38.0921 25.3747 38.3173 25.2611C38.4454 25.1965 38.4691 25.071 38.3724 24.9638C38.3515 24.9406 38.3181 24.9262 38.3034 24.9004C38.2632 24.8299 38.23 24.7555 38.194 24.6827C38.2752 24.6444 38.3547 24.5784 38.4379 24.5732C38.6242 24.5617 38.8167 24.7427 38.8821 24.9586C38.9491 25.1797 38.9069 25.3542 38.7034 25.4554C38.4765 25.5683 38.2328 25.6617 37.986 25.718C37.3827 25.8559 36.8561 26.1343 36.4215 26.5642C35.7227 27.2553 35.4812 28.1184 35.575 29.0783C35.6421 29.7651 35.9079 30.3707 36.402 30.8657C36.7948 31.2592 37.2664 31.5165 37.8216 31.5145C38.2086 31.5132 38.5774 31.3417 38.796 30.9993C38.9537 30.7524 38.862 30.4785 38.7145 30.2439C38.6031 30.0667 38.426 30.0106 38.2205 30.055C37.9864 30.1058 37.9343 30.2206 38.0084 30.4452C38.0329 30.5194 37.9885 30.6164 37.9757 30.703C37.8997 30.6845 37.8099 30.6857 37.7506 30.6437C37.5727 30.5176 37.5205 30.3286 37.6434 30.1488C37.8169 29.895 37.9435 29.6555 37.8502 29.327C37.8195 29.2187 37.9099 29.057 37.984 28.9458C38.0238 28.8861 38.1471 28.857 38.2319 28.8585C38.3554 28.8607 38.3843 28.9585 38.3056 29.0556C38.1511 29.2462 38.1767 29.4181 38.3798 29.5507C38.4893 29.6222 38.6005 29.6912 38.7089 29.7643C39.1734 30.0777 39.338 30.5051 39.227 31.0566C39.1878 31.2514 39.1786 31.4634 39.2097 31.659C39.2576 31.9613 39.4287 32.0058 39.6676 31.8206C39.7165 31.7826 39.8063 31.7973 39.8774 31.7878C39.8869 31.86 39.9233 31.9421 39.9012 32.0027C39.8167 32.234 39.4228 32.3017 39.1944 32.1212C39.0979 32.045 39.0226 31.9397 38.9458 31.8412C38.8767 31.7525 38.811 31.7235 38.6916 31.7593C38.5232 31.8097 38.3417 31.8152 38.1701 31.8575C38.0938 31.8762 38.0042 31.9219 37.9628 31.9837C37.8954 32.0843 38.0005 32.1387 38.0665 32.1942C38.5268 32.5816 38.8381 33.0705 39.0457 33.6301C39.062 33.6739 39.0771 33.7182 39.0933 33.7621C39.0949 33.7666 39.1003 33.7696 39.1004 33.7333C39.3129 33.711 39.5295 33.6517 39.7366 33.6753C40.0439 33.7103 40.1363 34.1162 40.0227 34.3698C40.0031 34.4136 39.9086 34.4481 39.8521 34.4436C39.8039 34.4398 39.7519 34.3799 39.7186 34.3328C39.6978 34.3036 39.7154 34.2502 39.7044 34.2109C39.686 34.1453 39.6735 34.0438 39.6313 34.0274C39.5716 34.0043 39.477 34.0266 39.4155 34.0616C39.2797 34.1387 39.2422 34.281 39.2359 34.4259C39.2232 34.7128 39.2374 35.002 39.2086 35.287C39.0664 36.6936 37.8404 37.6112 36.4546 37.354C36.3037 37.326 36.1977 37.3684 36.1251 37.4979C36.0434 37.6436 35.9656 37.7913 35.884 37.9421C36.0064 38.025 36.129 38.0934 36.2343 38.1822C36.5762 38.4701 36.5914 38.9281 36.2763 39.2275C36.0463 39.4462 35.6633 39.3751 35.5322 39.0899C35.4947 39.0081 35.5248 38.9542 35.606 38.9364C35.6872 38.9188 35.7773 38.9302 35.853 38.9012C35.9272 38.8729 36.0273 38.8206 36.0443 38.759C36.062 38.6949 36.015 38.5831 35.9594 38.534C35.7341 38.335 35.4034 38.3214 35.184 38.5285C35.0005 38.7019 34.8318 38.9051 34.7077 39.1241C34.5203 39.455 34.3864 39.8157 34.2138 40.1556C33.7495 41.0692 33.0623 41.7184 32.0258 41.9168C31.8095 41.9583 31.5764 41.9457 31.3559 41.9182C31.2133 41.9005 31.1268 41.9321 31.05 42.0401C30.7651 42.4411 30.479 42.8414 30.1934 43.2418C30.1753 43.2672 30.1571 43.2925 30.129 43.3316C30.0387 43.2001 29.9562 43.0745 29.8682 42.9528C29.6384 42.6347 29.4099 42.3154 29.171 42.0041C29.1319 41.9532 29.0369 41.9057 28.9777 41.9158C28.222 42.0445 27.5726 41.8111 26.9925 41.3438C26.5324 40.973 26.1887 40.5193 25.9588 39.9662C25.7933 39.5682 25.5658 39.1951 25.3537 38.8178C25.2964 38.7158 25.2013 38.6311 25.1116 38.5521C24.8713 38.3403 24.575 38.3236 24.3219 38.5191C24.2597 38.5671 24.2103 38.6731 24.2118 38.7515C24.2139 38.8633 24.3086 38.916 24.4255 38.9067C24.4408 38.9055 24.4574 38.9082 24.4721 38.9128C24.5624 38.9418 24.6524 38.9719 24.7425 39.0016C24.6837 39.0889 24.64 39.1936 24.5632 39.26C24.3918 39.4082 24.1817 39.394 24.0059 39.2461C23.7002 38.9888 23.6731 38.5214 23.9604 38.2456C24.0793 38.1315 24.2248 38.0453 24.3741 37.9347C24.2885 37.782 24.2005 37.617 24.1044 37.4567C24.0482 37.3627 23.9608 37.3271 23.8486 37.349C22.38 37.6358 21.2419 36.6381 21.0059 35.2486C20.9847 35.1236 21.0147 34.9907 21.0144 34.8614C21.0141 34.6741 21.02 34.4854 21 34.2997C20.9844 34.1553 20.8884 34.0517 20.7439 34.0126C20.6308 33.982 20.5598 34.025 20.5567 34.1519C20.5552 34.2092 20.5697 34.2777 20.5434 34.3206C20.5097 34.3755 20.4407 34.4455 20.3897 34.4434C20.3298 34.4408 20.2387 34.3791 20.2203 34.3235C20.1102 33.9906 20.3067 33.5662 20.7735 33.6625C20.8999 33.6886 21.0232 33.73 21.1385 33.7619C21.275 33.4913 21.3924 33.1859 21.5719 32.9228C21.7585 32.6493 22.0069 32.4182 22.2237 32.1646C22.2617 32.1201 22.3086 32.0471 22.2956 32.004C22.2788 31.9478 22.214 31.8837 22.1565 31.8658C21.9576 31.804 21.7541 31.7556 21.5499 31.7142C21.507 31.7055 21.4413 31.7365 21.4076 31.7705C21.3344 31.8444 21.2802 31.9369 21.2089 32.013C21.0326 32.2016 20.8133 32.2807 20.5698 32.1844C20.4765 32.1474 20.4024 32.0409 20.3429 31.9507C20.3219 31.9189 20.3544 31.8123 20.3914 31.7919C20.4372 31.7665 20.5241 31.7757 20.5734 31.8042C20.6726 31.8615 20.7399 31.9944 20.8853 31.9199C21.0241 31.8488 21.0657 31.7117 21.0687 31.5765C21.0728 31.3908 21.0659 31.2004 21.0289 31.0192C20.9151 30.4603 21.1176 30.0473 21.5805 29.7427C21.681 29.6765 21.7832 29.6128 21.8842 29.5475C22.0777 29.4222 22.1051 29.2363 21.9639 29.059C21.9356 29.0235 21.9101 28.9569 21.9251 28.9234C21.9415 28.8871 22.005 28.8564 22.0508 28.8518C22.1842 28.8385 22.3048 28.9006 22.3404 29.0216C22.3844 29.1713 22.4169 29.3414 22.3894 29.4908C22.357 29.6675 22.3722 29.8062 22.4871 29.9411C22.5375 30.0002 22.5785 30.069 22.6146 30.1383C22.7251 30.3508 22.6882 30.5219 22.492 30.6575C22.4389 30.6941 22.3303 30.7266 22.2987 30.6999C22.2516 30.6601 22.2435 30.5672 22.2323 30.4947C22.2274 30.4639 22.2522 30.4251 22.2711 30.3944C22.3421 30.2786 22.2939 30.1942 22.2005 30.1248C22.0031 29.9783 21.7069 30.0252 21.5546 30.2244C21.2765 30.5881 21.3631 31.0338 21.7458 31.2782C22.3747 31.68 22.9489 31.5523 23.5892 31.0922C24.2219 30.6378 24.5517 29.9833 24.6645 29.2243C24.8083 28.2561 24.5857 27.3788 23.919 26.6475C23.7325 26.4429 23.4768 26.3019 23.2553 26.1285C22.8964 25.8476 22.4549 25.7845 22.037 25.657C21.878 25.6085 21.7193 25.5486 21.5737 25.4697C21.3726 25.3606 21.3156 25.203 21.3705 24.995C21.4349 24.7504 21.6144 24.5662 21.8164 24.575C21.9024 24.5787 21.9854 24.6511 22.0697 24.6924C22.0337 24.7613 21.9978 24.8303 21.9617 24.8991C21.9186 24.981 21.8329 25.0675 21.8417 25.1431C21.8564 25.2696 21.9903 25.2897 22.1024 25.2959C22.4874 25.3171 22.7332 24.9641 22.6188 24.5566C22.5505 24.313 22.392 24.1236 22.195 23.9866C21.8745 23.7635 21.5323 23.5713 21.1982 23.368C21.1503 23.3388 21.096 23.3202 21.0436 23.2962Z" fill="white"/>
<path fill-rule="evenodd" clip-rule="evenodd" d="M30.611 23.1355V23.6403C30.9126 23.713 31.1992 23.7821 31.5025 23.8553C31.3164 23.4633 31.0108 23.2538 30.611 23.1355ZM28.7653 28.2703V28.7228H29.6432V28.3356C29.344 28.3134 29.0552 28.2918 28.7653 28.2703ZM29.627 23.0366C29.1944 23.0451 28.7848 23.3454 28.7109 23.6971C29.0134 23.6644 29.3157 23.6317 29.627 23.598V23.0366ZM28.8143 34.1288C28.7781 34.5442 29.2763 35.1487 29.6206 35.132V34.2652C29.3427 34.2182 29.0783 34.1734 28.8143 34.1288ZM30.6318 35.101C31.2094 34.9543 31.9224 34.3327 31.907 34.0326C31.4882 34.1091 31.065 34.1865 30.6318 34.2657V35.101ZM27.8813 24.9218C27.4517 25.2722 27.119 25.6425 27.1676 26.2213C27.2013 26.6221 27.528 27.0429 27.8813 27.1504V24.9218ZM31.0428 28.9444C32.2681 29.5829 32.9029 30.6009 33.0799 31.9532C33.3343 31.6998 33.419 31.3999 33.4536 31.0769C33.5587 30.0975 32.7163 29.078 31.9406 28.8137C31.6227 28.7053 31.307 28.6737 31.0428 28.9444ZM28.7542 24.4921C28.7418 24.5322 28.7362 24.5419 28.7362 24.5518C28.7351 25.4406 28.7305 26.3296 28.7408 27.2182C28.7417 27.294 28.8262 27.4052 28.8993 27.4371C29.1279 27.5367 29.3746 27.5212 29.6246 27.4986V24.3425C29.3231 24.3943 29.0373 24.4434 28.7542 24.4921ZM28.7337 29.4668C28.7337 30.59 28.7268 31.6953 28.7432 32.8002C28.7451 32.9228 28.8546 33.0757 28.9591 33.1565C29.0808 33.2507 29.2479 33.2972 29.4026 33.3346C29.5923 33.3806 29.6352 33.3339 29.6352 33.1369C29.6354 31.9635 29.6353 30.7902 29.6349 29.6168C29.6349 29.5668 29.63 29.5168 29.6274 29.4668H28.7337ZM30.5969 24.3549C30.5969 24.4314 30.5968 24.4879 30.5969 24.5444C30.5975 25.1833 30.5979 25.8222 30.5985 26.4611C30.5989 26.8172 30.6012 27.1733 30.5981 27.5294C30.5974 27.6171 30.6176 27.6624 30.7159 27.6719C30.8561 27.6853 30.9944 27.719 31.1341 27.7397C31.251 27.757 31.3362 27.7231 31.413 27.6167C31.9953 26.8085 32.0278 25.8942 31.9362 24.9564C31.9173 24.7621 31.7999 24.6335 31.6043 24.5839C31.4676 24.5493 31.3331 24.5054 31.1955 24.4747C31.0037 24.4317 30.81 24.397 30.5969 24.3549ZM30.6096 33.3155C31.1028 33.3894 31.4876 33.3037 31.9992 33.0276C32.173 32.9338 32.274 32.7978 32.2871 32.6089C32.3575 31.5963 32.0794 30.7237 31.2337 30.0981C31.0495 29.9617 30.8337 29.8682 30.6096 29.7421V33.3155ZM30.7589 22.3864C31.5503 22.6141 32.0274 23.1196 32.3792 23.7679C32.4468 23.8925 32.5728 23.9291 32.7246 23.832C32.8352 23.7611 32.9199 23.6488 33.0129 23.5517C33.0374 23.5262 33.0438 23.4832 33.0686 23.4579C33.1325 23.3929 33.202 23.3333 33.2692 23.2715C33.2948 23.3735 33.3441 23.4761 33.341 23.5772C33.3345 23.7899 33.2858 24.0013 33.2809 24.2138C33.2711 24.6427 33.4184 25.0358 33.6002 25.4155C33.6396 25.4977 33.7115 25.5651 33.7719 25.6363C33.8414 25.7182 33.8953 25.8082 33.8048 25.8989C33.7192 25.9848 33.6147 25.956 33.5381 25.8805C33.4455 25.7892 33.3719 25.679 33.2825 25.5838C33.1511 25.444 33.0203 25.2989 32.7966 25.2706C32.8754 26.2447 32.6708 27.1459 32.1499 27.983C32.2792 28.0301 32.372 28.0607 32.4625 28.0974C33.9996 28.7218 34.7753 30.5597 34.1465 32.0928C33.9463 32.5809 33.62 32.9677 33.1843 33.2656C33.1321 33.3013 33.0872 33.3712 33.0717 33.4334C32.7907 34.5607 32.1121 35.3543 31.0601 35.8314C30.9201 35.8949 30.7611 35.9164 30.5971 35.9612C30.5664 36.2855 30.6798 36.5775 30.8573 36.8498C31.052 37.1488 31.3189 37.3752 31.6064 37.5801C31.6916 37.6408 31.7765 37.7033 31.8526 37.7745C31.8868 37.8065 31.8994 37.8618 31.9217 37.9065C31.8774 37.9285 31.8341 37.9667 31.7884 37.9699C31.5261 37.9876 31.2755 37.9267 31.0467 37.8053C30.8393 37.6951 30.6405 37.5664 30.4484 37.4308C30.2613 37.2987 30.0875 37.1476 29.904 37.0018C29.6212 37.3422 29.2197 37.5526 28.8231 37.7575C28.1341 38.1135 27.1834 37.869 26.81 37.2566C26.4742 36.7056 26.7445 36.0968 27.2523 35.8333C27.3798 35.7672 27.5688 35.7997 27.7258 35.8181C27.837 35.8312 27.8637 36.0024 27.7771 36.1008C27.7328 36.1512 27.677 36.1932 27.6211 36.2313C27.4868 36.3232 27.4515 36.448 27.4817 36.6015C27.564 37.0204 27.7355 37.1604 28.1637 37.1552C28.7332 37.1483 29.3144 36.6916 29.4772 36.1326C29.5096 36.0212 29.4395 36.0032 29.3724 35.9805C29.0714 35.8784 28.7894 35.7407 28.5658 35.5112C28.3877 35.3282 28.2257 35.1295 28.0622 34.9442C27.8405 34.9958 27.6115 35.0678 27.377 35.0997C26.84 35.1727 26.3621 34.7902 26.3135 34.2681C26.2912 34.029 26.5554 33.6549 26.7895 33.6175C26.8539 33.6072 26.931 33.6545 26.9949 33.689C27.0031 33.6934 26.9768 33.7869 26.9494 33.8279C26.8264 34.0119 26.9719 34.3442 27.2144 34.4241C27.4511 34.5019 27.6878 34.4034 27.7962 34.1819C27.9076 33.9544 27.8341 33.704 27.6193 33.5657C27.5629 33.5294 27.5103 33.4857 27.4617 33.4393C27.0983 33.0921 26.6751 32.8934 26.1637 32.9004C25.9507 32.9034 25.7618 32.9597 25.6043 33.1071C25.5891 33.1213 25.5727 33.1348 25.5552 33.1462C25.4509 33.2135 25.3327 33.2873 25.2321 33.1678C25.1222 33.0374 25.2474 32.9485 25.3293 32.8654C25.432 32.7611 25.5474 32.669 25.6477 32.5626C25.8793 32.3166 25.9989 32.0263 26.0027 31.683C26.0079 31.2271 25.9206 30.7993 25.6738 30.4106C25.6682 30.4018 25.6621 30.393 25.6584 30.3833C25.6251 30.2953 25.5393 30.2049 25.654 30.1182C25.7427 30.0512 25.8955 30.0785 25.971 30.1898C26.1645 30.4755 26.36 30.7613 26.5313 31.0605C26.8163 31.5578 27.13 32.0316 27.5494 32.4263C27.6272 32.4995 27.7358 32.5402 27.8302 32.596C27.8503 32.4983 27.8875 32.4008 27.8878 32.3032C27.8916 30.9622 27.8889 29.6212 27.893 28.2803C27.8934 28.1638 27.8613 28.1148 27.7482 28.0686C26.9902 27.7583 26.4528 27.2453 26.307 26.4057C26.183 25.6922 26.4549 25.1088 26.9563 24.6251C27.154 24.4344 27.3898 24.2815 27.6174 24.1247C27.6954 24.0709 27.7181 24.0249 27.7044 23.9353C27.6538 23.6053 27.3703 23.3357 27.0596 23.3307C26.7758 23.3261 26.6343 23.5469 26.7395 23.8097C26.7768 23.9028 26.8201 24.0441 26.7774 24.1077C26.6928 24.2341 26.5324 24.2066 26.4034 24.1544C26.1713 24.0604 26.0682 23.8597 26.034 23.6284C25.9541 23.0888 26.3463 22.6277 26.9069 22.5751C27.386 22.5302 27.7667 22.6999 28.0647 23.0706C28.0833 23.0938 28.1035 23.116 28.1285 23.145C28.3943 22.7734 28.7546 22.5397 29.1784 22.3623C28.9728 22.0843 28.7763 21.8103 28.4753 21.6497C28.2459 21.5272 27.9995 21.4348 27.7557 21.342C27.6511 21.302 27.5948 21.2563 27.6216 21.1384C27.6487 21.0195 27.7127 20.9511 27.8406 20.9647C27.8815 20.969 27.9233 20.9799 27.9612 20.9959C28.5539 21.2464 29.1772 21.3786 29.8126 21.4427C30.3618 21.4983 30.897 21.4091 31.4089 21.1925C31.8686 20.9979 32.344 20.8578 32.8418 20.8013C32.8988 20.7949 32.9613 20.7782 33.0123 20.7944C33.0498 20.8063 33.1024 20.8699 33.0966 20.9008C33.0743 21.0194 33.0328 21.1071 32.8757 21.1351C32.2427 21.2481 31.661 21.491 31.1723 21.9186C31.0266 22.0461 30.9127 22.2101 30.7589 22.3864Z" fill="white"/>
<rect opacity="0.01" x="15" y="15" width="30" height="30" fill="#FF0000"/>
</svg>
