<svg width="60" height="60" viewBox="0 0 60 60" fill="none" xmlns="http://www.w3.org/2000/svg">
<circle cx="30" cy="30" r="30" fill="#1428A0"/>
<mask id="mask0_906_1788" style="mask-type:luminance" maskUnits="userSpaceOnUse" x="4" y="23" width="53" height="14">
<path d="M4 23H56.64V37H4V23Z" fill="white"/>
</mask>
<g mask="url(#mask0_906_1788)">
<path d="M50.833 29.5749V30.5277H51.5018V31.4731C51.5039 31.5576 51.4993 31.6487 51.4848 31.7216C51.4582 31.8979 51.2909 32.1981 50.8161 32.1981C50.3442 32.1981 50.1799 31.8979 50.1514 31.7216C50.1395 31.6487 50.1343 31.5576 50.1343 31.4731V28.4872C50.1343 28.3816 50.1415 28.266 50.1638 28.1785C50.1963 28.0193 50.3371 27.7055 50.8126 27.7055C51.3118 27.7055 51.4364 28.0364 51.4649 28.1785C51.4837 28.2726 51.4848 28.4305 51.4848 28.4305V28.793H53.1282V28.5787C53.1282 28.5787 53.1356 28.3551 53.1157 28.1463C52.9922 26.9208 51.9836 26.533 50.8271 26.533C49.6686 26.533 48.6804 26.9244 48.5365 28.1463C48.5235 28.2581 48.5036 28.4591 48.5036 28.5787V31.3254C48.5036 31.4451 48.5075 31.5377 48.5296 31.7563C48.6369 32.9481 49.6686 33.3706 50.8225 33.3706C51.9836 33.3706 53.0082 32.9481 53.1173 31.7563C53.1366 31.5377 53.1386 31.4451 53.1412 31.3254V29.5749H50.833ZM39.5017 26.7088H37.8513V31.542C37.8539 31.6262 37.8513 31.7208 37.8368 31.7902C37.8024 31.9524 37.6651 32.2647 37.2098 32.2647C36.7603 32.2647 36.6194 31.9524 36.5875 31.7902C36.571 31.7208 36.5689 31.6262 36.571 31.542V26.7088H34.9212V31.392C34.9191 31.5127 34.9286 31.7593 34.9357 31.8239C35.0496 33.0443 36.0102 33.4405 37.2098 33.4405C38.4116 33.4405 39.3717 33.0443 39.4877 31.8239C39.4968 31.7593 39.5088 31.5127 39.5017 31.392V26.7088ZM24.3382 26.7088L23.515 31.8157L22.6922 26.7088H20.0301L19.889 33.242H21.5198L21.564 27.194L22.6861 33.242H24.3408L25.4639 27.194L25.5082 33.242H27.1432L26.9973 26.7088H24.3382ZM14.4819 26.7088L13.2732 33.242H15.0358L15.9467 27.194L16.8357 33.242H18.5862L17.3825 26.7088H14.4819ZM45.2693 31.9688L43.7325 26.7088H41.311V33.1739H42.9129L42.8199 27.7456L44.4702 33.1739H46.7926V26.7088H45.1803L45.2693 31.9688ZM30.452 28.4091C30.423 28.2801 30.4314 28.143 30.4464 28.0713C30.4931 27.8622 30.6334 27.6341 31.0378 27.6341C31.4147 27.6341 31.6356 27.8693 31.6356 28.2223V28.6218H33.2444V28.1665C33.2444 26.7588 31.9839 26.5377 31.0712 26.5377C29.9218 26.5377 28.9831 26.917 28.8117 27.9762C28.7663 28.2645 28.7551 28.5203 28.8272 28.8468C29.1068 30.1675 31.4032 30.5506 31.7365 31.3858C31.7953 31.5441 31.7785 31.7458 31.7485 31.8647C31.6986 32.082 31.5525 32.3007 31.1196 32.3007C30.7135 32.3007 30.4691 32.0669 30.4691 31.7147L30.4686 31.0877H28.737V31.5861C28.737 33.0303 29.8668 33.466 31.0837 33.466C32.2491 33.466 33.2117 33.0672 33.3661 31.9864C33.4398 31.428 33.3842 31.0642 33.3547 30.9272C33.0849 29.5726 30.6373 29.1652 30.452 28.4091ZM9.2303 28.3931C9.19871 28.2614 9.20608 28.1223 9.22368 28.0499C9.26825 27.8417 9.40944 27.6096 9.82093 27.6096C10.2026 27.6096 10.4273 27.8471 10.4273 28.203V28.6073H12.0549V28.1484C12.0549 26.7272 10.7751 26.5007 9.85252 26.5007C8.69346 26.5007 7.74638 26.8859 7.5731 27.9527C7.52568 28.2456 7.51755 28.5032 7.58609 28.8333C7.86863 30.169 10.1878 30.5552 10.5252 31.4004C10.5884 31.5576 10.5693 31.7593 10.5379 31.8828C10.4844 32.1024 10.3372 32.3242 9.90062 32.3242C9.49298 32.3242 9.24915 32.0864 9.24915 31.7293L9.24689 31.1006H7.49585V31.6002C7.49585 33.0609 8.64167 33.5001 9.86802 33.5001C11.047 33.5001 12.0152 33.0979 12.1732 32.0045C12.2517 31.441 12.1928 31.0742 12.1663 30.9351C11.8909 29.5639 9.41606 29.1578 9.2303 28.3931Z" fill="white"/>
</g>
</svg>
