<svg width="60" height="60" viewBox="0 0 60 60" fill="none" xmlns="http://www.w3.org/2000/svg">
<circle cx="30" cy="30" r="30" fill="#FF0A00"/>
<rect opacity="0.01" x="15" y="15" width="30" height="30" fill="#FF5A5A"/>
<path fill-rule="evenodd" clip-rule="evenodd" d="M27.4013 22.6729C27.4013 22.6729 26.6609 23.3342 26.434 23.842C25.8065 25.2464 25.9432 27.0017 26.8865 28.3948C27.8934 29.8817 28.7405 30.8916 29.4934 31.972C30.8554 33.9265 31.3972 36.01 29.7844 37.6738C29.6669 35.7164 28.0028 34.0028 28.0028 34.0028C28.0028 34.0028 24.9301 30.4192 24.7635 29.1647C23.0225 29.4317 21.2646 30.302 19.2587 31.5583C18.1252 32.4 16.0209 34.0033 17.5206 36.7448C19.0203 39.4863 24.6375 41.1606 27.3069 41.2258C28.3328 41.2509 29.9071 41.3975 31.6721 41.2878C34.4993 41.1121 37.8158 40.4641 40.1513 38.9992C43.9448 36.6197 43.7376 33.4133 40.7816 31.3492C39.5439 30.4849 38.3567 29.9848 37.2372 29.6317C36.5741 29.4226 35.2387 29.1647 35.2387 29.1647C35.2387 29.1647 35.6676 27.1809 34.2592 25.5114C32.8507 23.842 29.671 20.2479 30.4345 18C29.6001 18.2037 27.9961 20.9875 30.1265 24.2962C32.257 27.6049 33.2268 27.8997 33.579 29.6244C33.9311 31.3492 33.4101 33.1462 32.557 33.4262C32.8895 31.6947 31.7731 30.6629 31.3103 29.7542C30.8475 28.8456 27.9564 26.6263 27.5733 24.2962C27.4483 23.6162 27.4013 22.6729 27.4013 22.6729Z" fill="white"/>
</svg>
