<?xml version="1.0" encoding="UTF-8"?>
<svg fill="none" viewBox="0 0 1200 1200" xmlns="http://www.w3.org/2000/svg">
<g clip-path="url(#b)">
<path d="m600 1200c331.37 0 600-268.63 600-600s-268.63-600-600-600-600 268.63-600 600 268.63 600 600 600z" fill="#011841"/>
<g clip-path="url(#a)">
<path d="m117.34 524.37c45.106-0.157 90.212-0.157 135.41-0.157v10.679h-61.569v165.99h-14.093v-165.94h-59.593c-0.158-3.473-0.158-6.946-0.158-10.576z" fill="#fff"/>
<path d="m1083.3 385.88c-0.47 0.145-0.93 0.146-1.62 0.058-0.87-0.141-1.52-0.296-2.15-0.223-1.32 0.153-1.78-0.4-1.6-1.648 1.68-0.019 3.37-0.037 5.21-0.055 0.16 0.574 0.16 1.149 0.16 1.868z" fill="#3EC6E1"/>
<path d="m1077.8 384.04c-0.02 1.271 0.44 1.825 1.76 1.671 0.63-0.073 1.28 0.082 2.01 0.238 0.1 0.598 0.1 1.093 0.1 1.663-0.58 0.055-1.06 0.1-1.65 0.154-0.03 0.507-0.06 0.984-0.1 1.567-0.54 0.026-1.02 0.049-1.62 0.079v1.606c-0.62 0.028-1.09 0.05-1.61 0.073-0.05 0.537-0.09 0.969-0.14 1.508-0.45 0.061-0.92 0.125-1.5 0.204-0.06 0.447-0.12 0.922-0.2 1.533-0.41 0.02-0.84 0.042-1.55 0.061-1.61-0.198-1.86 0.537-1.7 1.631-0.5 0.032-0.99 0.065-1.59 0.105-0.06 0.471-0.12 0.949-0.19 1.528-0.57 0.054-1.16 0.111-1.86 0.178-0.03 0.546-0.06 1.086-0.11 1.765-0.47 0.087-0.98 0.18-1.55 0.285-0.05 0.426-0.09 0.857-0.15 1.396-0.45 0.065-0.92 0.133-1.5 0.216-0.05 0.44-0.11 0.921-0.18 1.507-0.45 0.056-0.93 0.116-1.51 0.189-0.06 0.45-0.12 0.925-0.19 1.505-0.46 0.054-0.93 0.11-1.52 0.181-0.06 0.453-0.11 0.922-0.18 1.489-1.05 0.054-2.04 0.106-3.13 0.162-0.06 0.477-0.12 0.948-0.19 1.527-0.45 0.054-0.93 0.111-1.51 0.18-0.05 0.461-0.1 0.937-0.17 1.517-0.47 0.046-0.95 0.092-1.52 0.148-0.04 0.503-0.08 0.982-0.12 1.568-0.51 0.025-0.98 0.048-1.56 0.076-0.04 0.541-0.07 1.017-0.11 1.578h-1.8c-0.1 0.578-0.19 1.089-0.3 1.705-0.47 0.022-0.95 0.045-1.49 0.07-0.04 0.638-0.07 1.181-0.09 1.517-1.68 0.836-3.24 1.611-4.97 2.474-0.01 0.258-0.04 0.737-0.07 1.345h-1.6c-0.03 0.608-0.05 1.087-0.07 1.597-0.55 0.045-0.98 0.081-1.52 0.126-0.06 0.452-0.13 0.928-0.2 1.515-0.43 0.053-0.91 0.112-1.49 0.185-0.06 0.44-0.11 0.916-0.18 1.509-0.43 0.045-0.9 0.097-1.47 0.159-0.06 0.457-0.12 0.936-0.19 1.516-0.57 0.051-1.16 0.104-1.86 0.167-0.05 0.508-0.11 1.028-0.17 1.604h-3.17c-0.06 0.524-0.12 0.994-0.19 1.571-0.45 0.057-0.93 0.117-1.5 0.19-0.06 0.565-0.11 1.153-0.17 1.85-0.48 0.049-0.96 0.098-1.53 0.157-0.05 0.485-0.09 0.962-0.15 1.549-0.48 0.03-0.96 0.059-1.54 0.095-0.04 0.522-0.08 0.998-0.12 1.576-0.53 0.041-1.01 0.078-1.57 0.121-0.04 0.527-0.09 1.001-0.13 1.514-0.53 0.056-0.96 0.102-1.48 0.157-0.05 0.473-0.11 0.955-0.17 1.518-1.06 0.45-2.94-0.492-3.09 1.73h-2.07c-0.09 0.579-0.18 1.095-0.27 1.657-0.47 0.039-0.9 0.075-1.44 0.121-0.06 0.451-0.13 0.926-0.21 1.511-0.43 0.055-0.9 0.116-1.48 0.19-0.06 0.448-0.12 0.924-0.2 1.505-0.45 0.053-0.92 0.11-1.5 0.179-0.05 0.464-0.1 0.941-0.17 1.519-0.47 0.045-0.95 0.089-1.53 0.143-0.02 0.624-0.05 1.217-0.09 1.931-0.51 0.024-0.98 0.047-1.56 0.075 0.03 2.707-2.14 1.178-3.41 1.788-0.02 0.402-0.04 0.878-0.07 1.458-0.55 0.03-1.02 0.056-1.6 0.087-0.03 0.556-0.05 1.033-0.07 1.585h-1.82c-0.1 0.57-0.19 1.082-0.29 1.696-0.48 0.022-0.95 0.044-1.52 0.069-0.02 0.577-0.04 1.053-0.07 1.567-0.54 0.044-0.97 0.08-1.514 0.124-0.062 0.45-0.128 0.924-0.209 1.509-0.435 0.061-0.909 0.128-1.492 0.21-0.049 0.447-0.102 0.922-0.168 1.52-0.463 0.021-0.891 0.041-1.601 0.068-1.679-0.264-1.789 0.582-1.682 1.618-0.498 0.033-0.996 0.066-1.582 0.106-0.057 0.592-0.113 1.183-0.179 1.881-0.481 0.044-0.956 0.088-1.536 0.141-0.035 0.509-0.068 0.987-0.108 1.568-0.54 0.035-1.014 0.066-1.516 0.098-0.071 0.563-0.131 1.037-0.198 1.566-0.644 0.037-1.189 0.069-1.826 0.106-0.057 0.496-0.111 0.973-0.178 1.558-0.451 0.051-0.927 0.106-1.515 0.173-0.052 0.455-0.106 0.928-0.172 1.501-0.488 0.044-0.964 0.088-1.532 0.14-0.039 0.516-0.075 0.995-0.121 1.601h-3.246c-0.031 0.594-0.056 1.067-0.086 1.652-0.55 0.026-1.027 0.049-1.6 0.076-0.026 0.562-0.048 1.038-0.074 1.605-0.576 0.027-1.055 0.049-1.569 0.073-0.044 0.541-0.079 0.975-0.122 1.509-0.494 0.077-1.012 0.158-1.589 0.247v1.805c-0.534 0.063-1.01 0.12-1.602 0.19-0.065 0.479-0.136 0.999-0.212 1.562-0.456 0.026-0.89 0.051-1.324 0.075 0.084 0.145 0.167 0.29 0.25 0.435-1.879 1.048-3.759 2.097-5.854 3.266-9e-3 0.202-0.03 0.682-0.053 1.2-0.542 0.043-0.976 0.078-1.517 0.122-0.062 0.453-0.126 0.929-0.206 1.514-0.433 0.055-0.908 0.116-1.489 0.191-0.057 0.448-0.117 0.924-0.192 1.506-0.45 0.053-0.926 0.109-1.505 0.177-0.049 0.467-0.099 0.944-0.16 1.525-0.483 0.042-0.96 0.083-1.538 0.132-0.036 0.511-0.069 0.988-0.109 1.569-0.53 0.025-1.006 0.048-1.577 0.076-0.031 0.557-0.057 1.034-0.09 1.646h-3.59c-0.041 0.678-0.074 1.22-0.114 1.88-0.449 0.065-0.921 0.134-1.51 0.219-0.057 0.418-0.122 0.893-0.202 1.477-0.436 0.056-0.911 0.117-1.491 0.191-0.055 0.451-0.113 0.928-0.185 1.511-0.45 0.053-0.926 0.11-1.51 0.18-0.051 0.459-0.103 0.934-0.167 1.513-0.482 0.043-0.959 0.086-1.537 0.137-0.033 0.513-0.064 0.989-0.102 1.564-0.556 0.028-1.03 0.052-1.547 0.078-0.048 0.541-0.085 0.973-0.127 1.449-1.011 0.614-2.874-0.215-3.071 1.829-0.552 0.026-1.103 0.052-1.762 0.083-0.077 0.497-0.157 1.015-0.256 1.653h-1.542c-0.033 0.594-0.059 1.068-0.09 1.634h-5.194c-0.069 0.668-0.129 1.251-0.206 1.991h-4.84c-0.063 0.619-0.112 1.094-0.173 1.691h-4.709c-1.011 3.381-3.825 0.717-5.596 2.17-7e-3 0.117-0.037 0.591-0.071 1.154h-4.81c-0.11 0.576-0.206 1.084-0.328 1.725h-4.891c-0.038 0.601-0.069 1.074-0.106 1.644h-5.08c-0.08 0.56-0.147 1.03-0.247 1.731-1.507 0-3.053 0-4.895-6e-3 -1.619-0.202-1.88 0.528-1.718 1.627h-4.932c-0.085 0.608-0.156 1.117-0.239 1.712h-5.136c-0.059 0.557-0.11 1.028-0.171 1.599h-5.236v-3.139c-0.607-0.074-1.078-0.132-1.693-0.208v-3.193c-0.602-0.047-1.074-0.083-1.728-0.133 0-0.44 0-0.86 6e-3 -1.565 0.19-1.598-0.526-1.872-1.627-1.702-0.033-0.498-0.067-0.996-0.106-1.589-0.466-0.059-0.945-0.12-1.562-0.199v-3.233c-3.288 0.297-1.688-2.186-2.198-3.632-0.426-0.049-0.9-0.104-1.514-0.176v-3.204c-0.602-0.044-1.075-0.079-1.653-0.121-0.047-0.506-0.091-0.978-0.143-1.538-0.517-0.036-0.998-0.07-1.587-0.112v-3.242c-0.571-0.05-1.044-0.091-1.658-0.144v-3.221c-0.609-0.05-1.083-0.089-1.683-0.139v-3.573c-0.589-0.034-1.065-0.061-1.71-0.097 0-0.475 0-0.898-1e-3 -1.605-0.01-0.752-0.019-1.22-6e-3 -1.831 0.326-1.54-0.545-1.686-1.601-1.782-0.047-0.663-0.08-1.194-0.09-1.867 0.327-1.57-0.614-1.619-1.617-1.746-0.032-0.578-0.052-1.022-0.059-1.611 0.293-1.548-0.569-1.681-1.638-1.745-0.38-0.736-0.739-1.333-1.097-1.93-0.164 0.075-0.327 0.151-0.49 0.226-0.054-0.491-0.108-0.982-0.147-1.614 0.306-1.554-0.547-1.694-1.623-1.734-0.042-0.577-0.069-1.021-0.073-1.607 0.289-1.511-0.485-1.744-1.615-1.747-0.064-0.576-0.103-1.02-0.108-1.6 0.391-1.707-0.653-1.896-1.806-2.114-0.017-0.463-0.023-0.8 0.047-1.244 0.152-0.642 0.228-1.179 0.33-1.904h4.524c1.068-2.977 3.569-0.943 5.237-2.005 0.094-0.306 0.248-0.805 0.431-1.398 1.066 0 2.067 0 3.209 0.016 1.542 0.302 1.681-0.562 1.773-1.62 1.193-0.014 2.237-0.014 3.157-0.014 0.993-3.155 3.608-0.864 5.243-2.099 0.06-0.247 0.171-0.709 0.274-1.136 1.368-0.153 2.634-0.28 3.894-0.448 0.303-0.04 0.828-0.188 0.846-0.336 0.172-1.402 1.24-0.952 2.045-1.069 0.977-0.142 2.613-0.048 2.807-0.525 0.732-1.805 2.247-1.038 3.378-1.374 0.647-0.192 1.398-0.035 2.203-0.035-0.117-1.421 0.487-1.804 1.586-1.689 0.605 0.064 1.224-0.014 1.978-0.023 1.487 0.253 1.646-0.578 1.748-1.614 1.19-0.018 2.23-0.018 3.134-0.018 1.011-3.181 3.6-0.87 5.242-2.1 0.081-0.256 0.235-0.753 0.42-1.344 1.068 0 2.065 0 3.204 0.016 1.569 0.305 1.656-0.591 1.74-1.632 1.147-0.036 2.146-0.062 3.286-0.066 1.53 0.312 1.689-0.538 1.78-1.6 1.127-0.031 2.108-0.05 3.237-0.054 0.677-0.01 1.208-0.035 1.813-0.064 0.038-0.619 0.067-1.102 0.249-1.595 1.086-0.011 2.018-0.011 3.017-0.011 0.139-0.611 0.243-1.071 0.343-1.509 1.357-0.157 2.616-0.279 3.866-0.464 0.336-0.049 0.66-0.262 0.961-0.445 0.532-0.324 1.011-0.746 1.567-1.014 1.274-0.614 3.333 0.638 3.935-1.667 0.036-0.137 0.6-0.174 0.922-0.192 0.775-0.042 1.551-0.046 2.469-0.054 1.558 0.297 1.62-0.627 1.751-1.631 1.14-0.03 2.133-0.051 3.267-0.063 1.507 0.282 1.657-0.567 1.77-1.604 1.194-0.014 2.237-0.014 3.195-0.014 0.229-0.715 0.375-1.169 0.564-1.756h4.532c0.154-0.611 0.27-1.073 0.427-1.699h4.616c0.184-0.653 0.313-1.113 0.475-1.69 1.067 0 2.069 0 3.212 0.021 1.536 0.306 1.692-0.543 1.769-1.611 1.127-0.039 2.107-0.064 3.235-0.066 0.678 0.022 1.21 0.022 1.828 0.022 0.031-0.695 0.052-1.181 0.227-1.676 1.091-9e-3 2.027-9e-3 3.025-9e-3 0.148-0.604 0.262-1.065 0.372-1.516 1.242-0.154 2.396-0.281 3.544-0.447 0.414-0.06 1.149-0.173 1.168-0.33 0.152-1.262 1.11-1.021 1.882-1.115 1.096-0.134 2.196-0.238 3.409-0.368-0.046-1.438 0.865-1.654 2.055-1.536 0.494 0.049 1-0.015 1.642-0.017 1.558 0.296 1.602-0.647 1.754-1.633 1.14-0.028 2.132-0.049 3.267-0.059 1.538 0.286 1.659-0.587 1.759-1.626 1.197-0.012 2.243-0.012 3.224-0.012 0.213-0.697 0.352-1.153 0.532-1.741h4.551c0.152-0.609 0.267-1.071 0.414-1.658h4.57c0.2-0.63 0.36-1.129 0.56-1.752h4.51c0.18-0.609 0.32-1.068 0.46-1.536 0.64-0.044 1.19-0.081 1.9-0.095 1.12 0.023 2.09 0.023 3.21 0.023 0-0.704 0-1.187 0.14-1.679 0.6-0.031 1.06-0.052 1.66-0.044 1.29-0.326 3.18 0.657 3.36-1.678 0.6-0.021 1.06-0.045 1.66-0.031 1.75 0.4 1.97-0.618 2.15-1.837 1.03-0.017 1.91-0.031 2.88 0.035 1.78 0.575 1.99-0.461 2.14-1.734 1.14-0.029 2.13-0.051 3.26-0.061 1.57 0.297 1.62-0.635 1.74-1.638 1.15-0.027 2.15-0.048 3.29-0.054 1.55 0.306 1.66-0.582 1.76-1.618 1.45-0.338 3.45 0.955 3.74-1.735h4.59c0.13-0.604 0.23-1.067 0.38-1.703h4.61c0.19-0.658 0.33-1.117 0.46-1.582 1.09-0.049 2.09-0.095 3.23-0.113 1.54 0.314 1.71-0.515 1.75-1.603 0.69-0.048 1.24-0.083 1.93-0.085 0.51 0.019 0.88 5e-3 1.39 0.01 0.66 0.018 1.18 0.018 1.83 0.018 0-0.697 0-1.175 0.14-1.664 0.6-0.044 1.07-0.076 1.67-0.069 1.14-0.162 2.74-0.068 3.02-0.627 0.52-1.056 1.18-1.05 1.95-0.962 1.55 0.174 2.16-0.483 2.15-1.961 0.47 0.011 0.81 0.014 1.24 0.087 0.6 0.015 1.11-0.039 1.76-0.092 0.37 0 0.64 0.084 0.8-0.019 0.38-0.255 0.7-0.596 1.04-0.903-0.33-0.257-0.64-0.591-1.01-0.746-0.28-0.114-0.66 6e-3 -1.13 7e-3 -0.6-4e-3 -1.06 8e-3 -1.67 1e-3 -1.56-0.278-1.65 0.589-1.69 1.629-2.48 0.107-4.8 0.261-7.13 0.305-1.07 0.02-1.14 0.616-1.24 1.406-1.17 0.027-2.17 0.054-3.32 0.048-0.62-0.02-1.1-6e-3 -1.72-0.012-0.66-0.02-1.19-0.02-1.79-0.02-0.03 0.687-0.06 1.168-0.23 1.654-1.73 0.094-3.3 0.183-4.97 0.187-1.12 0.011-2.14 0.105-3.14 0.199-0.08 0.64-0.13 1.081-0.33 1.532-1.26 0.027-2.37 0.043-3.63 0.05-1.11-0.01-2.06-0.01-3.04-0.01-0.09 0.705-0.15 1.178-0.36 1.657-1.16 0.024-2.16 0.043-3.31 0.048-1.12-0.012-2.09-0.012-3.09-0.012-0.08 0.685-0.14 1.165-0.34 1.648-1.7 0.021-3.24 0.04-4.95 0.045-1.22-0.014-2.29-0.014-3.41-0.014-0.06 0.723-0.1 1.201-0.29 1.681-1.16 0.018-2.18 0.034-3.34 0.033-1.13-0.016-2.1-0.016-3.13-0.016-0.05 0.68-0.08 1.163-0.27 1.652-1.15 0.028-2.15 0.051-3.31 0.053-1.23-0.02-2.3-0.02-3.44-0.02-0.06 0.683-0.1 1.162-0.29 1.641-1.71 0.023-3.26 0.047-4.97 0.051-1.12-0.02-2.09-0.02-3.13-0.02-0.05 0.697-0.08 1.18-0.26 1.669-1.16 0.034-2.17 0.061-3.327 0.061-0.761-0.033-1.374 5e-3 -1.978-0.053-1.294-0.126-1.699 0.509-1.69 1.685-1.177 0.032-2.199 0.065-3.373 0.065-1.119-0.034-2.086-0.034-3.161-0.034-0.037 0.646-0.064 1.122-0.243 1.608-1.717 0.115-3.284 0.221-4.947 0.245-1.1-7e-3 -2.103 0.066-3.139 0.142-0.09 0.622-0.159 1.096-0.375 1.575-1.245 0.023-2.343 0.041-3.594 0.049-1.112-0.01-2.072-0.01-3.063-0.01-0.09 0.697-0.151 1.174-0.364 1.652-1.699 0.02-3.245 0.039-4.946 0.046-1.108-0.011-2.062-0.011-3.058-0.011-0.09 0.689-0.152 1.16-0.363 1.64-1.256 0.03-2.364 0.052-3.624 0.059-1.115-0.014-2.077-0.014-3.083-0.014-0.071 0.696-0.119 1.176-0.323 1.657-2.187 2e-3 -4.221 2e-3 -6.262 2e-3 -0.213 0.652-0.374 1.146-0.568 1.741-1.715 0-3.368 0-5.177-0.017-1.118-0.017-2.082-0.017-3.113-0.017-0.049 0.705-0.083 1.186-0.269 1.671-1.162 0.026-2.173 0.048-3.337 0.049-1.123-0.021-2.092-0.021-3.137-0.021-0.05 0.672-0.085 1.154-0.274 1.641-1.7 0.033-3.246 0.061-4.946 0.063-0.764-0.026-1.377 0.018-1.982-0.035-1.279-0.112-1.713 0.503-1.707 1.693-1.171 0.031-2.187 0.058-3.357 0.052-1.127-0.034-2.099-0.034-3.174-0.034-0.034 0.659-0.059 1.14-0.235 1.635-1.72 0.106-3.289 0.199-4.955 0.207-2.465-0.319-3.087-3e-3 -3.393 1.513-1.283 0.077-2.422 0.156-3.656 0.154-1.12 9e-3 -2.144 0.1-3.15 0.19-0.075 0.649-0.127 1.091-0.325 1.544-1.146 0.03-2.145 0.048-3.297 0.057-0.694-8e-3 -1.244 0.059-1.773-0.02-1.332-0.199-1.901 0.361-1.965 1.669-1.607 0.013-3.064 0.101-4.512 0.017-1.249-0.073-2.161 0.145-2.209 1.73-1.678 0-3.239 0-4.955-0.014-1.221-0.014-2.288-0.014-3.407-0.014-0.06 0.712-0.099 1.191-0.291 1.67-1.165 0.019-2.179 0.036-3.344 0.037-1.121-0.017-2.089-0.017-3.118-0.017-0.055 0.682-0.094 1.165-0.287 1.65-1.703 0.024-3.254 0.047-4.958 0.049-1.122-0.02-2.089-0.02-3.133-0.02-0.046 0.697-0.078 1.178-0.266 1.665-1.934 0.024-3.712 8e-3 -5.486 0.081-0.435 0.019-1.206 0.296-1.229 0.516-0.13 1.275-1.004 1.087-1.822 1.1-1.109 0.018-2.219 0.051-3.46 0.05-0.623 0.06-1.115 0.149-1.744 0.249-1.198-0.129-1.669 0.319-1.666 1.393-1.264 0.023-2.375 0.043-3.641 0.033-1.134-0.031-2.112-0.031-3.174-0.031-0.032 0.702-0.054 1.191-0.226 1.684-1.177 0.088-2.205 0.172-3.385 0.253-1.112-4e-3 -2.072-4e-3 -3.065-4e-3 -0.094 0.693-0.159 1.169-0.375 1.649-1.924 0.025-3.698 0.027-5.471 0.084-0.404 0.013-1.111 0.144-1.154 0.338-0.314 1.405-1.492 1.123-2.382 1.267-0.922 0.148-1.879 0.082-2.82 0.11h-1.918c-0.063-0.555-0.117-1.032-0.184-1.621-0.448-0.051-0.922-0.104-1.498-0.168-0.042-0.451-0.086-0.928-0.14-1.51-0.461-0.056-0.937-0.114-1.517-0.185-0.055-0.45-0.113-0.925-0.183-1.504-0.456-0.052-0.932-0.107-1.517-0.174-0.046-0.464-0.095-0.94-0.125-1.244-1.647-0.815-3.18-1.573-4.946-2.445-8e-3 -0.123-0.042-0.607-0.083-1.198-0.528-0.059-1.046-0.117-1.629-0.182v-1.778c-0.531-0.066-1.005-0.126-1.584-0.199-0.054-0.449-0.112-0.924-0.183-1.505-0.456-0.052-0.931-0.106-1.508-0.171-0.049-0.472-0.099-0.948-0.16-1.536-0.597-0.036-1.184-0.072-1.876-0.113-0.033-0.533-0.062-1.007-0.099-1.609h-3.275c-0.051-0.598-0.091-1.073-0.137-1.607-0.486-0.047-0.914-0.088-1.448-0.14-0.072-0.462-0.147-0.936-0.24-1.522-0.426-0.055-0.9-0.117-1.478-0.192-0.052-0.461-0.105-0.937-0.17-1.514-0.48-0.045-0.957-0.089-1.539-0.143-0.036-0.497-0.07-0.973-0.112-1.556-0.524-0.032-1-0.062-1.583-0.098-0.026-0.536-0.049-1.011-0.076-1.588-0.559-0.028-1.033-0.052-1.586-0.08-0.033-0.635-0.062-1.181-0.099-1.874h-3.509c-0.084-0.597-0.149-1.063-0.232-1.653-0.413-0.06-0.883-0.128-1.458-0.211-0.06-0.444-0.125-0.92-0.202-1.492-0.455-0.051-0.933-0.105-1.516-0.17-0.048-0.454-0.098-0.93-0.16-1.511-0.463-0.053-0.938-0.108-1.517-0.175-0.049-0.468-0.099-0.943-0.16-1.522-0.482-0.044-0.959-0.088-1.543-0.141-0.036-0.501-0.07-0.977-0.115-1.615-0.478 0-0.905 0-1.476-0.162 0.095-1.622-0.854-1.573-1.829-1.49-0.495-0.033-0.989-0.067-1.571-0.106-0.056-0.497-0.109-0.974-0.173-1.541-0.518-0.027-0.997-0.051-1.539-0.079v-1.848c0.455-0.076 0.971-0.163 1.613-0.271v-1.507h4.892c0.087-0.582 0.163-1.094 0.253-1.698h3.146c0.038-0.68 0.071-1.269 0.102-1.826 1.731-0.09 3.402-0.178 5.209-0.272 0.081-0.441 0.174-0.951 0.285-1.559h4.756c0.087-0.599 0.162-1.114 0.248-1.705h3.128c0.073-0.55 0.136-1.021 0.22-1.654h4.891c0.033-0.63 0.058-1.104 0.09-1.707h3.601c0.029-0.599 0.052-1.076 0.08-1.673h4.949c0.033-0.587 0.06-1.059 0.093-1.629h4.808c0.101-0.594 0.187-1.108 0.294-1.739h0.821c85.225 3e-3 170.45 6e-3 255.83 0.032z" fill="#62D0E4"/>
<path d="m644.98 683.89v3.261c-0.598 0.055-1.072 0.098-1.684 0.153v5.254c-0.602 0.03-1.077 0.054-1.635 0.082v4.826c-0.579 0.095-1.088 0.179-1.707 0.281-0.027 0.469-0.054 0.944-0.085 1.488h-48.166v-5.252c0.465-0.022 0.941-0.045 1.513-0.072v-3.141c0.587-0.109 1.095-0.203 1.677-0.311v-5.095c0.567-0.09 1.078-0.172 1.716-0.273v-4.885h1.694v-3.307c0.691-0.038 1.232-0.068 1.931-0.106v-4.842c0.65-0.094 1.164-0.168 1.77-0.256v-5.131c0.566-0.077 1.036-0.142 1.686-0.23 0-0.97 0-1.959 0.163-3.1 1.618 0.076 1.594-0.842 1.469-1.838v-3.246c0.581-0.063 1.054-0.115 1.648-0.179v-5.052c0.601-0.133 1.109-0.246 1.744-0.387 0-0.75-0.151-1.56 0.041-2.277 0.216-0.81 0.777-1.521 1.122-2.303 0.231-0.521 0.416-1.083 0.495-1.644 0.084-0.594 0.019-1.209 0.019-1.91 0.547-0.062 1.02-0.116 1.622-0.184v-4.863c0.587-0.055 1.06-0.099 1.575-0.148 0.141-1.124 0.281-2.245 0.624-3.494 1.661 0.098 1.631-0.824 1.509-1.818v-3.253c0.585-0.063 1.059-0.115 1.674-0.182v-4.893c0.605-0.029 1.078-0.051 1.721-0.081 0-1.157 0-2.258 0.163-3.511 1.616 0.082 1.599-0.832 1.472-1.831v-3.247c0.592-0.059 1.066-0.106 1.676-0.167v-4.907c0.598-0.042 1.069-0.075 1.724-0.121 0-1.014 0-2.001 0.164-3.14 1.991 0.074 1.444-1.232 1.467-2.17v-3.258c0.567-0.055 1.042-0.101 1.648-0.16v-4.87c0.589-0.061 1.062-0.109 1.756-0.181 0-0.956 0-1.941 0.16-3.086 1.57 0.019 1.573-0.892 1.487-1.871 1e-3 -0.558 0.056-1.122-6e-3 -1.673-0.16-1.424 0.119-2.399 2.006-1.902v-5.067c0.594-0.041 1.067-0.074 1.716-0.119 0-1.022 0-2.011 0.162-3.149 1.63 0.085 1.558-0.89 1.5-1.853v-3.258c0.568-0.043 1.042-0.079 1.636-0.125v-5.237c0.583-0.052 1.055-0.095 1.734-0.155 0-0.972 0-1.954 0.16-3.096 1.57 0.022 1.573-0.891 1.492-1.87v-3.252c0.583-0.053 1.056-0.097 1.641-0.15v-5.252c0.615-0.053 1.129-0.097 1.735-0.148 0-1.038 0-1.975 0.162-3.075 1.58 0.01 1.562-0.933 1.511-1.901v-3.265c0.661-0.03 1.247-0.056 1.979-0.089v-4.932c0.611-0.035 1.083-0.061 1.716-0.097 0-1.157 0-2.258 0.163-3.507 1.646 0.092 1.549-0.907 1.507-1.863v-3.146c0.515-0.094 1.024-0.186 1.634-0.296v-4.734c0.595-0.101 1.107-0.188 1.728-0.294 0-1.09 0-2.141 0.141-3.309 2.235 0.486 1.278-1.196 1.531-1.972v-1.566h48.276v3.252c0.601 0.036 1.075 0.064 1.644 0.098v3.48c0.602 0.094 1.115 0.174 1.715 0.269v4.798c0.557 0.06 1.03 0.111 1.649 0.178v4.881c0.604 0.054 1.077 0.096 1.693 0.151v3.578c0.606 0.034 1.078 0.061 1.703 0.096v4.918h1.932v4.93c0.635 0.096 1.147 0.174 1.738 0.263v3.467c0.592 0.076 1.11 0.143 1.689 0.217v4.811c0.574 0.077 1.087 0.145 1.682 0.224v4.825c0.554 0.065 1.027 0.121 1.626 0.192v3.217c0.568 0.088 1.031 0.16 1.649 0.256v5.039c0.611 0.073 1.082 0.129 1.708 0.203v4.868c0.609 0.058 1.082 0.103 1.69 0.16v3.254c0.593 0.047 1.062 0.084 1.685 0.134v4.957c1.582-0.24 2.173 0.368 2.035 1.826-0.104 1.1-0.021 2.217-0.021 3.445 0.601 0.04 1.075 0.072 1.686 0.113v3.268c0.604 0.033 1.076 0.059 1.645 0.091v4.813c0.601 0.096 1.115 0.178 1.712 0.273v5.141c0.559 0.067 1.032 0.123 1.648 0.197v3.187c0.606 0.057 1.08 0.102 1.692 0.16v4.899c0.599 0.043 1.071 0.077 1.645 0.118v4.787c0.602 0.096 1.117 0.179 1.707 0.274v3.435c0.577 0.092 1.093 0.175 1.686 0.27v4.795c0.583 0.082 1.095 0.154 1.694 0.239v4.834c0.67 0.055 1.255 0.103 1.951 0.16v3.334c3.33 0.81 0.95 3.474 2.038 5.218 0.258 0.041 0.772 0.121 1.37 0.215v4.802c0.561 0.069 1.033 0.127 1.648 0.203v3.617c0.619-0.115 1.067-0.198 1.649-0.305v5.192c0.64 0.083 1.152 0.15 1.748 0.227v4.833c0.558 0.061 1.03 0.113 1.649 0.182v3.558c0.611 0.034 1.084 0.061 1.652 0.093v4.82c0.593 0.1 1.106 0.187 1.705 0.289v4.798c0.674 0.056 1.26 0.105 1.978 0.165v3.042c3.387 0.802 0.812 3.548 2.135 5.211 0.172 0.014 0.651 0.053 1.249 0.103v5.222c0.575 0.072 1.047 0.131 1.716 0.215 0 0.958 0 1.945 5e-3 3.225-0.254 1.662 0.604 1.79 1.619 1.743v3.567h-49.927c0-0.958 0-1.938 6e-3 -3.211 0.203-1.611-0.58-1.841-1.634-1.773v-2.996c-3.33-0.97-0.877-3.702-2.072-5.583-0.168-0.03-0.678-0.121-1.282-0.229v-4.751c-0.585-0.098-1.095-0.182-1.697-0.283v-4.804c-0.674-0.06-1.259-0.112-1.988-0.176v-5.202c-0.596-0.058-1.067-0.104-1.634-0.16-0.054-0.496-0.105-0.973-0.165-1.524h-59.308c0 1.144-0.085 2.254 0.022 3.344 0.141 1.448-0.35 2.14-1.973 1.856v4.827c-0.598 0.125-1.105 0.231-1.738 0.364 0 0.985 0 1.983-0.163 3.133-1.617-0.075-1.593 0.843-1.468 1.838zm20.426-63.092c-0.02 1.017-0.039 2.035-0.335 3.045l-1.335 0.894c0.538 0.253 1.077 0.505 1.562 1.035-0.487 0.054-0.974 0.108-1.586 0.175v4.814c-1.586 0.194-1.586 0.194-1.5 1.372h35.635v-4.527c-0.564-0.07-1.037-0.129-1.65-0.204v-5.175c-0.741-0.066-1.327-0.118-1.986-0.177v-4.812c-0.586-0.102-1.096-0.19-1.644-0.285 0-1.444 0.081-2.791-0.038-4.119-0.052-0.578-0.506-1.124-0.793-1.676-0.271-0.522-0.757-1.016-0.805-1.553-0.12-1.33-0.039-2.679-0.053-4.02-1e-3 -0.153-0.091-0.305-0.137-0.452-0.504-0.06-0.977-0.115-1.534-0.18v-4.823c-0.596-0.079-1.108-0.147-1.698-0.226v-4.844c-0.594-0.053-1.11-0.099-1.688-0.151v-5.172c-0.578-0.089-1.091-0.169-1.671-0.258v-4.862c-0.588-0.044-1.099-0.083-1.678-0.126v-4.831c-0.586-0.07-1.098-0.131-1.633-0.195 0.688-2.049-0.651-1.479-1.719-1.601v5.009c-0.601 0.047-1.076 0.084-1.695 0.132v4.865c-0.629 0.077-1.101 0.135-1.669 0.205v5.144c-0.577 0.041-1.048 0.075-1.633 0.116v4.894c-0.631 0.101-1.143 0.184-1.731 0.278v4.746c-0.602 0.106-1.112 0.197-1.69 0.299v4.816c-0.563 0.033-1.036 0.061-1.651 0.097v5.217c-0.625 0.079-1.097 0.138-1.452 0.182-0.185 1.754-0.356 3.374-0.806 4.956-1.468-0.262-1.488 0.644-1.387 1.978z" fill="#62D0E4"/>
<path d="m951.54 666.42c4.583 5e-3 9.166 0.039 13.747-0.024 0.579-8e-3 1.139-0.553 1.728-0.802 0.97-0.408 1.957-0.778 3.201-1.268 0.016-0.115 0.089-0.637 0.17-1.225h3.125c0.077-0.524 0.145-0.993 0.231-1.579 0.419-0.057 0.893-0.123 1.477-0.203 0.055-0.435 0.115-0.911 0.189-1.489 0.453-0.054 0.931-0.112 1.549-0.187v-3.205c0.602-0.044 1.076-0.078 1.681-0.121v-3.583c0.597-0.029 1.071-0.053 1.673-0.082v-6.637c0.589-0.045 1.063-0.081 1.681-0.129v-75.296h43.226v128.63h-41.442v-15.04c-1.303-0.328-1.303-0.328-1.423 2.934-0.494 0.067-1.009 0.138-1.619 0.221-0.023 0.508-0.045 0.983-0.071 1.538-0.583 0.029-1.062 0.052-1.579 0.077-0.047 0.652-0.086 1.194-0.132 1.827-0.502 0.092-0.972 0.178-1.547 0.283-0.034 0.45-0.07 0.927-0.114 1.513h-1.522c0.047 2.826-2.163 1.242-3.41 1.883-0.027 0.39-0.059 0.866-0.098 1.43h-1.8c-0.104 0.59-0.194 1.102-0.302 1.715h-3.091c-0.065 0.574-0.118 1.05-0.187 1.66h-3.202c-0.058 0.593-0.105 1.066-0.166 1.687h-4.888c-0.038 0.61-0.068 1.084-0.107 1.708-9.759 0-19.469 0-29.331-0.163 0.081-1.64-0.905-1.556-1.867-1.503h-4.811c-0.099-0.531-0.194-1.041-0.306-1.64h-3.416c-0.091-0.589-0.171-1.101-0.264-1.702h-3.121c-0.071-0.556-0.13-1.028-0.151-1.19-1.7-0.892-3.209-1.684-4.928-2.587-0.022-0.2-0.073-0.675-0.138-1.269h-1.625v-1.644c-0.593-0.032-1.066-0.057-1.631-0.088v-3.532c-0.672-0.061-1.255-0.114-1.952-0.177-0.051-0.471-0.103-0.946-0.166-1.527-0.462-0.057-0.929-0.115-1.447-0.179-0.075-1.074-0.144-2.064-0.221-3.177-0.486-0.039-0.962-0.078-1.565-0.127v-4.874c-0.583-0.068-1.056-0.123-1.676-0.194v-5.22c-0.608-0.042-1.081-0.074-1.691-0.116v-9.967c-0.602-0.047-1.074-0.084-1.628-0.127v-91.025h43.095v73.322c1.942 0.537 1.761 2.081 1.784 3.453 0.049 2.901 0.015 5.803 0.015 8.82 0.51 0.087 1.02 0.173 1.622 0.275v3.112c0.559 0.072 1.03 0.133 1.612 0.209 0.06 0.445 0.123 0.918 0.2 1.487 0.467 0.042 0.947 0.085 1.532 0.138v1.533c0.569 0.068 1.045 0.125 1.632 0.195 0.055 0.453 0.113 0.929 0.195 1.595 0.409 0 0.831 0 1.403 0.159-0.04 1.583 0.886 1.577 1.867 1.498z" fill="#62D0E4"/>
<path d="m776.76 575.2v-4.603h112.94v34.41c-0.469 0.027-0.942 0.054-1.525 0.088-0.036 0.527-0.069 1.003-0.11 1.586-0.529 0.03-1.005 0.056-1.586 0.088-0.026 0.552-0.047 1.028-0.074 1.599-0.571 0.027-1.05 0.049-1.61 0.075v1.825c-0.557 0.075-1.032 0.138-1.607 0.215-0.055 0.453-0.113 0.931-0.184 1.515-0.453 0.051-0.929 0.105-1.507 0.17-0.05 0.468-0.101 0.946-0.164 1.53-0.47 0.042-0.947 0.086-1.531 0.138-0.043 0.492-0.085 0.967-0.135 1.543-0.524 0.043-1.002 0.083-1.578 0.131-0.03 0.53-0.056 1.005-0.086 1.542-0.531 0.043-0.964 0.079-1.498 0.122-0.064 0.456-0.13 0.933-0.211 1.515-0.562 0.059-1.15 0.121-1.847 0.194-0.049 0.467-0.1 0.943-0.161 1.523-0.482 0.044-0.958 0.088-1.54 0.142-0.036 0.503-0.069 0.98-0.111 1.564-0.53 0.029-1.006 0.054-1.586 0.085-0.025 0.555-0.047 1.031-0.073 1.6-0.571 0.027-1.047 0.049-1.613 0.076v1.825c-0.558 0.076-1.033 0.14-1.607 0.218-0.055 0.452-0.112 0.931-0.182 1.514-0.456 0.05-0.932 0.102-1.51 0.165-0.048 0.474-0.098 0.951-0.158 1.535-0.476 0.041-0.953 0.082-1.532 0.132-0.044 0.499-0.086 0.976-0.137 1.56-0.506 0.032-0.983 0.063-1.568 0.101-0.032 0.534-0.06 1.012-0.094 1.595-0.539 0.024-1.015 0.045-1.578 0.071-0.035 0.566-0.065 1.042-0.098 1.555-0.539 0.052-0.971 0.094-1.505 0.146-0.064 0.452-0.131 0.928-0.212 1.509-0.563 0.057-1.151 0.118-1.847 0.19-0.046 0.473-0.092 0.949-0.148 1.531-0.493 0.041-0.969 0.08-1.553 0.128-0.032 0.514-0.063 0.99-0.1 1.571-0.541 0.028-1.017 0.053-1.561 0.081-0.041 0.632-0.076 1.176-0.118 1.827-0.461 0.066-0.936 0.134-1.513 0.218-0.061 0.48-0.127 1.005-0.199 1.569-0.485 0.032-0.92 0.061-1.465 0.096-0.063 0.456-0.13 0.928-0.211 1.511-0.433 0.054-0.909 0.113-1.489 0.186-0.053 0.453-0.108 0.93-0.175 1.512-0.454 0.049-0.931 0.1-1.513 0.163-0.053 0.463-0.108 0.939-0.176 1.519-0.469 0.05-0.945 0.101-1.527 0.163-0.041 0.483-0.082 0.96-0.132 1.544-0.512 0.033-0.987 0.064-1.549 0.101-0.038 0.547-0.072 1.022-0.11 1.562-0.638 0.041-1.183 0.075-1.839 0.116-0.063 0.452-0.13 0.926-0.212 1.512-0.428 0.056-0.903 0.118-1.485 0.194-0.057 0.445-0.118 0.921-0.192 1.503-0.45 0.054-0.926 0.111-1.508 0.18-0.049 0.463-0.1 0.94-0.162 1.517-0.481 0.046-0.959 0.092-1.541 0.148-0.031 0.614-0.062 1.205-0.098 1.917-0.512 0.023-0.988 0.044-1.577 0.071-0.038 0.53-0.072 1.005-0.114 1.586-0.528 0.027-1.004 0.052-1.615 0.083v1.641h-1.642c-0.032 0.61-0.058 1.086-0.085 1.598-0.543 0.047-0.977 0.084-1.517 0.131-0.059 0.454-0.121 0.93-0.163 1.261-0.644 0.388-1.23 0.742-1.816 1.095l0.243 0.558h66.596v32.826h-123.58v-34.394c0.489-0.039 0.964-0.078 1.547-0.125 0.026-0.525 0.049-1 0.078-1.57 0.566-0.029 1.042-0.053 1.601-0.081 0.029-0.577 0.053-1.052 0.082-1.61h1.84c0.071-0.55 0.132-1.025 0.207-1.605 0.449-0.056 0.925-0.115 1.506-0.186 0.051-0.458 0.104-0.935 0.168-1.515 0.476-0.046 0.953-0.092 1.534-0.149 0.039-0.496 0.075-0.973 0.12-1.554 0.525-0.032 1.003-0.061 1.562-0.094v-1.801c0.593-0.097 1.111-0.182 1.669-0.274 0.04-0.475 0.075-0.909 0.12-1.446 0.459-0.063 0.934-0.128 1.517-0.208 0.058-0.441 0.121-0.917 0.198-1.498 0.453-0.058 0.929-0.118 1.514-0.193 0.045-0.463 0.091-0.939 0.147-1.517 0.508-0.037 0.984-0.071 1.562-0.113 0.028-0.54 0.053-1.016 0.083-1.582 0.57-0.032 1.046-0.058 1.562-0.087 0.044-0.541 0.078-0.975 0.121-1.514 0.455-0.061 0.932-0.124 1.516-0.201 0.064-0.478 0.134-1.001 0.212-1.581h1.783c0.07-0.529 0.132-1.002 0.209-1.582 0.445-0.058 0.92-0.12 1.5-0.195 0.053-0.452 0.109-0.928 0.177-1.51 0.464-0.05 0.941-0.1 1.521-0.162 0.045-0.48 0.091-0.956 0.146-1.535 0.499-0.04 0.975-0.078 1.573-0.125v-1.944h1.65c0.039-0.595 0.07-1.07 0.108-1.635 0.561-0.041 1.04-0.075 1.559-0.113 0.043-0.524 0.079-0.956 0.123-1.486 0.473-0.073 0.947-0.147 1.529-0.237 0.047-0.446 0.098-0.921 0.158-1.489 0.518-0.054 0.995-0.104 1.522-0.159 0.048-0.48 0.092-0.912 0.147-1.455 0.447-0.069 0.921-0.141 1.501-0.23 0.06-0.429 0.128-0.902 0.207-1.463 0.577-0.058 1.118-0.112 1.783-0.178 0.078-0.467 0.164-0.984 0.266-1.59 0.491-0.024 0.967-0.047 1.484-0.073 0.044-0.543 0.079-0.976 0.123-1.516 0.452-0.061 0.927-0.125 1.512-0.203 0.055-0.437 0.115-0.914 0.188-1.493 0.451-0.057 0.927-0.117 1.513-0.191 0.045-0.515 0.093-1.053 0.151-1.717 0.475-0.09 0.985-0.187 1.622-0.307v-1.533c0.602-0.029 1.077-0.052 1.629-0.078 0.032-0.581 0.058-1.058 0.086-1.57 0.544-0.044 0.978-0.078 1.517-0.122 0.062-0.456 0.126-0.932 0.205-1.514 0.438-0.058 0.913-0.12 1.485-0.195 0.048-0.457 0.099-0.937 0.161-1.522 0.455-0.041 0.932-0.084 1.505-0.135 0.053-0.48 0.106-0.958 0.17-1.54 0.472-0.051 0.948-0.102 1.524-0.163 0.043-0.482 0.087-0.96 0.14-1.545 0.625-0.032 1.216-0.063 1.922-0.099 0.032-0.526 0.061-1.001 0.097-1.588 0.533-0.027 1.009-0.051 1.594-0.08 0.027-0.549 0.05-1.024 0.078-1.59 0.572-0.031 1.049-0.056 1.58-0.084v-1.734c1.634-0.421 1.634-0.421 1.55-1.567h-54.493v-29.863z" fill="#62D0E4"/>
<path d="m1076.6 679.18v20.026h-43.27v-2.301c0-57.511 0-115.02-0.02-172.53 0-1.149 0.05-1.869 1.56-1.864 13.69 0.052 27.39 0.033 41.08 0.038 0.16 0 0.32 0.043 0.65 0.09v156.54z" fill="#62D0E4"/>
<path d="m402.78 702.66h-20.051c-0.041-0.539-0.077-1.014-0.123-1.618h-4.903c-0.045-0.591-0.081-1.065-0.125-1.635-0.358-0.033-0.731-0.089-1.106-0.096-0.782-0.016-1.565-0.029-2.347 1e-3 -1.143 0.042-2.277 0.113-1.838-1.67h-3.296c-0.048-0.531-0.09-1.002-0.143-1.587-0.452-0.051-0.927-0.104-1.511-0.17-0.06-0.473-0.127-0.992-0.201-1.578h-3.148c-0.069-0.576-0.132-1.092-0.208-1.722h-1.593v-1.665h-1.615v-1.866c-0.569-0.086-1.085-0.163-1.719-0.258v-1.504h-1.875c-0.087-0.568-0.165-1.079-0.262-1.708h-1.541v-3.354h-1.651c-0.033-0.591-0.06-1.067-0.092-1.637-0.512-0.043-0.991-0.083-1.595-0.134v-3.21c-0.59-0.052-1.066-0.093-1.67-0.145v-3.197c-0.592-0.057-1.067-0.103-1.672-0.161v-3.541c-0.593-0.047-1.068-0.085-1.672-0.133v-4.899c-0.593-0.045-1.067-0.082-1.672-0.128v-6.583c-0.631-0.051-1.148-0.093-1.721-0.14v-10.239c-0.653-0.051-1.239-0.097-1.929-0.151v-22.33c0.527-0.041 1.113-0.087 1.833-0.143v-10.23c0.628-0.07 1.141-0.127 1.723-0.192v-6.51c0.576-0.071 1.089-0.133 1.671-0.205v-5.152c0.575-0.076 1.088-0.144 1.67-0.221v-3.123c0.573-0.082 1.087-0.155 1.671-0.239v-3.11c0.572-0.085 1.086-0.161 1.673-0.248v-3.103c0.572-0.087 1.085-0.165 1.718-0.261v-1.54h1.625v-3.56c0.567-0.087 1.079-0.167 1.708-0.264 0.021-0.456 0.043-0.934 0.071-1.531h1.926c0.034-0.593 0.06-1.069 0.093-1.653 0.509-0.037 0.986-0.071 1.564-0.113 0.042-0.491 0.083-0.968 0.132-1.546 0.478-0.044 0.955-0.088 1.532-0.142 0.047-0.469 0.094-0.946 0.152-1.526 0.46-0.046 0.938-0.093 1.52-0.15 0.045-0.46 0.091-0.941 0.149-1.549h3.207c0.057-0.627 0.103-1.142 0.156-1.722h3.193c0.059-0.579 0.111-1.098 0.169-1.665h1.851c0.043-0.645 0.084-1.235 0.133-1.962h4.862c0.075-0.63 0.136-1.146 0.204-1.724h4.823c0.074-0.575 0.14-1.088 0.213-1.652h30.981c0.068 0.469 0.142 0.982 0.226 1.567h4.785c0.086 0.573 0.163 1.085 0.258 1.723h3.234v1.957h3.549c0.087 0.571 0.165 1.084 0.254 1.674h3.098c0.087 0.57 0.166 1.082 0.263 1.716h1.535v1.652c0.592 0.032 1.07 0.058 1.649 0.089 0.036 0.517 0.069 0.996 0.099 1.424 1.023 0.859 3.376-1.031 3.369 1.816 0.485 0.042 0.97 0.085 1.578 0.137v3.214c0.586 0.049 1.06 0.089 1.637 0.138 0.047 0.474 0.093 0.95 0.154 1.568 1.218-0.022 2.491 0.051 1.836 1.953 0.66 0.074 1.182 0.132 1.769 0.198v3.181c0.463 0.024 0.856 0.045 1.325 0.069v-70.423c3.166 0 6.269-0.014 9.372 3e-3 3.486 0.02 3.064-0.442 3.064 2.982 6e-3 57.175 4e-3 114.35 4e-3 171.52v2.132h-12.308v-22.227c-0.52-0.045-0.911-0.079-1.389-0.121v1.864c-0.57 0.086-1.087 0.163-1.622 0.244-0.178 1.026-0.354 2.036-0.55 3.162-0.403 0.044-0.883 0.096-1.471 0.159-0.049 0.44-0.103 0.917-0.17 1.508-0.431 0.05-0.908 0.105-1.497 0.173-0.06 0.47-0.128 0.992-0.209 1.624h-1.591v1.666h-1.613v1.864c-0.57 0.084-1.087 0.161-1.722 0.255v1.553h-1.662v1.625h-3.225c-0.087 0.567-0.166 1.077-0.264 1.712h-1.852c-0.032 0.595-0.058 1.072-0.09 1.674h-3.267c-0.03 0.594-0.055 1.069-0.086 1.672h-4.915c-0.049 0.593-0.089 1.067-0.138 1.671h-4.881c-0.055 0.593-0.099 1.068-0.16 1.721h-9.32zm41.592-70.94v-7.81c-0.655-0.062-1.129-0.107-1.722-0.163v-8.231c-0.603-0.051-1.078-0.092-1.671-0.142v-4.912c-0.603-0.032-1.079-0.057-1.674-0.088v-3.684h-2.01v-3.35h-1.669v-3.281c-0.603-0.028-1.08-0.051-1.674-0.079v-1.521c-0.634-0.097-1.147-0.176-1.716-0.263v-3.217h-1.62v-1.556c-0.635-0.092-1.153-0.167-1.724-0.25v-1.862h-1.611v-1.589c-0.631-0.081-1.152-0.148-1.63-0.21-0.061-0.587-0.11-1.057-0.165-1.589h-3.5c-0.07-0.585-0.132-1.104-0.19-1.592-0.583-0.058-1.058-0.106-1.513-0.152-0.056-0.586-0.102-1.059-0.159-1.648h-3.205c-0.048-0.604-0.085-1.077-0.132-1.669h-4.888c-0.056-0.605-0.099-1.079-0.153-1.672h-6.886c-0.056-0.604-0.1-1.078-0.143-1.541h-11.27c-0.046 0.56-0.084 1.034-0.133 1.627h-8.608c-0.03 0.603-0.053 1.078-0.082 1.673h-3.348v1.661h-3.239c-0.132 3.06-2.604 0.919-3.796 1.957v1.4h-1.534c-0.097 0.634-0.176 1.147-0.263 1.717h-3.216v1.507c-0.629 0.093-1.143 0.169-1.715 0.253v3.113c-0.589 0.083-1.107 0.157-1.676 0.238v1.86h-1.532c-0.082 0.633-0.15 1.152-0.211 1.627-0.586 0.062-1.057 0.112-1.59 0.169v3.171c-0.581 0.061-1.096 0.116-1.727 0.182v3.191c-0.719 0.057-1.306 0.104-1.957 0.155v3.193c-0.572 0.048-1.09 0.091-1.721 0.144v5.24c-0.605 0.046-1.079 0.081-1.671 0.126v6.582c-0.604 0.045-1.079 0.081-1.58 0.118v30.262c1.632 0.349 1.635 0.349 1.638 2.032 3e-3 1.715 0 3.431 0 5.132 0.652 0.059 1.127 0.102 1.72 0.157v4.884c0.603 0.048 1.078 0.086 1.635 0.131v2.423 2.585h2.046v3.592c0.604 0.04 1.082 0.071 1.676 0.111v1.505c0.631 0.098 1.142 0.177 1.709 0.265v3.224h1.626v1.662h1.666v1.667h1.667v1.667h1.667v1.593c0.633 0.08 1.153 0.146 1.631 0.207 0.062 0.586 0.111 1.058 0.129 1.233 1.214 0.952 2.783-0.591 3.665 1.2 0.47 0.954 1.368 1.697 2.332 2.842h2.593c0.049 0.579 0.091 1.093 0.144 1.722h4.904c0.046 0.605 0.083 1.079 0.128 1.671h10.269c0.046 0.605 0.082 1.079 0.116 1.528h4.566c0.054-0.567 0.099-1.041 0.156-1.632h10.238c0.055-0.605 0.098-1.08 0.152-1.673h3.225c0.034-0.603 0.062-1.078 0.096-1.665h3.307c-0.399-3.221 2.172-1.454 3.384-2.18-0.461-1.706 0.876-1.475 1.866-1.5 0.099-0.643 0.178-1.154 0.265-1.722h3.225v-1.625h1.662v-1.667h1.667v-1.571c0.631-0.086 1.146-0.157 1.72-0.236v-3.209h1.539c0.081-0.631 0.149-1.15 0.21-1.626 0.585-0.061 1.056-0.11 1.59-0.166v-3.51c0.575-0.06 1.093-0.114 1.726-0.18v-3.191c0.72-0.057 1.306-0.104 1.958-0.156v-3.194c0.571-0.047 1.088-0.089 1.72-0.141v-6.583c0.607-0.046 1.08-0.082 1.671-0.127v-6.915c0.605-0.046 1.079-0.082 1.62-0.124v-17.535z" fill="#fff"/>
<path d="m1016.6 408.06c-0.46 0.021-0.92 0.042-1.67 0.073-1.22 0.01-2.15 0.01-3.17 0.01-0.07 0.662-0.13 1.142-0.19 1.622-0.55 0.038-1.1 0.075-1.74 0.118-0.14 0.469-0.28 0.927-0.46 1.537h-4.51c-0.2 0.623-0.36 1.122-0.56 1.752h-4.571c-0.146 0.587-0.262 1.049-0.414 1.658h-4.55c-0.18 0.588-0.32 1.044-0.533 1.741-0.98 0-2.027 0-3.368-5e-3 -1.701-0.28-1.846 0.571-1.757 1.632-0.992 0.02-1.984 0.041-3.269 0.053-1.708-0.282-1.852 0.57-1.751 1.639-0.501 0.012-1.006 0.077-1.501 0.028-1.189-0.118-2.101 0.098-2.054 1.536-1.213 0.129-2.313 0.234-3.409 0.368-0.772 0.094-1.731-0.147-1.883 1.114-0.019 0.158-0.754 0.271-1.167 0.331-1.149 0.166-2.302 0.293-3.544 0.447-0.111 0.451-0.224 0.912-0.372 1.515-0.998 0-1.935 0-3.166 9e-3 -1.578-0.205-2.189 0.312-2.061 1.632-0.981 0.025-1.962 0.05-3.235 0.076-1.649-0.261-1.862 0.528-1.764 1.603h-3.07c-0.162 0.577-0.291 1.037-0.475 1.69h-4.617c-0.157 0.626-0.273 1.087-0.426 1.699h-4.533c-0.188 0.587-0.334 1.041-0.564 1.756-0.957 0-2.001 0-3.339-8e-3 -1.697-0.294-1.857 0.548-1.768 1.616-0.992 0.021-1.984 0.043-3.269 0.056-1.705-0.281-1.849 0.569-1.748 1.637-0.776 0.019-1.553 0.022-2.327 0.065-0.322 0.018-0.887 0.054-0.923 0.192-0.601 2.304-2.661 1.053-3.935 1.667-0.555 0.267-1.035 0.69-1.566 1.014-0.302 0.183-0.626 0.396-0.962 0.445-1.25 0.184-2.508 0.306-3.865 0.463-0.1 0.438-0.205 0.899-0.344 1.51-0.998 0-1.931 0-3.159 4e-3 -1.612-0.227-2.199 0.325-2.067 1.651-0.981 0.019-1.962 0.037-3.236 0.054-1.646-0.269-1.875 0.509-1.775 1.593-0.999 0.026-1.997 0.052-3.288 0.079-1.672-0.258-1.831 0.571-1.738 1.624h-3.063c-0.184 0.592-0.339 1.088-0.419 1.345-1.642 1.23-4.232-1.082-5.242 2.1-0.905 0-1.944 0-3.277-6e-3 -1.718-0.293-1.841 0.574-1.746 1.633-0.613 0.014-1.233 0.092-1.837 0.028-1.1-0.115-1.703 0.268-1.586 1.689-0.805 0-1.556-0.157-2.203 0.035-1.132 0.335-2.646-0.431-3.378 1.373-0.194 0.478-1.83 0.384-2.808 0.526-0.805 0.117-1.873-0.333-2.044 1.068-0.018 0.148-0.543 0.297-0.847 0.337-1.26 0.168-2.526 0.294-3.893 0.448-0.103 0.427-0.215 0.889-0.274 1.135-1.635 1.236-4.251-1.056-5.244 2.099h-3.303c-1.676-0.269-1.871 0.54-1.769 1.618h-3.067c-0.182 0.593-0.336 1.093-0.43 1.399-1.668 1.062-4.17-0.972-5.237 2.004h-4.524c-0.103 0.726-0.179 1.262-0.471 1.9-1.276-0.108-1.155 1.147-1.577 1.318-2.154 0.872-1.623 2.702-1.824 4.306-0.038 0.302-0.39 0.559-0.584 0.846-0.351 0.522-0.819 1.011-1.001 1.588-0.189 0.601-0.097 1.291-0.13 1.964-2.67 0.101-1.062 2.263-1.859 3.366-0.37 0.093-0.833 0.209-1.264 0.318-0.462 1.312 0.712 3.335-1.576 3.428-0.747 1.258 0.772 3.312-1.695 3.672-0.115 0.017-0.196 0.591-0.211 0.909-0.033 0.656-0.01 1.314-0.01 2.019-0.632 0.157-1.094 0.273-1.495 0.373-0.632 1.832 0.657 4.325-2.145 5.171-0.025 0.545-0.051 1.099-0.078 1.653h-1.604v-13.548c-0.581-0.095-1.052-0.173-1.737-0.285 0-3.847 0-7.74-1e-3 -11.93 0.263-1.699-0.584-1.811-1.625-1.698v-11.952c-0.644-0.081-1.159-0.145-1.735-0.217v-13.504c-0.541-0.075-1.014-0.142-1.671-0.233 0-0.957 0-1.944-4e-3 -3.081 0.939-0.178 1.895-0.112 2.817-0.261 0.89-0.143 2.069 0.139 2.383-1.266 0.043-0.194 0.749-0.326 1.154-0.339 1.772-0.056 3.547-0.058 5.623-0.06 0.892-0.061 1.482-0.202 2.072-0.208 1.005-9e-3 1.584-0.337 1.367-1.456 1.028-0.085 2.056-0.17 3.326-0.173 1.261-0.012 2.279-0.106 3.29-0.198 0.072-0.631 0.123-1.069 0.173-1.508 1.111-0.021 2.222-0.042 3.567 0.017 0.737 0.018 1.24-0.043 1.883-0.106 1.458 0.23 1.641-0.568 1.577-1.589 1.11-0.027 2.219-0.061 3.329-0.078 0.817-0.014 1.691 0.174 1.822-1.1 0.022-0.22 0.793-0.498 1.228-0.516 1.775-0.074 3.553-0.057 5.64-0.072 1.265 2e-3 2.221 2e-3 3.244 2e-3 0.066-0.689 0.111-1.163 0.156-1.637 1.55-0.022 3.1-0.044 4.96-0.06 1.273 7e-3 2.236 7e-3 3.286 7e-3 0.048-0.679 0.081-1.155 0.115-1.632 1.013-0.017 2.026-0.035 3.345-0.046 1.376 6e-3 2.445 6e-3 3.592 6e-3 0.045-0.7 0.076-1.177 0.107-1.655h4.801c0.047-1.586 0.96-1.803 2.208-1.731 1.448 0.085 2.906-3e-3 4.672 0 1.397 0.016 2.481 0.016 3.651 0.016 0.034-0.701 0.058-1.186 0.081-1.671 0.999-0.019 1.997-0.037 3.291-0.041 1.457-0.331 3.324 0.626 3.423-1.679 1.139-0.079 2.277-0.158 3.652-0.152 1.476-0.081 3.223 0.759 3.398-1.512 1.569-0.092 3.138-0.185 4.949-0.198 1.264 3e-3 2.286-0.073 3.321-0.151 0.063-0.631 0.107-1.071 0.151-1.51 1.016-0.027 2.033-0.054 3.353-0.086 1.34-4e-3 2.377-4e-3 3.492-4e-3 0.083-0.671 0.142-1.15 0.201-1.629 1.546-0.027 3.093-0.054 4.949-0.078 1.27 3e-3 2.229 3e-3 3.276 3e-3 0.054-0.664 0.093-1.138 0.131-1.611 1.011-0.022 2.022-0.044 3.338-0.063 1.263 2e-3 2.221 2e-3 3.251 2e-3 0.056-0.695 0.094-1.171 0.133-1.646h5.022c0.194-0.596 0.355-1.089 0.568-1.742 2.041 0 4.074 0 6.418 0.011 1.279 0.01 2.247 0.01 3.3 0.01 0.043-0.69 0.073-1.171 0.102-1.651 1.108-0.022 2.215-0.043 3.629-0.051 1.279 0.013 2.252 0.013 3.307 0.013 0.046-0.687 0.078-1.17 0.11-1.652 1.547-0.019 3.094-0.038 4.952-0.04 1.289 0.017 2.266 0.017 3.334 0.017 0.036-0.694 0.061-1.18 0.086-1.667 1.098-0.018 2.197-0.037 3.604-0.036 1.295 0.019 2.282 0.019 3.356 0.019 0.038-0.696 0.065-1.187 0.092-1.678 1.567-0.106 3.133-0.211 4.933-0.235 1.259-0.01 2.285-0.102 3.342-0.197 0.051-0.557 0.091-0.996 0.131-1.435 1.022-0.033 2.044-0.066 3.371-0.101 1.337-2e-3 2.37-2e-3 3.502-2e-3 0.068-0.649 0.118-1.125 0.168-1.6 1.006-0.027 2.016-0.054 3.336-0.082 1.25-1e-3 2.21-1e-3 3.23-1e-3 0.06-0.689 0.11-1.162 0.15-1.634 1.56-0.024 3.11-0.048 4.97-0.063 1.38 9e-3 2.45 9e-3 3.6 9e-3 0.06-0.671 0.09-1.145 0.13-1.618 1-0.023 2.01-0.045 3.32-0.064 1.26 2e-3 2.23 2e-3 3.27 2e-3 0.05-0.678 0.09-1.154 0.12-1.63 1.01-0.016 2.03-0.032 3.34-0.043 1.38 6e-3 2.45 6e-3 3.59 6e-3 0.05-0.71 0.09-1.188 0.12-1.667 1.54-0.018 3.09-0.037 4.95-0.042 1.28 0.012 2.26 0.012 3.32 0.012 0.04-0.685 0.07-1.168 0.1-1.651 1-0.019 2-0.037 3.31-0.043 1.28 0.013 2.25 0.013 3.31 0.013 0.04-0.701 0.06-1.185 0.09-1.668 1.11-0.017 2.22-0.033 3.62-0.034 1.46-0.334 3.32 0.617 3.42-1.673 1.58-0.089 3.15-0.178 4.96-0.186 0.85 0.013 1.47-0.054 2.22-0.117 1.44 0.236 1.62-0.555 1.58-1.557 1.01-0.027 2.01-0.055 3.26 5e-3 1.27 0.164 2.05 0.461 1.69 1.75-0.46 0.032-0.93 0.064-1.67 0.11-0.85 0.025-1.41 0.036-2.11 0.044-1.44-0.145-1.15 0.839-1.24 1.558-0.56 0.034-1.11 0.068-1.94 0.106-1.62-0.254-1.83 0.532-1.75 1.587-1 0.045-2 0.09-3.09 0.14-0.13 0.465-0.27 0.924-0.46 1.581h-4.62c-0.14 0.637-0.24 1.1-0.37 1.704h-4.59c-0.29 2.69-2.29 1.397-3.88 1.72-1.69-0.276-1.86 0.547-1.77 1.617-0.99 0.021-1.99 0.043-3.28 0.058-1.69-0.268-1.84 0.58-1.74 1.636-0.99 0.023-1.98 0.046-3.27 0.057-0.83-0.013-1.37-0.013-1.98-0.013-0.04 0.706-0.07 1.195-0.1 1.685-0.88 0.014-1.76 0.027-2.94 0.02-0.84-0.022-1.38-0.022-1.96-0.022-0.08 0.751-0.13 1.298-0.18 1.845-0.46 0.024-0.92 0.048-1.61-0.01-1.24 0.021-2.26 0.123-3.27 0.225-0.06 0.629-0.1 1.066-0.14 1.504z" fill="#0084CA"/>
<path d="m497.35 694.64c-1.043-0.26-2.076-0.365-3.248-0.484-0.05-0.432-0.111-0.948-0.184-1.578h-1.598v-1.665h-1.614v-1.865c-0.57-0.084-1.087-0.161-1.722-0.255v-1.553h-1.666v-1.625h-1.878c-0.088-0.568-0.167-1.079-0.264-1.708-0.458-0.02-0.934-0.041-1.519-0.067-0.03-0.528-0.057-1.006-0.09-1.584-0.514-0.037-0.993-0.072-1.597-0.117v-3.252c-0.591-0.03-1.065-0.054-1.638-0.083-0.046-0.506-0.089-0.982-0.141-1.559-0.473-0.043-0.953-0.086-1.56-0.14v-3.212c-0.59-0.048-1.065-0.086-1.67-0.135v-3.552c-0.592-0.048-1.066-0.087-1.671-0.136v-3.217c-0.629-0.056-1.144-0.102-1.725-0.154v-5.209c-0.578-0.054-1.091-0.101-1.671-0.155v-8.223c-0.653-0.051-1.239-0.096-1.823-0.142v-34.44c0.683-0.043 1.162-0.074 1.766-0.112v-6.612c0.592-0.031 1.067-0.057 1.669-0.089v-5.248c0.593-0.05 1.068-0.09 1.67-0.14v-3.2c0.593-0.057 1.068-0.102 1.672-0.16v-3.192c0.593-0.056 1.068-0.1 1.672-0.157v-3.206c0.593-0.048 1.068-0.087 1.672-0.136v-3.206c0.589-0.056 1.061-0.101 1.649-0.157 0.045-0.456 0.093-0.931 0.152-1.517 0.489-0.058 1.01-0.12 1.589-0.188v-1.813c0.529-0.06 1.001-0.113 1.618-0.183-0.164-1.441 0.686-1.863 2.111-1.577v-1.713h1.667v-1.667h1.667v-1.667h1.667v-1.666h1.649c0.03-0.594 0.055-1.072 0.086-1.674h3.281v-1.648c0.591-0.037 1.068-0.067 1.636-0.102 0.045-0.504 0.087-0.983 0.14-1.588h3.338c-0.504-2.081 0.68-2.192 2.146-2.071 0.992 0.082 1.996 0.016 3.09 0.016 0.05-0.55 0.093-1.025 0.148-1.63h4.873c0.056-0.593 0.1-1.067 0.148-1.577 0.139-0.045 0.292-0.136 0.444-0.136 9.726-9e-3 19.452 0.016 29.178-0.043 1.29-8e-3 1.666 0.528 1.531 1.706h4.939c0.042 0.538 0.079 1.012 0.127 1.615h3.212c0.052 0.704 0.096 1.291 0.15 2.011h3.551c0.054 0.633 0.098 1.15 0.148 1.725h3.2c0.047 0.535 0.089 1.006 0.14 1.591 0.453 0.052 0.929 0.106 1.512 0.172 0.06 0.471 0.127 0.99 0.202 1.577h3.146c0.07 0.575 0.133 1.091 0.21 1.721h1.592v1.667h1.666v1.618h1.869c0.087 0.57 0.165 1.084 0.261 1.719h1.542v1.574c2.909 0.145 1.182 2.341 1.917 3.699 0.284 0.044 0.795 0.123 1.425 0.221 0.02 0.455 0.041 0.932 0.067 1.51 0.527 0.035 1.006 0.067 1.61 0.107v3.254c0.591 0.032 1.067 0.058 1.669 0.091v3.233c0.592 0.05 1.068 0.091 1.672 0.143v3.199c0.593 0.056 1.068 0.102 1.672 0.159v3.54c0.594 0.049 1.069 0.088 1.674 0.138v6.572c0.59 0.046 1.066 0.082 1.671 0.128v8.588c0.705 0.049 1.291 0.089 1.976 0.137v25.695c-0.543 0.04-1.129 0.084-1.848 0.137v8.581c-0.631 0.054-1.144 0.097-1.724 0.146v4.875c-0.58 0.057-1.097 0.109-1.672 0.166v4.855c-0.578 0.062-1.091 0.118-1.671 0.181v3.158c-0.575 0.07-1.09 0.133-1.672 0.204v3.477c-0.575 0.075-1.089 0.142-1.672 0.218v3.131c-0.575 0.078-1.091 0.148-1.722 0.234v1.573h-1.546c-0.196 1.131-0.372 2.142-0.568 3.27-0.34 0.051-0.75 0.114-1.19 0.18-0.029 0.501-0.053 0.938-0.083 1.478-0.466 0.053-0.943 0.107-1.531 0.173-0.06 0.473-0.126 0.994-0.199 1.573h-1.796c-0.075 0.572-0.142 1.092-0.225 1.725h-1.53v1.861c-0.57 0.082-1.089 0.156-1.722 0.247v1.516h-3.212c-0.086 0.571-0.164 1.084-0.26 1.718h-1.541v1.626h-3.225c-0.086 0.567-0.164 1.078-0.261 1.717h-3.545v1.672h-5.025v1.672h-5.027c-0.03 0.595-0.055 1.069-0.083 1.627h-27.732c-0.041-0.468-0.082-0.943-0.135-1.547h-6.554c-0.055-0.589-0.101-1.065-0.158-1.669h-3.195c-0.054-0.593-0.097-1.068-0.151-1.673h-3.545c-0.048-0.592-0.087-1.066-0.141-1.735-0.748 0-1.52-0.076-2.271 0.019-1.01 0.127-1.109-0.411-1.038-1.327zm77.36-55.355c0.475-0.037 0.95-0.075 1.425-0.113v-4.88c-0.55-0.045-1.062-0.087-1.691-0.139v-13.625c-0.607-0.046-1.08-0.082-1.672-0.127v-4.903c-0.606-0.047-1.08-0.083-1.672-0.128v-4.889c-0.606-0.056-1.081-0.1-1.673-0.156v-3.531c-0.604-0.055-1.079-0.098-1.674-0.153v-3.225c-0.715-0.036-1.303-0.066-2.008-0.102v-3.23c-0.604-0.052-1.083-0.094-1.592-0.137-0.034-0.569-0.062-1.046-0.096-1.637h-1.65v-3.286c-0.601-0.028-1.08-0.051-1.674-0.079v-1.521c-0.632-0.097-1.146-0.175-1.715-0.262v-1.873h-1.505c-0.094-0.633-0.171-1.147-0.256-1.718h-3.209v-1.617h-1.584c-0.079-0.63-0.143-1.145-0.215-1.722h-3.483c-0.071-0.583-0.134-1.097-0.204-1.673h-3.156c-0.065-0.58-0.122-1.095-0.187-1.672h-3.181c-0.054-0.574-0.102-1.09-0.156-1.67h-8.568c-0.048-0.581-0.091-1.094-0.134-1.615h-9.716c-0.697 1.957-2.295 1.606-3.707 1.628-1.609 0.025-3.219 6e-3 -4.849 6e-3 -0.088 0.629-0.16 1.144-0.241 1.718h-4.802c-0.078 0.585-0.147 1.1-0.224 1.673h-3.132c-0.076 0.585-0.144 1.103-0.219 1.675h-1.806c-0.061 0.572-0.117 1.089-0.179 1.665h-3.167c-0.068 0.58-0.13 1.102-0.188 1.594-0.582 0.058-1.06 0.106-1.518 0.152-0.056 0.587-0.1 1.063-0.143 1.517-0.588 0.06-1.064 0.109-1.534 0.158-0.052 0.692-0.096 1.282-0.138 1.854-0.584 0.058-1.062 0.106-1.533 0.152-0.053 0.576-0.096 1.053-0.14 1.535-0.577 0.046-1.055 0.084-1.55 0.123-0.04 0.583-0.072 1.06-0.112 1.651h-1.416c-0.713 1.217 0.973 3.462-1.91 3.398v1.484c-0.632 0.098-1.143 0.177-1.713 0.265v3.225h-1.963v3.217c-0.64 0.098-1.152 0.176-1.722 0.262v3.433c-0.589 0.09-1.101 0.169-1.672 0.256v6.453c-0.587 0.089-1.101 0.167-1.672 0.254v6.791c-0.587 0.088-1.099 0.164-1.56 0.232v21.579c0.567 0.08 1.081 0.152 1.656 0.233v6.479c0.581 0.077 1.096 0.145 1.672 0.221v5.152c0.583 0.072 1.096 0.135 1.672 0.205v4.829c0.583 0.069 1.097 0.129 1.727 0.202v3.181c0.722 0.055 1.307 0.1 1.956 0.151v3.506c0.58 0.069 1.102 0.131 1.591 0.19 0.058 0.581 0.106 1.057 0.151 1.512 0.587 0.057 1.06 0.103 1.646 0.16v3.201c0.608 0.054 1.088 0.096 1.55 0.137 0.058 0.584 0.105 1.062 0.152 1.53 0.576 0.054 1.054 0.098 1.531 0.143 0.05 0.577 0.091 1.055 0.133 1.544 0.578 0.043 1.056 0.079 1.556 0.116 0.039 0.583 0.07 1.061 0.104 1.574 0.584 0.033 1.062 0.06 1.589 0.09 0.026 0.585 0.048 1.062 0.075 1.656h1.523c0.098 0.633 0.176 1.145 0.264 1.715h3.097c0.09 0.591 0.168 1.104 0.234 1.541 1.568 0.36 3.91-1.015 3.686 2.143h3.124c0.089 0.591 0.167 1.105 0.253 1.676h3.102c0.087 0.583 0.164 1.096 0.25 1.669h10.152c0.084 0.584 0.158 1.098 0.225 1.566h4.479c0.077-0.565 0.147-1.079 0.225-1.654h10.178c0.073-0.584 0.138-1.096 0.21-1.672h4.824c0.07-0.579 0.132-1.096 0.207-1.728h3.179c0.055-0.721 0.099-1.306 0.149-1.956h3.506c0.071-0.584 0.134-1.103 0.192-1.585 0.584-0.062 1.061-0.113 1.515-0.161 0.056-0.585 0.103-1.062 0.147-1.52 0.588-0.057 1.066-0.102 1.521-0.146 0.059-0.586 0.107-1.065 0.154-1.528 0.583-0.055 1.067-0.1 1.617-0.152-0.291-1.384 0.473-1.733 1.601-1.609 0.038-0.623 0.068-1.102 0.099-1.61 0.59-0.036 1.069-0.065 1.588-0.097 0.03-0.585 0.055-1.063 0.086-1.655h1.654v-1.667h1.667v-1.545c0.634-0.096 1.149-0.174 1.587-0.24 0.384-1.55-1.031-3.913 2.143-3.682v-3.13c0.587-0.088 1.103-0.165 1.675-0.25v-3.109c0.584-0.084 1.096-0.158 1.67-0.24v-4.796c0.581-0.08 1.096-0.15 1.672-0.229v-5.145c0.583-0.074 1.096-0.139 1.652-0.21 0-4.414 0-8.715 0.188-13.273z" fill="#fff"/>
<path d="m331.67 679.18v21.706h-12.411v-2.426c0-6.093-4e-3 -12.186 6e-3 -18.279 2e-3 -0.816 0.115-1.663-1.293-1.237v3.157c-0.588 0.059-1.061 0.107-1.648 0.167-0.042 0.456-0.086 0.932-0.14 1.515-0.501 0.056-1.023 0.114-1.602 0.179v3.182c-0.534 0.047-1.005 0.088-1.59 0.139-0.06 0.495-0.123 1.015-0.193 1.59h-1.836c-0.047 0.643-0.089 1.23-0.14 1.933-0.487 0.063-1.006 0.129-1.638 0.21v1.54h-3.209c-0.079 0.574-0.15 1.089-0.236 1.72h-1.568v1.618h-3.213c-0.087 0.569-0.165 1.084-0.254 1.672h-3.099c-0.086 0.57-0.164 1.083-0.254 1.674h-3.434c-0.087 0.57-0.164 1.081-0.254 1.674h-6.453c-0.086 0.569-0.163 1.08-0.251 1.667h-26.025v-1.568h-6.704v-1.67h-3.345c-0.034-0.595-0.062-1.07-0.096-1.672h-3.229c-0.052-0.593-0.093-1.068-0.146-1.672h-3.205c-0.053-0.592-0.096-1.066-0.149-1.649-0.581-0.041-1.17-0.083-1.859-0.131-0.049-0.476-0.098-0.952-0.157-1.537-0.456-0.044-0.933-0.09-1.521-0.147-0.043-0.457-0.089-0.935-0.145-1.518-0.495-0.057-1.014-0.116-1.599-0.183v-3.512c-0.534-0.05-1.006-0.094-1.59-0.149-0.06-0.487-0.124-1.006-0.203-1.638h-1.545v-3.206c-0.573-0.077-1.088-0.145-1.671-0.223v-3.124c-0.573-0.081-1.087-0.153-1.674-0.236v-6.803c-0.573-0.084-1.085-0.159-1.723-0.253v-16.993h-2.013v-1.759c0-26.217 0.017-52.434-0.038-78.651-3e-3 -1.701 0.437-2.214 2.145-2.145 3.348 0.136 6.706 0.04 10.199 0.04v92.425c0.632 0.092 1.147 0.168 1.731 0.253v6.795c0.572 0.086 1.086 0.164 1.672 0.252v4.777c0.571 0.087 1.085 0.166 1.722 0.263v3.179h1.874c0.087 0.568 0.166 1.081 0.263 1.714h1.536v1.655c0.593 0.03 1.07 0.054 1.655 0.083 0.031 0.522 0.06 1 0.095 1.583 0.509 0.035 0.987 0.068 1.57 0.109 0.038 0.496 0.075 0.973 0.119 1.548 0.486 0.045 0.964 0.089 1.544 0.143 0.041 0.583 0.083 1.174 0.133 1.895h3.208c0.053 0.593 0.095 1.068 0.15 1.674h4.891c0.046 0.593 0.082 1.067 0.128 1.672h10.279c0.05 0.632 0.09 1.148 0.133 1.691h2.936c-0.328-1.577 0.623-1.676 1.838-1.65 2.788 0.058 5.579 0.018 8.497 0.018 0.05-0.562 0.096-1.075 0.147-1.655h4.871c0.059-0.58 0.112-1.097 0.171-1.67h3.519c0.05-0.651 0.095-1.238 0.15-1.958h3.188c0.071-0.634 0.129-1.153 0.193-1.729 0.54-0.024 1.02-0.046 1.544-0.07-0.051-2.812 2.109-1.12 3.308-1.844 0.044-0.329 0.115-0.849 0.2-1.478h1.576v-1.663h1.619v-3.214c0.57-0.087 1.083-0.165 1.717-0.262v-1.499h1.877c0.088-0.568 0.167-1.078 0.263-1.701 0.46-0.024 0.938-0.049 1.54-0.08v-3.61h1.67v-3.346c0.595-0.032 1.07-0.057 1.673-0.089v-4.915c0.594-0.049 1.068-0.088 1.672-0.138v-6.894c0.593-0.055 1.067-0.098 1.669-0.154v-82.014h12.462v106.9z" fill="#fff"/>
<path d="m834.93 499.04c-0.131-0.571-0.105-1.125-0.08-1.67 2.802-0.847 1.513-3.34 2.145-5.172 0.401-0.1 0.863-0.215 1.495-0.373 0-0.705-0.023-1.363 0.01-2.018 0.015-0.319 0.096-0.893 0.211-0.91 2.467-0.36 0.948-2.414 1.695-3.672 2.288-0.092 1.114-2.115 1.576-3.428 0.431-0.108 0.894-0.225 1.264-0.318 0.797-1.103-0.811-3.264 1.859-3.366 0.033-0.673-0.059-1.362 0.13-1.964 0.182-0.577 0.65-1.066 1.001-1.587 0.194-0.287 0.546-0.545 0.584-0.846 0.201-1.605-0.33-3.435 1.824-4.307 0.422-0.171 0.301-1.426 1.502-1.211 0.146 0.342 0.152 0.679 0.139 1.284-0.313 1.772 0.513 2.169 1.802 2.108 0.039 0.444 0.077 0.888 0.128 1.607-0.263 1.64 0.584 1.787 1.606 1.746 0.026 0.444 0.053 0.888 0.087 1.609-0.257 1.645 0.563 1.817 1.616 1.732 0.054 0.49 0.108 0.981 0.162 1.472 0.163-0.075 0.327-0.15 0.49-0.226 0.359 0.597 0.718 1.194 1.085 2.073-0.271 1.685 0.583 1.827 1.638 1.746 0.02 0.445 0.039 0.89 0.057 1.608-0.255 1.63 0.54 1.839 1.609 1.748 0.033 0.53 0.065 1.061 0.089 1.871-0.309 1.679 0.506 1.88 1.602 1.777 9e-3 0.469 0.019 0.937 8e-3 1.544-1.581 0.139-3.141 0.139-4.796 0.139-0.116 0.502-0.224 0.967-0.369 1.592h-4.653c-0.134 0.602-0.238 1.069-0.377 1.691h-4.677c-0.106 0.723-0.191 1.305-0.296 2.02h-5.042c-0.123 0.584-0.222 1.054-0.362 1.718-2.17 0-4.388 0-6.762-0.017z" fill="#004C89"/>
<path d="m656.54 524.19c-0.108 0.762 0.85 2.443-1.36 1.81-0.145-0.52-0.174-1.006-0.214-1.683 0.515-0.041 0.972-0.077 1.574-0.127z" fill="#A4FFFF"/>
<path d="m625.65 606.39c0.111 0.934 0.658 2.24-1.308 2.013-0.214-1.005-0.519-2.159 1.308-2.013z" fill="#0ff"/>
<path d="m927.34 701.13c0.949-0.197 1.935-0.281 1.697 1.335-0.477 0.159-0.951 0.18-1.584 0.208-0.036-0.498-0.068-0.949-0.113-1.543z" fill="#8FFFFF"/>
<path d="m645.13 683.88c-0.266-0.991-0.29-1.909 1.303-1.68 0.161 0.476 0.184 0.951 0.215 1.59-0.48 0.03-0.928 0.057-1.518 0.09z" fill="#0ff"/>
<path d="m641.09 565.46c0.226 0.969 0.223 1.882-1.324 1.71-0.137-0.523-0.137-1.056-0.137-1.699 0.471 0 0.894 0 1.461-0.011z" fill="#9ff"/>
<path d="m646.14 551.69c0.195 0.954 0.213 1.897-1.342 1.738-0.164-0.469-0.192-0.951-0.23-1.614 0.515-0.04 0.971-0.075 1.572-0.124z" fill="#A4FFFF"/>
<path d="m651.51 537.94c0.188 0.942 0.285 1.941-1.336 1.695-0.16-0.489-0.182-0.973-0.212-1.601 0.481-0.027 0.942-0.054 1.548-0.094z" fill="#9ff"/>
<path d="m718.42 694.38c1.082-0.214 1.866 0.017 1.662 1.477-0.488 0.118-0.971 0.095-1.608 0.065-0.028-0.471-0.056-0.934-0.054-1.542z" fill="#A4FFFF"/>
<path d="m951.53 666.28c-0.969 0.221-1.895 0.227-1.712-1.334 0.472-0.164 0.951-0.191 1.6-0.227 0.036 0.511 0.067 0.964 0.112 1.561z" fill="#8FFFFF"/>
<path d="m636.07 579.21c0.202 0.95 0.275 1.925-1.332 1.687-0.16-0.483-0.183-0.962-0.212-1.59 0.489-0.029 0.944-0.056 1.544-0.097z" fill="#80FFFF"/>
<path d="m605.18 661.4c0.267 0.992 0.291 1.91-1.302 1.682-0.161-0.477-0.184-0.952-0.215-1.592 0.48-0.029 0.928-0.057 1.517-0.09z" fill="#0ff"/>
<path d="m770.04 695.5c-1.045 0.195-1.902 0.067-1.641-1.443 0.491-0.14 0.98-0.14 1.605-0.14 0.023 0.499 0.045 0.967 0.036 1.583z" fill="#9ff"/>
<path d="m630.69 592.97c0.231 0.969 0.228 1.879-1.318 1.71-0.136-0.52-0.136-1.052-0.136-1.699 0.465 0 0.887 0 1.454-0.011z" fill="#9ff"/>
<path d="m620.62 620.14c0.268 0.995 0.285 1.909-1.307 1.673-0.16-0.477-0.18-0.951-0.208-1.584 0.478-0.03 0.926-0.057 1.515-0.089z" fill="#0ff"/>
<path d="m615.58 633.89c0.264 0.989 0.294 1.911-1.302 1.687-0.162-0.477-0.185-0.953-0.217-1.596 0.481-0.03 0.929-0.058 1.519-0.091z" fill="#0ff"/>
<path d="m1071.8 396.06c-0.3-1.117-0.05-1.853 1.42-1.648 0.14 0.483 0.14 0.959 0.14 1.589-0.51 0.03-0.97 0.057-1.56 0.059z" fill="#8FFFFF"/>
<path d="m781.79 404.97c0.971-0.226 1.92-0.275 1.68 1.322-0.479 0.161-0.957 0.184-1.593 0.214-0.029-0.486-0.056-0.939-0.087-1.536z" fill="#0ff"/>
<path d="m897 524.52c-0.302-1.123-0.041-1.853 1.424-1.649 0.122 0.484 0.101 0.959 0.073 1.593-0.453 0.027-0.904 0.053-1.497 0.056z" fill="#8FFFFF"/>
<path d="m994.6 462.8c-0.25-1.061-0.14-1.908 1.396-1.621 0.139 0.49 0.139 0.965 0.139 1.578-0.484 0.023-0.938 0.045-1.535 0.043z" fill="#0ff"/>
<path d="m829.79 471.71c1.063-0.256 1.91-0.144 1.64 1.397-0.484 0.141-0.963 0.141-1.59 0.141-0.025-0.485-0.048-0.94-0.05-1.538z" fill="#0ff"/>
<path d="m876.08 518.01c1.125-0.312 1.841-0.039 1.65 1.415-0.491 0.142-0.976 0.142-1.61 0.142-0.022-0.5-0.043-0.957-0.04-1.557z" fill="#9ff"/>
<path d="m1064.6 390.95c0.22-1.328-0.56-1.625-1.67-1.787-0.14-0.878-0.07-1.474 1-1.494 2.33-0.044 4.65-0.198 7.22-0.301 0.32 0.013 0.38 0.019 0.44 0.024 0.14 1.486-0.47 2.143-2.02 1.969-0.77-0.088-1.43-0.094-1.95 0.962-0.28 0.559-1.88 0.465-3.02 0.627z" fill="#0FA7D6"/>
<path d="m848.45 437.08c0.106 0.47 0.056 0.909-0.017 1.539-1.01 0.093-2.029 0.186-3.14 0.195-0.07-0.574-0.048-1.062-0.016-1.765 1.062 0 2.04 0 3.173 0.031z" fill="#1FB3DA"/>
<path d="m901.72 425.25c0.13 0.494 0.106 0.979 0.072 1.68-1.171 0-2.254 0-3.498-0.015-0.248-1.325 0.32-1.885 1.653-1.685 0.528 0.078 1.079 0.011 1.773 0.02z" fill="#03ACD7"/>
<path d="m983.96 406.38c0.07 0.572 0.043 1.063 5e-3 1.759-1.074 0-2.061 0-3.209-0.024-0.093-0.497-0.025-0.971 0.065-1.593 1.036-0.076 2.039-0.149 3.139-0.142z" fill="#06AAD7"/>
<path d="m886.3 428.63c0.123 0.492 0.092 0.97 0.047 1.669-1.147 0-2.216 0-3.439-7e-3 -0.115-0.485-0.075-0.964-0.016-1.676 1.12 0 2.187 0 3.408 0.014z" fill="#07B2DA"/>
<path d="m923.9 419.98c0.11 0.473 0.066 0.913 3e-3 1.544-1.035 0.078-2.057 0.154-3.17 0.137-0.065-0.575-0.04-1.056-6e-3 -1.714 1.074 0 2.047 0 3.173 0.033z" fill="#0DB1D9"/>
<path d="m1014.8 399.48c0.11 0.494 0.08 0.968 0.02 1.638-1.15 0-2.22 0-3.44-8e-3 -0.12-0.488-0.08-0.967-0.02-1.65 1.14 0 2.21 0 3.44 0.02z" fill="#06AAD7"/>
<path d="m1028.5 396.09c0.13 0.492 0.09 0.97 0.04 1.68-1.14 0-2.21 0-3.43-8e-3 -0.12-0.486-0.08-0.964-0.02-1.686 1.12 0 2.19 0 3.41 0.014z" fill="#17B5DA"/>
<path d="m999.35 402.86c0.102 0.503 0.052 0.979-0.016 1.628-1.131 0-2.165 0-3.347 3e-3 -0.313-1.174 0.092-1.809 1.386-1.683 0.604 0.058 1.217 0.02 1.977 0.052z" fill="#06AAD7"/>
<path d="m930.95 418.28c0.094 0.504 0.035 0.982-0.048 1.653h-3.337c-0.31-1.185 0.124-1.8 1.403-1.688 0.605 0.053 1.218 9e-3 1.982 0.035z" fill="#17B5DA"/>
<path d="m992.31 404.56c0.112 0.472 0.072 0.911 0.021 1.468-1.057 0.095-2.083 0.187-3.191 0.188-0.054-0.568-0.027-1.044 0.01-1.69 1.075 0 2.041 0 3.16 0.034z" fill="#06AAD7"/>
<path d="m915.54 421.79c-0.078 2.355-1.825 1.516-3.156 1.599 0.07-1.602 0.691-1.918 3.156-1.599z" fill="#1FB3DA"/>
<path d="m939.3 416.59c0.114 0.494 0.075 0.968 0.021 1.633-1.047 0-2.006 0-3.123-9e-3 -0.121-0.491-0.085-0.972-0.035-1.645 1.044 0 2.014 0 3.137 0.021z" fill="#03ACD7"/>
<path d="m1036.9 394.41c0.12 0.496 0.09 0.979 0.05 1.664-1.06 0-2.04 0-3.17-0.015-0.11-0.496-0.05-0.977 0.03-1.662 1 0 1.97 0 3.09 0.013z" fill="#01AAD7"/>
<path d="m908.49 423.46c-4e-3 2.387-1.871 1.43-3.18 1.749-0.097-0.468-0.046-0.91 0.03-1.559 1.006-0.089 2.03-0.181 3.15-0.19z" fill="#1FB3DA"/>
<path d="m879.26 430.33c0.119 0.493 0.086 0.969 0.038 1.648-1.05 0-2.013 0-3.132-9e-3 -0.117-0.492-0.079-0.974-0.023-1.656 1.029 0 1.996 0 3.117 0.017z" fill="#01AAD7"/>
<path d="m870.9 432.01c0.11 0.494 0.065 0.968-1e-3 1.657-1.022 0-1.978 0-3.088-9e-3 -0.121-0.49-0.089-0.971-0.043-1.668 1.044 0 2.011 0 3.132 0.02z" fill="#17B5DA"/>
<path d="m1050.7 390.93c-0.01 2.375-1.87 1.423-3.18 1.746-0.09-0.466-0.04-0.907 0.04-1.548 1-0.093 2.02-0.187 3.14-0.198z" fill="#23B4DA"/>
<path d="m946.02 414.89c0.116 0.492 0.078 0.968 0.022 1.663-1.03 0-1.988 0-3.1-7e-3 -0.119-0.487-0.085-0.968-0.035-1.673 1.03 0 1.995 0 3.113 0.017z" fill="#11B6DB"/>
<path d="m1021.5 397.79c0.12 0.493 0.08 0.97 0.03 1.648-1.04 0-2.01 0-3.12-9e-3 -0.12-0.492-0.09-0.975-0.04-1.655 1.03 0 2 0 3.13 0.016z" fill="#00B1DA"/>
<path d="m1043.6 392.72c0.12 0.494 0.1 0.978 0.06 1.678-1.06 0-2.03 0-3.16-0.019-0.09-0.491-0.03-0.964 0.05-1.669 0.99 0 1.94 0 3.05 0.01z" fill="#15B4DB"/>
<path d="m1006.1 401.15c0.11 0.493 0.06 0.965 0 1.655-1.02 0-1.98 0-3.08-6e-3 -0.13-0.489-0.1-0.972-0.06-1.669 1.05 0 2.02 0 3.14 0.02z" fill="#15B4DB"/>
<path d="m1016.7 408.09c-0.1-0.466-0.06-0.904 0-1.533 1.01-0.102 2.03-0.204 3.13-0.227 0.05 2.417-1.84 1.434-3.13 1.76z" fill="#14AED8"/>
<path d="m976.85 408.14c0.127 0.497 0.102 0.983 0.067 1.677-1.068 0-2.046 0-3.183-0.018-0.099-0.495-0.037-0.972 0.052-1.669 0.992 0 1.952 0 3.064 0.01z" fill="#06AAD7"/>
<path d="m968.48 409.83c0.121 0.494 0.089 0.977 0.043 1.664-1.055 0-2.027 0-3.157-0.023-0.096-0.493-0.035-0.964 0.055-1.653 0.996 0 1.951 0 3.059 0.012z" fill="#15B4DB"/>
<path d="m1011.7 409.79c-0.1-0.504-0.04-0.984 0.03-1.646 1.02 0 1.95 0 3.03-1e-3 0.15 0.483 0.15 0.966 0.15 1.67-1.12 0-2.09 0-3.21-0.023z" fill="#14AED8"/>
<path d="m961.43 411.52c0.124 0.494 0.094 0.975 0.052 1.665-1.054 0-2.022 0-3.146-0.012-0.107-0.491-0.059-0.971 0.012-1.667 1.006 0 1.968 0 3.082 0.014z" fill="#02AFD8"/>
<path d="m841.66 438.98c0.368 1.123-0.211 1.451-1.216 1.46-0.59 6e-3 -1.18 0.148-1.922 0.205-0.087-0.5-0.022-0.976 0.073-1.669 0.992 0 1.953 0 3.065 4e-3z" fill="#06AAD7"/>
<path d="m1021.7 406.38c-0.09-0.586-0.04-1.133 0.04-1.884 0.58 0 1.12 0 1.81 0.025 0.12 1.241-0.1 2.259-1.85 1.859z" fill="#14AED8"/>
<path d="m1026.7 404.58c-0.06-0.57-0.03-1.059 0.01-1.765 0.61 0 1.15 0 1.83 0.019 0.15 1.285-0.06 2.321-1.84 1.746z" fill="#14AED8"/>
<path d="m1057.8 390.71c-0.61 0.067-1.23 0.134-1.93 0.116-0.06-0.567-0.03-1.047 0-1.734 0.6 0 1.13 0 1.79 0.149 0.14 0.589 0.14 1.029 0.14 1.469z" fill="#0DB1D9"/>
<path d="m852.12 471.46c-1.323 0.196-2.149-0.201-1.825-1.847 1.172-0.05 2.215 0.139 1.825 1.847z" fill="#0084CA"/>
<path d="m965.03 426.9c-0.274-1.343 0.336-1.86 1.76-1.645 0.12 0.486 0.099 0.971 0.068 1.667-0.619 0-1.15 0-1.828-0.022z" fill="#20BADD"/>
<path d="m1072.9 385.76c0.47-0.012 0.93-0.024 1.53 0.115 0.15 0.608 0.15 1.066 0.15 1.524-0.5 0.055-1.01 0.109-1.6-0.047-0.09-0.672-0.08-1.132-0.08-1.592z" fill="#0FA7D6"/>
<path d="m1060.9 391.07c0.57-0.011 1.13-0.022 1.84-0.035 0.14 0.475 0.14 0.953 0.14 1.649-0.65 0-1.17 0-1.84-0.147-0.14-0.587-0.14-1.027-0.14-1.467z" fill="#0DABD7"/>
<path d="m917.07 444.03c-0.279-1.34 0.308-1.893 1.767-1.655 0.114 0.489 0.085 0.972 0.047 1.591-0.605 0.029-1.136 0.054-1.814 0.064z" fill="#29BFDE"/>
<path d="m1074.8 387.4c-0.15-0.46-0.15-0.918-0.16-1.511 0.33-0.151 0.71-0.271 0.98-0.157 0.38 0.155 0.69 0.489 1.02 0.746-0.34 0.307-0.66 0.648-1.04 0.903-0.16 0.103-0.44 0.019-0.8 0.019z" fill="#0DB3DA"/>
<path d="m936.21 437.01c-0.243-1.079-0.099-1.93 1.459-1.64 0.161 1.012 0.099 1.936-1.459 1.64z" fill="#00B9DC"/>
<path d="m1072.8 385.74c0.14 0.479 0.14 0.939 0.12 1.541-0.34 0.138-0.68 0.135-1.15 0.124-0.19-0.013-0.25-0.019-0.41-0.029-0.21-1.047-0.12-1.913 1.44-1.636z" fill="#0DB3DA"/>
<path d="m1058 390.72c-0.14-0.444-0.14-0.884-0.14-1.453 0.48-0.143 0.96-0.157 1.58-0.137 0.18 1.035 0 1.826-1.44 1.59z" fill="#0FA7D6"/>
<path d="m1055.9 394.34c-0.22-1.082-0.01-1.867 1.47-1.599 0.24 1.084 0.07 1.913-1.47 1.599z" fill="#0DABD7"/>
<path d="m1037.2 401.1c-0.24-1.086-0.07-1.909 1.46-1.624 0.2 1.041 0.09 1.929-1.46 1.624z" fill="#00B9DC"/>
<path d="m1032.1 402.79c-0.24-1.07-0.09-1.918 1.45-1.644 0.17 1.009 0.12 1.941-1.45 1.644z" fill="#02B5DA"/>
<path d="m989.2 418.21c-0.232-1.072-0.087-1.923 1.463-1.63 0.195 1.044 0.075 1.916-1.463 1.63z" fill="#13BDDD"/>
<path d="m984.18 419.91c-0.242-1.08-0.098-1.932 1.462-1.642 0.139 0.995 0.096 1.938-1.462 1.642z" fill="#02B5DA"/>
<path d="m960.02 428.58c-0.239-1.095-0.026-1.885 1.477-1.61 0.215 1.067 0.06 1.916-1.477 1.61z" fill="#02B5DA"/>
<path d="m941.23 435.32c-0.232-1.078-0.072-1.92 1.475-1.612 0.181 1.044 0.032 1.894-1.475 1.612z" fill="#20BADD"/>
<path d="m855.5 435.4c0.195 1.049 0.013 1.848-1.447 1.479-0.147-0.505-0.153-0.873-0.16-1.241 0.492-0.089 0.984-0.178 1.607-0.238z" fill="#0DB1D9"/>
<path d="m853.76 435.65c0.144 0.358 0.15 0.726 0.158 1.232-0.502 0.2-1.006 0.262-1.59 0.242-0.237-1.154 0.234-1.603 1.432-1.474z" fill="#1FB3DA"/>
<path d="m912.06 445.68c-0.242-1.106-0.013-1.884 1.487-1.601 0.202 1.063 0.042 1.913-1.487 1.601z" fill="#02B5DA"/>
<path d="m907.03 447.38c-0.235-1.07-0.076-1.899 1.447-1.631 0.209 1.04 0.122 1.935-1.447 1.631z" fill="#02B5DA"/>
<path d="m893.28 452.44c-0.235-1.064-0.112-1.931 1.455-1.621 0.191 1.043 0.032 1.874-1.455 1.621z" fill="#29BFDE"/>
<path d="m864.1 462.81c-0.244-1.095-0.05-1.904 1.477-1.621 0.204 1.059 0.065 1.923-1.477 1.621z" fill="#00B9DC"/>
<path d="m853.85 474.8c-1.044 0.183-1.891 0.036-1.602-1.472 1.118-0.272 1.891-0.039 1.602 1.472z" fill="#068CB5"/>
<path d="m855.54 478.14c-1.069 0.227-1.889 0.055-1.617-1.458 1.07-0.236 1.923-0.096 1.617 1.458z" fill="#0378A6"/>
<path d="m858.92 483.21c-1.068 0.225-1.922 0.083-1.629-1.463 1.06-0.218 1.922-0.085 1.629 1.463z" fill="#2DB0CD"/>
<path d="m860.59 486.56c-1.091 0.234-1.886 0.025-1.619-1.472 1.005-0.147 1.946-0.099 1.619 1.472z" fill="#089BBF"/>
<path d="m862.28 490.21c-1.119 0.245-1.934 0.044-1.609-1.503 1.064-0.183 1.935-0.037 1.609 1.503z" fill="#0283AE"/>
<path d="m1060.7 391.07c0.13 0.443 0.13 0.883 0.13 1.452-0.36 0.143-0.73 0.157-1.24 0.138-0.04-0.751-0.33-1.735 1.11-1.59z" fill="#0FA7D6"/>
<path d="m666.94 618.83c0.14 0.508 0.14 0.997 0.14 1.648-0.502 0-0.926 0-1.491 5e-3 -0.276-1.027-0.256-1.933 1.351-1.653z" fill="#0ff"/>
<path d="m665.21 623.84c0.155 0.461 0.171 0.919 0.165 1.513-0.561-0.118-1.099-0.37-1.638-0.623 0.445-0.298 0.89-0.596 1.473-0.89z" fill="#80FFFF"/>
</g>
</g>
<defs>
<clipPath id="b">
<rect width="1200" height="1200" fill="#fff"/>
</clipPath>
<clipPath id="a">
<rect transform="translate(117 382)" width="966" height="322" fill="#fff"/>
</clipPath>
</defs>
</svg>
