<svg width="60" height="60" viewBox="0 0 60 60" fill="none" xmlns="http://www.w3.org/2000/svg">
<g clip-path="url(#clip0_613_2057)">
<path d="M0 30C0 13.4315 13.4315 0 30 0V0C46.5685 0 60 13.4315 60 30V30C60 46.5685 46.5685 60 30 60V60C13.4315 60 0 46.5685 0 30V30Z" fill="#49CC68"/>
<g clip-path="url(#clip1_613_2057)">
<path d="M38.5278 32.2875C37.6944 33.9375 36.7222 35.3125 35.75 36.55C36.5833 33.6625 36.1667 29.8125 34.5 26.2375C33.6667 24.3125 32.4167 22.6625 31.0278 21.15C33.1111 19.5 35.4722 18.95 37.1389 19.775C38.25 20.325 39.0833 21.2875 39.6389 22.6625C40.4722 25.275 40.0555 28.85 38.5278 32.2875ZM20.4722 32.2875C18.9444 28.85 18.5277 25.275 19.5 22.6625C20.0555 21.2875 20.8889 20.325 22 19.775C23.6667 19.0875 26.0278 19.5 28.1111 21.15C26.7222 22.525 25.6111 24.3125 24.6389 26.2375C22.9722 29.95 22.5555 33.6625 23.3889 36.55C22.2778 35.45 21.3055 33.9375 20.4722 32.2875ZM31.1667 39.7125C30.6111 39.9875 30.1944 39.9875 29.5 39.9875C28.9444 39.9875 28.3889 39.85 27.8333 39.7125C24.5 38.2 23.8056 32.425 26.3056 27.0625C27.1389 25.4125 28.1111 23.7625 29.3611 22.525C30.6111 23.7625 31.5833 25.275 32.4167 27.0625C35.0555 32.425 34.5 38.2 31.1667 39.7125ZM35.6111 17.7125C33.6666 17.575 31.4444 18.4 29.5 20.05C27.5555 18.4 25.3333 17.7125 23.3889 17.7125C25.1944 16.475 27.2778 15.925 29.5 15.925C31.7222 15.7875 33.9444 16.475 35.6111 17.7125ZM41.4444 22.1125C39.7778 17.3 35.0555 14 29.5 14C24.0833 14 19.2222 17.3 17.5555 22.1125C16.4444 25.1375 16.8611 29.2625 18.6667 32.975C21.1667 38.2 25.4722 41.775 29.3611 41.775C33.25 41.775 37.6944 38.2 40.0555 32.975C42.1389 29.2625 42.5555 25.1375 41.4444 22.1125ZM32.8333 44.6625C31.7222 44.9375 30.6111 45.075 29.6389 45.075H29.5C28.3889 45.075 27.2778 44.9375 26.1667 44.6625C25.6111 44.525 25.0556 44.8 24.9167 45.2125C24.7778 45.7625 25.0556 46.175 25.6111 46.3125C26.8611 46.725 28.25 46.8625 29.5 46.8625H29.6389C30.8889 46.8625 32.1389 46.725 33.3889 46.3125C33.9444 46.175 34.2222 45.625 34.0833 45.2125C33.9444 44.8 33.3889 44.525 32.8333 44.6625Z" fill="white"/>
</g>
</g>
<defs>
<clipPath id="clip0_613_2057">
<rect width="60" height="60" rx="30" fill="white"/>
</clipPath>
<clipPath id="clip1_613_2057">
<rect width="25" height="33" fill="white" transform="translate(17 14)"/>
</clipPath>
</defs>
</svg>
