<svg width="60" height="60" viewBox="0 0 60 60" fill="none" xmlns="http://www.w3.org/2000/svg">
<circle cx="30" cy="30" r="30" fill="#F4F4F4"/>
<path fill-rule="evenodd" clip-rule="evenodd" d="M36.623 24.4C36.7837 24.4319 36.9445 24.4634 37.1053 24.4949L37.1053 24.4949C37.5133 24.5748 37.9213 24.6547 38.3277 24.7419C38.467 24.7718 38.603 24.8171 38.7502 24.8661C38.8207 24.8895 38.8937 24.9138 38.9709 24.9377L38.4436 27.3596C38.2139 27.3142 37.9875 27.266 37.7631 27.2182C37.2323 27.1051 36.7127 26.9944 36.1875 26.9286C35.8203 26.8825 35.4356 26.941 35.0604 26.9982C35.0148 27.0051 34.9694 27.012 34.9242 27.0187C34.7336 27.047 34.5411 27.1507 34.3783 27.2623C33.8408 27.6307 33.8026 28.1978 34.3088 28.6056C34.5592 28.8072 34.843 28.9691 35.1253 29.1301C35.1838 29.1635 35.2422 29.1968 35.3002 29.2305C35.5177 29.3565 35.7383 29.4772 35.9589 29.5978L35.9589 29.5978C36.2194 29.7403 36.4798 29.8827 36.7351 30.034C39.2736 31.5387 38.5589 34.527 36.8881 35.709C36.0039 36.3344 35.0138 36.6406 33.9539 36.767C33.8719 36.7768 33.791 36.7954 33.71 36.8141C33.6725 36.8227 33.6349 36.8313 33.5972 36.8391H32.2525C32.0845 36.8116 31.9163 36.7856 31.748 36.7596C31.3544 36.6988 30.9608 36.638 30.5713 36.5572C30.2958 36.5001 30.0257 36.4172 29.7508 36.3329L29.7507 36.3328L29.7506 36.3328C29.6263 36.2947 29.5012 36.2562 29.3741 36.2198L29.9423 33.6033C29.994 33.6234 30.0439 33.6421 30.0924 33.6602C30.1929 33.6979 30.2875 33.7333 30.3796 33.7739C31.4147 34.2309 32.4953 34.4388 33.62 34.2909C33.9648 34.2456 34.3226 34.1215 34.6215 33.9442C35.2134 33.593 35.2721 32.9003 34.7548 32.4491C34.5067 32.2327 34.2155 32.063 33.927 31.8948L33.9269 31.8947C33.8768 31.8656 33.8268 31.8364 33.7772 31.8071C33.5689 31.6841 33.3558 31.5687 33.1427 31.4534L33.1426 31.4534L33.1426 31.4534C32.7944 31.2649 32.4465 31.0765 32.1205 30.8554C29.9067 29.3537 30.5564 26.8598 31.9545 25.7038C32.8387 24.9727 33.8734 24.6236 34.9918 24.4749C35.0733 24.4641 35.1536 24.4449 35.234 24.4257L35.234 24.4257C35.2711 24.4169 35.3082 24.408 35.3454 24.4H36.623ZM10.5092 24.7359C10.4728 24.7602 10.4364 24.7844 10.4 24.8035V24.938L10.4606 24.9583C10.5033 24.9726 10.546 24.987 10.5889 25.0006C10.8583 25.0864 11.128 25.1713 11.3977 25.2562L11.3977 25.2562L11.3978 25.2562C12.012 25.4495 12.6262 25.6429 13.2372 25.8458C13.8421 26.0468 14.1537 26.4889 14.3108 27.1072C14.7707 28.9174 15.2473 30.7233 15.7238 32.5292C15.8803 33.1221 16.0367 33.7151 16.1926 34.3081C16.3334 34.8436 16.476 35.3786 16.6194 35.916L16.6194 35.916L16.6194 35.916C16.6833 36.1556 16.7473 36.3956 16.8113 36.6364C17.0916 36.6364 17.3693 36.6356 17.645 36.6348H17.6452H17.6454H17.6455H17.6455C18.3727 36.6327 19.0867 36.6306 19.8004 36.6434C20.0677 36.6483 20.1877 36.5631 20.2915 36.3179C21.5213 33.4139 22.7578 30.5126 23.9942 27.6113C24.375 26.7179 24.7557 25.8245 25.1363 24.931C25.1607 24.8736 25.1806 24.8143 25.2042 24.7441L25.2042 24.7441L25.2043 24.7437C25.2165 24.7075 25.2296 24.6683 25.2448 24.625C24.9688 24.625 24.696 24.6258 24.4253 24.6265C23.7131 24.6285 23.0165 24.6303 22.3202 24.6186C22.057 24.6142 21.9296 24.6883 21.8289 24.9418C21.0695 26.8542 20.3003 28.7626 19.5311 30.6711L19.5306 30.6725L19.53 30.674C19.3344 31.1593 19.1388 31.6446 18.9433 32.13C18.8925 32.2563 18.84 32.3821 18.7765 32.5346L18.7763 32.535C18.7441 32.6121 18.7092 32.6959 18.6701 32.7901C18.6537 32.7294 18.6407 32.6832 18.6302 32.6461L18.6302 32.646C18.6129 32.585 18.6025 32.5483 18.5954 32.511C18.4499 31.7559 18.3047 31.0008 18.1596 30.2456L18.1596 30.2456C17.8826 28.8046 17.6057 27.3637 17.3262 25.9233C17.1628 25.0812 16.6333 24.6304 15.7845 24.6263C14.1045 24.6181 12.4243 24.6199 10.7443 24.631C10.6657 24.6315 10.5875 24.6837 10.5092 24.7359ZM45.7743 32.378H43.1283L44.7564 27.9585L44.8335 27.9564L45.7743 32.378ZM49.6 36.6374V36.5702C49.543 36.3195 49.4851 36.0691 49.4272 35.8186L49.4272 35.8185L49.4272 35.8183C49.3016 35.2754 49.1761 34.7325 49.06 34.1876C48.6496 32.2615 48.2417 30.3348 47.8339 28.4082L47.8336 28.407L47.8334 28.406C47.5865 27.2395 47.3396 26.073 47.092 24.9066C47.0797 24.8484 47.0598 24.7918 47.0389 24.7326V24.7326V24.7326L47.0388 24.7324L47.0387 24.7321C47.0289 24.7041 47.0188 24.6755 47.0093 24.6459C46.7281 24.6459 46.4476 24.6438 46.1677 24.6417C45.504 24.6368 44.8433 24.6318 44.1836 24.6549C43.6245 24.6745 43.2236 24.999 43.0021 25.5175C41.4474 29.1559 39.8952 32.7954 38.3431 36.435C38.3296 36.4667 38.3207 36.5005 38.309 36.5454L38.3089 36.5455C38.3024 36.5706 38.2949 36.5992 38.2852 36.6328C38.5026 36.6328 38.7177 36.6332 38.9312 36.6335C39.4434 36.6342 39.946 36.635 40.4486 36.6313C40.5516 36.6305 40.6612 36.6384 40.7713 36.6463C41.0541 36.6667 41.3403 36.6873 41.5266 36.5624C41.6972 36.4481 41.768 36.1831 41.8384 35.9195C41.8679 35.8088 41.8974 35.6985 41.9341 35.5996L41.9356 35.5957C42.2188 34.8339 42.2189 34.8335 43.0485 34.8336C43.3059 34.8336 43.5634 34.8342 43.8208 34.8348C44.5378 34.8364 45.2548 34.8381 45.9716 34.8274C46.2229 34.8237 46.3288 34.9082 46.3725 35.1496C46.434 35.4887 46.5069 35.8257 46.5832 36.1787L46.5834 36.1797L46.5839 36.1819C46.6161 36.3305 46.6488 36.4818 46.6816 36.6374H49.6ZM24.3093 35.3828C24.2211 35.7916 24.1324 36.2031 24.0426 36.6186H27.1881L29.7944 24.6259C29.5182 24.6259 29.2481 24.6278 28.9823 24.6296C28.3397 24.6341 27.7225 24.6384 27.1064 24.6156C26.7359 24.6018 26.6167 24.7254 26.5429 25.0745C26.1517 26.9226 25.7483 28.7681 25.345 30.6137C25.1897 31.3241 25.0344 32.0346 24.8798 32.7452C24.6895 33.6199 24.5008 34.4948 24.3093 35.3828Z" fill="#1E3A96"/>
<rect opacity="0.01" x="9" y="9" width="42" height="42" fill="#FF0000" fill-opacity="0.46"/>
</svg>
