<svg width="1200" height="1200" viewBox="0 0 1200 1200" fill="none" xmlns="http://www.w3.org/2000/svg">
<g clip-path="url(#clip0_943_24)">
<path d="M600 1200C931.371 1200 1200 931.371 1200 600C1200 268.629 931.371 0 600 0C268.629 0 0 268.629 0 600C0 931.371 268.629 1200 600 1200Z" fill="#FFD900"/>
<path d="M1062 546.008C1062 465.37 996.63 400 915.992 400C835.354 400 769.984 465.37 769.984 546.008C769.984 626.646 835.354 692.016 915.992 692.016C996.63 692.016 1062 626.646 1062 546.008Z" fill="white"/>
<path d="M409.318 558.349C409.318 635.532 369.125 680.698 320.401 680.698C310.114 681.265 299.899 678.674 291.126 673.27C282.354 667.867 275.443 659.911 271.321 650.469C265.022 660.105 256.342 667.95 246.121 673.246C235.9 678.542 224.485 681.109 212.98 680.698C184.845 680.698 152.861 665.398 152.861 608.489V546.607C152.861 530.958 139 527.4 139 519.58V518.513C139.105 516.627 139.879 514.841 141.184 513.475C142.489 512.11 144.238 511.255 146.117 511.065L191.63 504.304C200.518 503.236 205.855 504.66 205.855 513.192L205.152 629.5C204.796 648.351 211.549 660.432 224.359 660.432C250.326 660.432 263.476 621.663 263.476 589.266V546.59C263.476 530.942 249.606 527.384 249.606 519.564V518.496C249.733 516.562 250.558 514.741 251.928 513.37C253.299 512 255.12 511.175 257.054 511.048L298.662 503.601C307.566 502.177 313.251 504.668 313.251 513.208L312.208 628.44C311.853 648.367 317.546 660.449 331.771 660.449C356.679 660.449 381.927 621.68 381.927 584.698C381.927 554.079 349.571 552.325 349.571 524.934C349.438 521.911 349.953 518.895 351.083 516.088C352.212 513.281 353.929 510.749 356.118 508.66C358.308 506.572 360.919 504.977 363.776 503.981C366.633 502.986 369.67 502.613 372.684 502.889C395.44 502.864 409.318 523.138 409.318 558.349Z" fill="black"/>
<path d="M439.168 671.112V669.689C439.168 660.785 452.673 657.946 452.673 642.654V562.268C452.673 546.62 439.168 542.706 439.168 534.878V533.818C439.168 530.616 442.006 528.853 446.616 526.371L491.07 504.325C499.974 500.047 505.659 505.029 505.659 511.442V642.687C505.659 657.979 520.555 660.818 520.555 669.722V671.145C520.555 674.704 517.352 677.186 512.379 677.186H446.988C442.354 677.153 439.168 674.671 439.168 671.112ZM444.133 449.866C444.133 432.083 458.358 418.934 479.344 418.934C500.33 418.934 513.835 432.091 513.835 449.866C513.835 468.014 500.33 481.18 479.344 481.18C458.358 481.18 444.15 468.014 444.15 449.875L444.133 449.866Z" fill="black"/>
<path d="M546.195 671.114V669.69C546.195 660.786 560.065 657.948 560.065 643.003V468.015C560.065 452.003 546.195 448.444 546.195 440.98V439.59C546.195 436.032 549.034 434.244 553.304 432.465L598.114 410.42C607.374 405.794 612.703 410.776 612.703 416.825V643.028C612.703 657.973 627.996 660.811 627.996 669.715V671.138C627.996 674.697 624.437 677.179 619.812 677.179H554.363C549.398 677.155 546.195 674.672 546.195 671.114Z" fill="black"/>
<path d="M652.902 671.114V669.69C652.902 660.786 666.763 657.948 666.763 643.003V468.015C666.763 452.003 652.902 448.444 652.902 440.98V439.59C652.902 436.032 655.741 434.244 660.011 432.465L704.821 410.42C714.064 405.794 719.41 410.776 719.41 416.825V643.028C719.41 657.973 734.695 660.811 734.695 669.715V671.138C734.695 674.697 731.136 677.179 726.519 677.179H661.07C656.097 677.155 652.902 674.672 652.902 671.114Z" fill="black"/>
<path d="M450.805 737.488H471.973C474.832 737.428 477.681 737.856 480.397 738.754C482.578 739.48 484.588 740.643 486.305 742.172C487.845 743.575 489.049 745.305 489.831 747.236C490.612 749.203 491.009 751.301 490.997 753.418C491.021 755.284 490.658 757.136 489.93 758.855C489.287 760.37 488.398 761.768 487.298 762.992C486.327 764.076 485.187 764.995 483.922 765.715C482.907 766.328 481.783 766.741 480.612 766.931C482.101 767.163 483.56 767.554 484.965 768.098C488.458 769.405 491.301 772.028 492.884 775.405C493.882 777.626 494.36 780.046 494.283 782.48C494.387 785.382 493.755 788.263 492.446 790.855C491.266 793.039 489.559 794.894 487.48 796.25C485.208 797.688 482.679 798.674 480.033 799.155C477.004 799.724 473.928 800.001 470.847 799.982H450.805V737.488ZM470.665 763.53C472.06 763.522 473.449 763.35 474.803 763.017C476.135 762.683 477.4 762.124 478.543 761.362C479.662 760.616 480.594 759.622 481.266 758.457C481.983 757.136 482.338 755.649 482.292 754.146C482.361 752.565 482.007 750.993 481.266 749.595C480.604 748.473 479.667 747.539 478.543 746.88C477.388 746.217 476.12 745.773 474.803 745.573C473.434 745.355 472.051 745.244 470.665 745.242H459.519V763.513L470.665 763.53ZM470.384 792.187C472.076 792.184 473.766 792.093 475.448 791.914C477.117 791.744 478.747 791.303 480.273 790.606C481.728 789.932 482.977 788.881 483.889 787.561C484.799 785.868 485.275 783.976 485.275 782.054C485.275 780.132 484.799 778.24 483.889 776.547C483.016 775.187 481.834 774.052 480.438 773.237C479.004 772.408 477.431 771.847 475.796 771.582C474.183 771.302 472.55 771.158 470.914 771.151H459.494V792.137L470.384 792.187Z" fill="black"/>
<path d="M543.049 737.482H552.227L576.68 799.96H566.659L560.196 782.582H534.543L528.08 799.96H518.621L543.049 737.482ZM557.481 774.953L547.361 747.504L537.149 774.953H557.481Z" fill="black"/>
<path d="M603.574 737.482H612.677L646.771 786.306V737.482H655.584V799.96H646.58L612.396 751.07V799.96H603.582L603.574 737.482Z" fill="black"/>
<path d="M688.523 737.482H697.428V765.866L723.552 737.482H733.872L710.643 762.962L736.677 799.96H725.919L704.561 769.342L697.444 777.021V799.968H688.54L688.523 737.482Z" fill="black"/>
</g>
<defs>
<clipPath id="clip0_943_24">
<rect width="1200" height="1200" fill="white"/>
</clipPath>
</defs>
</svg>
