<svg width="60" height="60" viewBox="0 0 60 60" fill="none" xmlns="http://www.w3.org/2000/svg">
<path d="M0 30C0 13.4315 13.4315 0 30 0V0C46.5685 0 60 13.4315 60 30V30C60 46.5685 46.5685 60 30 60V60C13.4315 60 0 46.5685 0 30V30Z" fill="black"/>
<mask id="mask0_620_2031" style="mask-type:luminance" maskUnits="userSpaceOnUse" x="14" y="16" width="32" height="29">
<path d="M46 16H14V44.8766H46V16Z" fill="white"/>
</mask>
<g mask="url(#mask0_620_2031)">
<path d="M37.3075 38.3057H40.9318C42.2873 38.3057 43.2302 37.6869 43.2302 36.4198C43.2302 35.1529 42.2873 34.5341 40.9318 34.5341H37.3075V38.3057ZM37.3075 44.8766H42.1399C44.7035 44.8766 46.0294 43.5506 46.0294 40.9871V38.3057H45.9411C45.2044 40.5452 43.2892 41.2228 41.0203 41.2228H37.4254C37.3371 41.2228 37.3075 41.2523 37.3075 41.3407V44.8766ZM30.5009 36.4198L34.2137 40.0147V32.8251L30.5009 36.4198ZM17.8895 44.8766H34.2137V44.0515C34.2137 42.6078 34.7146 41.7827 35.8637 41.3407V41.2523H31.2965C31.0608 41.2523 30.9724 41.2228 30.7956 41.0461L28.4089 38.5709L25.9337 41.0755C25.8158 41.1934 25.7275 41.2523 25.4917 41.2523H21.8085C21.6022 41.2523 21.6022 41.1344 21.7201 41.0165L26.4347 36.4494L21.6317 31.7937C21.5138 31.6758 21.5433 31.558 21.7495 31.558H25.4623C25.6685 31.558 25.7569 31.5875 25.8748 31.7348L28.4677 34.3278L30.9135 31.7348C31.0314 31.617 31.1197 31.558 31.2965 31.558H40.9908C43.2302 31.558 45.2044 32.2946 45.9411 34.5341H46.0294V19.8895C46.0294 17.326 44.7035 16 42.1399 16H17.8895C15.326 16 14 17.326 14 19.8895V41.0165C14 43.5506 15.326 44.8766 17.8895 44.8766Z" fill="white"/>
</g>
</svg>
